<?xml version="1.0" standalone="no"?>
<!DOCTYPE svg PUBLIC "-//W3C//DTD SVG 1.1//EN" "http://www.w3.org/Graphics/SVG/1.1/DTD/svg11.dtd" >
<svg xmlns="http://www.w3.org/2000/svg" xmlns:xlink="http://www.w3.org/1999/xlink" version="1.1">
<metadata>
Created by FontForge 20170731 at Wed Jul 27 16:40:23 2016
 By Aleksey,,,
copyright missing
</metadata>
<defs>
<font id="AnebaNeue-UltraLight" horiz-adv-x="0" >
  <font-face 
    font-family="AnebaNeue-UltraLight"
    font-weight="400"
    font-stretch="normal"
    units-per-em="1000"
    panose-1="0 0 3 0 0 0 0 0 0 0"
    ascent="781"
    descent="-219"
    x-height="500"
    cap-height="700"
    bbox="-165 -243 1056 971"
    underline-thickness="50"
    underline-position="-150"
    unicode-range="U+0020-25CA"
  />
<missing-glyph horiz-adv-x="470" 
d="M385 740v-940h-298v940h298zM313 677h-155v-31h61v-35h-62v-31h156v31h-62v35h62v31zM251 556h-94v-98h156v32h-62v66zM219 524v-34h-31v34h31zM313 433h-156v-31h62v-35h-62v-31h94v66h62v31zM313 376h-31v-62h-125v-32h156v94zM313 262h-94v-53h32v22h31v-45h-94v76
h-31v-107h156v107zM313 99h-156v-106h156v106zM282 68v-44h-94v44h94zM313 -29h-156v-31h66l-66 -44v-31h156v31h-96l66 44h30v31z" />
    <glyph glyph-name=".notdef" horiz-adv-x="470" 
d="M385 740v-940h-298v940h298zM313 677h-155v-31h61v-35h-62v-31h156v31h-62v35h62v31zM251 556h-94v-98h156v32h-62v66zM219 524v-34h-31v34h31zM313 433h-156v-31h62v-35h-62v-31h94v66h62v31zM313 376h-31v-62h-125v-32h156v94zM313 262h-94v-53h32v22h31v-45h-94v76
h-31v-107h156v107zM313 99h-156v-106h156v106zM282 68v-44h-94v44h94zM313 -29h-156v-31h66l-66 -44v-31h156v31h-96l66 44h30v31z" />
    <glyph glyph-name=".null" 
 />
    <glyph glyph-name="nonmarkingreturn" horiz-adv-x="333" 
 />
    <glyph glyph-name="space" unicode=" " horiz-adv-x="240" 
 />
    <glyph glyph-name="exclam" unicode="!" horiz-adv-x="265" 
d="M163 700l-5 -500q-25 -4 -50 0l-5 500q30 8 60 0zM133 -10q-43 0 -43 42q0 43 43 43q42 0 42 -43q0 -42 -42 -42z" />
    <glyph glyph-name="quotedbl" unicode="&#x22;" horiz-adv-x="315" 
d="M65 520l-5 180q27 8 55 0l-5 -180q-22 -4 -45 0zM205 520l-5 180q27 8 55 0l-5 -180q-22 -4 -45 0z" />
    <glyph glyph-name="numbersign" unicode="#" horiz-adv-x="673" 
d="M652 470h-130l-21 -240h130q5 -22 -4 -45h-130l-16 -185q-25 -7 -50 0l16 185h-250l-16 -185q-25 -7 -50 0l16 185h-130q-4 22 4 45h130l21 240h-130q-4 22 4 45h130l16 185q26 7 50 0l-16 -185h250l16 185q26 7 50 0l-16 -185h130q5 -22 -4 -45zM451 230l21 240h-250
l-21 -240h250z" />
    <glyph glyph-name="dollar" unicode="$" horiz-adv-x="524" 
d="M286 382q44 -14 69.5 -25t57 -33t46.5 -56.5t15 -81.5q0 -92 -56 -144t-162 -52q-11 0 -39 2l-17 -96q-24 -2 -49 8l17 96q-62 15 -118 51q3 27 20 49q52 -35 107 -49l51 292q-38 13 -62.5 24.5t-50.5 32t-39 52.5t-13 75q0 84 58.5 133.5t151.5 49.5q13 0 20 -1l14 82
q26 1 50 -9l-14 -80q59 -14 115 -53q-3 -27 -20 -49q-56 38 -104 52zM122 527q0 -52 30 -80t86 -48l46 261h-11q-72 0 -111.5 -35t-39.5 -98zM255 40q82 0 120.5 38t38.5 101t-35.5 94t-102.5 54l-50 -285q10 -2 29 -2z" />
    <glyph glyph-name="percent" unicode="%" horiz-adv-x="793" 
d="M675 700l-509 -727q-25 9 -41 29l509 727q25 -9 41 -29zM197 710q68 0 102 -36.5t34 -94.5v-93q0 -58 -34 -94.5t-102 -36.5t-102.5 36.5t-34.5 94.5v93q0 58 34.5 94.5t102.5 36.5zM280 502v61q0 46 -18.5 70t-64.5 24q-47 0 -65 -24t-18 -70v-61q0 -46 18 -70t65 -24
q46 0 64.5 24t18.5 70zM597 345q68 0 102 -36.5t34 -94.5v-93q0 -58 -34 -94.5t-102 -36.5t-102.5 36.5t-34.5 94.5v93q0 58 34.5 94.5t102.5 36.5zM680 137v61q0 46 -18.5 70t-64.5 24q-47 0 -65 -24t-18 -70v-61q0 -46 18 -70t65 -24q46 0 64.5 24t18.5 70z" />
    <glyph glyph-name="ampersand" unicode="&#x26;" horiz-adv-x="551" 
d="M461 118l100 -118q-35 -7 -70 0l-64 75q-80 -85 -205 -85q-97 0 -154.5 48.5t-57.5 127.5q0 71 41 118t117 94q-34 40 -49.5 60.5t-29.5 54t-14 67.5q0 67 45.5 108.5t114.5 41.5q70 0 115 -41t45 -112q0 -31 -11.5 -57.5t-35.5 -50.5t-45 -40t-56 -39l180 -212
q46 80 58 202q25 7 50 0q-14 -147 -74 -242zM135 560q0 -35 17 -66t64 -87q59 37 89 69t30 76q0 108 -99 108q-49 0 -75 -26t-26 -74zM227 40q103 0 167 73l-194 227q-62 -40 -96 -80t-34 -93q0 -57 42 -92t115 -35z" />
    <glyph glyph-name="quotesingle" unicode="'" horiz-adv-x="175" 
d="M65 520l-5 180q27 8 55 0l-5 -180q-22 -4 -45 0z" />
    <glyph glyph-name="parenleft" unicode="(" horiz-adv-x="285" 
d="M235 830q-115 -262 -115 -505t115 -505q-23 -10 -45 -10q-130 269 -130 515t130 515q22 0 45 -10z" />
    <glyph glyph-name="parenright" unicode=")" horiz-adv-x="285" 
d="M95 840q130 -269 130 -515t-130 -515q-22 0 -45 10q115 262 115 505t-115 505q23 10 45 10z" />
    <glyph glyph-name="asterisk" unicode="*" horiz-adv-x="379" 
d="M162 750q28 5 55 0l-14 -162h-27zM29 656l147 -68l-8 -26l-158 43q4 24 19 51zM350 656q15 -27 19 -51l-158 -43l-8 26zM55 445l113 117l22 -18l-93 -133q-19 10 -42 34zM324 445q-20 -24 -41 -34l-93 133l21 18z" />
    <glyph glyph-name="plus" unicode="+" horiz-adv-x="644" 
d="M590 380q7 -25 0 -50h-243v-243q-25 -7 -50 0v243h-243q-7 25 0 50h243v243q25 7 50 0v-243h243z" />
    <glyph glyph-name="comma" unicode="," horiz-adv-x="178" 
d="M-10 -105l87 205q24 -3 46 -20l-94 -203q-22 4 -39 18z" />
    <glyph glyph-name="hyphen" unicode="-" horiz-adv-x="443" 
d="M389 380q7 -25 0 -50h-335q-7 25 0 50h335z" />
    <glyph glyph-name="period" unicode="." horiz-adv-x="195" 
d="M98 -10q-43 0 -43 42q0 43 43 43q42 0 42 -43q0 -42 -42 -42z" />
    <glyph glyph-name="slash" unicode="/" horiz-adv-x="413" 
d="M403 705l-338 -725q-31 6 -55 25l338 725q32 -6 55 -25z" />
    <glyph glyph-name="zero" unicode="0" horiz-adv-x="590" 
d="M295 710q101 0 158 -56t57 -151v-306q0 -95 -57 -151t-158 -56t-158 56t-57 151v306q0 95 57 151t158 56zM450 212v276q0 170 -155 172q-155 -2 -155 -172v-276q0 -170 155 -172q155 2 155 172z" />
    <glyph glyph-name="one" unicode="1" horiz-adv-x="449" 
d="M239 700q25 6 50 0v-700q-30 -8 -60 0v571q0 33 5 55l-5 5l-155 -86q-8 33 0 66z" />
    <glyph glyph-name="two" unicode="2" horiz-adv-x="554" 
d="M480 50q7 -25 0 -50h-427q-5 20 0 40q75 66 116.5 104.5t94 93.5t78.5 96t45 90.5t19 98.5q0 137 -135 137q-53 0 -96.5 -18t-93.5 -52q-17 22 -20 49q105 71 211 71q90 0 142 -46t52 -139q0 -119 -84 -231.5t-241 -238.5l2 -5h337z" />
    <glyph glyph-name="three" unicode="3" horiz-adv-x="565" 
d="M327 360q69 -8 118.5 -54.5t49.5 -127.5q0 -92 -64 -140t-166 -48q-110 0 -215 71q3 27 20 49q53 -36 96 -53t98 -17q77 0 124 36t47 104q0 40 -17.5 70t-41.5 45.5t-55 25t-52 12t-39 2.5q-7 25 0 50q22 0 47.5 5t59.5 19t56 46.5t22 79.5q0 62 -39 93.5t-107 31.5
q-52 0 -91.5 -16.5t-87.5 -48.5q-17 22 -20 49q97 66 199 66q93 0 149.5 -44t56.5 -129q0 -74 -42 -119t-106 -53v-5z" />
    <glyph glyph-name="four" unicode="4" horiz-adv-x="589" 
d="M555 220q7 -25 0 -50h-118v-170q-30 -8 -60 0v170h-355q-5 20 0 40l365 490q25 6 50 0v-480h118zM92 220h285v321q0 33 5 55l-5 5z" />
    <glyph glyph-name="five" unicode="5" horiz-adv-x="560" 
d="M262 -10q-107 0 -212 71q3 27 20 49q50 -34 93.5 -52t97.5 -18q82 0 135.5 41.5t53.5 120.5q0 114 -92 152t-246 -20l-24 18l35 348h350q7 -25 0 -50h-304l-26 -260q161 58 264 0t103 -188q0 -103 -72 -157.5t-176 -54.5z" />
    <glyph glyph-name="six" unicode="6" horiz-adv-x="578" 
d="M322 392q85 0 140.5 -50t55.5 -137q0 -104 -59 -159.5t-150 -55.5q-229 0 -229 290q0 191 105.5 297.5t278.5 122.5q9 -25 0 -50q-297 -28 -322 -317q81 59 180 59zM309 38q69 0 111.5 41.5t42.5 115.5q0 76 -41 113t-105 37q-89 0 -177 -58v-7q0 -125 42.5 -183.5
t126.5 -58.5z" />
    <glyph glyph-name="seven" unicode="7" horiz-adv-x="503" 
d="M471 700q5 -20 0 -40q-117 -162 -168.5 -304t-73.5 -356q-30 -8 -60 0q17 194 65 329.5t130 270.5q22 37 44 45l-2 5h-362q-7 25 0 50h427z" />
    <glyph glyph-name="eight" unicode="8" horiz-adv-x="632" 
d="M419 362q133 -56 133 -176q0 -88 -68 -142t-168 -54t-168 54t-68 142q0 120 133 176v5q-57 28 -85 66t-28 97q0 79 62.5 129.5t153.5 50.5t153.5 -50.5t62.5 -129.5q0 -59 -28 -97t-85 -66v-5zM160 530q0 -43 17 -74t44 -45.5t50 -20t45 -5.5t45 5.5t50 20t44 45.5t17 74
q0 60 -44 95t-112 35t-112 -35t-44 -95zM316 40q76 0 126 40.5t50 107.5q0 37 -14 65.5t-33.5 43.5t-45.5 24t-45.5 11.5t-37.5 2.5t-37.5 -2.5t-45.5 -11.5t-45.5 -24t-33.5 -43.5t-14 -65.5q0 -67 50 -107.5t126 -40.5z" />
    <glyph glyph-name="nine" unicode="9" horiz-adv-x="578" 
d="M269 700q229 0 229 -290q0 -191 -105.5 -297.5t-278.5 -122.5q-9 25 0 50q297 28 322 317q-81 -59 -180 -59q-85 0 -140.5 50t-55.5 137q0 104 59 159.5t150 55.5zM261 345q89 0 177 58v7q0 125 -42.5 183.5t-126.5 58.5q-69 0 -111.5 -41.5t-42.5 -115.5q0 -76 41 -113
t105 -37z" />
    <glyph glyph-name="colon" unicode=":" horiz-adv-x="195" 
d="M98 415q-43 0 -43 42q0 43 43 43q42 0 42 -43q0 -42 -42 -42zM98 -10q-43 0 -43 42q0 43 43 43q42 0 42 -43q0 -42 -42 -42z" />
    <glyph glyph-name="semicolon" unicode=";" horiz-adv-x="178" 
d="M78 415q-43 0 -43 42q0 43 43 43q42 0 42 -43q0 -42 -42 -42zM-10 -105l87 205q24 -3 46 -20l-94 -203q-22 4 -39 18z" />
    <glyph glyph-name="less" unicode="&#x3c;" horiz-adv-x="644" 
d="M116 355l474 -190q8 -28 0 -55l-536 220q-7 25 0 50l536 220q8 -28 0 -55z" />
    <glyph glyph-name="equal" unicode="=" horiz-adv-x="644" 
d="M590 500q7 -25 0 -50h-536q-7 25 0 50h536zM590 260q7 -25 0 -50h-536q-7 25 0 50h536z" />
    <glyph glyph-name="greater" unicode="&#x3e;" horiz-adv-x="644" 
d="M590 380q7 -25 0 -50l-536 -220q-8 27 0 55l474 190l-474 190q-8 27 0 55z" />
    <glyph glyph-name="question" unicode="?" horiz-adv-x="463" 
d="M353 542q0 58 -36.5 88t-101.5 30q-75 0 -153 -42q-12 30 -12 49q79 43 171 43q86 0 139 -42t53 -120q0 -47 -19 -86.5t-46.5 -68.5t-55 -56.5t-46.5 -62.5t-19 -74q-25 -4 -50 0q0 45 18 82.5t44 64.5t52 53.5t44 62.5t18 79zM202 -10q-43 0 -43 42q0 43 43 43
q42 0 42 -43q0 -42 -42 -42z" />
    <glyph glyph-name="at" unicode="@" horiz-adv-x="829" 
d="M598 680q84 0 127.5 -38t43.5 -142v-370q0 -82 -31.5 -111t-88.5 -29q-83 0 -107 49q-82 -49 -162 -49q-69 0 -114.5 37.5t-45.5 99.5v26q0 63 45.5 100t116.5 37q85 0 146 -43l5 5q-5 19 -5 45v51q0 62 -27.5 87t-92.5 25q-82 0 -150 -33q-16 21 -16 44q68 39 171 39
q85 0 127.5 -35t42.5 -112v-253q0 -42 16 -59.5t50 -17.5q38 0 54 22t16 75v370q0 73 -28 105t-93 32h-367q-65 0 -93 -32t-28 -105v-500q-25 -4 -50 0v500q0 104 43.5 142t127.5 38h367zM389 35q61 0 142 36q-3 18 -3 39v102q-75 33 -137 33q-116 0 -116 -97v-16
q0 -97 114 -97z" />
    <glyph glyph-name="A" unicode="A" horiz-adv-x="570" 
d="M314 700l246 -700q-31 -9 -65 0l-75 215h-274l-75 -215q-32 -8 -61 0l243 700q29 8 61 0zM163 265h239l-104 299q-10 26 -14 49h-5q-3 -25 -12 -49z" />
    <glyph glyph-name="B" unicode="B" horiz-adv-x="610" 
d="M421 358q61 -7 95 -45.5t34 -94.5v-56q0 -76 -51.5 -119t-148.5 -43h-236h-24v700h60h170q97 0 148.5 -42t51.5 -115v-56q0 -46 -26.5 -80t-72.5 -44v-5zM320 650h-170v-220q0 -26 -5 -45l5 -5h170q72 0 106 29.5t34 92.5v26q0 63 -34 92t-106 30zM490 177v26
q0 67 -34 97t-106 30h-200v-230q0 -26 -5 -45l5 -5h200q72 0 106 30t34 97z" />
    <glyph glyph-name="C" unicode="C" horiz-adv-x="543" 
d="M295 40q95 0 180 58q15 -20 18 -47q-89 -61 -198 -61q-118 0 -176.5 59t-58.5 158v286q0 99 58.5 158t176.5 59q109 0 198 -61q-3 -27 -20 -49q-88 60 -179 60q-174 0 -174 -182v-256q0 -182 175 -182z" />
    <glyph glyph-name="D" unicode="D" horiz-adv-x="610" 
d="M310 700q117 0 178.5 -59.5t61.5 -157.5v-266q0 -98 -61.5 -157.5t-178.5 -59.5h-220v700h220zM490 232v236q0 86 -44.5 134t-135.5 48h-160v-550q0 -26 -5 -45l5 -5h160q91 0 135.5 48t44.5 134z" />
    <glyph glyph-name="E" unicode="E" horiz-adv-x="547" 
d="M493 50q7 -25 0 -50h-379h-24v700h60h333q7 -25 0 -50h-333v-215q0 -26 -5 -45l5 -5h293q7 -25 0 -50h-293v-235q0 -26 -5 -45l5 -5h343z" />
    <glyph glyph-name="F" unicode="F" horiz-adv-x="537" 
d="M150 650v-235q0 -26 -5 -45l5 -5h313q7 -25 0 -50h-313v-315q-30 -8 -60 0v700h60h333q7 -25 0 -50h-333z" />
    <glyph glyph-name="G" unicode="G" horiz-adv-x="583" 
d="M458 341q28 7 55 0v-290q-88 -61 -212 -61q-120 0 -180.5 59.5t-60.5 157.5v286q0 99 60.5 158t182.5 59q112 0 200 -61q-3 -27 -20 -49q-88 60 -180 60q-183 0 -183 -182v-256q0 -182 182 -182q84 0 156 36v265z" />
    <glyph glyph-name="H" unicode="H" horiz-adv-x="670" 
d="M520 700q30 8 60 0v-700q-30 -8 -60 0v295q0 26 5 45l-5 5h-370v-345q-30 -8 -60 0v700q30 8 60 0v-255q0 -26 -5 -45l5 -5h370v305z" />
    <glyph glyph-name="I" unicode="I" horiz-adv-x="240" 
d="M150 700v-700q-30 -8 -60 0v700q30 8 60 0z" />
    <glyph glyph-name="J" unicode="J" horiz-adv-x="287" 
d="M19 40q118 4 118 142v520q30 8 60 0v-525q0 -94 -51 -140.5t-127 -46.5q-8 25 0 50z" />
    <glyph glyph-name="K" unicode="K" horiz-adv-x="578" 
d="M90 700q30 8 60 0v-700q-30 -8 -60 0v700zM330 319l228 -319q-36 -8 -72 0l-264 364l258 336q34 7 68 0l-210 -281q-25 -36 -52 -48v-5q7 -3 13.5 -8t9.5 -9t10 -14.5t11 -15.5z" />
    <glyph glyph-name="L" unicode="L" horiz-adv-x="502" 
d="M478 50q7 -25 0 -50h-364h-24v700q30 8 60 0v-600q0 -26 -5 -45l5 -5h328z" />
    <glyph glyph-name="M" unicode="M" horiz-adv-x="800" 
d="M660 700q25 8 50 0v-700q-30 -8 -60 0v535q0 28 5 47l-5 3l-233 -351q-7 -3 -17 -3t-17 3l-233 351l-5 -3q5 -19 5 -47v-535q-30 -8 -60 0v700q25 8 50 0l229 -345q23 -35 29 -60h4q6 25 29 60z" />
    <glyph glyph-name="N" unicode="N" horiz-adv-x="670" 
d="M525 700q27 8 55 0v-700q-22 -8 -45 0l-390 580l-5 -3q5 -19 5 -47v-530q-28 -8 -55 0v700q22 8 45 0l390 -580l5 3q-5 19 -5 47v530z" />
    <glyph glyph-name="O" unicode="O" horiz-adv-x="590" 
d="M295 710q115 0 175 -55.5t60 -151.5v-306q0 -96 -60 -151.5t-175 -55.5t-175 55.5t-60 151.5v306q0 96 60 151.5t175 55.5zM470 212v276q0 87 -42.5 129t-132.5 43q-90 -1 -132.5 -43t-42.5 -129v-276q0 -87 42.5 -129t132.5 -43q90 1 132.5 43t42.5 129z" />
    <glyph glyph-name="P" unicode="P" horiz-adv-x="560" 
d="M310 700q99 0 154.5 -45t55.5 -127v-86q0 -82 -55.5 -127t-154.5 -45h-160v-270q-30 -8 -60 0v700h60h160zM460 467v36q0 79 -37.5 112.5t-112.5 34.5h-160v-280q0 -26 -5 -45l5 -5h160q75 1 112.5 34.5t37.5 112.5z" />
    <glyph glyph-name="Q" unicode="Q" horiz-adv-x="590" 
d="M295 710q115 0 175 -55.5t60 -151.5v-306q0 -136 -112 -184l92 -126q-32 -7 -65 0l-80 109q-31 -6 -70 -6q-115 0 -175 55.5t-60 151.5v306q0 96 60 151.5t175 55.5zM470 212v276q0 87 -42.5 129t-132.5 43q-90 -1 -132.5 -43t-42.5 -129v-276q0 -87 42.5 -129t132.5 -43
q90 1 132.5 43t42.5 129z" />
    <glyph glyph-name="R" unicode="R" horiz-adv-x="600" 
d="M359 306q44 -29 68 -66.5t133 -239.5q-35 -8 -70 0q-103 196 -144.5 248t-95.5 52h-100v-300q-30 -8 -60 0v700h60h160q98 0 154 -42.5t56 -114.5v-86q0 -58 -42.5 -96.5t-118.5 -49.5v-5zM150 350h160q74 1 112 32t38 100v36q0 69 -38 100t-112 32h-160v-250
q0 -26 -5 -45z" />
    <glyph glyph-name="S" unicode="S" horiz-adv-x="524" 
d="M122 527q0 -40 19.5 -67t50.5 -42t68.5 -27t75 -26t68.5 -34t50.5 -56.5t19.5 -88.5q0 -92 -56 -144t-162 -52q-114 0 -206 61q3 27 20 49q91 -60 185 -60q82 0 120.5 38t38.5 101q0 43 -19.5 73t-50.5 46t-68.5 28.5t-74.5 26t-68 32.5t-50.5 55t-19.5 87
q0 84 58.5 133.5t151.5 49.5q96 0 185 -61q-3 -27 -20 -49q-88 60 -165 60q-72 0 -111.5 -35t-39.5 -98z" />
    <glyph glyph-name="T" unicode="T" horiz-adv-x="574" 
d="M540 700q7 -25 0 -50h-223v-650q-30 -8 -60 0v600q0 26 5 45l-5 5h-223q-7 25 0 50h243h40h223z" />
    <glyph glyph-name="U" unicode="U" horiz-adv-x="650" 
d="M500 700q30 8 60 0v-493q0 -97 -60.5 -157t-174.5 -60t-174.5 60t-60.5 157v493q30 8 60 0v-478q0 -181 175 -182q175 1 175 182v478z" />
    <glyph glyph-name="V" unicode="V" horiz-adv-x="550" 
d="M479 700q32 8 61 0l-228 -700q-29 -8 -61 0l-241 700q31 9 65 0l192 -564q10 -26 14 -49h5q2 18 12 49z" />
    <glyph glyph-name="W" unicode="W" horiz-adv-x="800" 
d="M725 700q34 9 65 0l-179 -700q-31 -8 -63 0l-133 460q-11 41 -13 70h-4q-2 -29 -13 -70l-133 -460q-32 -8 -63 0l-179 700q31 9 65 0l133 -548q11 -44 14 -70h5q3 42 12 70l132 468q15 3 29 3t29 -3l132 -468q9 -28 12 -70h5q3 26 14 70z" />
    <glyph glyph-name="X" unicode="X" horiz-adv-x="570" 
d="M318 358q20 -8 44 -47l188 -311q-36 -8 -72 0l-193 320l-197 -320q-34 -7 -68 0l188 311q24 39 44 47v5q-33 15 -52 48l-180 289q36 8 72 0l193 -312l197 312q34 7 68 0l-180 -289q-19 -33 -52 -48v-5z" />
    <glyph glyph-name="Y" unicode="Y" horiz-adv-x="531" 
d="M521 700l-219 -396v-304q-30 -8 -60 0v307l-232 393q32 9 67 0l181 -308q7 -11 14 -49h5q4 36 12 49l171 308q32 8 61 0z" />
    <glyph glyph-name="Z" unicode="Z" horiz-adv-x="533" 
d="M499 50q7 -25 0 -50h-467q-5 20 0 40l355 560q24 37 44 45l-2 5h-372q-7 25 0 50h437q5 -20 0 -40l-355 -560q-23 -38 -44 -45l2 -5h402z" />
    <glyph glyph-name="bracketleft" unicode="[" horiz-adv-x="327" 
d="M150 -150h123q7 -25 0 -50h-143h-40v1040h60h123q7 -25 0 -50h-123v-940z" />
    <glyph glyph-name="backslash" unicode="\" horiz-adv-x="413" 
d="M10 705q23 19 55 25l338 -725q-24 -19 -55 -25z" />
    <glyph glyph-name="bracketright" unicode="]" horiz-adv-x="327" 
d="M237 840v-1040h-60h-123q-7 25 0 50h123v940h-123q-7 25 0 50h183z" />
    <glyph glyph-name="asciicircum" unicode="^" horiz-adv-x="386" 
d="M193 738l183 -185q-15 -25 -39 -40l-117 126q-23 23 -25 42h-4q-2 -19 -25 -42l-117 -126q-24 15 -39 40z" />
    <glyph glyph-name="underscore" unicode="_" horiz-adv-x="343" 
d="M339 0q7 -25 0 -50h-335q-7 25 0 50h335z" />
    <glyph glyph-name="grave" unicode="`" horiz-adv-x="308" 
d="M253 622q-9 -20 -28 -33l-171 144q12 24 33 38z" />
    <glyph glyph-name="a" unicode="a" horiz-adv-x="493" 
d="M243 510q85 0 127.5 -35t42.5 -112v-363q-27 -8 -55 0q0 13 5 28l-5 5q-61 -43 -146 -43q-71 0 -116.5 37t-45.5 100v26q0 63 45.5 100t116.5 37q85 0 146 -43l5 5q-5 19 -5 45v51q0 62 -27.5 87t-92.5 25q-82 0 -150 -33q-16 21 -16 44q68 39 171 39zM358 68v144
q-75 33 -137 33q-116 0 -116 -97v-16q0 -97 116 -97q62 0 137 33z" />
    <glyph glyph-name="b" unicode="b" horiz-adv-x="530" 
d="M280 510q94 0 142 -47.5t48 -129.5v-166q0 -82 -48 -129.5t-142 -47.5q-84 0 -145 43l-5 -5q5 -15 5 -28q-27 -8 -55 0v725q18 15 55 15v-223q0 -26 -5 -45l5 -5q61 43 145 43zM415 182v136q0 74 -32.5 108t-112.5 34q-72 0 -135 -28v-364q63 -28 135 -28q80 0 112.5 34
t32.5 108z" />
    <glyph glyph-name="c" unicode="c" horiz-adv-x="451" 
d="M261 40q68 0 134 33q16 -21 16 -44q-67 -39 -151 -39q-97 0 -148.5 48t-51.5 129v166q0 81 51.5 129t148.5 48q84 0 151 -39q0 -23 -16 -44q-66 33 -134 33q-78 0 -112 -35t-34 -107v-136q0 -72 34 -107t112 -35z" />
    <glyph glyph-name="d" unicode="d" horiz-adv-x="530" 
d="M395 725q18 15 55 15v-740q-28 -8 -55 0q0 13 5 28l-5 5q-61 -43 -145 -43q-94 0 -142 47.5t-48 129.5v166q0 82 48 129.5t142 47.5q84 0 145 -43l5 5q-5 19 -5 45v208zM395 68v364q-63 28 -135 28q-80 0 -112.5 -34t-32.5 -108v-136q0 -74 32.5 -108t112.5 -34
q72 0 135 28z" />
    <glyph glyph-name="e" unicode="e" horiz-adv-x="505" 
d="M120 257l-5 -5v-70q0 -72 37 -107t118 -35q79 0 145 33q16 -21 16 -44q-67 -39 -161 -39q-102 0 -156 48t-54 129v156q0 82 53 134.5t147 52.5q90 0 140 -48.5t50 -128.5v-81h-55h-230q-26 0 -45 5zM259 460q-144 0 -144 -152v-6h230q26 0 45 -5l5 5v16q0 142 -136 142z
" />
    <glyph glyph-name="f" unicode="f" horiz-adv-x="351" 
d="M170 500h175q7 -25 0 -50h-175v-450q-28 -8 -55 0v400q0 26 5 45l-5 5h-81q-7 25 0 50h81v103q0 74 37 110.5t96 36.5q58 0 113 -24q0 -23 -16 -44q-56 23 -96 23q-39 0 -59 -24t-20 -83v-48q0 -26 -5 -45z" />
    <glyph glyph-name="g" unicode="g" horiz-adv-x="530" 
d="M395 500q27 8 55 0v-563q0 -147 -180 -147q-105 0 -176 44q0 23 16 44q67 -38 150 -38q70 0 102.5 25t32.5 87v31q0 26 5 45l-5 5q-61 -43 -145 -43q-94 0 -142 47.5t-48 129.5v166q0 82 48 129.5t142 47.5q84 0 145 -43l5 5q-5 11 -5 28zM395 68v364q-63 28 -135 28
q-80 0 -112.5 -34t-32.5 -108v-136q0 -74 32.5 -108t112.5 -34q72 0 135 28z" />
    <glyph glyph-name="h" unicode="h" horiz-adv-x="540" 
d="M315 510q145 0 145 -137v-373q-28 -8 -55 0v358q0 58 -28.5 80t-85.5 22q-89 0 -156 -38v-422q-27 -8 -55 0v725q18 15 55 15v-233q0 -26 -5 -45l5 -5q70 53 180 53z" />
    <glyph glyph-name="i" unicode="i" horiz-adv-x="215" 
d="M107 620q-43 0 -43 42q0 43 43 43q42 0 42 -43q0 -42 -42 -42zM80 490q18 15 55 15v-505q-27 -8 -55 0v490z" />
    <glyph glyph-name="j" unicode="j" horiz-adv-x="215" 
d="M107 705q42 0 42 -43q0 -42 -42 -42q-43 0 -43 42q0 43 43 43zM80 490q18 15 55 15v-505v-63q0 -74 -37 -110.5t-96 -36.5q-8 22 0 45q39 2 58.5 25.5t19.5 81.5v548z" />
    <glyph glyph-name="k" unicode="k" horiz-adv-x="458" 
d="M80 725q18 15 55 15v-740q-27 -8 -55 0v725zM297 237l161 -237q-27 -9 -65 0l-196 285l183 215q37 9 63 0l-138 -163q-2 -2 -10.5 -12t-12.5 -14.5t-12.5 -11t-16.5 -10.5v-5q4 -2 7.5 -4t7 -5t6 -5t6 -7.5t5 -7t6.5 -9t6 -9.5z" />
    <glyph glyph-name="l" unicode="l" horiz-adv-x="215" 
d="M80 725q18 15 55 15v-740q-27 -8 -55 0v725z" />
    <glyph glyph-name="m" unicode="m" horiz-adv-x="826" 
d="M606 510q72 0 106 -30.5t34 -106.5v-373q-28 -8 -55 0v358q0 60 -24 80.5t-81 21.5q-83 0 -150 -42q4 -17 4 -45v-373q-28 -8 -55 0v358q0 60 -24 80.5t-81 21.5q-78 0 -145 -38v-422q-27 -8 -55 0v490q18 15 55 15q0 -27 -5 -43l5 -5q69 53 165 53q100 0 127 -61
q80 61 179 61z" />
    <glyph glyph-name="n" unicode="n" horiz-adv-x="540" 
d="M315 510q145 0 145 -137v-373q-28 -8 -55 0v358q0 58 -28.5 80t-85.5 22q-89 0 -156 -38v-422q-27 -8 -55 0v490q18 15 55 15q0 -27 -5 -43l5 -5q70 53 180 53z" />
    <glyph glyph-name="o" unicode="o" horiz-adv-x="520" 
d="M260 510q101 0 150.5 -47.5t49.5 -129.5v-166q0 -82 -49.5 -129.5t-150.5 -47.5t-150.5 47.5t-49.5 129.5v166q0 82 49.5 129.5t150.5 47.5zM405 182v136q0 74 -32.5 108t-112.5 34t-112.5 -34t-32.5 -108v-136q0 -74 32.5 -108t112.5 -34t112.5 34t32.5 108z" />
    <glyph glyph-name="p" unicode="p" horiz-adv-x="530" 
d="M280 510q94 0 142 -47.5t48 -129.5v-166q0 -82 -48 -129.5t-142 -47.5q-84 0 -145 43l-5 -5q5 -19 5 -45v-168q-18 -15 -55 -15v690q18 15 55 15q0 -18 -5 -33l5 -5q61 43 145 43zM415 182v136q0 74 -32.5 108t-112.5 34q-72 0 -135 -28v-364q63 -28 135 -28
q80 0 112.5 34t32.5 108z" />
    <glyph glyph-name="q" unicode="q" horiz-adv-x="530" 
d="M395 500q27 8 55 0v-685q-18 -15 -55 -15v183q0 26 5 45l-5 5q-61 -43 -145 -43q-94 0 -142 47.5t-48 129.5v166q0 82 48 129.5t142 47.5q84 0 145 -43l5 5q-5 11 -5 28zM395 68v364q-63 28 -135 28q-80 0 -112.5 -34t-32.5 -108v-136q0 -74 32.5 -108t112.5 -34
q72 0 135 28z" />
    <glyph glyph-name="r" unicode="r" horiz-adv-x="320" 
d="M133 427q67 83 177 83q-2 -32 -13 -55q-96 0 -162 -68v-387q-27 -8 -55 0v490q18 15 55 15q0 -46 -7 -73z" />
    <glyph glyph-name="s" unicode="s" horiz-adv-x="461" 
d="M236 -10q-107 0 -181 54q0 23 16 44q68 -48 162 -48q67 0 97.5 24t30.5 62q0 40 -30.5 63t-74 33.5t-87 22.5t-74 43t-30.5 82q0 67 47 103.5t133 36.5q89 0 156 -39q0 -23 -16 -44q-66 33 -139 33q-126 0 -126 -85q0 -38 30.5 -60t74 -33t87 -23.5t74 -43.5t30.5 -83
q0 -62 -45 -102t-135 -40z" />
    <glyph glyph-name="t" unicode="t" horiz-adv-x="386" 
d="M340 68q16 -21 16 -44q-60 -34 -112 -34q-129 0 -129 137v273q0 26 5 45l-5 5h-81q-7 25 0 50h81v105q18 15 55 15v-70q0 -26 -5 -45l5 -5h175q7 -25 0 -50h-175v-308q0 -59 19.5 -80.5t58.5 -21.5q36 0 92 28z" />
    <glyph glyph-name="u" unicode="u" horiz-adv-x="530" 
d="M395 490q18 15 55 15v-505q-28 -8 -55 0q0 22 5 38l-5 5q-69 -53 -170 -53q-145 0 -145 137v363q18 15 55 15v-363q0 -58 28 -79.5t86 -22.5q79 0 146 38v412z" />
    <glyph glyph-name="v" unicode="v" horiz-adv-x="460" 
d="M387 500q31 8 58 0l-182 -500q-27 -9 -55 0l-193 500q28 8 60 0l145 -384q9 -23 14 -49h5q3 21 12 49z" />
    <glyph glyph-name="w" unicode="w" horiz-adv-x="722" 
d="M647 500q32 8 60 0l-156 -500q-27 -8 -55 0l-120 345q-12 34 -13 70h-4q-1 -36 -13 -70l-120 -345q-28 -8 -55 0l-156 500q28 8 60 0l112 -377q11 -33 14 -49h5q3 21 12 49l115 347q12 3 28 3t28 -3l115 -347q9 -28 12 -49h5q3 16 14 49z" />
    <glyph glyph-name="x" unicode="x" horiz-adv-x="474" 
d="M314 208l135 -208q-28 -9 -68 0l-144 227l-147 -227q-38 -9 -65 0l135 208q24 37 49 47v5q-29 13 -52 48l-127 192q28 9 66 0l141 -212l144 212q37 9 63 0l-127 -192q-23 -35 -52 -48v-5q25 -10 49 -47z" />
    <glyph glyph-name="y" unicode="y" horiz-adv-x="465" 
d="M392 500q31 8 58 0l-182 -497q-38 -104 -87 -155t-124 -58q-7 22 0 45q57 9 89.5 46t66.5 122l-193 497q28 8 60 0l145 -384q10 -25 14 -46h5q3 21 12 49z" />
    <glyph glyph-name="z" unicode="z" horiz-adv-x="432" 
d="M408 50q7 -25 0 -50h-376q-5 20 0 40l284 390q10 14 18 15l-2 5h-285q-7 25 0 50h356q5 -20 0 -40l-284 -390q-10 -13 -18 -15l2 -5h305z" />
    <glyph glyph-name="braceleft" unicode="{" horiz-adv-x="245" 
d="M116 70q-17 -101 16 -161.5t96 -60.5q6 -24 0 -48q-91 0 -141 73.5t-31 196.5q22 138 14.5 179t-53.5 56q-3 15 0 30q46 15 53.5 56t-14.5 179q-19 123 31 196.5t141 73.5q6 -24 0 -48q-63 0 -96 -60.5t-16 -161.5q37 -209 -29 -250q66 -41 29 -250z" />
    <glyph glyph-name="bar" unicode="|" horiz-adv-x="330" 
d="M190 840v-1040q-25 -7 -50 0v1040q25 7 50 0z" />
    <glyph glyph-name="braceright" unicode="}" horiz-adv-x="245" 
d="M129 70q-37 209 29 250q-66 41 -29 250q17 101 -16 161.5t-96 60.5q-6 24 0 48q91 0 141 -73.5t31 -196.5q-22 -138 -14.5 -179t53.5 -56q3 -15 0 -30q-46 -15 -53.5 -56t14.5 -179q19 -123 -31 -196.5t-141 -73.5q-6 24 0 48q63 0 96 60.5t16 161.5z" />
    <glyph glyph-name="asciitilde" unicode="~" horiz-adv-x="630" 
d="M445 381q75 0 135 -59q-12 -18 -27 -31q-43 39 -102 39q-39 0 -132.5 -25.5t-133.5 -25.5q-76 0 -135 58q12 18 27 31q43 -39 101 -39q38 0 132.5 26t134.5 26z" />
    <glyph glyph-name="exclamdown" unicode="&#xa1;" horiz-adv-x="265" 
d="M133 510q42 0 42 -42q0 -43 -42 -43q-43 0 -43 43q0 42 43 42zM163 -200q-30 -8 -60 0l5 500q25 4 50 0z" />
    <glyph glyph-name="cent" unicode="&#xa2;" horiz-adv-x="451" 
d="M395 73q16 -21 16 -44q-61 -35 -131 -38v-91q-25 -6 -50 0v91q-83 7 -126.5 54t-43.5 122v166q0 75 43.5 122t126.5 54v91q25 6 50 0v-91q70 -3 131 -38q0 -23 -16 -44q-60 30 -115 32v-418q55 2 115 32zM115 182q0 -128 115 -140v416q-115 -12 -115 -140v-136z" />
    <glyph glyph-name="sterling" unicode="&#xa3;" horiz-adv-x="595" 
d="M541 50q7 -25 0 -50h-455q52 119 39 271h-105q-7 25 0 50h100q-1 10 -3.5 30t-3.5 30h-93q-7 25 0 50h89q-3 30 -3 62q0 99 58.5 158t176.5 59q109 0 198 -61q-3 -27 -20 -49q-88 60 -179 60q-174 0 -174 -182q0 -15 2 -47h252q6 -25 0 -50h-248l6 -60h242q6 -25 0 -50
h-237q11 -132 -27 -222z" />
    <glyph glyph-name="currency" unicode="&#xa4;" horiz-adv-x="626" 
d="M583 260q0 -97 -61 -171l94 -81q-17 -28 -43 -44l-81 94q-76 -68 -179 -68t-179 68l-81 -94q-26 16 -43 44l94 81q-61 74 -61 171t61 171l-94 81q17 28 43 44l81 -94q76 68 179 68t179 -68l81 94q26 -16 43 -44l-94 -81q61 -74 61 -171zM313 40q85 0 147.5 60.5
t62.5 159.5t-62.5 159.5t-147.5 60.5t-147.5 -60.5t-62.5 -159.5t62.5 -159.5t147.5 -60.5z" />
    <glyph glyph-name="yen" unicode="&#xa5;" horiz-adv-x="531" 
d="M466 281h-164v-60h164q6 -25 0 -50h-164v-171q-30 -8 -60 0v171h-176q-8 25 0 50h176v60h-176q-8 25 0 50h162l-218 369q32 9 67 0l181 -308q7 -11 14 -49h5q4 36 12 49l171 308q32 8 61 0l-204 -369h149q6 -25 0 -50z" />
    <glyph glyph-name="brokenbar" unicode="&#xa6;" horiz-adv-x="340" 
d="M200 840v-340q-30 -8 -60 0v340q30 8 60 0zM200 140v-340q-30 -8 -60 0v340q30 8 60 0z" />
    <glyph glyph-name="section" unicode="&#xa7;" horiz-adv-x="524" 
d="M404 141q70 -50 70 -145q0 -92 -56 -144t-162 -52q-114 0 -206 61q3 27 20 49q91 -60 185 -60q82 0 120.5 38t38.5 101q0 43 -19.5 73t-50.5 46t-68.5 28.5t-74.5 26t-68 32.5t-50.5 55t-19.5 87q0 103 86 153q-76 48 -76 147q0 84 58.5 133.5t151.5 49.5q96 0 185 -61
q-3 -27 -20 -49q-88 60 -165 60q-72 0 -111.5 -35t-39.5 -98q0 -46 25.5 -76t63.5 -43t82 -29.5t82 -34t63.5 -58t25.5 -100.5q0 -104 -70 -155zM122 337q0 -34 13 -58t39.5 -40t50.5 -25.5t63.5 -22t61.5 -21.5q64 34 64 119q0 29 -9.5 52.5t-21.5 38t-36.5 28t-41 20
t-49 17t-47.5 16.5q-87 -28 -87 -124z" />
    <glyph glyph-name="dieresis" unicode="&#xa8;" horiz-adv-x="390" 
d="M98 620q-43 0 -43 42q0 43 43 43q42 0 42 -43q0 -42 -42 -42zM293 620q-43 0 -43 42q0 43 43 43q42 0 42 -43q0 -42 -42 -42z" />
    <glyph glyph-name="copyright" unicode="&#xa9;" horiz-adv-x="840" 
d="M420 -10q-155 0 -257.5 104.5t-102.5 255.5t102.5 255.5t257.5 104.5t257.5 -104.5t102.5 -255.5t-102.5 -255.5t-257.5 -104.5zM420 23q141 0 234 95t93 232t-93 232t-234 95t-234 -95t-93 -232t93 -232t234 -95zM424 140q65 0 121 39q10 -11 13 -31q-62 -42 -134 -42
q-80 0 -119.5 40t-39.5 107v194q0 67 39.5 107t119.5 40q72 0 134 -42q-3 -19 -14 -33q-59 41 -121 41q-118 0 -118 -123v-174q0 -123 119 -123z" />
    <glyph glyph-name="guillemotleft" unicode="&#xab;" horiz-adv-x="500" 
d="M72 246q19 -2 42 -25l126 -117q-15 -24 -40 -39l-185 183l185 183q25 -15 40 -39l-126 -117q-23 -23 -42 -25v-4zM252 246q19 -2 42 -25l126 -117q-15 -24 -40 -39l-185 183l185 183q25 -15 40 -39l-126 -117q-23 -23 -42 -25v-4z" />
    <glyph glyph-name="logicalnot" unicode="&#xac;" horiz-adv-x="640" 
d="M590 380v-217q-28 -8 -55 0v167h-481q-7 25 0 50h536z" />
    <glyph glyph-name="registered" unicode="&#xae;" horiz-adv-x="840" 
d="M420 710q155 0 257.5 -104.5t102.5 -255.5t-102.5 -255.5t-257.5 -104.5t-257.5 104.5t-102.5 255.5t102.5 255.5t257.5 104.5zM420 23q141 0 234 95t93 232t-93 232t-234 95t-234 -95t-93 -232t93 -232t234 -95zM464 320q30 -20 45.5 -44.5t90.5 -162.5q-24 -5 -47 0
q-70 133 -98 168t-65 35h-67v-203q-21 -5 -41 0v474h41h108q66 0 104 -29t38 -77v-59q0 -39 -29 -65t-80 -34v-3zM323 350h108q101 2 101 89v25q0 87 -101 89h-108v-169q0 -18 -4 -31z" />
    <glyph glyph-name="macron" unicode="&#xaf;" horiz-adv-x="470" 
d="M74 690h322q7 -25 0 -50h-322q-7 25 0 50z" />
    <glyph glyph-name="degree" unicode="&#xb0;" horiz-adv-x="306" 
d="M154 571q-94 0 -94 90q0 93 94 93q92 0 92 -93q0 -90 -92 -90zM154 619q41 0 41 42q0 45 -41 45q-43 0 -43 -45q0 -42 43 -42z" />
    <glyph glyph-name="plusminus" unicode="&#xb1;" horiz-adv-x="644" 
d="M297 350h-243q-7 25 0 50h243v243q25 7 50 0v-243h243q7 -25 0 -50h-243v-243q-25 -7 -50 0v243zM54 50h536q7 -25 0 -50h-536q-7 25 0 50z" />
    <glyph glyph-name="acute" unicode="&#xb4;" horiz-adv-x="308" 
d="M55 622l166 149q21 -14 33 -38l-171 -144q-19 13 -28 33z" />
    <glyph glyph-name="paragraph" unicode="&#xb6;" horiz-adv-x="719" 
d="M629 700v-900q-30 -8 -60 0v850h-190v-850q-30 -8 -60 0v383q-107 0 -183 76t-76 183t76 182.5t183 75.5h310z" />
    <glyph glyph-name="periodcentered" unicode="&#xb7;" horiz-adv-x="203" 
d="M102 224q-47 0 -47 46q0 48 47 48q46 0 46 -48q0 -46 -46 -46z" />
    <glyph glyph-name="cedilla" unicode="&#xb8;" horiz-adv-x="600" 
d="M270 10l38 -5l-22 -57q81 -17 81 -80q0 -39 -35 -59t-96 -9q-7 25 0 50q76 -16 76 25q0 19 -18 30.5t-58 21.5z" />
    <glyph glyph-name="guillemotright" unicode="&#xbb;" horiz-adv-x="505" 
d="M120 431l185 -183l-185 -183q-25 15 -40 39l126 117q23 23 42 25v4q-19 2 -42 25l-126 117q15 24 40 39zM300 431l185 -183l-185 -183q-25 15 -40 39l126 117q23 23 42 25v4q-19 2 -42 25l-126 117q15 24 40 39z" />
    <glyph glyph-name="questiondown" unicode="&#xbf;" horiz-adv-x="383" 
d="M221 510q43 0 43 -42q0 -43 -43 -43q-42 0 -42 43q0 42 42 42zM70 -42q0 -58 36.5 -88t101.5 -30q75 0 153 42q12 -30 12 -49q-79 -43 -171 -43q-86 0 -139 42t-53 120q0 47 19 86.5t46.5 68.5t55 56.5t46.5 62.5t19 74q25 4 50 0q0 -45 -18 -82.5t-44 -64.5t-52 -53.5
t-44 -62.5t-18 -79z" />
    <glyph glyph-name="Agrave" unicode="&#xc0;" horiz-adv-x="570" 
d="M369 822q-9 -20 -28 -33l-171 144q12 24 33 38zM314 700l246 -700q-31 -9 -65 0l-75 215h-274l-75 -215q-32 -8 -61 0l243 700q29 8 61 0zM163 265h239l-104 299q-10 26 -14 49h-5q-3 -25 -12 -49z" />
    <glyph glyph-name="Aacute" unicode="&#xc1;" horiz-adv-x="570" 
d="M267 789q-19 13 -28 33l166 149q21 -14 33 -38zM314 700l246 -700q-31 -9 -65 0l-75 215h-274l-75 -215q-32 -8 -61 0l243 700q29 8 61 0zM163 265h239l-104 299q-10 26 -14 49h-5q-3 -25 -12 -49z" />
    <glyph glyph-name="Acircumflex" unicode="&#xc2;" horiz-adv-x="570" 
d="M176 789q-22 15 -35 36l148 136l148 -136q-13 -21 -35 -36l-88 96q-21 23 -23 38h-4q-2 -15 -23 -38zM314 700l246 -700q-31 -9 -65 0l-75 215h-274l-75 -215q-32 -8 -61 0l243 700q29 8 61 0zM163 265h239l-104 299q-10 26 -14 49h-5q-3 -25 -12 -49z" />
    <glyph glyph-name="Atilde" unicode="&#xc3;" horiz-adv-x="570" 
d="M351 870q-22 0 -57.5 -23t-64.5 -23q-52 0 -105 53q12 18 27 31q42 -39 75 -39q21 0 57.5 23.5t65.5 23.5q51 0 105 -54q-12 -18 -27 -31q-42 39 -76 39zM314 700l246 -700q-31 -9 -65 0l-75 215h-274l-75 -215q-32 -8 -61 0l243 700q29 8 61 0zM163 265h239l-104 299
q-10 26 -14 49h-5q-3 -25 -12 -49z" />
    <glyph glyph-name="Adieresis" unicode="&#xc4;" horiz-adv-x="570" 
d="M192 820q-43 0 -43 42q0 43 43 43q42 0 42 -43q0 -42 -42 -42zM387 820q-43 0 -43 42q0 43 43 43q42 0 42 -43q0 -42 -42 -42zM314 700l246 -700q-31 -9 -65 0l-75 215h-274l-75 -215q-32 -8 -61 0l243 700q29 8 61 0zM163 265h239l-104 299q-10 26 -14 49h-5
q-3 -25 -12 -49z" />
    <glyph glyph-name="Aring" unicode="&#xc5;" horiz-adv-x="570" 
d="M323 675l237 -675q-31 -9 -65 0l-75 215h-274l-75 -215q-32 -8 -61 0l235 678q-50 17 -50 83q0 93 94 93q92 0 92 -93q0 -71 -58 -86zM289 821q-57 0 -57 -60q0 -57 57 -57q55 0 55 57q0 60 -55 60zM163 265h239l-104 299q-10 26 -14 49h-5q-3 -25 -12 -49z" />
    <glyph glyph-name="AE" unicode="&#xc6;" horiz-adv-x="809" 
d="M755 50q7 -25 0 -50h-349h-24v215h-208l-103 -215q-32 -8 -61 0l341 700h55h339q7 -25 0 -50h-303v-215q0 -26 -5 -45l5 -5h263q7 -25 0 -50h-263v-235q0 -26 -5 -45l5 -5h313zM198 265h184v385h-5q-5 -22 -19 -49z" />
    <glyph glyph-name="Ccedilla" unicode="&#xc7;" horiz-adv-x="543" 
d="M493 51q-85 -58 -186 -61l-16 -42q81 -17 81 -80q0 -39 -35 -59t-96 -9q-7 25 0 50q76 -16 76 25q0 19 -18 30.5t-58 21.5l26 64q-104 7 -155.5 65t-51.5 151v286q0 99 58.5 158t176.5 59q109 0 198 -61q-3 -27 -20 -49q-88 60 -179 60q-174 0 -174 -182v-256
q0 -182 175 -182q95 0 180 58q15 -20 18 -47z" />
    <glyph glyph-name="Egrave" unicode="&#xc8;" horiz-adv-x="547" 
d="M379 822q-9 -20 -28 -33l-171 144q12 24 33 38zM493 50q7 -25 0 -50h-379h-24v700h60h333q7 -25 0 -50h-333v-215q0 -26 -5 -45l5 -5h293q7 -25 0 -50h-293v-235q0 -26 -5 -45l5 -5h343z" />
    <glyph glyph-name="Eacute" unicode="&#xc9;" horiz-adv-x="547" 
d="M277 789q-19 13 -28 33l166 149q21 -14 33 -38zM493 50q7 -25 0 -50h-379h-24v700h60h333q7 -25 0 -50h-333v-215q0 -26 -5 -45l5 -5h293q7 -25 0 -50h-293v-235q0 -26 -5 -45l5 -5h343z" />
    <glyph glyph-name="Ecircumflex" unicode="&#xca;" horiz-adv-x="547" 
d="M186 789q-22 15 -35 36l148 136l148 -136q-13 -21 -35 -36l-88 96q-21 23 -23 38h-4q-2 -15 -23 -38zM493 50q7 -25 0 -50h-379h-24v700h60h333q7 -25 0 -50h-333v-215q0 -26 -5 -45l5 -5h293q7 -25 0 -50h-293v-235q0 -26 -5 -45l5 -5h343z" />
    <glyph glyph-name="Edieresis" unicode="&#xcb;" horiz-adv-x="547" 
d="M202 820q-43 0 -43 42q0 43 43 43q42 0 42 -43q0 -42 -42 -42zM397 820q-43 0 -43 42q0 43 43 43q42 0 42 -43q0 -42 -42 -42zM493 50q7 -25 0 -50h-379h-24v700h60h333q7 -25 0 -50h-333v-215q0 -26 -5 -45l5 -5h293q7 -25 0 -50h-293v-235q0 -26 -5 -45l5 -5h343z" />
    <glyph glyph-name="Igrave" unicode="&#xcc;" horiz-adv-x="240" 
d="M200 822q-9 -20 -28 -33l-171 144q12 24 33 38zM150 700v-700q-30 -8 -60 0v700q30 8 60 0z" />
    <glyph glyph-name="Iacute" unicode="&#xcd;" horiz-adv-x="240" 
d="M70 822l166 149q21 -14 33 -38l-171 -144q-19 13 -28 33zM150 700v-700q-30 -8 -60 0v700q30 8 60 0z" />
    <glyph glyph-name="Icircumflex" unicode="&#xce;" horiz-adv-x="240" 
d="M120 961l148 -136q-13 -21 -35 -36l-88 96q-21 23 -23 38h-4q-2 -15 -23 -38l-88 -96q-22 15 -35 36zM90 700q30 8 60 0v-700q-30 -8 -60 0v700z" />
    <glyph glyph-name="Idieresis" unicode="&#xcf;" horiz-adv-x="240" 
d="M23 820q-43 0 -43 42q0 43 43 43q42 0 42 -43q0 -42 -42 -42zM218 820q-43 0 -43 42q0 43 43 43q42 0 42 -43q0 -42 -42 -42zM150 700v-700q-30 -8 -60 0v700q30 8 60 0z" />
    <glyph glyph-name="Eth" unicode="&#xd0;" horiz-adv-x="614" 
d="M314 700q117 0 178.5 -59.5t61.5 -157.5v-266q0 -98 -61.5 -157.5t-178.5 -59.5h-220v345h-90q-7 25 0 50h90v305h220zM494 232v236q0 86 -44.5 134t-135.5 48h-160v-255h185q7 -25 0 -50h-185v-245q0 -26 -5 -45l5 -5h160q91 0 135.5 48t44.5 134z" />
    <glyph glyph-name="Ntilde" unicode="&#xd1;" horiz-adv-x="670" 
d="M387 870q-22 0 -57.5 -23t-64.5 -23q-52 0 -105 53q12 18 27 31q42 -39 75 -39q21 0 57.5 23.5t65.5 23.5q51 0 105 -54q-12 -18 -27 -31q-42 39 -76 39zM525 700q27 8 55 0v-700q-22 -8 -45 0l-390 580l-5 -3q5 -19 5 -47v-530q-28 -8 -55 0v700q22 8 45 0l390 -580l5 3
q-5 19 -5 47v530z" />
    <glyph glyph-name="Ograve" unicode="&#xd2;" horiz-adv-x="590" 
d="M375 822q-9 -20 -28 -33l-171 144q12 24 33 38zM295 710q115 0 175 -55.5t60 -151.5v-306q0 -96 -60 -151.5t-175 -55.5t-175 55.5t-60 151.5v306q0 96 60 151.5t175 55.5zM470 212v276q0 87 -42.5 129t-132.5 43q-90 -1 -132.5 -43t-42.5 -129v-276q0 -87 42.5 -129
t132.5 -43q90 1 132.5 43t42.5 129z" />
    <glyph glyph-name="Oacute" unicode="&#xd3;" horiz-adv-x="590" 
d="M273 789q-19 13 -28 33l166 149q21 -14 33 -38zM295 710q115 0 175 -55.5t60 -151.5v-306q0 -96 -60 -151.5t-175 -55.5t-175 55.5t-60 151.5v306q0 96 60 151.5t175 55.5zM470 212v276q0 87 -42.5 129t-132.5 43q-90 -1 -132.5 -43t-42.5 -129v-276q0 -87 42.5 -129
t132.5 -43q90 1 132.5 43t42.5 129z" />
    <glyph glyph-name="Ocircumflex" unicode="&#xd4;" horiz-adv-x="590" 
d="M182 789q-22 15 -35 36l148 136l148 -136q-13 -21 -35 -36l-88 96q-21 23 -23 38h-4q-2 -15 -23 -38zM295 710q115 0 175 -55.5t60 -151.5v-306q0 -96 -60 -151.5t-175 -55.5t-175 55.5t-60 151.5v306q0 96 60 151.5t175 55.5zM470 212v276q0 87 -42.5 129t-132.5 43
q-90 -1 -132.5 -43t-42.5 -129v-276q0 -87 42.5 -129t132.5 -43q90 1 132.5 43t42.5 129z" />
    <glyph glyph-name="Otilde" unicode="&#xd5;" horiz-adv-x="590" 
d="M357 870q-22 0 -57.5 -23t-64.5 -23q-52 0 -105 53q12 18 27 31q42 -39 75 -39q21 0 57.5 23.5t65.5 23.5q51 0 105 -54q-12 -18 -27 -31q-42 39 -76 39zM295 710q115 0 175 -55.5t60 -151.5v-306q0 -96 -60 -151.5t-175 -55.5t-175 55.5t-60 151.5v306q0 96 60 151.5
t175 55.5zM470 212v276q0 87 -42.5 129t-132.5 43q-90 -1 -132.5 -43t-42.5 -129v-276q0 -87 42.5 -129t132.5 -43q90 1 132.5 43t42.5 129z" />
    <glyph glyph-name="Odieresis" unicode="&#xd6;" horiz-adv-x="590" 
d="M198 820q-43 0 -43 42q0 43 43 43q42 0 42 -43q0 -42 -42 -42zM393 820q-43 0 -43 42q0 43 43 43q42 0 42 -43q0 -42 -42 -42zM295 710q115 0 175 -55.5t60 -151.5v-306q0 -96 -60 -151.5t-175 -55.5t-175 55.5t-60 151.5v306q0 96 60 151.5t175 55.5zM470 212v276
q0 87 -42.5 129t-132.5 43q-90 -1 -132.5 -43t-42.5 -129v-276q0 -87 42.5 -129t132.5 -43q90 1 132.5 43t42.5 129z" />
    <glyph glyph-name="multiply" unicode="&#xd7;" horiz-adv-x="557" 
d="M507 548l-193 -193l193 -193q-13 -24 -36 -35l-193 193l-193 -193q-24 13 -35 35l193 193l-193 193q11 22 35 35l193 -193l193 193q23 -11 36 -35z" />
    <glyph glyph-name="Oslash" unicode="&#xd8;" horiz-adv-x="590" 
d="M462 661q68 -54 68 -158v-306q0 -96 -60 -151.5t-175 -55.5q-77 0 -133 27l-39 -83q-19 3 -35 16l41 88q-69 54 -69 159v306q0 96 60 151.5t175 55.5q77 0 133 -27l39 83q21 -3 36 -17zM120 212q0 -77 34 -120l252 542q-43 26 -111 26q-90 -1 -132.5 -43t-42.5 -129v-276
zM470 212v276q0 76 -33 119l-252 -541q41 -26 110 -26q90 1 132.5 43t42.5 129z" />
    <glyph glyph-name="Ugrave" unicode="&#xd9;" horiz-adv-x="650" 
d="M405 822q-9 -20 -28 -33l-171 144q12 24 33 38zM500 700q30 8 60 0v-493q0 -97 -60.5 -157t-174.5 -60t-174.5 60t-60.5 157v493q30 8 60 0v-478q0 -181 175 -182q175 1 175 182v478z" />
    <glyph glyph-name="Uacute" unicode="&#xda;" horiz-adv-x="650" 
d="M303 789q-19 13 -28 33l166 149q21 -14 33 -38zM500 700q30 8 60 0v-493q0 -97 -60.5 -157t-174.5 -60t-174.5 60t-60.5 157v493q30 8 60 0v-478q0 -181 175 -182q175 1 175 182v478z" />
    <glyph glyph-name="Ucircumflex" unicode="&#xdb;" horiz-adv-x="650" 
d="M212 789q-22 15 -35 36l148 136l148 -136q-13 -21 -35 -36l-88 96q-21 23 -23 38h-4q-2 -15 -23 -38zM500 700q30 8 60 0v-493q0 -97 -60.5 -157t-174.5 -60t-174.5 60t-60.5 157v493q30 8 60 0v-478q0 -181 175 -182q175 1 175 182v478z" />
    <glyph glyph-name="Udieresis" unicode="&#xdc;" horiz-adv-x="650" 
d="M228 820q-43 0 -43 42q0 43 43 43q42 0 42 -43q0 -42 -42 -42zM423 820q-43 0 -43 42q0 43 43 43q42 0 42 -43q0 -42 -42 -42zM500 700q30 8 60 0v-493q0 -97 -60.5 -157t-174.5 -60t-174.5 60t-60.5 157v493q30 8 60 0v-478q0 -181 175 -182q175 1 175 182v478z" />
    <glyph glyph-name="Yacute" unicode="&#xdd;" horiz-adv-x="531" 
d="M244 789q-19 13 -28 33l166 149q21 -14 33 -38zM521 700l-219 -396v-304q-30 -8 -60 0v307l-232 393q32 9 67 0l181 -308q7 -11 14 -49h5q4 36 12 49l171 308q32 8 61 0z" />
    <glyph glyph-name="Thorn" unicode="&#xde;" horiz-adv-x="580" 
d="M330 580q99 0 154.5 -45t55.5 -127v-86q0 -82 -55.5 -127t-154.5 -45h-180v-150q-30 -8 -60 0v700q30 8 60 0v-120h180zM480 347v36q0 79 -37.5 112.5t-112.5 34.5h-180v-280q0 -26 -5 -45l5 -5h180q75 1 112.5 34.5t37.5 112.5z" />
    <glyph glyph-name="germandbls" unicode="&#xdf;" horiz-adv-x="611" 
d="M390 374q0 -31 18 -53.5t44 -37.5t52 -32t44 -46.5t18 -71.5q0 -67 -42.5 -105t-123.5 -38q-80 0 -148 39q0 23 16 44q64 -33 131 -33q112 0 112 89q0 27 -13 47.5t-32.5 31.5t-42.5 25.5t-42.5 28.5t-32.5 40.5t-13 62.5q0 51 36.5 109t36.5 109q0 58 -30.5 90t-89.5 32
q-118 0 -118 -127v-578q-28 -8 -55 0v450h-81q-7 25 0 50h81v83q0 77 48 122t126 45t123.5 -44.5t45.5 -122.5q0 -45 -17 -81.5t-34 -67t-17 -60.5z" />
    <glyph glyph-name="agrave" unicode="&#xe0;" horiz-adv-x="493" 
d="M324 622q-9 -20 -28 -33l-171 144q12 24 33 38zM243 510q85 0 127.5 -35t42.5 -112v-363q-27 -8 -55 0q0 13 5 28l-5 5q-61 -43 -146 -43q-71 0 -116.5 37t-45.5 100v26q0 63 45.5 100t116.5 37q85 0 146 -43l5 5q-5 19 -5 45v51q0 62 -27.5 87t-92.5 25q-82 0 -150 -33
q-16 21 -16 44q68 39 171 39zM358 68v144q-75 33 -137 33q-116 0 -116 -97v-16q0 -97 116 -97q62 0 137 33z" />
    <glyph glyph-name="aacute" unicode="&#xe1;" horiz-adv-x="493" 
d="M222 589q-19 13 -28 33l166 149q21 -14 33 -38zM243 510q85 0 127.5 -35t42.5 -112v-363q-27 -8 -55 0q0 13 5 28l-5 5q-61 -43 -146 -43q-71 0 -116.5 37t-45.5 100v26q0 63 45.5 100t116.5 37q85 0 146 -43l5 5q-5 19 -5 45v51q0 62 -27.5 87t-92.5 25q-82 0 -150 -33
q-16 21 -16 44q68 39 171 39zM358 68v144q-75 33 -137 33q-116 0 -116 -97v-16q0 -97 116 -97q62 0 137 33z" />
    <glyph glyph-name="acircumflex" unicode="&#xe2;" horiz-adv-x="493" 
d="M131 589q-22 15 -35 36l148 136l148 -136q-13 -21 -35 -36l-88 96q-21 23 -23 38h-4q-2 -15 -23 -38zM243 510q85 0 127.5 -35t42.5 -112v-363q-27 -8 -55 0q0 13 5 28l-5 5q-61 -43 -146 -43q-71 0 -116.5 37t-45.5 100v26q0 63 45.5 100t116.5 37q85 0 146 -43l5 5
q-5 19 -5 45v51q0 62 -27.5 87t-92.5 25q-82 0 -150 -33q-16 21 -16 44q68 39 171 39zM358 68v144q-75 33 -137 33q-116 0 -116 -97v-16q0 -97 116 -97q62 0 137 33z" />
    <glyph glyph-name="atilde" unicode="&#xe3;" horiz-adv-x="493" 
d="M306 670q-22 0 -57.5 -23t-64.5 -23q-52 0 -105 53q12 18 27 31q42 -39 75 -39q21 0 57.5 23.5t65.5 23.5q51 0 105 -54q-12 -18 -27 -31q-42 39 -76 39zM243 510q85 0 127.5 -35t42.5 -112v-363q-27 -8 -55 0q0 13 5 28l-5 5q-61 -43 -146 -43q-71 0 -116.5 37
t-45.5 100v26q0 63 45.5 100t116.5 37q85 0 146 -43l5 5q-5 19 -5 45v51q0 62 -27.5 87t-92.5 25q-82 0 -150 -33q-16 21 -16 44q68 39 171 39zM358 68v144q-75 33 -137 33q-116 0 -116 -97v-16q0 -97 116 -97q62 0 137 33z" />
    <glyph glyph-name="adieresis" unicode="&#xe4;" horiz-adv-x="493" 
d="M147 620q-43 0 -43 42q0 43 43 43q42 0 42 -43q0 -42 -42 -42zM342 620q-43 0 -43 42q0 43 43 43q42 0 42 -43q0 -42 -42 -42zM243 510q85 0 127.5 -35t42.5 -112v-363q-27 -8 -55 0q0 13 5 28l-5 5q-61 -43 -146 -43q-71 0 -116.5 37t-45.5 100v26q0 63 45.5 100
t116.5 37q85 0 146 -43l5 5q-5 19 -5 45v51q0 62 -27.5 87t-92.5 25q-82 0 -150 -33q-16 21 -16 44q68 39 171 39zM358 68v144q-75 33 -137 33q-116 0 -116 -97v-16q0 -97 116 -97q62 0 137 33z" />
    <glyph glyph-name="aring" unicode="&#xe5;" horiz-adv-x="493" 
d="M244 571q-94 0 -94 90q0 93 94 93q92 0 92 -93q0 -90 -92 -90zM244 721q-57 0 -57 -60q0 -57 57 -57q55 0 55 57q0 60 -55 60zM243 510q85 0 127.5 -35t42.5 -112v-363q-27 -8 -55 0q0 13 5 28l-5 5q-61 -43 -146 -43q-71 0 -116.5 37t-45.5 100v26q0 63 45.5 100
t116.5 37q85 0 146 -43l5 5q-5 19 -5 45v51q0 62 -27.5 87t-92.5 25q-82 0 -150 -33q-16 21 -16 44q68 39 171 39zM358 68v144q-75 33 -137 33q-116 0 -116 -97v-16q0 -97 116 -97q62 0 137 33z" />
    <glyph glyph-name="ae" unicode="&#xe6;" horiz-adv-x="804" 
d="M419 257l-5 -5v-70q0 -72 37 -107t118 -35q79 0 145 33q16 -21 16 -44q-68 -39 -161 -39q-116 0 -168 66q-92 -66 -189 -66q-71 0 -116.5 37t-45.5 100v26q0 63 45.5 100t116.5 37q85 0 146 -43l5 5q-5 19 -5 45v51q0 62 -27.5 87t-92.5 25q-82 0 -150 -33q-16 21 -16 44
q68 39 171 39q123 0 157 -74q48 74 159 74q90 0 140 -48.5t50 -128.5v-81h-55h-230q-26 0 -45 5zM558 460q-144 0 -144 -152v-6h230q26 0 45 -5l5 5v16q0 142 -136 142zM221 35q62 0 137 33v144q-75 33 -137 33q-116 0 -116 -97v-16q0 -97 116 -97z" />
    <glyph glyph-name="ccedilla" unicode="&#xe7;" horiz-adv-x="451" 
d="M411 29q-66 -38 -147 -39l-16 -42q81 -17 81 -80q0 -39 -35 -59t-96 -9q-7 25 0 50q76 -16 76 25q0 19 -18 30.5t-58 21.5l27 65q-81 9 -123 55.5t-42 119.5v166q0 81 51.5 129t148.5 48q84 0 151 -39q0 -23 -16 -44q-66 33 -134 33q-78 0 -112 -35t-34 -107v-136
q0 -72 34 -107t112 -35q68 0 134 33q16 -21 16 -44z" />
    <glyph glyph-name="egrave" unicode="&#xe8;" horiz-adv-x="505" 
d="M333 622q-9 -20 -28 -33l-171 144q12 24 33 38zM120 257l-5 -5v-70q0 -72 37 -107t118 -35q79 0 145 33q16 -21 16 -44q-67 -39 -161 -39q-102 0 -156 48t-54 129v156q0 82 53 134.5t147 52.5q90 0 140 -48.5t50 -128.5v-81h-55h-230q-26 0 -45 5zM259 460
q-144 0 -144 -152v-6h230q26 0 45 -5l5 5v16q0 142 -136 142z" />
    <glyph glyph-name="eacute" unicode="&#xe9;" horiz-adv-x="505" 
d="M231 589q-19 13 -28 33l166 149q21 -14 33 -38zM120 257l-5 -5v-70q0 -72 37 -107t118 -35q79 0 145 33q16 -21 16 -44q-67 -39 -161 -39q-102 0 -156 48t-54 129v156q0 82 53 134.5t147 52.5q90 0 140 -48.5t50 -128.5v-81h-55h-230q-26 0 -45 5zM259 460
q-144 0 -144 -152v-6h230q26 0 45 -5l5 5v16q0 142 -136 142z" />
    <glyph glyph-name="ecircumflex" unicode="&#xea;" horiz-adv-x="505" 
d="M140 589q-22 15 -35 36l148 136l148 -136q-13 -21 -35 -36l-88 96q-21 23 -23 38h-4q-2 -15 -23 -38zM120 257l-5 -5v-70q0 -72 37 -107t118 -35q79 0 145 33q16 -21 16 -44q-67 -39 -161 -39q-102 0 -156 48t-54 129v156q0 82 53 134.5t147 52.5q90 0 140 -48.5
t50 -128.5v-81h-55h-230q-26 0 -45 5zM259 460q-144 0 -144 -152v-6h230q26 0 45 -5l5 5v16q0 142 -136 142z" />
    <glyph glyph-name="edieresis" unicode="&#xeb;" horiz-adv-x="505" 
d="M156 620q-43 0 -43 42q0 43 43 43q42 0 42 -43q0 -42 -42 -42zM351 620q-43 0 -43 42q0 43 43 43q42 0 42 -43q0 -42 -42 -42zM120 257l-5 -5v-70q0 -72 37 -107t118 -35q79 0 145 33q16 -21 16 -44q-67 -39 -161 -39q-102 0 -156 48t-54 129v156q0 82 53 134.5t147 52.5
q90 0 140 -48.5t50 -128.5v-81h-55h-230q-26 0 -45 5zM259 460q-144 0 -144 -152v-6h230q26 0 45 -5l5 5v16q0 142 -136 142z" />
    <glyph glyph-name="igrave" unicode="&#xec;" horiz-adv-x="215" 
d="M187 622q-9 -20 -28 -33l-171 144q12 24 33 38zM80 490q18 15 55 15v-505q-27 -8 -55 0v490z" />
    <glyph glyph-name="iacute" unicode="&#xed;" horiz-adv-x="215" 
d="M57 622l166 149q21 -14 33 -38l-171 -144q-19 13 -28 33zM80 490q18 15 55 15v-505q-27 -8 -55 0v490z" />
    <glyph glyph-name="icircumflex" unicode="&#xee;" horiz-adv-x="215" 
d="M107 761l148 -136q-13 -21 -35 -36l-88 96q-21 23 -23 38h-4q-2 -15 -23 -38l-88 -96q-22 15 -35 36zM80 0v490q18 15 55 15v-505q-27 -8 -55 0z" />
    <glyph glyph-name="idieresis" unicode="&#xef;" horiz-adv-x="215" 
d="M10 620q-43 0 -43 42q0 43 43 43q42 0 42 -43q0 -42 -42 -42zM205 620q-43 0 -43 42q0 43 43 43q42 0 42 -43q0 -42 -42 -42zM80 490q18 15 55 15v-505q-27 -8 -55 0v490z" />
    <glyph glyph-name="eth" unicode="&#xf0;" horiz-adv-x="511" 
d="M268 706q55 -23 92.5 -57.5t56.5 -80t26.5 -91.5t7.5 -105v-205q0 -82 -48 -129.5t-143 -47.5q-101 0 -150.5 47.5t-49.5 129.5v106q0 82 48 129.5t142 47.5q85 0 146 -43l5 5q0 191 -157 260l-53 -75q-16 7 -28 20l48 68q-41 14 -92 21q0 20 10 35q53 -7 106 -22l45 64
q16 -7 28 -20zM396 182v190q-63 28 -136 28q-80 0 -112.5 -34t-32.5 -108v-76q0 -74 32.5 -108t112.5 -34q74 0 105 34.5t31 107.5z" />
    <glyph glyph-name="ntilde" unicode="&#xf1;" horiz-adv-x="540" 
d="M342 670q-22 0 -57.5 -23t-64.5 -23q-52 0 -105 53q12 18 27 31q42 -39 75 -39q21 0 57.5 23.5t65.5 23.5q51 0 105 -54q-12 -18 -27 -31q-42 39 -76 39zM315 510q145 0 145 -137v-373q-28 -8 -55 0v358q0 58 -28.5 80t-85.5 22q-89 0 -156 -38v-422q-27 -8 -55 0v490
q18 15 55 15q0 -27 -5 -43l5 -5q70 53 180 53z" />
    <glyph glyph-name="ograve" unicode="&#xf2;" horiz-adv-x="520" 
d="M340 622q-9 -20 -28 -33l-171 144q12 24 33 38zM260 510q101 0 150.5 -47.5t49.5 -129.5v-166q0 -82 -49.5 -129.5t-150.5 -47.5t-150.5 47.5t-49.5 129.5v166q0 82 49.5 129.5t150.5 47.5zM405 182v136q0 74 -32.5 108t-112.5 34t-112.5 -34t-32.5 -108v-136
q0 -74 32.5 -108t112.5 -34t112.5 34t32.5 108z" />
    <glyph glyph-name="oacute" unicode="&#xf3;" horiz-adv-x="520" 
d="M238 589q-19 13 -28 33l166 149q21 -14 33 -38zM260 510q101 0 150.5 -47.5t49.5 -129.5v-166q0 -82 -49.5 -129.5t-150.5 -47.5t-150.5 47.5t-49.5 129.5v166q0 82 49.5 129.5t150.5 47.5zM405 182v136q0 74 -32.5 108t-112.5 34t-112.5 -34t-32.5 -108v-136
q0 -74 32.5 -108t112.5 -34t112.5 34t32.5 108z" />
    <glyph glyph-name="ocircumflex" unicode="&#xf4;" horiz-adv-x="520" 
d="M147 589q-22 15 -35 36l148 136l148 -136q-13 -21 -35 -36l-88 96q-21 23 -23 38h-4q-2 -15 -23 -38zM260 510q101 0 150.5 -47.5t49.5 -129.5v-166q0 -82 -49.5 -129.5t-150.5 -47.5t-150.5 47.5t-49.5 129.5v166q0 82 49.5 129.5t150.5 47.5zM405 182v136
q0 74 -32.5 108t-112.5 34t-112.5 -34t-32.5 -108v-136q0 -74 32.5 -108t112.5 -34t112.5 34t32.5 108z" />
    <glyph glyph-name="otilde" unicode="&#xf5;" horiz-adv-x="520" 
d="M322 670q-22 0 -57.5 -23t-64.5 -23q-52 0 -105 53q12 18 27 31q42 -39 75 -39q21 0 57.5 23.5t65.5 23.5q51 0 105 -54q-12 -18 -27 -31q-42 39 -76 39zM260 510q101 0 150.5 -47.5t49.5 -129.5v-166q0 -82 -49.5 -129.5t-150.5 -47.5t-150.5 47.5t-49.5 129.5v166
q0 82 49.5 129.5t150.5 47.5zM405 182v136q0 74 -32.5 108t-112.5 34t-112.5 -34t-32.5 -108v-136q0 -74 32.5 -108t112.5 -34t112.5 34t32.5 108z" />
    <glyph glyph-name="odieresis" unicode="&#xf6;" horiz-adv-x="520" 
d="M163 620q-43 0 -43 42q0 43 43 43q42 0 42 -43q0 -42 -42 -42zM358 620q-43 0 -43 42q0 43 43 43q42 0 42 -43q0 -42 -42 -42zM260 510q101 0 150.5 -47.5t49.5 -129.5v-166q0 -82 -49.5 -129.5t-150.5 -47.5t-150.5 47.5t-49.5 129.5v166q0 82 49.5 129.5t150.5 47.5z
M405 182v136q0 74 -32.5 108t-112.5 34t-112.5 -34t-32.5 -108v-136q0 -74 32.5 -108t112.5 -34t112.5 34t32.5 108z" />
    <glyph glyph-name="divide" unicode="&#xf7;" horiz-adv-x="644" 
d="M323 515q-43 0 -43 42q0 43 43 43q42 0 42 -43q0 -42 -42 -42zM590 380q7 -25 0 -50h-536q-7 25 0 50h536zM323 90q-43 0 -43 42q0 43 43 43q42 0 42 -43q0 -42 -42 -42z" />
    <glyph glyph-name="oslash" unicode="&#xf8;" horiz-adv-x="520" 
d="M390 479q70 -45 70 -146v-166q0 -82 -49.5 -129.5t-150.5 -47.5q-50 0 -92 13l-37 -79q-19 3 -35 16l37 80q-73 44 -73 147v166q0 82 49.5 129.5t150.5 47.5q54 0 94 -14l37 80q22 -5 36 -18zM115 182q0 -82 40 -115l178 383q-29 10 -73 10q-80 0 -112.5 -34t-32.5 -108
v-136zM405 182v136q0 80 -37 113l-179 -382q30 -9 71 -9q80 0 112.5 34t32.5 108z" />
    <glyph glyph-name="ugrave" unicode="&#xf9;" horiz-adv-x="530" 
d="M360 622q-9 -20 -28 -33l-171 144q12 24 33 38zM395 490q18 15 55 15v-505q-28 -8 -55 0q0 22 5 38l-5 5q-69 -53 -170 -53q-145 0 -145 137v363q18 15 55 15v-363q0 -58 28 -79.5t86 -22.5q79 0 146 38v412z" />
    <glyph glyph-name="uacute" unicode="&#xfa;" horiz-adv-x="530" 
d="M258 589q-19 13 -28 33l166 149q21 -14 33 -38zM395 490q18 15 55 15v-505q-28 -8 -55 0q0 22 5 38l-5 5q-69 -53 -170 -53q-145 0 -145 137v363q18 15 55 15v-363q0 -58 28 -79.5t86 -22.5q79 0 146 38v412z" />
    <glyph glyph-name="ucircumflex" unicode="&#xfb;" horiz-adv-x="530" 
d="M167 589q-22 15 -35 36l148 136l148 -136q-13 -21 -35 -36l-88 96q-21 23 -23 38h-4q-2 -15 -23 -38zM395 490q18 15 55 15v-505q-28 -8 -55 0q0 22 5 38l-5 5q-69 -53 -170 -53q-145 0 -145 137v363q18 15 55 15v-363q0 -58 28 -79.5t86 -22.5q79 0 146 38v412z" />
    <glyph glyph-name="udieresis" unicode="&#xfc;" horiz-adv-x="530" 
d="M183 620q-43 0 -43 42q0 43 43 43q42 0 42 -43q0 -42 -42 -42zM378 620q-43 0 -43 42q0 43 43 43q42 0 42 -43q0 -42 -42 -42zM395 490q18 15 55 15v-505q-28 -8 -55 0q0 22 5 38l-5 5q-69 -53 -170 -53q-145 0 -145 137v363q18 15 55 15v-363q0 -58 28 -79.5t86 -22.5
q79 0 146 38v412z" />
    <glyph glyph-name="yacute" unicode="&#xfd;" horiz-adv-x="465" 
d="M214 589q-19 13 -28 33l166 149q21 -14 33 -38zM392 500q31 8 58 0l-182 -497q-38 -104 -87 -155t-124 -58q-7 22 0 45q57 9 89.5 46t66.5 122l-193 497q28 8 60 0l145 -384q10 -25 14 -46h5q3 21 12 49z" />
    <glyph glyph-name="thorn" unicode="&#xfe;" horiz-adv-x="600" 
d="M280 510q94 0 142 -47.5t48 -129.5v-166q0 -82 -48 -129.5t-142 -47.5q-84 0 -145 43l-5 -5q5 -19 5 -45v-168q-18 -15 -55 -15v840v85q18 15 55 15v-223q0 -26 -5 -45l5 -5q61 43 145 43zM415 182v136q0 74 -32.5 108t-112.5 34q-72 0 -135 -28v-364q63 -28 135 -28
q80 0 112.5 34t32.5 108z" />
    <glyph glyph-name="ydieresis" unicode="&#xff;" horiz-adv-x="465" 
d="M139 620q-43 0 -43 42q0 43 43 43q42 0 42 -43q0 -42 -42 -42zM334 620q-43 0 -43 42q0 43 43 43q42 0 42 -43q0 -42 -42 -42zM392 500q31 8 58 0l-182 -497q-38 -104 -87 -155t-124 -58q-7 22 0 45q57 9 89.5 46t66.5 122l-193 497q28 8 60 0l145 -384q10 -25 14 -46h5
q3 21 12 49z" />
    <glyph glyph-name="Amacron" unicode="&#x100;" horiz-adv-x="570" 
d="M450 840h-322q-7 25 0 50h322q7 -25 0 -50zM314 700l246 -700q-31 -9 -65 0l-75 215h-274l-75 -215q-32 -8 -61 0l243 700q29 8 61 0zM163 265h239l-104 299q-10 26 -14 49h-5q-3 -25 -12 -49z" />
    <glyph glyph-name="amacron" unicode="&#x101;" horiz-adv-x="493" 
d="M405 640h-322q-7 25 0 50h322q7 -25 0 -50zM243 510q85 0 127.5 -35t42.5 -112v-363q-27 -8 -55 0q0 13 5 28l-5 5q-61 -43 -146 -43q-71 0 -116.5 37t-45.5 100v26q0 63 45.5 100t116.5 37q85 0 146 -43l5 5q-5 19 -5 45v51q0 62 -27.5 87t-92.5 25q-82 0 -150 -33
q-16 21 -16 44q68 39 171 39zM358 68v144q-75 33 -137 33q-116 0 -116 -97v-16q0 -97 116 -97q62 0 137 33z" />
    <glyph glyph-name="Abreve" unicode="&#x102;" horiz-adv-x="570" 
d="M289 800q-118 0 -140 130q20 7 40 10q19 -95 100 -95t100 95q20 -3 40 -10q-22 -130 -140 -130zM314 700l246 -700q-31 -9 -65 0l-75 215h-274l-75 -215q-32 -8 -61 0l243 700q29 8 61 0zM163 265h239l-104 299q-10 26 -14 49h-5q-3 -25 -12 -49z" />
    <glyph glyph-name="abreve" unicode="&#x103;" horiz-adv-x="493" 
d="M244 600q-118 0 -140 130q20 7 40 10q19 -95 100 -95t100 95q20 -3 40 -10q-22 -130 -140 -130zM243 510q85 0 127.5 -35t42.5 -112v-363q-27 -8 -55 0q0 13 5 28l-5 5q-61 -43 -146 -43q-71 0 -116.5 37t-45.5 100v26q0 63 45.5 100t116.5 37q85 0 146 -43l5 5
q-5 19 -5 45v51q0 62 -27.5 87t-92.5 25q-82 0 -150 -33q-16 21 -16 44q68 39 171 39zM358 68v144q-75 33 -137 33q-116 0 -116 -97v-16q0 -97 116 -97q62 0 137 33z" />
    <glyph glyph-name="Aogonek" unicode="&#x104;" horiz-adv-x="570" 
d="M461 -110q0 -53 76 -40q7 -25 0 -50q-62 -11 -96.5 11.5t-34.5 68.5q0 68 88 121l-74 214h-274l-75 -215q-32 -8 -61 0l243 700q29 8 61 0l246 -700q-9 -2 -28 -4q-42 -33 -56.5 -56.5t-14.5 -49.5zM163 265h239l-104 299q-10 26 -14 49h-5q-3 -25 -12 -49z" />
    <glyph glyph-name="aogonek" unicode="&#x105;" horiz-adv-x="497" 
d="M413 -150q7 -25 0 -50q-62 -11 -96.5 11.5t-34.5 68.5q0 63 86 122q-3 14 -10 31q-61 -43 -146 -43q-71 0 -116.5 37t-45.5 100v26q0 63 45.5 100t116.5 37q85 0 146 -43l5 5q-5 19 -5 45v51q0 62 -27.5 87t-92.5 25q-82 0 -150 -33q-16 21 -16 44q68 39 171 39
q85 0 127.5 -35t42.5 -112v-363q-76 -56 -76 -110q0 -56 76 -40zM358 68v144q-75 33 -137 33q-116 0 -116 -97v-16q0 -97 116 -97q62 0 137 33z" />
    <glyph glyph-name="Cacute" unicode="&#x106;" horiz-adv-x="543" 
d="M239 822l166 149q21 -14 33 -38l-171 -144q-19 13 -28 33zM295 40q95 0 180 58q15 -20 18 -47q-89 -61 -198 -61q-118 0 -176.5 59t-58.5 158v286q0 99 58.5 158t176.5 59q109 0 198 -61q-3 -27 -20 -49q-88 60 -179 60q-174 0 -174 -182v-256q0 -182 175 -182z" />
    <glyph glyph-name="cacute" unicode="&#x107;" horiz-adv-x="451" 
d="M196 622l166 149q21 -14 33 -38l-171 -144q-19 13 -28 33zM261 40q68 0 134 33q16 -21 16 -44q-67 -39 -151 -39q-97 0 -148.5 48t-51.5 129v166q0 81 51.5 129t148.5 48q84 0 151 -39q0 -23 -16 -44q-66 33 -134 33q-78 0 -112 -35t-34 -107v-136q0 -72 34 -107t112 -35
z" />
    <glyph glyph-name="Cdotaccent" unicode="&#x10a;" horiz-adv-x="543" 
d="M289 820q-43 0 -43 42q0 43 43 43q42 0 42 -43q0 -42 -42 -42zM295 40q95 0 180 58q15 -20 18 -47q-89 -61 -198 -61q-118 0 -176.5 59t-58.5 158v286q0 99 58.5 158t176.5 59q109 0 198 -61q-3 -27 -20 -49q-88 60 -179 60q-174 0 -174 -182v-256q0 -182 175 -182z" />
    <glyph glyph-name="cdotaccent" unicode="&#x10b;" horiz-adv-x="451" 
d="M246 620q-43 0 -43 42q0 43 43 43q42 0 42 -43q0 -42 -42 -42zM261 40q68 0 134 33q16 -21 16 -44q-67 -39 -151 -39q-97 0 -148.5 48t-51.5 129v166q0 81 51.5 129t148.5 48q84 0 151 -39q0 -23 -16 -44q-66 33 -134 33q-78 0 -112 -35t-34 -107v-136q0 -72 34 -107
t112 -35z" />
    <glyph glyph-name="Ccaron" unicode="&#x10c;" horiz-adv-x="543" 
d="M437 925l-148 -136l-148 136q13 21 35 36l88 -96q21 -23 23 -38h4q2 15 23 38l88 96q22 -15 35 -36zM295 40q95 0 180 58q15 -20 18 -47q-89 -61 -198 -61q-118 0 -176.5 59t-58.5 158v286q0 99 58.5 158t176.5 59q109 0 198 -61q-3 -27 -20 -49q-88 60 -179 60
q-174 0 -174 -182v-256q0 -182 175 -182z" />
    <glyph glyph-name="ccaron" unicode="&#x10d;" horiz-adv-x="451" 
d="M394 725l-148 -136l-148 136q13 21 35 36l88 -96q21 -23 23 -38h4q2 15 23 38l88 96q22 -15 35 -36zM261 40q68 0 134 33q16 -21 16 -44q-67 -39 -151 -39q-97 0 -148.5 48t-51.5 129v166q0 81 51.5 129t148.5 48q84 0 151 -39q0 -23 -16 -44q-66 33 -134 33
q-78 0 -112 -35t-34 -107v-136q0 -72 34 -107t112 -35z" />
    <glyph glyph-name="Dcaron" unicode="&#x10e;" horiz-adv-x="610" 
d="M456 925l-148 -136l-148 136q13 21 35 36l88 -96q21 -23 23 -38h4q2 15 23 38l88 96q22 -15 35 -36zM310 700q117 0 178.5 -59.5t61.5 -157.5v-266q0 -98 -61.5 -157.5t-178.5 -59.5h-220v700h220zM490 232v236q0 86 -44.5 134t-135.5 48h-160v-550q0 -26 -5 -45l5 -5
h160q91 0 135.5 48t44.5 134z" />
    <glyph glyph-name="dcaron" unicode="&#x10f;" horiz-adv-x="605" 
d="M395 725q18 15 55 15v-740q-28 -8 -55 0q0 13 5 28l-5 5q-61 -43 -145 -43q-94 0 -142 47.5t-48 129.5v166q0 82 48 129.5t142 47.5q84 0 145 -43l5 5q-5 19 -5 45v208zM540 700q28 8 55 0l-5 -180q-22 -4 -45 0zM395 68v364q-63 28 -135 28q-80 0 -112.5 -34t-32.5 -108
v-136q0 -74 32.5 -108t112.5 -34q72 0 135 28z" />
    <glyph glyph-name="Dcroat" unicode="&#x110;" horiz-adv-x="614" 
d="M314 700q117 0 178.5 -59.5t61.5 -157.5v-266q0 -98 -61.5 -157.5t-178.5 -59.5h-220v345h-90q-7 25 0 50h90v305h220zM494 232v236q0 86 -44.5 134t-135.5 48h-160v-255h185q7 -25 0 -50h-185v-245q0 -26 -5 -45l5 -5h160q91 0 135.5 48t44.5 134z" />
    <glyph glyph-name="dcroat" unicode="&#x111;" horiz-adv-x="549" 
d="M530 630q7 -25 0 -50h-80v-580q-28 -8 -55 0q0 13 5 28l-5 5q-61 -43 -145 -43q-94 0 -142 47.5t-48 129.5v166q0 82 48 129.5t142 47.5q84 0 145 -43l5 5q-5 19 -5 45v63h-176q-7 25 0 50h176v95q18 15 55 15v-110h80zM395 68v364q-63 28 -135 28q-80 0 -112.5 -34
t-32.5 -108v-136q0 -74 32.5 -108t112.5 -34q72 0 135 28z" />
    <glyph glyph-name="Emacron" unicode="&#x112;" horiz-adv-x="547" 
d="M460 840h-322q-7 25 0 50h322q7 -25 0 -50zM493 50q7 -25 0 -50h-379h-24v700h60h333q7 -25 0 -50h-333v-215q0 -26 -5 -45l5 -5h293q7 -25 0 -50h-293v-235q0 -26 -5 -45l5 -5h343z" />
    <glyph glyph-name="emacron" unicode="&#x113;" horiz-adv-x="505" 
d="M414 640h-322q-7 25 0 50h322q7 -25 0 -50zM120 257l-5 -5v-70q0 -72 37 -107t118 -35q79 0 145 33q16 -21 16 -44q-67 -39 -161 -39q-102 0 -156 48t-54 129v156q0 82 53 134.5t147 52.5q90 0 140 -48.5t50 -128.5v-81h-55h-230q-26 0 -45 5zM259 460q-144 0 -144 -152
v-6h230q26 0 45 -5l5 5v16q0 142 -136 142z" />
    <glyph glyph-name="Edotaccent" unicode="&#x116;" horiz-adv-x="547" 
d="M299 820q-43 0 -43 42q0 43 43 43q42 0 42 -43q0 -42 -42 -42zM493 50q7 -25 0 -50h-379h-24v700h60h333q7 -25 0 -50h-333v-215q0 -26 -5 -45l5 -5h293q7 -25 0 -50h-293v-235q0 -26 -5 -45l5 -5h343z" />
    <glyph glyph-name="edotaccent" unicode="&#x117;" horiz-adv-x="505" 
d="M253 620q-43 0 -43 42q0 43 43 43q42 0 42 -43q0 -42 -42 -42zM120 257l-5 -5v-70q0 -72 37 -107t118 -35q79 0 145 33q16 -21 16 -44q-67 -39 -161 -39q-102 0 -156 48t-54 129v156q0 82 53 134.5t147 52.5q90 0 140 -48.5t50 -128.5v-81h-55h-230q-26 0 -45 5zM259 460
q-144 0 -144 -152v-6h230q26 0 45 -5l5 5v16q0 142 -136 142z" />
    <glyph glyph-name="Eogonek" unicode="&#x118;" horiz-adv-x="547" 
d="M417 -110q0 -53 76 -40q7 -25 0 -50q-62 -11 -96.5 11.5t-34.5 68.5q0 65 86 120h-334h-24v700h60h333q7 -25 0 -50h-333v-215q0 -26 -5 -45l5 -5h293q7 -25 0 -50h-293v-235q0 -26 -5 -45l5 -5h343q7 -25 0 -50q-45 -35 -60.5 -59.5t-15.5 -50.5z" />
    <glyph glyph-name="eogonek" unicode="&#x119;" horiz-adv-x="505" 
d="M120 257l-5 -5v-70q0 -72 37 -107t118 -35q79 0 145 33q16 -21 16 -44q-30 -17 -70 -28q-64 -53 -64 -108q0 -59 76 -43q7 -25 0 -50q-62 -11 -96.5 11.5t-34.5 68.5q0 59 59 111q-10 -1 -31 -1q-102 0 -156 48t-54 129v156q0 82 53 134.5t147 52.5q90 0 140 -48.5
t50 -128.5v-81h-55h-230q-26 0 -45 5zM259 460q-144 0 -144 -152v-6h230q26 0 45 -5l5 5v16q0 142 -136 142z" />
    <glyph glyph-name="Ecaron" unicode="&#x11a;" horiz-adv-x="547" 
d="M447 925l-148 -136l-148 136q13 21 35 36l88 -96q21 -23 23 -38h4q2 15 23 38l88 96q22 -15 35 -36zM493 50q7 -25 0 -50h-379h-24v700h60h333q7 -25 0 -50h-333v-215q0 -26 -5 -45l5 -5h293q7 -25 0 -50h-293v-235q0 -26 -5 -45l5 -5h343z" />
    <glyph glyph-name="ecaron" unicode="&#x11b;" horiz-adv-x="505" 
d="M401 725l-148 -136l-148 136q13 21 35 36l88 -96q21 -23 23 -38h4q2 15 23 38l88 96q22 -15 35 -36zM120 257l-5 -5v-70q0 -72 37 -107t118 -35q79 0 145 33q16 -21 16 -44q-67 -39 -161 -39q-102 0 -156 48t-54 129v156q0 82 53 134.5t147 52.5q90 0 140 -48.5
t50 -128.5v-81h-55h-230q-26 0 -45 5zM259 460q-144 0 -144 -152v-6h230q26 0 45 -5l5 5v16q0 142 -136 142z" />
    <glyph glyph-name="Gbreve" unicode="&#x11e;" horiz-adv-x="583" 
d="M289 800q-118 0 -140 130q20 7 40 10q19 -95 100 -95t100 95q20 -3 40 -10q-22 -130 -140 -130zM458 341q28 7 55 0v-290q-88 -61 -212 -61q-120 0 -180.5 59.5t-60.5 157.5v286q0 99 60.5 158t182.5 59q112 0 200 -61q-3 -27 -20 -49q-88 60 -180 60q-183 0 -183 -182
v-256q0 -182 182 -182q84 0 156 36v265z" />
    <glyph glyph-name="gbreve" unicode="&#x11f;" horiz-adv-x="530" 
d="M263 600q-118 0 -140 130q20 7 40 10q19 -95 100 -95t100 95q20 -3 40 -10q-22 -130 -140 -130zM395 500q27 8 55 0v-563q0 -147 -180 -147q-105 0 -176 44q0 23 16 44q67 -38 150 -38q70 0 102.5 25t32.5 87v31q0 26 5 45l-5 5q-61 -43 -145 -43q-94 0 -142 47.5
t-48 129.5v166q0 82 48 129.5t142 47.5q84 0 145 -43l5 5q-5 11 -5 28zM395 68v364q-63 28 -135 28q-80 0 -112.5 -34t-32.5 -108v-136q0 -74 32.5 -108t112.5 -34q72 0 135 28z" />
    <glyph glyph-name="Gdotaccent" unicode="&#x120;" horiz-adv-x="583" 
d="M289 820q-43 0 -43 42q0 43 43 43q42 0 42 -43q0 -42 -42 -42zM458 341q28 7 55 0v-290q-88 -61 -212 -61q-120 0 -180.5 59.5t-60.5 157.5v286q0 99 60.5 158t182.5 59q112 0 200 -61q-3 -27 -20 -49q-88 60 -180 60q-183 0 -183 -182v-256q0 -182 182 -182q84 0 156 36
v265z" />
    <glyph glyph-name="gdotaccent" unicode="&#x121;" horiz-adv-x="530" 
d="M263 620q-43 0 -43 42q0 43 43 43q42 0 42 -43q0 -42 -42 -42zM395 500q27 8 55 0v-563q0 -147 -180 -147q-105 0 -176 44q0 23 16 44q67 -38 150 -38q70 0 102.5 25t32.5 87v31q0 26 5 45l-5 5q-61 -43 -145 -43q-94 0 -142 47.5t-48 129.5v166q0 82 48 129.5t142 47.5
q84 0 145 -43l5 5q-5 11 -5 28zM395 68v364q-63 28 -135 28q-80 0 -112.5 -34t-32.5 -108v-136q0 -74 32.5 -108t112.5 -34q72 0 135 28z" />
    <glyph glyph-name="Gcommaaccent" unicode="&#x122;" horiz-adv-x="583" 
d="M458 341q28 7 55 0v-290q-88 -61 -212 -61q-120 0 -180.5 59.5t-60.5 157.5v286q0 99 60.5 158t182.5 59q112 0 200 -61q-3 -27 -20 -49q-88 60 -180 60q-183 0 -183 -182v-256q0 -182 182 -182q84 0 156 36v265zM224 -224l65 154q22 -3 45 -20l-71 -153q-21 5 -39 19z
" />
    <glyph glyph-name="gcommaaccent" unicode="&#x123;" horiz-adv-x="530" 
d="M338 734l-65 -154q-22 3 -45 20l71 153q21 -5 39 -19zM395 500q27 8 55 0v-563q0 -147 -180 -147q-105 0 -176 44q0 23 16 44q67 -38 150 -38q70 0 102.5 25t32.5 87v31q0 26 5 45l-5 5q-61 -43 -145 -43q-94 0 -142 47.5t-48 129.5v166q0 82 48 129.5t142 47.5
q84 0 145 -43l5 5q-5 11 -5 28zM395 68v364q-63 28 -135 28q-80 0 -112.5 -34t-32.5 -108v-136q0 -74 32.5 -108t112.5 -34q72 0 135 28z" />
    <glyph glyph-name="Hbar" unicode="&#x126;" horiz-adv-x="670" 
d="M666 575q7 -25 0 -50h-86v-525q-30 -8 -60 0v295q0 26 5 45l-5 5h-370v-345q-30 -8 -60 0v525h-86q-7 25 0 50h86v125q30 8 60 0v-125h370v125q30 8 60 0v-125h86zM520 395v130h-370v-80q0 -26 -5 -45l5 -5h370z" />
    <glyph glyph-name="hbar" unicode="&#x127;" horiz-adv-x="559" 
d="M334 510q145 0 145 -137v-373q-27 -8 -55 0v358q0 58 -28.5 80t-85.5 22q-89 0 -156 -38v-422q-28 -8 -55 0v580h-80q-7 25 0 50h80v95q18 15 55 15v-110h176q7 -25 0 -50h-176v-73q0 -26 -5 -45l5 -5q70 53 180 53z" />
    <glyph glyph-name="Imacron" unicode="&#x12a;" horiz-adv-x="240" 
d="M-41 890h322q7 -25 0 -50h-322q-7 25 0 50zM150 700v-700q-30 -8 -60 0v700q30 8 60 0z" />
    <glyph glyph-name="imacron" unicode="&#x12b;" horiz-adv-x="215" 
d="M-54 690h322q7 -25 0 -50h-322q-7 25 0 50zM80 490q18 15 55 15v-505q-27 -8 -55 0v490z" />
    <glyph glyph-name="Iogonek" unicode="&#x12e;" horiz-adv-x="240" 
d="M121 -4q-42 -33 -56.5 -56.5t-14.5 -49.5q0 -53 76 -40q7 -25 0 -50q-62 -11 -96.5 11.5t-34.5 68.5q0 70 95 125v695q30 8 60 0v-700q-20 -4 -29 -4z" />
    <glyph glyph-name="iogonek" unicode="&#x12f;" horiz-adv-x="215" 
d="M107 705q42 0 42 -43q0 -42 -42 -42q-43 0 -43 42q0 43 43 43zM80 0v490q18 15 55 15v-505l-14 -3q-42 -34 -57 -58t-15 -49q0 -53 76 -40q7 -25 0 -50q-62 -11 -96.5 11.5t-34.5 68.5q0 65 86 120z" />
    <glyph glyph-name="Idotaccent" unicode="&#x130;" horiz-adv-x="240" 
d="M120 820q-43 0 -43 42q0 43 43 43q42 0 42 -43q0 -42 -42 -42zM150 700v-700q-30 -8 -60 0v700q30 8 60 0z" />
    <glyph glyph-name="dotlessi" unicode="&#x131;" horiz-adv-x="215" 
d="M80 490q18 15 55 15v-505q-27 -8 -55 0v490z" />
    <glyph glyph-name="Kcommaaccent" unicode="&#x136;" horiz-adv-x="578" 
d="M90 700q30 8 60 0v-700q-30 -8 -60 0v700zM330 319l228 -319q-36 -8 -72 0l-264 364l258 336q34 7 68 0l-210 -281q-25 -36 -52 -48v-5q7 -3 13.5 -8t9.5 -9t10 -14.5t11 -15.5zM224 -224l65 154q22 -3 45 -20l-71 -153q-21 5 -39 19z" />
    <glyph glyph-name="kcommaaccent" unicode="&#x137;" horiz-adv-x="458" 
d="M80 725q18 15 55 15v-740q-27 -8 -55 0v725zM297 237l161 -237q-27 -9 -65 0l-196 285l183 215q37 9 63 0l-138 -163q-2 -2 -10.5 -12t-12.5 -14.5t-12.5 -11t-16.5 -10.5v-5q4 -2 7.5 -4t7 -5t6 -5t6 -7.5t5 -7t6.5 -9t6 -9.5zM164 -224l65 154q22 -3 45 -20l-71 -153
q-21 5 -39 19z" />
    <glyph glyph-name="Lacute" unicode="&#x139;" horiz-adv-x="502" 
d="M131 789q-19 13 -28 33l166 149q21 -14 33 -38zM478 50q7 -25 0 -50h-364h-24v700q30 8 60 0v-600q0 -26 -5 -45l5 -5h328z" />
    <glyph glyph-name="lacute" unicode="&#x13a;" horiz-adv-x="215" 
d="M257 923l-171 -144q-19 13 -28 33l166 149q21 -14 33 -38zM80 725q18 15 55 15v-740q-27 -8 -55 0v725z" />
    <glyph glyph-name="Lcommaaccent" unicode="&#x13b;" horiz-adv-x="502" 
d="M478 50q7 -25 0 -50h-364h-24v700q30 8 60 0v-600q0 -26 -5 -45l5 -5h328zM199 -224l65 154q22 -3 45 -20l-71 -153q-21 5 -39 19z" />
    <glyph glyph-name="lcommaaccent" unicode="&#x13c;" horiz-adv-x="215" 
d="M135 0q-27 -8 -55 0v725q18 15 55 15v-740zM108 -70q22 -3 45 -20l-71 -153q-21 5 -39 19z" />
    <glyph glyph-name="Lcaron" unicode="&#x13d;" horiz-adv-x="502" 
d="M478 50q7 -25 0 -50h-364h-24v700q30 8 60 0v-600q0 -26 -5 -45l5 -5h328zM408 520q-22 -4 -45 0l-5 180q28 8 55 0z" />
    <glyph glyph-name="lcaron" unicode="&#x13e;" horiz-adv-x="290" 
d="M80 725q18 15 55 15v-740q-27 -8 -55 0v725zM225 700q27 8 55 0l-5 -180q-23 -4 -45 0z" />
    <glyph glyph-name="Lslash" unicode="&#x141;" horiz-adv-x="532" 
d="M508 50q7 -25 0 -50h-364h-24v287l-91 -64q-17 16 -29 41l120 84v352q30 8 60 0v-310l181 127q17 -16 29 -41l-210 -147v-229q0 -26 -5 -45l5 -5h328z" />
    <glyph glyph-name="lslash" unicode="&#x142;" horiz-adv-x="275" 
d="M265 458l-100 -71v-387q-27 -8 -55 0v349l-66 -47q-17 16 -29 41l95 67v315q18 15 55 15v-291l71 50q17 -16 29 -41z" />
    <glyph glyph-name="Nacute" unicode="&#x143;" horiz-adv-x="670" 
d="M303 789q-19 13 -28 33l166 149q21 -14 33 -38zM525 700q27 8 55 0v-700q-22 -8 -45 0l-390 580l-5 -3q5 -19 5 -47v-530q-28 -8 -55 0v700q22 8 45 0l390 -580l5 3q-5 19 -5 47v530z" />
    <glyph glyph-name="nacute" unicode="&#x144;" horiz-adv-x="540" 
d="M258 589q-19 13 -28 33l166 149q21 -14 33 -38zM315 510q145 0 145 -137v-373q-28 -8 -55 0v358q0 58 -28.5 80t-85.5 22q-89 0 -156 -38v-422q-27 -8 -55 0v490q18 15 55 15q0 -27 -5 -43l5 -5q70 53 180 53z" />
    <glyph glyph-name="Ncommaaccent" unicode="&#x145;" horiz-adv-x="670" 
d="M525 700q27 8 55 0v-700q-22 -8 -45 0l-390 580l-5 -3q5 -19 5 -47v-530q-28 -8 -55 0v700q22 8 45 0l390 -580l5 3q-5 19 -5 47v530zM260 -224l65 154q22 -3 45 -20l-71 -153q-21 5 -39 19z" />
    <glyph glyph-name="ncommaaccent" unicode="&#x146;" horiz-adv-x="540" 
d="M315 510q145 0 145 -137v-373q-28 -8 -55 0v358q0 58 -28.5 80t-85.5 22q-89 0 -156 -38v-422q-27 -8 -55 0v490q18 15 55 15q0 -27 -5 -43l5 -5q70 53 180 53zM205 -224l65 154q22 -3 45 -20l-71 -153q-21 5 -39 19z" />
    <glyph glyph-name="Ncaron" unicode="&#x147;" horiz-adv-x="670" 
d="M473 925l-148 -136l-148 136q13 21 35 36l88 -96q21 -23 23 -38h4q2 15 23 38l88 96q22 -15 35 -36zM525 700q27 8 55 0v-700q-22 -8 -45 0l-390 580l-5 -3q5 -19 5 -47v-530q-28 -8 -55 0v700q22 8 45 0l390 -580l5 3q-5 19 -5 47v530z" />
    <glyph glyph-name="ncaron" unicode="&#x148;" horiz-adv-x="540" 
d="M428 725l-148 -136l-148 136q13 21 35 36l88 -96q21 -23 23 -38h4q2 15 23 38l88 96q22 -15 35 -36zM315 510q145 0 145 -137v-373q-28 -8 -55 0v358q0 58 -28.5 80t-85.5 22q-89 0 -156 -38v-422q-27 -8 -55 0v490q18 15 55 15q0 -27 -5 -43l5 -5q70 53 180 53z" />
    <glyph glyph-name="Eng" unicode="&#x14a;" horiz-adv-x="670" 
d="M525 700q27 8 55 0v-700v-63q0 -74 -37 -110.5t-96 -36.5q-7 22 0 45q39 2 58.5 25.5t19.5 81.5v73l-380 565l-5 -3q5 -19 5 -47v-530q-28 -8 -55 0v700q22 8 45 0l390 -580l5 3q-5 19 -5 47v530z" />
    <glyph glyph-name="eng" unicode="&#x14b;" horiz-adv-x="540" 
d="M315 510q145 0 145 -137v-373v-63q0 -74 -37 -110.5t-96 -36.5q-7 22 0 45q39 2 58.5 25.5t19.5 81.5v110v306q0 58 -28.5 80t-85.5 22q-89 0 -156 -38v-422q-27 -8 -55 0v490q18 15 55 15q0 -27 -5 -43l5 -5q70 53 180 53z" />
    <glyph glyph-name="Omacron" unicode="&#x14c;" horiz-adv-x="590" 
d="M456 840h-322q-7 25 0 50h322q7 -25 0 -50zM295 710q115 0 175 -55.5t60 -151.5v-306q0 -96 -60 -151.5t-175 -55.5t-175 55.5t-60 151.5v306q0 96 60 151.5t175 55.5zM470 212v276q0 87 -42.5 129t-132.5 43q-90 -1 -132.5 -43t-42.5 -129v-276q0 -87 42.5 -129
t132.5 -43q90 1 132.5 43t42.5 129z" />
    <glyph glyph-name="omacron" unicode="&#x14d;" horiz-adv-x="520" 
d="M421 640h-322q-7 25 0 50h322q7 -25 0 -50zM260 510q101 0 150.5 -47.5t49.5 -129.5v-166q0 -82 -49.5 -129.5t-150.5 -47.5t-150.5 47.5t-49.5 129.5v166q0 82 49.5 129.5t150.5 47.5zM405 182v136q0 74 -32.5 108t-112.5 34t-112.5 -34t-32.5 -108v-136
q0 -74 32.5 -108t112.5 -34t112.5 34t32.5 108z" />
    <glyph glyph-name="Ohungarumlaut" unicode="&#x150;" horiz-adv-x="590" 
d="M194 789q-21 11 -29 29l136 153q24 -16 34 -34zM354 789q-21 11 -29 29l136 153q24 -16 34 -34zM295 710q115 0 175 -55.5t60 -151.5v-306q0 -96 -60 -151.5t-175 -55.5t-175 55.5t-60 151.5v306q0 96 60 151.5t175 55.5zM470 212v276q0 87 -42.5 129t-132.5 43
q-90 -1 -132.5 -43t-42.5 -129v-276q0 -87 42.5 -129t132.5 -43q90 1 132.5 43t42.5 129z" />
    <glyph glyph-name="ohungarumlaut" unicode="&#x151;" horiz-adv-x="520" 
d="M159 589q-21 11 -29 29l136 153q24 -16 34 -34zM319 589q-21 11 -29 29l136 153q24 -16 34 -34zM260 510q101 0 150.5 -47.5t49.5 -129.5v-166q0 -82 -49.5 -129.5t-150.5 -47.5t-150.5 47.5t-49.5 129.5v166q0 82 49.5 129.5t150.5 47.5zM405 182v136q0 74 -32.5 108
t-112.5 34t-112.5 -34t-32.5 -108v-136q0 -74 32.5 -108t112.5 -34t112.5 34t32.5 108z" />
    <glyph glyph-name="OE" unicode="&#x152;" horiz-adv-x="897" 
d="M843 50q7 -25 0 -50h-403h-145q-115 0 -175 55.5t-60 151.5v286q0 96 60 151.5t175 55.5h205h333q7 -25 0 -50h-333v-215q0 -26 -5 -45l5 -5h293q7 -25 0 -50h-293v-235q0 -26 -5 -45l5 -5h343zM295 50h145v600h-145q-90 -1 -132.5 -43t-42.5 -129v-256q0 -87 42.5 -129
t132.5 -43z" />
    <glyph glyph-name="oe" unicode="&#x153;" horiz-adv-x="850" 
d="M460 252v-70q0 -72 37 -107t118 -35q79 0 145 33q16 -21 16 -44q-68 -39 -161 -39q-129 0 -181 76q-47 -76 -174 -76q-101 0 -150.5 47.5t-49.5 129.5v166q0 82 49.5 129.5t150.5 47.5q129 0 176 -79q53 79 169 79q90 0 140 -48.5t50 -128.5v-81h-55h-230q-26 0 -45 5z
M405 182v136q0 74 -32.5 108t-112.5 34t-112.5 -34t-32.5 -108v-136q0 -74 32.5 -108t112.5 -34t112.5 34t32.5 108zM604 460q-144 0 -144 -152v-6h230q26 0 45 -5l5 5v16q0 142 -136 142z" />
    <glyph glyph-name="Racute" unicode="&#x154;" horiz-adv-x="600" 
d="M258 789q-19 13 -28 33l166 149q21 -14 33 -38zM359 306q44 -29 68 -66.5t133 -239.5q-35 -8 -70 0q-103 196 -144.5 248t-95.5 52h-100v-300q-30 -8 -60 0v700h60h160q98 0 154 -42.5t56 -114.5v-86q0 -58 -42.5 -96.5t-118.5 -49.5v-5zM150 350h160q74 1 112 32t38 100
v36q0 69 -38 100t-112 32h-160v-250q0 -26 -5 -45z" />
    <glyph glyph-name="racute" unicode="&#x155;" horiz-adv-x="320" 
d="M133 589q-19 13 -28 33l166 149q21 -14 33 -38zM133 427q67 83 177 83q-2 -32 -13 -55q-96 0 -162 -68v-387q-27 -8 -55 0v490q18 15 55 15q0 -46 -7 -73z" />
    <glyph glyph-name="Rcommaaccent" unicode="&#x156;" horiz-adv-x="600" 
d="M359 306q44 -29 68 -66.5t133 -239.5q-35 -8 -70 0q-103 196 -144.5 248t-95.5 52h-100v-300q-30 -8 -60 0v700h60h160q98 0 154 -42.5t56 -114.5v-86q0 -58 -42.5 -96.5t-118.5 -49.5v-5zM150 350h160q74 1 112 32t38 100v36q0 69 -38 100t-112 32h-160v-250
q0 -26 -5 -45zM215 -224l65 154q22 -3 45 -20l-71 -153q-21 5 -39 19z" />
    <glyph glyph-name="rcommaaccent" unicode="&#x157;" horiz-adv-x="320" 
d="M133 427q67 83 177 83q-2 -32 -13 -55q-96 0 -162 -68v-387q-27 -8 -55 0v490q18 15 55 15q0 -46 -7 -73zM30 -224l65 154q22 -3 45 -20l-71 -153q-21 5 -39 19z" />
    <glyph glyph-name="Rcaron" unicode="&#x158;" horiz-adv-x="600" 
d="M428 925l-148 -136l-148 136q13 21 35 36l88 -96q21 -23 23 -38h4q2 15 23 38l88 96q22 -15 35 -36zM359 306q44 -29 68 -66.5t133 -239.5q-35 -8 -70 0q-103 196 -144.5 248t-95.5 52h-100v-300q-30 -8 -60 0v700h60h160q98 0 154 -42.5t56 -114.5v-86
q0 -58 -42.5 -96.5t-118.5 -49.5v-5zM150 350h160q74 1 112 32t38 100v36q0 69 -38 100t-112 32h-160v-250q0 -26 -5 -45z" />
    <glyph glyph-name="rcaron" unicode="&#x159;" horiz-adv-x="320" 
d="M303 725l-148 -136l-148 136q13 21 35 36l88 -96q21 -23 23 -38h4q2 15 23 38l88 96q22 -15 35 -36zM133 427q67 83 177 83q-2 -32 -13 -55q-96 0 -162 -68v-387q-27 -8 -55 0v490q18 15 55 15q0 -46 -7 -73z" />
    <glyph glyph-name="Sacute" unicode="&#x15a;" horiz-adv-x="524" 
d="M213 822l166 149q21 -14 33 -38l-171 -144q-19 13 -28 33zM122 527q0 -40 19.5 -67t50.5 -42t68.5 -27t75 -26t68.5 -34t50.5 -56.5t19.5 -88.5q0 -92 -56 -144t-162 -52q-114 0 -206 61q3 27 20 49q91 -60 185 -60q82 0 120.5 38t38.5 101q0 43 -19.5 73t-50.5 46
t-68.5 28.5t-74.5 26t-68 32.5t-50.5 55t-19.5 87q0 84 58.5 133.5t151.5 49.5q96 0 185 -61q-3 -27 -20 -49q-88 60 -165 60q-72 0 -111.5 -35t-39.5 -98z" />
    <glyph glyph-name="sacute" unicode="&#x15b;" horiz-adv-x="461" 
d="M186 622l166 149q21 -14 33 -38l-171 -144q-19 13 -28 33zM236 -10q-107 0 -181 54q0 23 16 44q68 -48 162 -48q67 0 97.5 24t30.5 62q0 40 -30.5 63t-74 33.5t-87 22.5t-74 43t-30.5 82q0 67 47 103.5t133 36.5q89 0 156 -39q0 -23 -16 -44q-66 33 -139 33
q-126 0 -126 -85q0 -38 30.5 -60t74 -33t87 -23.5t74 -43.5t30.5 -83q0 -62 -45 -102t-135 -40z" />
    <glyph glyph-name="Scedilla" unicode="&#x15e;" horiz-adv-x="524" 
d="M474 186q0 -86 -49 -137.5t-143 -57.5l-17 -43q81 -17 81 -80q0 -39 -35 -59t-96 -9q-7 25 0 50q76 -16 76 25q0 19 -18 30.5t-58 21.5l26 63q-106 4 -191 61q3 27 20 49q91 -60 185 -60q82 0 120.5 38t38.5 101q0 43 -19.5 73t-50.5 46t-68.5 28.5t-74.5 26t-68 32.5
t-50.5 55t-19.5 87q0 84 58.5 133.5t151.5 49.5q96 0 185 -61q-3 -27 -20 -49q-88 60 -165 60q-72 0 -111.5 -35t-39.5 -98q0 -40 19.5 -67t50.5 -42t68.5 -27t75 -26t68.5 -34t50.5 -56.5t19.5 -88.5z" />
    <glyph glyph-name="scedilla" unicode="&#x15f;" horiz-adv-x="461" 
d="M416 132q0 -59 -40.5 -98.5t-121.5 -43.5l-16 -42q81 -17 81 -80q0 -39 -35 -59t-96 -9q-7 25 0 50q76 -16 76 25q0 19 -18 30.5t-58 21.5l26 64q-93 5 -159 53q0 23 16 44q68 -48 162 -48q67 0 97.5 24t30.5 62q0 40 -30.5 63t-74 33.5t-87 22.5t-74 43t-30.5 82
q0 67 47 103.5t133 36.5q89 0 156 -39q0 -23 -16 -44q-66 33 -139 33q-126 0 -126 -85q0 -38 30.5 -60t74 -33t87 -23.5t74 -43.5t30.5 -83z" />
    <glyph glyph-name="Scaron" unicode="&#x160;" horiz-adv-x="524" 
d="M411 925l-148 -136l-148 136q13 21 35 36l88 -96q21 -23 23 -38h4q2 15 23 38l88 96q22 -15 35 -36zM122 527q0 -40 19.5 -67t50.5 -42t68.5 -27t75 -26t68.5 -34t50.5 -56.5t19.5 -88.5q0 -92 -56 -144t-162 -52q-114 0 -206 61q3 27 20 49q91 -60 185 -60
q82 0 120.5 38t38.5 101q0 43 -19.5 73t-50.5 46t-68.5 28.5t-74.5 26t-68 32.5t-50.5 55t-19.5 87q0 84 58.5 133.5t151.5 49.5q96 0 185 -61q-3 -27 -20 -49q-88 60 -165 60q-72 0 -111.5 -35t-39.5 -98z" />
    <glyph glyph-name="scaron" unicode="&#x161;" horiz-adv-x="461" 
d="M384 725l-148 -136l-148 136q13 21 35 36l88 -96q21 -23 23 -38h4q2 15 23 38l88 96q22 -15 35 -36zM120 375q0 -38 30.5 -60t74 -33t87 -23.5t74 -43.5t30.5 -83q0 -62 -45 -102t-135 -40q-107 0 -181 54q0 23 16 44q68 -48 162 -48q67 0 97.5 24t30.5 62q0 40 -30.5 63
t-74 33.5t-87 22.5t-74 43t-30.5 82q0 67 47 103.5t133 36.5q89 0 156 -39q0 -23 -16 -44q-66 33 -139 33q-126 0 -126 -85z" />
    <glyph glyph-name="uni0162" unicode="&#x162;" horiz-adv-x="574" 
d="M317 0q-1 0 -4 -1t-5 -1l-19 -50q81 -17 81 -80q0 -39 -35 -59t-96 -9q-7 25 0 50q76 -16 76 25q0 19 -18 30.5t-58 21.5l29 71q-3 0 -11 2v600q0 26 5 45l-5 5h-223q-7 25 0 50h243h40h223q7 -25 0 -50h-223v-650z" />
    <glyph glyph-name="uni0163" unicode="&#x163;" horiz-adv-x="386" 
d="M235 -52q81 -17 81 -80q0 -39 -35 -59t-96 -9q-7 25 0 50q76 -16 76 25q0 19 -18 30.5t-58 21.5l27 65q-97 17 -97 135v273q0 26 5 45l-5 5h-81q-7 25 0 50h81v105q18 15 55 15v-70q0 -26 -5 -45l5 -5h175q7 -25 0 -50h-175v-308q0 -59 19.5 -80.5t58.5 -21.5q36 0 92 28
q16 -21 16 -44q-56 -32 -105 -34z" />
    <glyph glyph-name="Tcaron" unicode="&#x164;" horiz-adv-x="574" 
d="M435 925l-148 -136l-148 136q13 21 35 36l88 -96q21 -23 23 -38h4q2 15 23 38l88 96q22 -15 35 -36zM540 700q7 -25 0 -50h-223v-650q-30 -8 -60 0v600q0 26 5 45l-5 5h-223q-7 25 0 50h243h40h223z" />
    <glyph glyph-name="tcaron" unicode="&#x165;" horiz-adv-x="405" 
d="M340 730q28 8 55 0l-5 -180q-22 -4 -45 0zM248 40q36 0 92 28q16 -21 16 -44q-60 -34 -112 -34q-129 0 -129 137v273q0 26 5 45l-5 5h-81q-7 25 0 50h81v105q18 15 55 15v-70q0 -26 -5 -45l5 -5h175q7 -25 0 -50h-175v-308q0 -59 19.5 -80.5t58.5 -21.5z" />
    <glyph glyph-name="Tbar" unicode="&#x166;" horiz-adv-x="574" 
d="M540 650h-223v-150h148q7 -25 0 -50h-148v-450q-30 -8 -60 0v450h-147q-7 25 0 50h147v100q0 26 5 45l-5 5h-223q-7 25 0 50h243h40h223q7 -25 0 -50z" />
    <glyph glyph-name="tbar" unicode="&#x167;" horiz-adv-x="386" 
d="M340 68q16 -21 16 -44q-60 -34 -112 -34q-129 0 -129 137v163h-81q-7 25 0 50h81v60q0 26 5 45l-5 5h-81q-7 25 0 50h81v105q18 15 55 15v-70q0 -26 -5 -45l5 -5h175q7 -25 0 -50h-175v-110h175q7 -25 0 -50h-175v-148q0 -59 19.5 -80.5t58.5 -21.5q36 0 92 28z" />
    <glyph glyph-name="Umacron" unicode="&#x16a;" horiz-adv-x="650" 
d="M486 840h-322q-7 25 0 50h322q7 -25 0 -50zM500 700q30 8 60 0v-493q0 -97 -60.5 -157t-174.5 -60t-174.5 60t-60.5 157v493q30 8 60 0v-478q0 -181 175 -182q175 1 175 182v478z" />
    <glyph glyph-name="umacron" unicode="&#x16b;" horiz-adv-x="530" 
d="M441 640h-322q-7 25 0 50h322q7 -25 0 -50zM395 490q18 15 55 15v-505q-28 -8 -55 0q0 22 5 38l-5 5q-69 -53 -170 -53q-145 0 -145 137v363q18 15 55 15v-363q0 -58 28 -79.5t86 -22.5q79 0 146 38v412z" />
    <glyph glyph-name="Uring" unicode="&#x16e;" horiz-adv-x="650" 
d="M325 771q-94 0 -94 90q0 93 94 93q92 0 92 -93q0 -90 -92 -90zM325 921q-57 0 -57 -60q0 -57 57 -57q55 0 55 57q0 60 -55 60zM500 700q30 8 60 0v-493q0 -97 -60.5 -157t-174.5 -60t-174.5 60t-60.5 157v493q30 8 60 0v-478q0 -181 175 -182q175 1 175 182v478z" />
    <glyph glyph-name="uring" unicode="&#x16f;" horiz-adv-x="530" 
d="M280 571q-94 0 -94 90q0 93 94 93q92 0 92 -93q0 -90 -92 -90zM280 721q-57 0 -57 -60q0 -57 57 -57q55 0 55 57q0 60 -55 60zM395 490q18 15 55 15v-505q-28 -8 -55 0q0 22 5 38l-5 5q-69 -53 -170 -53q-145 0 -145 137v363q18 15 55 15v-363q0 -58 28 -79.5t86 -22.5
q79 0 146 38v412z" />
    <glyph glyph-name="Uhungarumlaut" unicode="&#x170;" horiz-adv-x="650" 
d="M224 789q-21 11 -29 29l136 153q24 -16 34 -34zM384 789q-21 11 -29 29l136 153q24 -16 34 -34zM500 700q30 8 60 0v-493q0 -97 -60.5 -157t-174.5 -60t-174.5 60t-60.5 157v493q30 8 60 0v-478q0 -181 175 -182q175 1 175 182v478z" />
    <glyph glyph-name="uhungarumlaut" unicode="&#x171;" horiz-adv-x="530" 
d="M179 589q-21 11 -29 29l136 153q24 -16 34 -34zM339 589q-21 11 -29 29l136 153q24 -16 34 -34zM395 490q18 15 55 15v-505q-28 -8 -55 0q0 22 5 38l-5 5q-69 -53 -170 -53q-145 0 -145 137v363q18 15 55 15v-363q0 -58 28 -79.5t86 -22.5q79 0 146 38v412z" />
    <glyph glyph-name="Uogonek" unicode="&#x172;" horiz-adv-x="650" 
d="M500 700q30 8 60 0v-493q0 -79 -40.5 -134.5t-117.5 -73.5q-44 -35 -59 -59t-15 -50q0 -53 76 -40q7 -25 0 -50q-62 -11 -96.5 11.5t-34.5 68.5q0 61 72 110h-20q-114 0 -174.5 60t-60.5 157v493q30 8 60 0v-478q0 -181 175 -182q175 1 175 182v478z" />
    <glyph glyph-name="uogonek" unicode="&#x173;" horiz-adv-x="534" 
d="M450 -150q7 -25 0 -50q-62 -11 -96.5 11.5t-34.5 68.5q0 63 86 122q-4 26 -10 41q-69 -53 -170 -53q-145 0 -145 137v363q18 15 55 15v-363q0 -58 28 -79.5t86 -22.5q79 0 146 38v412q18 15 55 15v-505q-76 -56 -76 -110q0 -56 76 -40z" />
    <glyph glyph-name="Wcircumflex" unicode="&#x174;" horiz-adv-x="800" 
d="M287 789q-22 15 -35 36l148 136l148 -136q-13 -21 -35 -36l-88 96q-21 23 -23 38h-4q-2 -15 -23 -38zM725 700q34 9 65 0l-179 -700q-31 -8 -63 0l-133 460q-11 41 -13 70h-4q-2 -29 -13 -70l-133 -460q-32 -8 -63 0l-179 700q31 9 65 0l133 -548q11 -44 14 -70h5
q3 42 12 70l132 468q15 3 29 3t29 -3l132 -468q9 -28 12 -70h5q3 26 14 70z" />
    <glyph glyph-name="wcircumflex" unicode="&#x175;" horiz-adv-x="722" 
d="M248 589q-22 15 -35 36l148 136l148 -136q-13 -21 -35 -36l-88 96q-21 23 -23 38h-4q-2 -15 -23 -38zM647 500q32 8 60 0l-156 -500q-27 -8 -55 0l-120 345q-12 34 -13 70h-4q-1 -36 -13 -70l-120 -345q-28 -8 -55 0l-156 500q28 8 60 0l112 -377q11 -33 14 -49h5
q3 21 12 49l115 347q12 3 28 3t28 -3l115 -347q9 -28 12 -49h5q3 16 14 49z" />
    <glyph glyph-name="Ycircumflex" unicode="&#x176;" horiz-adv-x="531" 
d="M153 789q-22 15 -35 36l148 136l148 -136q-13 -21 -35 -36l-88 96q-21 23 -23 38h-4q-2 -15 -23 -38zM521 700l-219 -396v-304q-30 -8 -60 0v307l-232 393q32 9 67 0l181 -308q7 -11 14 -49h5q4 36 12 49l171 308q32 8 61 0z" />
    <glyph glyph-name="ycircumflex" unicode="&#x177;" horiz-adv-x="465" 
d="M123 589q-22 15 -35 36l148 136l148 -136q-13 -21 -35 -36l-88 96q-21 23 -23 38h-4q-2 -15 -23 -38zM392 500q31 8 58 0l-182 -497q-38 -104 -87 -155t-124 -58q-7 22 0 45q57 9 89.5 46t66.5 122l-193 497q28 8 60 0l145 -384q10 -25 14 -46h5q3 21 12 49z" />
    <glyph glyph-name="Ydieresis" unicode="&#x178;" horiz-adv-x="531" 
d="M169 820q-43 0 -43 42q0 43 43 43q42 0 42 -43q0 -42 -42 -42zM364 820q-43 0 -43 42q0 43 43 43q42 0 42 -43q0 -42 -42 -42zM521 700l-219 -396v-304q-30 -8 -60 0v307l-232 393q32 9 67 0l181 -308q7 -11 14 -49h5q4 36 12 49l171 308q32 8 61 0z" />
    <glyph glyph-name="Zacute" unicode="&#x179;" horiz-adv-x="533" 
d="M255 789q-19 13 -28 33l166 149q21 -14 33 -38zM499 50q7 -25 0 -50h-467q-5 20 0 40l355 560q24 37 44 45l-2 5h-372q-7 25 0 50h437q5 -20 0 -40l-355 -560q-23 -38 -44 -45l2 -5h402z" />
    <glyph glyph-name="zacute" unicode="&#x17a;" horiz-adv-x="432" 
d="M204 589q-19 13 -28 33l166 149q21 -14 33 -38zM408 50q7 -25 0 -50h-376q-5 20 0 40l284 390q10 14 18 15l-2 5h-285q-7 25 0 50h356q5 -20 0 -40l-284 -390q-10 -13 -18 -15l2 -5h305z" />
    <glyph glyph-name="Zdotaccent" unicode="&#x17b;" horiz-adv-x="533" 
d="M277 820q-43 0 -43 42q0 43 43 43q42 0 42 -43q0 -42 -42 -42zM499 50q7 -25 0 -50h-467q-5 20 0 40l355 560q24 37 44 45l-2 5h-372q-7 25 0 50h437q5 -20 0 -40l-355 -560q-23 -38 -44 -45l2 -5h402z" />
    <glyph glyph-name="zdotaccent" unicode="&#x17c;" horiz-adv-x="432" 
d="M226 620q-43 0 -43 42q0 43 43 43q42 0 42 -43q0 -42 -42 -42zM408 50q7 -25 0 -50h-376q-5 20 0 40l284 390q10 14 18 15l-2 5h-285q-7 25 0 50h356q5 -20 0 -40l-284 -390q-10 -13 -18 -15l2 -5h305z" />
    <glyph glyph-name="Zcaron" unicode="&#x17d;" horiz-adv-x="533" 
d="M425 925l-148 -136l-148 136q13 21 35 36l88 -96q21 -23 23 -38h4q2 15 23 38l88 96q22 -15 35 -36zM499 50q7 -25 0 -50h-467q-5 20 0 40l355 560q24 37 44 45l-2 5h-372q-7 25 0 50h437q5 -20 0 -40l-355 -560q-23 -38 -44 -45l2 -5h402z" />
    <glyph glyph-name="zcaron" unicode="&#x17e;" horiz-adv-x="432" 
d="M374 725l-148 -136l-148 136q13 21 35 36l88 -96q21 -23 23 -38h4q2 15 23 38l88 96q22 -15 35 -36zM408 50q7 -25 0 -50h-376q-5 20 0 40l284 390q10 14 18 15l-2 5h-285q-7 25 0 50h356q5 -20 0 -40l-284 -390q-10 -13 -18 -15l2 -5h305z" />
    <glyph glyph-name="uni01CE" unicode="&#x1ce;" horiz-adv-x="493" 
d="M392 725l-148 -136l-148 136q13 21 35 36l88 -96q21 -23 23 -38h4q2 15 23 38l88 96q22 -15 35 -36zM243 510q85 0 127.5 -35t42.5 -112v-363q-27 -8 -55 0q0 13 5 28l-5 5q-61 -43 -146 -43q-71 0 -116.5 37t-45.5 100v26q0 63 45.5 100t116.5 37q85 0 146 -43l5 5
q-5 19 -5 45v51q0 62 -27.5 87t-92.5 25q-82 0 -150 -33q-16 21 -16 44q68 39 171 39zM358 68v144q-75 33 -137 33q-116 0 -116 -97v-16q0 -97 116 -97q62 0 137 33z" />
    <glyph glyph-name="Scommaaccent" unicode="&#x218;" horiz-adv-x="524" 
d="M122 527q0 -40 19.5 -67t50.5 -42t68.5 -27t75 -26t68.5 -34t50.5 -56.5t19.5 -88.5q0 -92 -56 -144t-162 -52q-114 0 -206 61q3 27 20 49q91 -60 185 -60q82 0 120.5 38t38.5 101q0 43 -19.5 73t-50.5 46t-68.5 28.5t-74.5 26t-68 32.5t-50.5 55t-19.5 87
q0 84 58.5 133.5t151.5 49.5q96 0 185 -61q-3 -27 -20 -49q-88 60 -165 60q-72 0 -111.5 -35t-39.5 -98zM198 -224l65 154q22 -3 45 -20l-71 -153q-21 5 -39 19z" />
    <glyph glyph-name="scommaaccent" unicode="&#x219;" horiz-adv-x="461" 
d="M236 -10q-107 0 -181 54q0 23 16 44q68 -48 162 -48q67 0 97.5 24t30.5 62q0 40 -30.5 63t-74 33.5t-87 22.5t-74 43t-30.5 82q0 67 47 103.5t133 36.5q89 0 156 -39q0 -23 -16 -44q-66 33 -139 33q-126 0 -126 -85q0 -38 30.5 -60t74 -33t87 -23.5t74 -43.5t30.5 -83
q0 -62 -45 -102t-135 -40zM171 -224l65 154q22 -3 45 -20l-71 -153q-21 5 -39 19z" />
    <glyph glyph-name="uni021A" unicode="&#x21a;" horiz-adv-x="574" 
d="M540 700q7 -25 0 -50h-223v-650q-30 -8 -60 0v600q0 26 5 45l-5 5h-223q-7 25 0 50h243h40h223zM222 -224l65 154q22 -3 45 -20l-71 -153q-21 5 -39 19z" />
    <glyph glyph-name="uni021B" unicode="&#x21b;" horiz-adv-x="386" 
d="M356 24q-60 -34 -112 -34q-129 0 -129 137v273q0 26 5 45l-5 5h-81q-7 25 0 50h81v105q18 15 55 15v-70q0 -26 -5 -45l5 -5h175q7 -25 0 -50h-175v-308q0 -59 19.5 -80.5t58.5 -21.5q36 0 92 28q16 -21 16 -44zM168 -224l65 154q22 -3 45 -20l-71 -153q-21 5 -39 19z" />
    <glyph glyph-name="circumflex" unicode="&#x2c6;" horiz-adv-x="376" 
d="M188 761l148 -136q-13 -21 -35 -36l-88 96q-21 23 -23 38h-4q-2 -15 -23 -38l-88 -96q-22 15 -35 36z" />
    <glyph glyph-name="caron" unicode="&#x2c7;" horiz-adv-x="376" 
d="M301 761q22 -15 35 -36l-148 -136l-148 136q13 21 35 36l88 -96q21 -23 23 -38h4q2 15 23 38z" />
    <glyph glyph-name="breve" unicode="&#x2d8;" horiz-adv-x="360" 
d="M280 740q20 -3 40 -10q-22 -130 -140 -130t-140 130q20 7 40 10q19 -95 100 -95t100 95z" />
    <glyph glyph-name="dotaccent" unicode="&#x2d9;" horiz-adv-x="195" 
d="M98 620q-43 0 -43 42q0 43 43 43q42 0 42 -43q0 -42 -42 -42z" />
    <glyph glyph-name="ring" unicode="&#x2da;" horiz-adv-x="242" 
d="M122 571q-94 0 -94 90q0 93 94 93q92 0 92 -93q0 -90 -92 -90zM122 604q55 0 55 57q0 60 -55 60q-57 0 -57 -60q0 -57 57 -57z" />
    <glyph glyph-name="ogonek" unicode="&#x2db;" horiz-adv-x="600" 
d="M377 10l28 -10q-45 -35 -60.5 -59.5t-15.5 -50.5q0 -53 76 -40q7 -25 0 -50q-62 -11 -96.5 11.5t-34.5 68.5q0 72 103 130z" />
    <glyph glyph-name="tilde" unicode="&#x2dc;" horiz-adv-x="330" 
d="M225 716q51 0 105 -54q-12 -18 -27 -31q-42 39 -76 39q-22 0 -57.5 -23t-64.5 -23q-52 0 -105 53q12 18 27 31q42 -39 75 -39q21 0 57.5 23.5t65.5 23.5z" />
    <glyph glyph-name="hungarumlaut" unicode="&#x2dd;" horiz-adv-x="469" 
d="M55 618l136 153q24 -16 34 -34l-141 -148q-21 11 -29 29zM215 618l136 153q24 -16 34 -34l-141 -148q-21 11 -29 29z" />
    <glyph glyph-name="gravecomb" unicode="&#x300;" 
 />
    <glyph glyph-name="acutecomb" unicode="&#x301;" 
 />
    <glyph glyph-name="uni0302" unicode="&#x302;" 
 />
    <glyph glyph-name="tildecomb" unicode="&#x303;" 
 />
    <glyph glyph-name="uni0304" unicode="&#x304;" 
 />
    <glyph glyph-name="uni0306" unicode="&#x306;" 
 />
    <glyph glyph-name="uni0307" unicode="&#x307;" 
 />
    <glyph glyph-name="uni0308" unicode="&#x308;" 
 />
    <glyph glyph-name="uni030A" unicode="&#x30a;" 
 />
    <glyph glyph-name="uni030B" unicode="&#x30b;" 
 />
    <glyph glyph-name="uni030C" unicode="&#x30c;" 
 />
    <glyph glyph-name="uni0312" unicode="&#x312;" 
 />
    <glyph glyph-name="uni0326" unicode="&#x326;" 
d="M-165 -224l65 154q22 -3 45 -20l-71 -153q-21 5 -39 19z" />
    <glyph glyph-name="uni0327" unicode="&#x327;" 
 />
    <glyph glyph-name="uni0328" unicode="&#x328;" 
 />
    <glyph glyph-name="uni0335" unicode="&#x335;" 
 />
    <glyph glyph-name="uni0336" unicode="&#x336;" 
 />
    <glyph glyph-name="uni0337" unicode="&#x337;" 
 />
    <glyph glyph-name="uni0338" unicode="&#x338;" 
 />
    <glyph glyph-name="Wgrave" unicode="&#x1e80;" horiz-adv-x="800" 
d="M480 822q-9 -20 -28 -33l-171 144q12 24 33 38zM725 700q34 9 65 0l-179 -700q-31 -8 -63 0l-133 460q-11 41 -13 70h-4q-2 -29 -13 -70l-133 -460q-32 -8 -63 0l-179 700q31 9 65 0l133 -548q11 -44 14 -70h5q3 42 12 70l132 468q15 3 29 3t29 -3l132 -468q9 -28 12 -70
h5q3 26 14 70z" />
    <glyph glyph-name="wgrave" unicode="&#x1e81;" horiz-adv-x="722" 
d="M441 622q-9 -20 -28 -33l-171 144q12 24 33 38zM647 500q32 8 60 0l-156 -500q-27 -8 -55 0l-120 345q-12 34 -13 70h-4q-1 -36 -13 -70l-120 -345q-28 -8 -55 0l-156 500q28 8 60 0l112 -377q11 -33 14 -49h5q3 21 12 49l115 347q12 3 28 3t28 -3l115 -347q9 -28 12 -49
h5q3 16 14 49z" />
    <glyph glyph-name="Wacute" unicode="&#x1e82;" horiz-adv-x="800" 
d="M378 789q-19 13 -28 33l166 149q21 -14 33 -38zM725 700q34 9 65 0l-179 -700q-31 -8 -63 0l-133 460q-11 41 -13 70h-4q-2 -29 -13 -70l-133 -460q-32 -8 -63 0l-179 700q31 9 65 0l133 -548q11 -44 14 -70h5q3 42 12 70l132 468q15 3 29 3t29 -3l132 -468q9 -28 12 -70
h5q3 26 14 70z" />
    <glyph glyph-name="wacute" unicode="&#x1e83;" horiz-adv-x="722" 
d="M339 589q-19 13 -28 33l166 149q21 -14 33 -38zM647 500q32 8 60 0l-156 -500q-27 -8 -55 0l-120 345q-12 34 -13 70h-4q-1 -36 -13 -70l-120 -345q-28 -8 -55 0l-156 500q28 8 60 0l112 -377q11 -33 14 -49h5q3 21 12 49l115 347q12 3 28 3t28 -3l115 -347q9 -28 12 -49
h5q3 16 14 49z" />
    <glyph glyph-name="Wdieresis" unicode="&#x1e84;" horiz-adv-x="800" 
d="M303 820q-43 0 -43 42q0 43 43 43q42 0 42 -43q0 -42 -42 -42zM498 820q-43 0 -43 42q0 43 43 43q42 0 42 -43q0 -42 -42 -42zM725 700q34 9 65 0l-179 -700q-31 -8 -63 0l-133 460q-11 41 -13 70h-4q-2 -29 -13 -70l-133 -460q-32 -8 -63 0l-179 700q31 9 65 0l133 -548
q11 -44 14 -70h5q3 42 12 70l132 468q15 3 29 3t29 -3l132 -468q9 -28 12 -70h5q3 26 14 70z" />
    <glyph glyph-name="wdieresis" unicode="&#x1e85;" horiz-adv-x="722" 
d="M264 620q-43 0 -43 42q0 43 43 43q42 0 42 -43q0 -42 -42 -42zM459 620q-43 0 -43 42q0 43 43 43q42 0 42 -43q0 -42 -42 -42zM647 500q32 8 60 0l-156 -500q-27 -8 -55 0l-120 345q-12 34 -13 70h-4q-1 -36 -13 -70l-120 -345q-28 -8 -55 0l-156 500q28 8 60 0l112 -377
q11 -33 14 -49h5q3 21 12 49l115 347q12 3 28 3t28 -3l115 -347q9 -28 12 -49h5q3 16 14 49z" />
    <glyph glyph-name="Ygrave" unicode="&#x1ef2;" horiz-adv-x="531" 
d="M346 822q-9 -20 -28 -33l-171 144q12 24 33 38zM521 700l-219 -396v-304q-30 -8 -60 0v307l-232 393q32 9 67 0l181 -308q7 -11 14 -49h5q4 36 12 49l171 308q32 8 61 0z" />
    <glyph glyph-name="ygrave" unicode="&#x1ef3;" horiz-adv-x="465" 
d="M316 622q-9 -20 -28 -33l-171 144q12 24 33 38zM392 500q31 8 58 0l-182 -497q-38 -104 -87 -155t-124 -58q-7 22 0 45q57 9 89.5 46t66.5 122l-193 497q28 8 60 0l145 -384q10 -25 14 -46h5q3 21 12 49z" />
    <glyph glyph-name="endash" unicode="&#x2013;" horiz-adv-x="523" 
d="M529 350q7 -25 0 -50h-536q-7 25 0 50h536z" />
    <glyph glyph-name="emdash" unicode="&#x2014;" horiz-adv-x="723" 
d="M729 350q7 -25 0 -50h-736q-7 25 0 50h736z" />
    <glyph glyph-name="quoteleft" unicode="&#x2018;" horiz-adv-x="178" 
d="M188 790l-87 -205q-24 3 -46 20l94 203q22 -4 39 -18z" />
    <glyph glyph-name="quoteright" unicode="&#x2019;" horiz-adv-x="178" 
d="M-10 603l87 205q24 -3 46 -20l-94 -203q-22 4 -39 18z" />
    <glyph glyph-name="quotesinglbase" unicode="&#x201a;" horiz-adv-x="178" 
d="M-10 -105l87 205q24 -3 46 -20l-94 -203q-22 4 -39 18z" />
    <glyph glyph-name="quotedblleft" unicode="&#x201c;" horiz-adv-x="328" 
d="M188 790l-87 -205q-24 3 -46 20l94 203q22 -4 39 -18zM338 790l-87 -205q-24 3 -46 20l94 203q22 -4 39 -18z" />
    <glyph glyph-name="quotedblright" unicode="&#x201d;" horiz-adv-x="328" 
d="M-10 603l87 205q24 -3 46 -20l-94 -203q-22 4 -39 18zM140 603l87 205q24 -3 46 -20l-94 -203q-22 4 -39 18z" />
    <glyph glyph-name="quotedblbase" unicode="&#x201e;" horiz-adv-x="328" 
d="M-10 -105l87 205q24 -3 46 -20l-94 -203q-22 4 -39 18zM140 -105l87 205q24 -3 46 -20l-94 -203q-22 4 -39 18z" />
    <glyph glyph-name="dagger" unicode="&#x2020;" horiz-adv-x="511" 
d="M477 600q7 -25 0 -50h-191v-750q-30 -8 -60 0v750h-192q-7 25 0 50h192v240q30 8 60 0v-240h191z" />
    <glyph glyph-name="daggerdbl" unicode="&#x2021;" horiz-adv-x="511" 
d="M286 90h191q7 -25 0 -50h-191v-240q-30 -8 -60 0v240h-192q-7 25 0 50h192v460h-192q-7 25 0 50h192v240q30 8 60 0v-240h191q7 -25 0 -50h-191v-460z" />
    <glyph glyph-name="bullet" unicode="&#x2022;" horiz-adv-x="276" 
d="M139 185q-84 0 -84 81q0 84 84 84q82 0 82 -84q0 -81 -82 -81z" />
    <glyph glyph-name="ellipsis" unicode="&#x2026;" horiz-adv-x="585" 
d="M98 -10q-43 0 -43 42q0 43 43 43q42 0 42 -43q0 -42 -42 -42zM293 -10q-43 0 -43 42q0 43 43 43q42 0 42 -43q0 -42 -42 -42zM488 -10q-43 0 -43 42q0 43 43 43q42 0 42 -43q0 -42 -42 -42z" />
    <glyph glyph-name="perthousand" unicode="&#x2030;" horiz-adv-x="1116" 
d="M675 700l-509 -727q-25 9 -41 29l509 727q25 -9 41 -29zM197 710q68 0 102 -36.5t34 -94.5v-93q0 -58 -34 -94.5t-102 -36.5t-102.5 36.5t-34.5 94.5v93q0 58 34.5 94.5t102.5 36.5zM280 502v61q0 46 -18.5 70t-64.5 24q-47 0 -65 -24t-18 -70v-61q0 -46 18 -70t65 -24
q46 0 64.5 24t18.5 70zM597 345q68 0 102 -36.5t34 -94.5v-93q0 -58 -34 -94.5t-102 -36.5t-102.5 36.5t-34.5 94.5v93q0 58 34.5 94.5t102.5 36.5zM920 345q68 0 102 -36.5t34 -94.5v-93q0 -58 -34 -94.5t-102 -36.5t-102.5 36.5t-34.5 94.5v93q0 58 34.5 94.5t102.5 36.5z
M680 137v61q0 46 -18.5 70t-64.5 24q-47 0 -65 -24t-18 -70v-61q0 -46 18 -70t65 -24q46 0 64.5 24t18.5 70zM1003 137v61q0 46 -18.5 70t-64.5 24q-47 0 -65 -24t-18 -70v-61q0 -46 18 -70t65 -24q46 0 64.5 24t18.5 70z" />
    <glyph glyph-name="guilsinglleft" unicode="&#x2039;" horiz-adv-x="320" 
d="M72 246q19 -2 42 -25l126 -117q-15 -24 -40 -39l-185 183l185 183q25 -15 40 -39l-126 -117q-23 -23 -42 -25v-4z" />
    <glyph glyph-name="guilsinglright" unicode="&#x203a;" horiz-adv-x="320" 
d="M120 431l185 -183l-185 -183q-25 15 -40 39l126 117q23 23 42 25v4q-19 2 -42 25l-126 117q15 24 40 39z" />
    <glyph glyph-name="fraction" unicode="&#x2044;" horiz-adv-x="404" 
d="M403 705l-338 -725q-31 6 -55 25l338 725q32 -6 55 -25z" />
    <glyph glyph-name="Euro" unicode="&#x20ac;" horiz-adv-x="589" 
d="M341 40q95 0 180 58q15 -20 18 -47q-89 -61 -198 -61q-118 0 -176.5 59t-58.5 158v64h-86q-7 25 0 50h86v60h-86q-7 25 0 50h86v62q0 99 58.5 158t176.5 59q109 0 198 -61q-3 -27 -20 -49q-88 60 -179 60q-174 0 -174 -182v-47h254q6 -25 0 -50h-254v-60h254q6 -25 0 -50
h-254v-49q0 -182 175 -182z" />
    <glyph glyph-name="trademark" unicode="&#x2122;" horiz-adv-x="1021" 
d="M893 700q20 7 38 0v-522q-23 -7 -45 0v399q0 20 4 35l-4 3l-174 -262q-6 -3 -13 -3q-6 0 -12 3l-174 262l-4 -3q4 -15 4 -35v-399q-23 -6 -45 0v522q19 7 37 0l171 -257q19 -29 22 -45h3q3 16 22 45zM411 700q6 -18 0 -37h-166v-485q-23 -6 -45 0v448q0 18 4 33l-4 4
h-167q-4 19 0 37h182h196z" />
    <glyph glyph-name="emptyset" unicode="&#x2205;" horiz-adv-x="609" 
d="M599 520l-87 -87q63 -76 63 -173q0 -112 -79 -191t-191 -79q-97 0 -173 63l-88 -88q-19 15 -34 34l88 88q-63 76 -63 173q0 112 79 191t191 79q97 0 173 -63l87 87q19 -15 34 -34zM95 260q0 -78 41 -135l305 305q-58 50 -136 50q-85 0 -147.5 -60.5t-62.5 -159.5z
M515 260q0 78 -41 135l-305 -305q58 -50 136 -50q85 0 147.5 60.5t62.5 159.5z" />
    <glyph glyph-name="product" unicode="&#x220f;" horiz-adv-x="640" 
d="M550 700v-900q-30 -8 -60 0v850h-340v-850q-30 -8 -60 0v900h460z" />
    <glyph glyph-name="summation" unicode="&#x2211;" horiz-adv-x="514" 
d="M460 -150q7 -25 0 -50h-437q-5 20 0 40l260 360q30 44 43 48v4q-13 4 -43 48l-261 360q-5 20 0 40h437q7 -25 0 -50h-366l-2 -5q16 -6 44 -45l250 -350l-250 -350q-28 -39 -44 -45l2 -5h367z" />
    <glyph glyph-name="minus" unicode="&#x2212;" horiz-adv-x="644" 
d="M590 380q7 -25 0 -50h-536q-7 25 0 50h536z" />
    <glyph glyph-name="infinity" unicode="&#x221e;" horiz-adv-x="728" 
d="M504 500q74 0 119 -49t45 -120q0 -72 -45 -120.5t-119 -48.5q-96 0 -137 88h-5q-42 -89 -137 -89q-74 0 -119.5 49t-45.5 121q0 71 45.5 120t119.5 49q95 0 137 -89h5q42 89 137 89zM225 208q59 0 91 37.5t32 85.5t-31.5 85t-91.5 37q-55 0 -84 -34t-29 -88q0 -55 29 -89
t84 -34zM504 209q55 0 83.5 34t28.5 88t-28.5 88t-83.5 34q-60 0 -91.5 -37t-31.5 -85t31.5 -85t91.5 -37z" />
    <glyph glyph-name="integral" unicode="&#x222b;" horiz-adv-x="433" 
d="M111 -210q-58 0 -113 24q0 23 16 44q56 -23 96 -23q39 0 59 24t20 83v661q0 74 37 110.5t96 36.5q58 0 113 -24q0 -23 -16 -44q-56 23 -96 23q-39 0 -59 -24t-20 -83v-661q0 -74 -37 -110.5t-96 -36.5z" />
    <glyph glyph-name="approxequal" unicode="&#x2248;" horiz-adv-x="630" 
d="M445 516q75 0 135 -59q-12 -18 -27 -31q-43 39 -102 39q-39 0 -132.5 -25.5t-133.5 -25.5q-76 0 -135 58q12 18 27 31q43 -39 101 -39q38 0 132.5 26t134.5 26zM445 306q75 0 135 -59q-12 -18 -27 -31q-43 39 -102 39q-39 0 -132.5 -25.5t-133.5 -25.5q-76 0 -135 58
q12 18 27 31q43 -39 101 -39q38 0 132.5 26t134.5 26z" />
    <glyph glyph-name="notequal" unicode="&#x2260;" horiz-adv-x="644" 
d="M296 260h294q7 -25 0 -50h-317l-92 -196q-19 3 -35 16l83 180h-175q-7 25 0 50h199l88 190h-287q-7 25 0 50h310l77 166q22 -5 36 -18l-69 -148h182q7 -25 0 -50h-205z" />
    <glyph glyph-name="lessequal" unicode="&#x2264;" horiz-adv-x="644" 
d="M116 355l474 -190q8 -28 0 -55l-536 220q-7 25 0 50l536 220q8 -28 0 -55zM54 50h536q7 -25 0 -50h-536q-7 25 0 50z" />
    <glyph glyph-name="greaterequal" unicode="&#x2265;" horiz-adv-x="644" 
d="M54 110q-8 27 0 55l474 190l-474 190q-8 27 0 55l536 -220q7 -25 0 -50zM54 50h536q7 -25 0 -50h-536q-7 25 0 50z" />
    <glyph glyph-name="lozenge" unicode="&#x25ca;" horiz-adv-x="448" 
d="M224 738l214 -380l-214 -380l-214 380zM244 121l129 237l-129 237q-15 28 -18 56h-4q-3 -28 -18 -56l-129 -237l129 -237q15 -28 18 -56h4q3 28 18 56z" />
    <glyph glyph-name="i.loclTRK" horiz-adv-x="215" 
d="M107 620q-43 0 -43 42q0 43 43 43q42 0 42 -43q0 -42 -42 -42zM80 490q18 15 55 15v-505q-27 -8 -55 0v490z" />
    <glyph glyph-name="com_o" horiz-adv-x="600" 
d="M16 250v83q0 82 49.5 129.5t150.5 47.5v-50q-80 0 -112.5 -34t-32.5 -108v-68h-55z" />
    <glyph glyph-name="com_lacznik_b" horiz-adv-x="600" 
d="M270 460q-72 0 -135 -28v35q61 43 145 43z" />
    <glyph glyph-name="com_l" horiz-adv-x="510" 
d="M135 740v-740q-27 -8 -55 0v740q27 8 55 0z" />
    <glyph glyph-name="com_b_brzuch" horiz-adv-x="600" 
d="M16 250v83q0 82 48 129.5t142 47.5l10 -50q-80 0 -112.5 -34t-32.5 -108v-68h-55z" />
    <glyph glyph-name="com_O" horiz-adv-x="600" 
d="M181 350v153q0 96 60 151.5t175 55.5v-50q-90 -1 -132.5 -43t-42.5 -129v-138h-60z" />
    <glyph glyph-name="com_i" horiz-adv-x="215" 
d="M80 490q18 15 55 15v-505q-27 -8 -55 0v490z" />
    <glyph glyph-name="com_n" horiz-adv-x="540" 
d="M315 510q145 0 145 -137v-373q-28 -8 -55 0v358q0 58 -28.5 80t-85.5 22q-89 0 -156 -38v35q70 53 180 53z" />
    <glyph glyph-name="com_gora_skos" horiz-adv-x="195" 
d="M70 640v85q18 15 55 15v-100h-55z" />
    </font>
</defs>
</svg>
