<?xml version="1.0" standalone="no"?>
<!DOCTYPE svg PUBLIC "-//W3C//DTD SVG 1.1//EN" "http://www.w3.org/Graphics/SVG/1.1/DTD/svg11.dtd" >
<svg xmlns="http://www.w3.org/2000/svg" xmlns:xlink="http://www.w3.org/1999/xlink" version="1.1">
<metadata>
Created by FontForge 20170731 at Wed Jul 27 18:01:22 2016
 By Aleksey,,,
copyright missing
</metadata>
<defs>
<font id="AnebaNeue-Mediumitalic" horiz-adv-x="0" >
  <font-face 
    font-family="AnebaNeue-Mediumitalic"
    font-weight="400"
    font-style="italic"
    font-stretch="normal"
    units-per-em="1000"
    panose-1="0 0 6 0 0 0 0 0 0 0"
    ascent="781"
    descent="-219"
    x-height="509"
    cap-height="700"
    bbox="-224 -269 1152.38 987"
    underline-thickness="50"
    underline-position="-150"
    slope="-10"
    unicode-range="U+0020-25CA"
  />
<missing-glyph horiz-adv-x="470" 
d="M385 740v-940h-298v940h298zM313 677h-155v-31h61v-35h-62v-31h156v31h-62v35h62v31zM251 556h-94v-98h156v32h-62v66zM219 524v-34h-31v34h31zM313 433h-156v-31h62v-35h-62v-31h94v66h62v31zM313 376h-31v-62h-125v-32h156v94zM313 262h-94v-53h32v22h31v-45h-94v76
h-31v-107h156v107zM313 99h-156v-106h156v106zM282 68v-44h-94v44h94zM313 -29h-156v-31h66l-66 -44v-31h156v31h-96l66 44h30v31z" />
    <glyph glyph-name=".notdef" horiz-adv-x="470" 
d="M385 740v-940h-298v940h298zM313 677h-155v-31h61v-35h-62v-31h156v31h-62v35h62v31zM251 556h-94v-98h156v32h-62v66zM219 524v-34h-31v34h31zM313 433h-156v-31h62v-35h-62v-31h94v66h62v31zM313 376h-31v-62h-125v-32h156v94zM313 262h-94v-53h32v22h31v-45h-94v76
h-31v-107h156v107zM313 99h-156v-106h156v106zM282 68v-44h-94v44h94zM313 -29h-156v-31h66l-66 -44v-31h156v31h-96l66 44h30v31z" />
    <glyph glyph-name=".null" 
 />
    <glyph glyph-name="nonmarkingreturn" horiz-adv-x="333" 
 />
    <glyph glyph-name="space" unicode=" " horiz-adv-x="222" 
 />
    <glyph glyph-name="exclam" unicode="!" horiz-adv-x="276" 
d="M280 700l-96 -472q-49 -6 -96 0l72 472q62 8 120 0zM91 -10q-65 0 -53 64q11 65 76 65q64 0 52 -65q-10 -64 -75 -64z" />
    <glyph glyph-name="quotedbl" unicode="&#x22;" horiz-adv-x="343" 
d="M95 506l25 194q51 8 101 0l-44 -194q-42 -6 -82 0zM253 506l25 194q51 8 101 0l-44 -194q-42 -6 -82 0z" />
    <glyph glyph-name="numbersign" unicode="#" horiz-adv-x="707" 
d="M724 449h-121l-52 -198h121q-4 -43 -23 -84h-121l-44 -167q-54 -7 -105 0l44 167h-204l-44 -167q-54 -7 -105 0l44 167h-120q3 41 22 84h120l53 198h-121q4 41 22 84h121l44 167q55 7 105 0l-44 -167h205l44 167q54 7 105 0l-44 -167h120q-3 -41 -22 -84zM446 251l52 198
h-204l-53 -198h205z" />
    <glyph glyph-name="dollar" unicode="$" horiz-adv-x="534" 
d="M516 559q-69 50 -132 56l-70 -198q8 -3 32 -12.5t34 -13.5t31.5 -15t31.5 -19t25 -22t22 -28.5t12.5 -34.5t5.5 -43q0 -108 -74 -173.5t-212 -65.5q-32 0 -57 4l-35 -98q-25 -2 -47 8l35 99q-59 16 -107 50q14 53 48 93q42 -32 93 -47l77 220q-61 26 -95.5 61t-34.5 100
q0 101 72 165t195 65l29 81q26 1 48 -9l-26 -74q83 -11 146 -59q-13 -47 -47 -90zM222 507q0 -43 48 -70l63 177q-52 -7 -81.5 -35.5t-29.5 -71.5zM385 200q0 38 -27.5 58.5t-84.5 42.5l-75 -212q18 -3 37 -3q74 0 112 32.5t38 81.5z" />
    <glyph glyph-name="percent" unicode="%" horiz-adv-x="849" 
d="M778 678l-608 -694q-36 17 -59 47l608 694q37 -19 59 -47zM280 710q74 0 106 -38.5t22 -96.5l-16 -91q-10 -58 -56.5 -96.5t-119.5 -38.5q-74 0 -106.5 38.5t-22.5 96.5l16 91q10 58 56.5 96.5t120.5 38.5zM304 502l10 55q14 72 -49 72q-60 0 -73 -72l-11 -55
q-11 -73 50 -73q62 0 73 73zM667 352q74 0 106 -38.5t22 -96.5l-16 -91q-10 -58 -56 -97t-119 -39q-74 0 -106.5 39t-22.5 97l16 91q10 58 56 96.5t120 38.5zM692 143l10 56q13 72 -49 72q-61 0 -74 -72l-10 -56q-11 -72 49 -72q61 0 74 72z" />
    <glyph glyph-name="ampersand" unicode="&#x26;" horiz-adv-x="574" 
d="M480 137l97 -137q-69 -8 -134 0l-42 60q-92 -70 -211 -70q-87 0 -141.5 40t-54.5 113q0 77 47.5 130t133.5 105q-57 84 -57 150q0 78 63 130t154 52q72 0 115 -36t43 -97q0 -36 -13.5 -67t-41 -56.5t-53.5 -43t-66 -40.5l105 -152q38 58 63 142q14 4 50.5 4t49.5 -4
q-37 -134 -107 -223zM228 537q0 -36 44 -101q55 33 82 61t27 68q0 30 -16 46.5t-46 16.5q-42 0 -66.5 -25.5t-24.5 -65.5zM220 86q71 0 128 46l-127 181q-54 -34 -82.5 -67t-28.5 -76q0 -38 29 -61t81 -23z" />
    <glyph glyph-name="quotesingle" unicode="'" horiz-adv-x="184" 
d="M95 506l25 194q51 8 101 0l-44 -194q-42 -6 -82 0z" />
    <glyph glyph-name="parenleft" unicode="(" horiz-adv-x="294" 
d="M150 325q-43 -249 37 -500q-31 -13 -67 -15q-108 254 -62 515q45 260 244 515q34 -2 61 -15q-169 -255 -213 -500z" />
    <glyph glyph-name="parenright" unicode=")" horiz-adv-x="295" 
d="M199 840q106 -255 61 -515t-243 -515q-34 2 -61 15q170 256 212 500q44 246 -36 500q31 13 67 15z" />
    <glyph glyph-name="asterisk" unicode="*" horiz-adv-x="402" 
d="M251 750q39 6 77 0l-46 -159h-43zM108 661l131 -70l-20 -40l-150 38q13 36 39 72zM438 661q13 -38 14 -72l-163 -38l-7 40zM86 436l133 115l30 -27l-110 -135q-29 17 -53 47zM380 436q-33 -30 -67 -47l-64 135l40 27z" />
    <glyph glyph-name="plus" unicode="+" horiz-adv-x="648" 
d="M627 389q0 -43 -15 -87h-236l-42 -236q-45 -8 -87 0l42 236h-236q0 44 15 87h236l42 236q45 7 87 0l-42 -236h236z" />
    <glyph glyph-name="comma" unicode="," horiz-adv-x="214" 
d="M-67 -94l132 217q39 -12 71 -40l-152 -208q-29 9 -51 31z" />
    <glyph glyph-name="hyphen" unicode="-" horiz-adv-x="447" 
d="M426 389q0 -43 -15 -87h-358q0 44 15 87h358z" />
    <glyph glyph-name="period" unicode="." horiz-adv-x="225" 
d="M66 -10q-65 0 -53 64q11 65 76 65q64 0 52 -65q-10 -64 -75 -64z" />
    <glyph glyph-name="slash" unicode="/" horiz-adv-x="438" 
d="M507 700l-466 -725q-41 12 -74 37l466 725q45 -13 74 -37z" />
    <glyph glyph-name="zero" unicode="0" horiz-adv-x="613" 
d="M387 710q109 0 164 -59.5t37 -161.5l-49 -278q-18 -102 -94 -161.5t-185 -59.5t-164.5 59.5t-36.5 161.5l49 278q18 102 94 161.5t185 59.5zM424 234l40 232q26 148 -94 148q-122 -2 -147 -148l-40 -232q-27 -148 94 -148q122 2 147 148z" />
    <glyph glyph-name="one" unicode="1" horiz-adv-x="470" 
d="M324 700q47 7 92 0l-124 -700q-61 -8 -119 0l91 520q5 30 14 50l-4 5l-165 -72q1 55 20 115z" />
    <glyph glyph-name="two" unicode="2" horiz-adv-x="576" 
d="M484 96q0 -43 -17 -96h-458q0 34 12 68q28 22 74.5 59t74.5 59t67.5 55.5t63.5 57t51.5 55t42.5 58t25 57t10 60.5q0 87 -97 87q-76 0 -189 -67q-25 42 -21 85q123 76 247 76q88 0 135.5 -38.5t47.5 -114.5q0 -122 -93 -232t-269 -224l1 -5h292z" />
    <glyph glyph-name="three" unicode="3" horiz-adv-x="594" 
d="M394 360q53 -9 90.5 -48.5t37.5 -102.5q0 -104 -80.5 -162t-203.5 -58q-124 0 -221 75q12 45 51 86q47 -35 85.5 -51.5t86.5 -16.5q70 0 116.5 32.5t46.5 92.5q0 56 -49.5 82t-113.5 27q0 38 14 78q33 2 62.5 9.5t60 22.5t48.5 43t18 67t-26.5 59.5t-74.5 20.5
q-76 0 -184 -65q-24 43 -20 86q121 73 234 73q92 0 143 -39t51 -109q0 -80 -50.5 -132.5t-120.5 -64.5z" />
    <glyph glyph-name="four" unicode="4" horiz-adv-x="621" 
d="M584 234q-2 -45 -16 -87h-110l-25 -147q-61 -8 -120 0l26 147h-339q0 33 12 68l452 485q47 7 92 0l-82 -466h110zM137 234h217l41 233q5 30 14 51l-4 5z" />
    <glyph glyph-name="five" unicode="5" horiz-adv-x="573" 
d="M224 -11q-118 0 -217 75q12 44 52 86q90 -68 168 -68q75 0 127 40t52 110q0 74 -69.5 98t-209.5 -16l-41 23l106 363h374q0 -43 -17 -96h-284l-55 -194q154 40 235.5 -10.5t81.5 -152.5q0 -117 -88.5 -187.5t-214.5 -70.5z" />
    <glyph glyph-name="six" unicode="6" horiz-adv-x="597" 
d="M551 606q-271 -21 -344 -255q79 52 165 52q89 0 135 -52t31 -144q-19 -104 -91 -160.5t-175 -56.5q-120 0 -174 70.5t-27 219.5q34 192 173.5 301.5t323.5 118.5q0 -46 -17 -94zM423 197q10 57 -15 88t-74 31q-67 0 -146 -49q-15 -101 10 -146t89 -45q52 0 89 33t47 88z
" />
    <glyph glyph-name="seven" unicode="7" horiz-adv-x="533" 
d="M583 700q1 -30 -12 -68q-134 -156 -212.5 -302t-126.5 -330q-64 -7 -129 0q46 172 114.5 303t165.5 251q26 32 53 45l-1 5h-334q0 46 16 96h466z" />
    <glyph glyph-name="eight" unicode="8" horiz-adv-x="646" 
d="M472 360q97 -55 97 -145q0 -106 -86.5 -166t-206.5 -60q-97 0 -160 45t-63 125q0 73 40.5 118.5t116.5 82.5l1 5q-79 51 -79 132q0 92 78.5 152.5t192.5 60.5q92 0 148 -45t56 -117q0 -117 -134 -183zM289 536q-26 -59 29 -102q11 -6 29.5 -8t39 2.5t38 21t23.5 43.5
q16 28 8.5 55.5t-38.5 42.5q-41 12 -79 -2t-50 -53zM292 82q63 0 109 37.5t46 95.5q0 50 -36.5 73t-78.5 23q-23 0 -47 -6.5t-49.5 -20t-41.5 -41t-16 -63.5q0 -44 32 -71t82 -27z" />
    <glyph glyph-name="nine" unicode="9" horiz-adv-x="597" 
d="M357 700q251 0 201 -290q-35 -192 -174 -301.5t-323 -118.5q-2 45 16 94q272 21 344 255q-77 -52 -164 -52q-89 0 -135.5 52t-30.5 144q18 104 90.5 160.5t175.5 56.5zM205 493q-10 -57 15 -88t74 -31q68 0 146 48q15 101 -10 146.5t-89 45.5q-52 0 -89 -33t-47 -88z" />
    <glyph glyph-name="colon" unicode=":" horiz-adv-x="228" 
d="M134 381q-65 0 -53 64q11 65 76 65q64 0 52 -65q-10 -64 -75 -64zM69 -10q-65 0 -53 64q11 65 76 65q64 0 52 -65q-10 -64 -75 -64z" />
    <glyph glyph-name="semicolon" unicode=";" horiz-adv-x="224" 
d="M134 381q-65 0 -53 64q11 65 76 65q64 0 52 -65q-10 -64 -75 -64zM-67 -94l132 217q39 -12 71 -40l-152 -208q-29 9 -51 31z" />
    <glyph glyph-name="less" unicode="&#x3c;" horiz-adv-x="648" 
d="M667 614q-2 -50 -17 -94l-478 -174l417 -174q0 -49 -17 -94l-519 224q0 44 15 87z" />
    <glyph glyph-name="equal" unicode="=" horiz-adv-x="649" 
d="M75 422q0 44 15 87h559q0 -43 -15 -87h-559zM32 182q0 44 15 87h559q0 -43 -15 -87h-559z" />
    <glyph glyph-name="greater" unicode="&#x3e;" horiz-adv-x="648" 
d="M108 614l519 -225q0 -43 -15 -87l-599 -224q2 50 17 94l478 174l-417 174q0 49 17 94z" />
    <glyph glyph-name="question" unicode="?" horiz-adv-x="460" 
d="M356 525q8 46 -18.5 70t-79.5 24q-67 0 -154 -42q-7 47 1 90q86 43 194 43q96 0 145.5 -43t34.5 -124q-8 -45 -32.5 -82.5t-54.5 -63.5t-60.5 -51t-54.5 -55t-31 -63q-49 -6 -96 0q9 42 31.5 77t49 59t53 47t47 52t25.5 62zM160 -10q-65 0 -53 64q11 65 76 65
q64 0 52 -65q-10 -64 -75 -64z" />
    <glyph glyph-name="at" unicode="@" horiz-adv-x="873" 
d="M339 -10q-66 0 -106 38.5t-28 103.5l5 26q12 65 63.5 103t120.5 38q78 0 126 -43l5 5q-1 23 3 45l7 37q9 47 -9 68t-75 21q-75 0 -154 -35q-15 40 -9 76q85 46 197 46q185 0 156 -161l-40 -223q-11 -66 40 -66q27 0 42.5 17t23.5 59l61 346q11 63 -10.5 91t-79.5 28h-358
q-58 0 -89 -28t-42 -91l-87 -491q-52 -7 -100 0l87 495q36 203 242 203h367q205 0 171 -203l-63 -354q-27 -151 -183 -151q-97 0 -120 56q-83 -56 -164 -56zM382 65q48 0 110 32l16 97q-49 30 -97 30q-86 0 -98 -71l-3 -16q-6 -33 12 -52.5t60 -19.5z" />
    <glyph glyph-name="A" unicode="A" horiz-adv-x="624" 
d="M455 700l118 -700q-65 -8 -128 0l-29 174h-239l-90 -174q-63 -8 -122 0l363 700q64 8 127 0zM221 260h181l-37 219q-5 27 -2 63h-5q-12 -42 -23 -63z" />
    <glyph glyph-name="B" unicode="B" horiz-adv-x="620" 
d="M462 357q57 -9 85 -46.5t20 -90.5l-10 -56q-13 -77 -78 -120.5t-173 -43.5h-279l123 700h247q108 0 158 -43.5t36 -122.5l-9 -52q-8 -43 -40 -76.5t-79 -43.5zM379 606h-125l-27 -155q-5 -25 -13 -45l4 -5h124q109 0 124 92l4 21q16 92 -91 92zM442 188l4 22
q16 95 -92 95h-153l-29 -161q-6 -30 -13 -45l5 -5h154q108 0 124 94z" />
    <glyph glyph-name="C" unicode="C" horiz-adv-x="541" 
d="M283 86q83 0 176 54q18 -40 14 -89q-99 -61 -212 -61q-122 0 -181 60.5t-40 165.5l47 268q18 105 98.5 165.5t202.5 60.5q113 0 191 -61q-13 -48 -48 -90q-73 55 -155 55q-146 0 -173 -154l-39 -220q-29 -154 119 -154z" />
    <glyph glyph-name="D" unicode="D" horiz-adv-x="624" 
d="M411 700q117 0 171 -59t36 -158l-47 -266q-18 -99 -92.5 -158t-190.5 -59h-261l123 700h261zM457 246l37 209q26 150 -113 150h-127l-81 -459q-5 -25 -13 -45l4 -5h128q138 0 165 150z" />
    <glyph glyph-name="E" unicode="E" horiz-adv-x="543" 
d="M479 96q0 -47 -17 -96h-435l123 700h425q0 -49 -16 -96h-305l-26 -146q-5 -25 -13 -45l4 -5h265q0 -47 -17 -96h-265l-29 -166q-5 -25 -13 -45l4 -5h315z" />
    <glyph glyph-name="F" unicode="F" horiz-adv-x="533" 
d="M253 604l-30 -171q-6 -30 -13 -45l4 -5h286q-2 -50 -17 -96h-285l-51 -287q-61 -8 -120 0l123 700h425q0 -49 -16 -96h-306z" />
    <glyph glyph-name="G" unicode="G" horiz-adv-x="588" 
d="M444 341q54 8 108 0l-52 -290q-97 -61 -233 -61q-124 0 -185 61t-42 165l47 268q18 105 99.5 165.5t206.5 60.5q121 0 198 -61q-13 -47 -47 -90q-77 55 -162 55q-152 0 -179 -154l-39 -220q-14 -76 15.5 -115t109.5 -39q58 0 113 22z" />
    <glyph glyph-name="H" unicode="H" horiz-adv-x="680" 
d="M566 700q62 8 120 0l-123 -700q-61 -8 -120 0l47 267q5 25 13 45l-4 5h-296l-56 -317q-61 -8 -120 0l123 700q62 8 120 0l-41 -237q-5 -25 -13 -45l4 -5h297z" />
    <glyph glyph-name="I" unicode="I" horiz-adv-x="263" 
d="M270 700l-123 -700q-61 -8 -120 0l123 700q62 8 120 0z" />
    <glyph glyph-name="J" unicode="J" horiz-adv-x="354" 
d="M31 86q102 6 124 125l87 490q61 8 119 0l-89 -506q-18 -103 -86.5 -154t-170.5 -51q-2 41 16 96z" />
    <glyph glyph-name="K" unicode="K" horiz-adv-x="623" 
d="M150 700q62 8 120 0l-123 -700q-61 -8 -120 0zM385 369q5 -2 9 -5t7.5 -8t5.5 -8.5t6 -12t6 -13.5l143 -322q-68 -8 -133 0l-168 364l290 336q66 8 129 0l-236 -278q-32 -38 -59 -48v-5z" />
    <glyph glyph-name="L" unicode="L" horiz-adv-x="512" 
d="M464 96q0 -47 -17 -96h-420l123 700q62 8 120 0l-97 -554q-5 -25 -13 -45l4 -5h300z" />
    <glyph glyph-name="M" unicode="M" horiz-adv-x="810" 
d="M707 700q56 9 109 0l-123 -700q-62 -9 -120 0l75 425q6 28 14 46l-5 4l-232 -281q-11 -3 -31 -3q-22 0 -31 3l-132 281l-6 -4q2 -23 -3 -46l-75 -425q-62 -9 -120 0l123 700q56 9 111 0l138 -301q18 -41 18 -65h4q8 23 41 65z" />
    <glyph glyph-name="N" unicode="N" horiz-adv-x="684" 
d="M579 700q57 9 112 0l-123 -700q-51 -8 -98 0l-246 479l-5 -3q1 -20 -4 -47l-75 -429q-58 -9 -113 0l123 700q51 8 98 0l246 -479l6 3q-3 19 3 47z" />
    <glyph glyph-name="O" unicode="O" horiz-adv-x="613" 
d="M387 710q122 0 180.5 -59t40.5 -162l-49 -278q-18 -103 -97 -162t-202 -59t-181.5 59t-39.5 162l49 278q18 103 97 162t202 59zM444 234l40 232q13 75 -14 112t-100 36q-142 -1 -167 -148l-40 -232q-14 -75 13 -112t101 -36q142 1 167 148z" />
    <glyph glyph-name="P" unicode="P" horiz-adv-x="570" 
d="M393 700q111 0 163.5 -49t37.5 -134l-15 -86q-14 -86 -84 -135t-181 -49h-123l-44 -247q-61 -8 -120 0l123 700h243zM464 456l6 36q21 112 -98 112h-119l-37 -211q-6 -30 -13 -45l4 -5h119q59 0 93 26.5t45 86.5z" />
    <glyph glyph-name="Q" unicode="Q" horiz-adv-x="638" 
d="M387 710q122 0 180.5 -59t40.5 -162l-49 -278q-20 -109 -106 -168l74 -156q-67 -8 -123 0l-54 113q-39 -10 -90 -10q-123 0 -181.5 59t-39.5 162l49 278q18 103 97 162t202 59zM484 466q13 75 -14 112t-100 36q-142 -1 -167 -148l-40 -232q-14 -75 13 -112t101 -36
q142 1 167 148z" />
    <glyph glyph-name="R" unicode="R" horiz-adv-x="620" 
d="M408 295q16 -8 24.5 -13.5t19.5 -20t16.5 -27t17.5 -47t21.5 -66.5t28.5 -97q5 -16 7 -24q-63 -7 -122 0q-37 126 -60 181t-45 73t-60 18h-61l-48 -272q-61 -8 -120 0l123 700h243q110 0 163.5 -47t39.5 -124l-15 -86q-10 -56 -55.5 -94.5t-116.5 -48.5zM212 368h119
q119 0 135 100l6 36q18 100 -100 100h-118l-33 -186q-5 -25 -13 -45z" />
    <glyph glyph-name="S" unicode="S" horiz-adv-x="564" 
d="M222 507q0 -34 29.5 -57t71.5 -38t84 -33t71.5 -56t29.5 -94q0 -108 -74 -173.5t-212 -65.5q-124 0 -211 63q14 53 48 93q82 -60 176 -60q74 0 112 32.5t38 81.5q0 36 -29.5 59.5t-71.5 38.5t-84 33t-71.5 55.5t-29.5 93.5q0 103 74 166.5t200 63.5q112 0 190 -61
q-13 -47 -47 -90q-78 57 -154 57q-64 0 -102 -29.5t-38 -79.5z" />
    <glyph glyph-name="T" unicode="T" horiz-adv-x="561" 
d="M626 700q-2 -51 -17 -96h-207l-107 -604q-60 -8 -120 0l98 554q6 30 13 45l-4 5h-207q1 46 17 96h327h207z" />
    <glyph glyph-name="U" unicode="U" horiz-adv-x="668" 
d="M555 700q61 8 120 0l-84 -479q-19 -105 -96.5 -168t-207.5 -63t-185 63t-37 168l85 479q61 8 119 0l-80 -460q-14 -78 14.5 -116.5t100.5 -37.5q143 1 170 154z" />
    <glyph glyph-name="V" unicode="V" horiz-adv-x="605" 
d="M553 700q63 8 121 0l-344 -700q-63 -8 -125 0l-116 700q65 8 129 0l73 -486q6 -31 2 -63h5q10 34 24 63z" />
    <glyph glyph-name="W" unicode="W" horiz-adv-x="854" 
d="M798 700q66 8 125 0l-295 -700q-64 -7 -125 0l-38 377q-4 46 -1 77h-4q-8 -36 -27 -77l-172 -377q-63 -8 -123 0l-49 700q63 8 124 0l21 -452v-84h5q10 43 27 84l170 377q36 4 57 4q20 0 56 -4l36 -377q4 -34 -1 -84h5q7 26 29 84z" />
    <glyph glyph-name="X" unicode="X" horiz-adv-x="616" 
d="M402 358q19 -8 35 -47l119 -311q-70 -8 -137 0l-106 283l-211 -283q-66 -7 -131 0l229 311q29 39 51 47l1 5q-28 12 -42 48l-116 289q70 8 137 0l108 -277l211 277q66 8 129 0l-217 -289q-27 -36 -59 -48z" />
    <glyph glyph-name="Y" unicode="Y" horiz-adv-x="589" 
d="M658 700l-290 -416l-49 -284q-62 -9 -120 0l50 285l-160 415q67 8 132 0l100 -272q6 -16 2 -63h5q12 45 24 63l182 272q64 8 124 0z" />
    <glyph glyph-name="Z" unicode="Z" horiz-adv-x="559" 
d="M506 96q0 -48 -17 -96h-505q0 34 12 68l392 486q26 33 52 45l-1 5h-326q0 48 17 96h475q1 -28 -11 -68l-392 -486q-27 -34 -53 -45l2 -5h355z" />
    <glyph glyph-name="bracketleft" unicode="[" horiz-adv-x="314" 
d="M369 767h-119l-158 -894h119q0 -38 -13 -73h-139h-67l184 1040h87h119q0 -38 -13 -73z" />
    <glyph glyph-name="backslash" unicode="\" horiz-adv-x="425" 
d="M89 700q29 21 76 30l210 -725q-29 -19 -77 -30z" />
    <glyph glyph-name="bracketright" unicode="]" horiz-adv-x="313" 
d="M345 840l-184 -1040h-88h-118q-2 38 13 73h118l158 894h-118q-2 38 13 73h206z" />
    <glyph glyph-name="asciicircum" unicode="^" horiz-adv-x="453" 
d="M314 745l182 -208q-32 -40 -77 -72l-104 137q-16 21 -16 46h-4q-7 -24 -32 -46l-152 -137q-32 31 -52 72z" />
    <glyph glyph-name="underscore" unicode="_" horiz-adv-x="365" 
d="M316 0q0 -42 -14 -87h-358q-1 42 14 87h358z" />
    <glyph glyph-name="grave" unicode="`" horiz-adv-x="354" 
d="M299 630q-10 -27 -33 -50l-213 149q18 39 47 67z" />
    <glyph glyph-name="a" unicode="a" horiz-adv-x="507" 
d="M301 519q91 0 134.5 -37t28.5 -124l-63 -358q-58 -7 -113 0q4 18 11 30l-5 5q-64 -45 -144 -45q-70 0 -108.5 38t-26.5 104l4 26q12 65 64 103t123 38q81 0 127 -43l6 5q-1 23 3 45l6 37q9 47 -9 68t-75 21q-76 0 -153 -35q-16 36 -9 76q85 46 199 46zM305 96l17 98
q-49 30 -97 30q-83 0 -97 -71l-2 -16q-6 -33 11.5 -52.5t59.5 -19.5q50 0 108 31z" />
    <glyph glyph-name="b" unicode="b" horiz-adv-x="547" 
d="M357 519q95 0 134 -49t24 -132l-30 -166q-15 -83 -70.5 -132.5t-151.5 -49.5q-80 0 -127 45l-6 -5q2 -20 0 -30q-58 -9 -113 0l126 714q52 26 117 26l-38 -216q-6 -30 -13 -45l4 -5q63 45 144 45zM377 191l22 127q11 60 -10.5 87t-79.5 27q-57 0 -108 -28l-53 -299
q41 -28 98 -28q58 0 89 27.5t42 86.5z" />
    <glyph glyph-name="c" unicode="c" horiz-adv-x="454" 
d="M248 77q64 0 128 33q19 -37 13 -76q-73 -44 -166 -44q-106 0 -155 52t-35 134l27 157q15 82 82 134t174 52q95 0 151 -43q-8 -42 -40 -77q-52 33 -116 33q-120 0 -141 -114l-22 -127q-21 -114 100 -114z" />
    <glyph glyph-name="d" unicode="d" horiz-adv-x="546" 
d="M453 714q50 26 116 26l-130 -740q-57 -9 -112 0q3 18 11 30l-5 5q-63 -45 -144 -45q-95 0 -133.5 49.5t-23.5 132.5l29 166q14 83 70 132t152 49q80 0 128 -45l6 5q-2 18 3 45zM346 105l52 299q-41 28 -98 28q-58 0 -89 -27.5t-41 -86.5l-22 -127q-11 -59 10.5 -86.5
t79.5 -27.5q57 0 108 28z" />
    <glyph glyph-name="e" unicode="e" horiz-adv-x="512" 
d="M159 239l-6 -5l-8 -43q-10 -59 17 -86.5t95 -27.5q76 0 145 37q20 -37 12 -76q-80 -48 -185 -48q-109 0 -159.5 52t-36.5 134l26 152q15 83 82.5 137t171.5 54q98 0 142.5 -52t29.5 -134l-17 -99h-265q-25 0 -44 5zM298 437q-110 0 -130 -118l-1 -5h160q25 0 44 -5l5 5
l2 11q20 112 -80 112z" />
    <glyph glyph-name="f" unicode="f" horiz-adv-x="379" 
d="M256 509h157q-1 -46 -16 -91h-157l-74 -418q-56 -9 -113 0l66 368q3 24 13 45l-4 5h-75q2 47 17 91h74l15 85q13 76 64.5 116t128.5 40q64 0 117 -26q-7 -41 -38 -76q-46 20 -80 20t-53.5 -18.5t-27.5 -64.5l-6 -30q-3 -22 -12 -41z" />
    <glyph glyph-name="g" unicode="g" horiz-adv-x="546" 
d="M417 509q59 9 112 0l-97 -554q-11 -59 -48 -97t-85 -53t-109 -15q-112 0 -183 49q8 38 37 76q64 -38 145 -38q119 0 132 89l4 19q5 25 13 45l-4 5q-65 -45 -144 -45q-95 0 -133.5 49.5t-24.5 132.5l29 166q14 83 70.5 132t151.5 49q80 0 128 -45l6 5q-2 10 0 30zM346 105
l53 299q-41 28 -98 28q-58 0 -89 -27.5t-42 -86.5l-22 -127q-11 -59 10.5 -86.5t79.5 -27.5q57 0 108 28z" />
    <glyph glyph-name="h" unicode="h" horiz-adv-x="552" 
d="M388 519q149 0 125 -137l-68 -382q-57 -9 -112 0l60 340q9 49 -8.5 67.5t-61.5 18.5q-63 0 -124 -32l-69 -394q-58 -9 -113 0l126 714q52 26 117 26l-40 -224q-6 -30 -13 -45l5 -5q76 53 176 53z" />
    <glyph glyph-name="i" unicode="i" horiz-adv-x="256" 
d="M189 597q-54 0 -54 49q0 80 77 80q55 0 55 -50q0 -79 -78 -79zM112 490q49 26 117 26l-91 -516q-58 -9 -112 0z" />
    <glyph glyph-name="j" unicode="j" horiz-adv-x="248" 
d="M190 643q-16 0 -16 13q0 24 22 24q15 0 15 -15q0 -22 -21 -22zM105 490q47 26 116 26l-91 -516l-7 -40q-29 -170 -208 -170q-1 34 14 82q35 2 54 22t28 70z" />
    <glyph glyph-name="k" unicode="k" horiz-adv-x="508" 
d="M143 714q52 26 117 26l-130 -740q-58 -9 -113 0zM368 238l95 -238q-58 -10 -124 0l-115 283l198 226q66 9 118 0l-147 -171q-34 -38 -59 -47l-1 -6q13 -5 19.5 -14.5t15.5 -32.5z" />
    <glyph glyph-name="l" unicode="l" horiz-adv-x="236" 
d="M143 714q52 26 117 26l-130 -740q-58 -9 -113 0z" />
    <glyph glyph-name="m" unicode="m" horiz-adv-x="837" 
d="M675 519q72 0 104.5 -31t18.5 -106l-67 -382q-59 -9 -112 0l59 340q9 51 -5.5 68.5t-57.5 17.5q-56 0 -116 -32q-1 -2 -1 -6t-1 -6l-67 -382q-59 -9 -112 0l59 340q9 51 -5.5 68.5t-57.5 17.5q-54 0 -115 -32l-69 -394q-58 -9 -113 0l86 490q49 26 117 26q-4 -28 -13 -45
l5 -5q73 53 162 53q103 0 122 -62q89 62 179 62z" />
    <glyph glyph-name="n" unicode="n" horiz-adv-x="552" 
d="M388 519q149 0 125 -137l-68 -382q-57 -9 -112 0l60 340q9 49 -8.5 67.5t-61.5 18.5q-63 0 -124 -32l-69 -394q-58 -9 -113 0l86 490q49 26 117 26q-4 -28 -13 -45l5 -5q76 53 176 53z" />
    <glyph glyph-name="o" unicode="o" horiz-adv-x="539" 
d="M316 519q109 0 156.5 -51.5t33.5 -134.5l-27 -157q-15 -83 -81 -134.5t-175 -51.5t-156.5 51.5t-33.5 134.5l27 157q15 83 81 134.5t175 51.5zM369 191l22 127q11 60 -10.5 87t-79.5 27t-89 -27.5t-42 -86.5l-22 -127q-11 -60 10.5 -87t79.5 -27t89 27.5t42 86.5z" />
    <glyph glyph-name="p" unicode="p" horiz-adv-x="547" 
d="M357 519q95 0 133.5 -49t24.5 -132l-30 -166q-14 -83 -70 -132.5t-151 -49.5q-81 0 -128 45l-6 -5q2 -22 -3 -45l-29 -159q-50 -26 -116 -26l122 690q47 26 116 26q-2 -21 -12 -37l5 -5q63 45 144 45zM376 191l23 127q11 59 -11 86.5t-80 27.5q-55 0 -108 -28l-52 -299
q41 -28 97 -28q58 0 89.5 27.5t41.5 86.5z" />
    <glyph glyph-name="q" unicode="q" horiz-adv-x="546" 
d="M417 509q57 9 112 0l-120 -683q-52 -26 -117 -26l33 185q3 24 13 45l-5 5q-63 -45 -144 -45q-95 0 -133.5 49.5t-23.5 132.5l29 166q14 83 70 132t152 49q80 0 128 -45l6 5q-4 12 0 30zM346 105l52 299q-41 28 -98 28q-58 0 -89 -27.5t-41 -86.5l-22 -127
q-11 -59 10.5 -86.5t79.5 -27.5q57 0 108 28z" />
    <glyph glyph-name="r" unicode="r" horiz-adv-x="353" 
d="M203 434q71 89 190 81q-12 -61 -40 -106q-89 7 -161 -54l-62 -355q-58 -9 -113 0l86 490q49 26 117 26q-7 -45 -21 -77z" />
    <glyph glyph-name="s" unicode="s" horiz-adv-x="465" 
d="M180 -10q-117 0 -176 52q7 40 39 76q59 -44 142 -44q56 0 85.5 19.5t29.5 49.5q0 24 -24 40t-58.5 26t-69 23t-58.5 40.5t-24 69.5q0 80 61 128.5t170 48.5q96 0 160 -43q-8 -41 -39 -77q-60 36 -129 36q-52 0 -80.5 -18t-28.5 -49q0 -24 24 -39t59 -25.5t69.5 -24
t58.5 -42t24 -70.5q0 -79 -60 -128t-175 -49z" />
    <glyph glyph-name="t" unicode="t" horiz-adv-x="407" 
d="M330 109q20 -37 11 -80q-69 -39 -134 -39q-73 0 -107 39t-21 116l40 223q6 30 13 45l-4 5h-75q2 47 17 91h74l17 98q49 27 117 27l-13 -75q-5 -25 -13 -45l4 -5h157q-1 -46 -16 -91h-157l-44 -253q-9 -47 3.5 -65.5t44.5 -18.5q31 0 86 28z" />
    <glyph glyph-name="u" unicode="u" horiz-adv-x="544" 
d="M411 490q49 26 117 26l-90 -516q-58 -9 -113 0q5 23 12 36l-4 5q-75 -53 -170 -53q-148 0 -124 137l64 365q49 26 118 26l-62 -348q-9 -50 8.5 -68t61.5 -18q57 0 116 31z" />
    <glyph glyph-name="v" unicode="v" horiz-adv-x="506" 
d="M427 509q61 7 116 0l-267 -509q-63 -8 -123 0l-100 509q62 8 122 0l58 -323q5 -23 3 -63h5q6 27 23 63z" />
    <glyph glyph-name="w" unicode="w" horiz-adv-x="775" 
d="M692 509q62 8 120 0l-249 -509q-59 -7 -114 0l-38 292q-5 46 -2 75h-4q-6 -28 -27 -75l-141 -292q-59 -7 -114 0l-70 509q61 8 120 0l32 -310q3 -48 2 -63h5q10 36 24 63l136 285q34 4 56 4q24 0 56 -4l36 -285q4 -33 1 -63h5q9 28 25 63z" />
    <glyph glyph-name="x" unicode="x" horiz-adv-x="518" 
d="M334 258q23 -9 38 -47l83 -211q-60 -10 -127 0l-77 215l-156 -215q-69 -10 -122 0l158 211q28 38 54 47l1 3v3q-26 10 -41 47l-79 198q60 10 125 0l77 -206l155 206q66 9 119 0l-148 -198q-27 -36 -59 -47l-1 -3v-3z" />
    <glyph glyph-name="y" unicode="y" horiz-adv-x="511" 
d="M432 509q59 7 116 0l-266 -498q-59 -110 -129 -163.5t-174 -57.5q0 38 14 82q59 7 96.5 37t74.5 97l-106 503q61 8 121 0l58 -323q5 -37 3 -61h5q8 33 23 63z" />
    <glyph glyph-name="z" unicode="z" horiz-adv-x="456" 
d="M166 116q-14 -16 -25 -20l1 -5h264q-2 -46 -16 -91h-415q0 34 12 68l298 325q15 18 25 20l-1 5h-243q0 46 16 91h395q0 -34 -12 -67z" />
    <glyph glyph-name="braceleft" unicode="{" horiz-adv-x="267" 
d="M117 69q-27 -98 -5.5 -147.5t77.5 -49.5q-2 -41 -13 -72q-99 0 -143.5 72.5t-6.5 197.5q38 113 37.5 163.5t-45.5 64.5q-1 21 8 44q50 15 67 62t21 166q7 125 77.5 197.5t168.5 72.5q-2 -42 -14 -72q-56 0 -96 -51.5t-44 -145.5q-6 -199 -94 -251q70 -52 5 -251z" />
    <glyph glyph-name="bar" unicode="|" horiz-adv-x="331" 
d="M307 840l-178 -1040q-42 -7 -82 0l178 1040q42 7 82 0z" />
    <glyph glyph-name="braceright" unicode="}" horiz-adv-x="267" 
d="M84 69q6 199 94 251q-70 53 -5 251q27 98 6 147.5t-77 49.5q0 40 13 72q98 0 142.5 -72.5t6.5 -197.5q-37 -113 -37 -163.5t45 -64.5q1 -21 -8 -44q-49 -14 -66 -61.5t-22 -166.5q-7 -125 -77 -197.5t-168 -72.5q0 40 13 72q56 0 96 51.5t44 145.5z" />
    <glyph glyph-name="asciitilde" unicode="~" horiz-adv-x="648" 
d="M476 388q98 0 139 -89q-25 -24 -56 -39q-29 38 -85 38q-42 0 -138 -27t-141 -27q-86 0 -141 89q26 23 57 39q29 -38 85 -38q42 0 137.5 27t142.5 27z" />
    <glyph glyph-name="exclamdown" unicode="&#xa1;" horiz-adv-x="276" 
d="M185 519q65 0 53 -64q-11 -65 -76 -65q-64 0 -52 65q10 64 75 64zM-4 -191l96 472q49 6 96 0l-72 -472q-62 -7 -120 0z" />
    <glyph glyph-name="cent" unicode="&#xa2;" horiz-adv-x="454" 
d="M427 399q-45 29 -98 32l-63 -353q53 2 110 32q19 -37 13 -76q-59 -36 -138 -43l-16 -91q-26 -6 -50 0l16 91q-95 5 -138 56t-30 129l27 157q14 78 75.5 129t158.5 56l18 100q26 6 50 0l-18 -100q75 -5 123 -42q-8 -42 -40 -77zM148 191q-18 -99 69 -112l62 351
q-91 -13 -109 -112z" />
    <glyph glyph-name="sterling" unicode="&#xa3;" horiz-adv-x="589" 
d="M421 614q-146 0 -173 -154q-4 -21 -5 -34h219q1 -24 -9 -50h-216q-1 -10 -2 -30t-2 -30h209q2 -25 -9 -50h-205q-11 -102 -51 -175h343q0 -46 -16 -91h-478q72 111 86 266h-97q-4 25 9 50h92q2 40 4 60h-85q-5 24 8 50h81q4 40 8 58q18 105 98.5 165.5t202.5 60.5
q113 0 191 -61q-15 -51 -48 -90q-73 55 -155 55z" />
    <glyph glyph-name="currency" unicode="&#xa4;" horiz-adv-x="706" 
d="M642 299q0 -101 -80 -191l91 -93q-39 -45 -86 -73l-74 106q-87 -58 -187 -58q-101 0 -167 58l-112 -106q-34 26 -60 73l125 93q-27 48 -27 113q0 102 81 191l-92 93q39 45 86 73l74 -106q87 58 187 58q99 0 167 -58l112 106q34 -26 60 -73l-124 -93q26 -49 26 -113z
M323 86q79 0 138.5 57.5t59.5 146.5q0 65 -38.5 104.5t-98.5 39.5q-79 0 -138.5 -58t-59.5 -146q0 -65 38.5 -104.5t98.5 -39.5z" />
    <glyph glyph-name="yen" unicode="&#xa5;" horiz-adv-x="589" 
d="M386 310h130q2 -25 -9 -50h-143l-10 -60h143q1 -24 -9 -50h-143l-26 -150q-62 -9 -120 0l26 150h-156q-4 25 9 50h156l11 60h-157q-2 25 9 50h142l-150 390q67 8 132 0l100 -272q6 -16 2 -63h5q12 45 24 63l182 272q64 8 124 0z" />
    <glyph glyph-name="brokenbar" unicode="&#xa6;" horiz-adv-x="337" 
d="M313 840l-54 -340q-45 -7 -88 0l55 340q44 8 87 0zM189 140l-54 -340q-45 -8 -87 0l54 340q45 8 87 0z" />
    <glyph glyph-name="section" unicode="&#xa7;" horiz-adv-x="538" 
d="M417 152q43 -43 43 -113q0 -108 -74 -173.5t-212 -65.5q-124 0 -211 63q14 52 47 93q84 -60 177 -60q74 0 112 32.5t38 81.5q0 36 -29.5 59.5t-71.5 38.5t-84 33t-71.5 55.5t-29.5 93.5q0 120 109 185q-46 41 -46 114q0 104 73.5 167.5t200.5 63.5q112 0 189 -61
q-13 -50 -47 -90q-76 57 -153 57q-64 0 -102.5 -30t-38.5 -80q0 -34 29 -56.5t70.5 -37.5t83 -33t70.5 -55.5t29 -93.5q0 -120 -101 -188zM174 317q0 -19 7.5 -33.5t24 -25.5t30 -17.5t39.5 -16.5t39 -16q80 31 80 102q0 16 -6.5 30t-13 22.5t-24 18.5t-26 14t-32.5 13
t-31 12q-42 -11 -64.5 -38t-22.5 -65z" />
    <glyph glyph-name="dieresis" unicode="&#xa8;" horiz-adv-x="456" 
d="M103 597q-55 0 -55 49q0 80 78 80q54 0 54 -50q0 -79 -77 -79zM331 597q-55 0 -55 49q0 80 78 80q54 0 54 -50q0 -79 -77 -79z" />
    <glyph glyph-name="copyright" unicode="&#xa9;" horiz-adv-x="817" 
d="M361 -10q-136 0 -219 87t-83 218q0 110 58 206t157.5 152.5t213.5 56.5q137 0 220 -87t83 -218q0 -168 -127.5 -291.5t-302.5 -123.5zM367 23q159 0 274.5 112t115.5 264q0 119 -75.5 198.5t-198.5 79.5q-159 0 -274.5 -112t-115.5 -264q0 -119 75.5 -198.5t198.5 -79.5z
M408 171q56 0 119 37q12 -27 9 -60q-66 -42 -143 -42q-83 0 -123 41t-27 112l32 182q12 71 66.5 112t137.5 41q75 0 129 -42q-8 -31 -33 -61q-48 38 -105 38q-98 0 -117 -105l-26 -149q-19 -104 81 -104z" />
    <glyph glyph-name="guillemotleft" unicode="&#xab;" horiz-adv-x="562" 
d="M105 252q25 -4 41 -24l115 -129q-36 -36 -83 -64l-170 219l246 218q37 -26 61 -64l-160 -129q-24 -20 -50 -23v-4zM317 252q25 -4 41 -24l115 -129q-36 -36 -83 -64l-170 219l247 218q37 -27 60 -64l-160 -129q-24 -20 -50 -23v-4z" />
    <glyph glyph-name="logicalnot" unicode="&#xac;" horiz-adv-x="644" 
d="M627 389l-42 -241q-51 -8 -99 0l27 154h-460q0 44 15 87h559z" />
    <glyph glyph-name="registered" unicode="&#xae;" horiz-adv-x="817" 
d="M361 -10q-136 0 -219 87t-83 218q0 110 58 206t157.5 152.5t213.5 56.5q137 0 220 -87t83 -218q0 -168 -127.5 -291.5t-302.5 -123.5zM367 23q159 0 274.5 112t115.5 264q0 119 -75.5 198.5t-198.5 79.5q-159 0 -274.5 -112t-115.5 -264q0 -119 75.5 -198.5t198.5 -79.5z
M480 313q29 -15 41 -42t51 -158q-43 -4 -83 0q-25 85 -40.5 122t-30.5 49.5t-41 12.5h-41l-33 -184q-41 -5 -81 0l84 474h164q75 0 111 -32t26 -84l-10 -58q-7 -38 -37.5 -64t-78.5 -33zM347 362h81q81 0 91 68l4 24q13 68 -67 68h-80l-22 -126q-3 -14 -9 -31z" />
    <glyph glyph-name="macron" unicode="&#xaf;" horiz-adv-x="477" 
d="M71 704h349q2 -40 -14 -82h-350q0 44 15 82z" />
    <glyph glyph-name="degree" unicode="&#xb0;" horiz-adv-x="303" 
d="M207 567q-89 0 -89 78q0 57 33 89.5t92 32.5q87 0 87 -80q0 -58 -32 -89t-91 -31zM218 627q22 0 34 13t12 35q0 32 -32 32q-48 0 -48 -49q0 -31 34 -31z" />
    <glyph glyph-name="plusminus" unicode="&#xb1;" horiz-adv-x="649" 
d="M404 459h236q0 -43 -15 -87h-236l-42 -236q-45 -8 -87 0l42 236h-236q0 44 15 87h236l42 236q45 7 87 0zM1 0q0 44 15 87h559q0 -43 -15 -87h-559z" />
    <glyph glyph-name="acute" unicode="&#xb4;" horiz-adv-x="354" 
d="M55 630l199 166q29 -28 47 -67l-213 -149q-23 23 -33 50z" />
    <glyph glyph-name="paragraph" unicode="&#xb6;" horiz-adv-x="716" 
d="M723 700l-159 -900q-45 -7 -88 0l145 822h-162l-145 -822q-45 -7 -88 0l67 383q-94 0 -155.5 64t-61.5 158q0 118 94 206.5t215 88.5h338z" />
    <glyph glyph-name="periodcentered" unicode="&#xb7;" horiz-adv-x="230" 
d="M110 218q-70 0 -56 68q11 68 80 68q67 0 55 -68t-79 -68z" />
    <glyph glyph-name="cedilla" unicode="&#xb8;" horiz-adv-x="617" 
d="M287 5l60 -2l-30 -48q40 -7 61 -29.5t15 -57.5q-9 -46 -54.5 -67t-122.5 -6q0 29 11 60q32 -7 54.5 1t22.5 32q0 28 -62 43z" />
    <glyph glyph-name="guillemotright" unicode="&#xbb;" horiz-adv-x="571" 
d="M172 472l169 -218l-246 -219q-37 28 -61 64l161 129q23 19 49 24l1 2v2q-24 3 -41 23l-115 129q39 39 83 64zM384 472l170 -218l-247 -219q-37 28 -61 64l161 129q23 19 49 24l2 4q-25 3 -42 23l-115 129q39 39 83 64z" />
    <glyph glyph-name="questiondown" unicode="&#xbf;" horiz-adv-x="412" 
d="M278 519q65 0 53 -64q-11 -65 -76 -65q-64 0 -52 65q10 64 75 64zM82 -16q-8 -46 18.5 -70t79.5 -24q67 0 154 42q7 -47 -1 -90q-86 -43 -194 -43q-96 0 -145.5 43t-34.5 124q8 45 32.5 82.5t54.5 63.5t60.5 51t54.5 55t31 63q49 6 96 0q-9 -42 -31.5 -77t-49 -59
t-53 -47t-47 -52t-25.5 -62z" />
    <glyph glyph-name="Agrave" unicode="&#xc0;" horiz-adv-x="624" 
d="M519 821q-10 -27 -33 -50l-213 149q18 39 47 67zM455 700l118 -700q-65 -8 -128 0l-29 174h-239l-90 -174q-63 -8 -122 0l363 700q64 8 127 0zM221 260h181l-37 219q-5 27 -2 63h-5q-12 -42 -23 -63z" />
    <glyph glyph-name="Aacute" unicode="&#xc1;" horiz-adv-x="624" 
d="M353 821l199 166q29 -28 47 -67l-213 -149q-23 23 -33 50zM455 700l118 -700q-65 -8 -128 0l-29 174h-239l-90 -174q-63 -8 -122 0l363 700q64 8 127 0zM221 260h181l-37 219q-5 27 -2 63h-5q-12 -42 -23 -63z" />
    <glyph glyph-name="Acircumflex" unicode="&#xc2;" horiz-adv-x="624" 
d="M284 771q-25 23 -39 61l189 140l141 -140q-29 -38 -60 -61l-75 100q-15 19 -14 39h-4q-7 -21 -27 -39zM328 700q64 8 127 0l118 -700q-65 -8 -128 0l-29 174h-239l-90 -174q-63 -8 -122 0zM221 260h181l-37 219q-5 27 -2 63h-5q-12 -42 -23 -63z" />
    <glyph glyph-name="Atilde" unicode="&#xc3;" horiz-adv-x="624" 
d="M498 917q74 0 109 -78q-30 -26 -57 -39q-29 39 -59 39q-19 0 -62 -21.5t-73 -21.5q-66 0 -110 78q30 24 56 38q30 -38 61 -38q20 0 62 21.5t73 21.5zM455 700l118 -700q-65 -8 -128 0l-29 174h-239l-90 -174q-63 -8 -122 0l363 700q64 8 127 0zM221 260h181l-37 219
q-5 27 -2 63h-5q-12 -42 -23 -63z" />
    <glyph glyph-name="Adieresis" unicode="&#xc4;" horiz-adv-x="624" 
d="M293 788q-55 0 -55 49q0 80 78 80q54 0 54 -50q0 -79 -77 -79zM521 788q-55 0 -55 49q0 80 78 80q54 0 54 -50q0 -79 -77 -79zM455 700l118 -700q-65 -8 -128 0l-29 174h-239l-90 -174q-63 -8 -122 0l363 700q64 8 127 0zM221 260h181l-37 219q-5 27 -2 63h-5
q-12 -42 -23 -63z" />
    <glyph glyph-name="Aring" unicode="&#xc5;" horiz-adv-x="621" 
d="M458 682l115 -682q-65 -8 -128 0l-29 174h-239l-90 -174q-63 -8 -122 0l349 674q-27 18 -27 62q0 57 32.5 89.5t91.5 32.5q88 0 88 -80q0 -66 -41 -96zM402 806q-28 0 -42.5 -16.5t-14.5 -43.5q0 -36 40 -36q55 0 55 58q0 38 -38 38zM221 260h181l-37 219q-5 27 -2 63h-5
q-12 -42 -23 -63z" />
    <glyph glyph-name="AE" unicode="&#xc6;" horiz-adv-x="864" 
d="M605 604l-26 -146q-3 -24 -13 -45l5 -5h235q0 -47 -17 -96h-235l-30 -166q-3 -24 -13 -45l4 -5h286q-2 -51 -17 -96h-321h-84l31 174h-204l-116 -174q-66 -8 -125 0l470 700h67l-18 -101h-5q-13 -34 -33 -63l-183 -276h162l77 440h120h275q0 -45 -16 -96h-276z" />
    <glyph glyph-name="Ccedilla" unicode="&#xc7;" horiz-adv-x="541" 
d="M203 460l-39 -220q-29 -154 119 -154q83 0 176 54q18 -40 14 -89q-92 -56 -195 -61l-22 -35q40 -7 61 -29.5t15 -57.5q-9 -46 -54.5 -67t-122.5 -6q0 29 11 60q32 -7 54.5 1t22.5 32q0 28 -62 43l37 61q-101 10 -148 69.5t-30 154.5l47 268q18 105 98.5 165.5t202.5 60.5
q113 0 191 -61q-13 -48 -48 -90q-73 55 -155 55q-146 0 -173 -154z" />
    <glyph glyph-name="Egrave" unicode="&#xc8;" horiz-adv-x="543" 
d="M495 821q-10 -27 -33 -50l-213 149q18 39 47 67zM479 96q0 -47 -17 -96h-435l123 700h425q0 -49 -16 -96h-305l-26 -146q-5 -25 -13 -45l4 -5h265q0 -47 -17 -96h-265l-29 -166q-5 -25 -13 -45l4 -5h315z" />
    <glyph glyph-name="Eacute" unicode="&#xc9;" horiz-adv-x="543" 
d="M329 821l199 166q29 -28 47 -67l-213 -149q-23 23 -33 50zM479 96q0 -47 -17 -96h-435l123 700h425q0 -49 -16 -96h-305l-26 -146q-5 -25 -13 -45l4 -5h265q0 -47 -17 -96h-265l-29 -166q-5 -25 -13 -45l4 -5h315z" />
    <glyph glyph-name="Ecircumflex" unicode="&#xca;" horiz-adv-x="543" 
d="M260 771q-25 23 -39 61l189 140l141 -140q-29 -38 -60 -61l-75 100q-15 19 -14 39h-4q-7 -21 -27 -39zM254 604l-26 -146q-5 -25 -13 -45l4 -5h265q0 -47 -17 -96h-265l-29 -166q-5 -25 -13 -45l4 -5h315q0 -47 -17 -96h-435l123 700h425q0 -49 -16 -96h-305z" />
    <glyph glyph-name="Edieresis" unicode="&#xcb;" horiz-adv-x="543" 
d="M269 788q-55 0 -55 49q0 80 78 80q54 0 54 -50q0 -79 -77 -79zM497 788q-55 0 -55 49q0 80 78 80q54 0 54 -50q0 -79 -77 -79zM479 96q0 -47 -17 -96h-435l123 700h425q0 -49 -16 -96h-305l-26 -146q-5 -25 -13 -45l4 -5h265q0 -47 -17 -96h-265l-29 -166q-5 -25 -13 -45
l4 -5h315z" />
    <glyph glyph-name="Igrave" unicode="&#xcc;" horiz-adv-x="263" 
d="M330 821q-10 -27 -33 -50l-213 149q18 39 47 67zM270 700l-123 -700q-61 -8 -120 0l123 700q62 8 120 0z" />
    <glyph glyph-name="Iacute" unicode="&#xcd;" horiz-adv-x="263" 
d="M164 821l199 166q29 -28 47 -67l-213 -149q-23 23 -33 50zM270 700l-123 -700q-61 -8 -120 0l123 700q62 8 120 0z" />
    <glyph glyph-name="Icircumflex" unicode="&#xce;" horiz-adv-x="263" 
d="M245 972l141 -140q-29 -38 -60 -61l-75 100q-15 19 -14 39h-4q-7 -21 -27 -39l-111 -100q-25 23 -39 61zM150 700q62 8 120 0l-123 -700q-61 -8 -120 0z" />
    <glyph glyph-name="Idieresis" unicode="&#xcf;" horiz-adv-x="263" 
d="M104 788q-55 0 -55 49q0 80 78 80q54 0 54 -50q0 -79 -77 -79zM332 788q-55 0 -55 49q0 80 78 80q54 0 54 -50q0 -79 -77 -79zM270 700l-123 -700q-61 -8 -120 0l123 700q62 8 120 0z" />
    <glyph glyph-name="Eth" unicode="&#xd0;" horiz-adv-x="638" 
d="M425 700q117 0 171 -59t36 -158l-47 -266q-18 -99 -92.5 -158t-190.5 -59h-261l56 320h-91q0 47 14 86h92l52 294h261zM508 455q26 150 -113 150h-127l-35 -199h127q0 -42 -15 -86h-127l-31 -174q-5 -25 -13 -45l4 -5h128q138 0 165 150z" />
    <glyph glyph-name="Ntilde" unicode="&#xd1;" horiz-adv-x="684" 
d="M509 917q74 0 109 -78q-30 -26 -57 -39q-29 39 -59 39q-19 0 -62 -21.5t-73 -21.5q-66 0 -110 78q30 24 56 38q30 -38 61 -38q20 0 62 21.5t73 21.5zM579 700q57 9 112 0l-123 -700q-51 -8 -98 0l-246 479l-5 -3q1 -20 -4 -47l-75 -429q-58 -9 -113 0l123 700q51 8 98 0
l246 -479l6 3q-3 19 3 47z" />
    <glyph glyph-name="Ograve" unicode="&#xd2;" horiz-adv-x="613" 
d="M505 821q-10 -27 -33 -50l-213 149q18 39 47 67zM387 710q122 0 180.5 -59t40.5 -162l-49 -278q-18 -103 -97 -162t-202 -59t-181.5 59t-39.5 162l49 278q18 103 97 162t202 59zM444 234l40 232q13 75 -14 112t-100 36q-142 -1 -167 -148l-40 -232q-14 -75 13 -112
t101 -36q142 1 167 148z" />
    <glyph glyph-name="Oacute" unicode="&#xd3;" horiz-adv-x="613" 
d="M339 821l199 166q29 -28 47 -67l-213 -149q-23 23 -33 50zM387 710q122 0 180.5 -59t40.5 -162l-49 -278q-18 -103 -97 -162t-202 -59t-181.5 59t-39.5 162l49 278q18 103 97 162t202 59zM444 234l40 232q13 75 -14 112t-100 36q-142 -1 -167 -148l-40 -232
q-14 -75 13 -112t101 -36q142 1 167 148z" />
    <glyph glyph-name="Ocircumflex" unicode="&#xd4;" horiz-adv-x="613" 
d="M270 771q-25 23 -39 61l189 140l141 -140q-29 -38 -60 -61l-75 100q-15 19 -14 39h-4q-7 -21 -27 -39zM387 710q122 0 180.5 -59t40.5 -162l-49 -278q-18 -103 -97 -162t-202 -59t-181.5 59t-39.5 162l49 278q18 103 97 162t202 59zM484 466q13 75 -14 112t-100 36
q-142 -1 -167 -148l-40 -232q-14 -75 13 -112t101 -36q142 1 167 148z" />
    <glyph glyph-name="Otilde" unicode="&#xd5;" horiz-adv-x="613" 
d="M484 917q74 0 109 -78q-30 -26 -57 -39q-29 39 -59 39q-19 0 -62 -21.5t-73 -21.5q-66 0 -110 78q30 24 56 38q30 -38 61 -38q20 0 62 21.5t73 21.5zM387 710q122 0 180.5 -59t40.5 -162l-49 -278q-18 -103 -97 -162t-202 -59t-181.5 59t-39.5 162l49 278q18 103 97 162
t202 59zM444 234l40 232q13 75 -14 112t-100 36q-142 -1 -167 -148l-40 -232q-14 -75 13 -112t101 -36q142 1 167 148z" />
    <glyph glyph-name="Odieresis" unicode="&#xd6;" horiz-adv-x="613" 
d="M279 788q-55 0 -55 49q0 80 78 80q54 0 54 -50q0 -79 -77 -79zM507 788q-55 0 -55 49q0 80 78 80q54 0 54 -50q0 -79 -77 -79zM387 710q122 0 180.5 -59t40.5 -162l-49 -278q-18 -103 -97 -162t-202 -59t-181.5 59t-39.5 162l49 278q18 103 97 162t202 59zM444 234
l40 232q13 75 -14 112t-100 36q-142 -1 -167 -148l-40 -232q-14 -75 13 -112t101 -36q142 1 167 148z" />
    <glyph glyph-name="multiply" unicode="&#xd7;" horiz-adv-x="588" 
d="M597 537l-225 -191l155 -188q-35 -38 -72 -61l-155 188l-226 -191q-32 25 -50 60l225 192l-155 188q31 35 72 61l155 -188l225 191q31 -23 51 -61z" />
    <glyph glyph-name="Oslash" unicode="&#xd8;" horiz-adv-x="613" 
d="M544 671q85 -59 64 -182l-49 -278q-18 -103 -97 -162t-202 -59q-82 0 -136 27l-54 -85q-24 6 -41 20l58 90q-68 58 -48 169l49 278q18 103 97 162t202 59q68 0 116 -18l49 76q25 -6 41 -21zM163 234q-8 -46 -2 -76l283 442q-28 14 -74 14q-142 -1 -167 -148zM484 466
q11 67 -7 100l-291 -454q27 -26 91 -26q142 1 167 148z" />
    <glyph glyph-name="Ugrave" unicode="&#xd9;" horiz-adv-x="668" 
d="M532 821q-10 -27 -33 -50l-213 149q18 39 47 67zM555 700q61 8 120 0l-84 -479q-19 -105 -96.5 -168t-207.5 -63t-185 63t-37 168l85 479q61 8 119 0l-80 -460q-14 -78 14.5 -116.5t100.5 -37.5q143 1 170 154z" />
    <glyph glyph-name="Uacute" unicode="&#xda;" horiz-adv-x="668" 
d="M366 821l199 166q29 -28 47 -67l-213 -149q-23 23 -33 50zM555 700q61 8 120 0l-84 -479q-19 -105 -96.5 -168t-207.5 -63t-185 63t-37 168l85 479q61 8 119 0l-80 -460q-14 -78 14.5 -116.5t100.5 -37.5q143 1 170 154z" />
    <glyph glyph-name="Ucircumflex" unicode="&#xdb;" horiz-adv-x="668" 
d="M297 771q-25 23 -39 61l189 140l141 -140q-29 -38 -60 -61l-75 100q-15 19 -14 39h-4q-7 -21 -27 -39zM555 700q61 8 120 0l-84 -479q-19 -105 -96.5 -168t-207.5 -63t-185 63t-37 168l85 479q61 8 119 0l-80 -460q-14 -78 14.5 -116.5t100.5 -37.5q143 1 170 154z" />
    <glyph glyph-name="Udieresis" unicode="&#xdc;" horiz-adv-x="668" 
d="M306 788q-55 0 -55 49q0 80 78 80q54 0 54 -50q0 -79 -77 -79zM534 788q-55 0 -55 49q0 80 78 80q54 0 54 -50q0 -79 -77 -79zM555 700q61 8 120 0l-84 -479q-19 -105 -96.5 -168t-207.5 -63t-185 63t-37 168l85 479q61 8 119 0l-80 -460q-14 -78 14.5 -116.5
t100.5 -37.5q143 1 170 154z" />
    <glyph glyph-name="Yacute" unicode="&#xdd;" horiz-adv-x="589" 
d="M327 821l199 166q29 -28 47 -67l-213 -149q-23 23 -33 50zM658 700l-290 -416l-49 -284q-62 -9 -120 0l50 285l-160 415q67 8 132 0l100 -272q6 -16 2 -63h5q12 45 24 63l182 272q64 8 124 0z" />
    <glyph glyph-name="Thorn" unicode="&#xde;" horiz-adv-x="595" 
d="M398 585q111 0 163 -49.5t37 -134.5l-7 -43l-8 -43q-15 -85 -84.5 -134t-180.5 -49h-148l-24 -132q-61 -8 -119 0l124 700q61 8 119 0l-20 -115h148zM468 340l6 36q10 59 -14.5 85.5t-83.5 27.5h-143l-38 -211q-3 -24 -13 -45l5 -5h143q60 1 94 27.5t44 84.5z" />
    <glyph glyph-name="germandbls" unicode="&#xdf;" horiz-adv-x="656" 
d="M466 372q0 -22 14.5 -40t35 -32t41.5 -30t35.5 -42t14.5 -59q0 -82 -56 -130.5t-162 -48.5q-94 0 -157 44q8 42 39 76q58 -36 123 -36q49 0 73 19.5t24 51.5q0 20 -14 36.5t-34.5 29.5t-41 28t-34.5 40.5t-14 58.5q0 44 16.5 76t36 48.5t36 47.5t16.5 74q0 80 -82 80
q-92 0 -111 -103l-99 -561q-57 -9 -112 0l74 418h-75q2 47 17 91h73l12 65q15 83 80.5 129.5t156.5 46.5q79 0 126.5 -39t47.5 -109q0 -44 -15.5 -79.5t-34.5 -55t-34.5 -45t-15.5 -50.5z" />
    <glyph glyph-name="agrave" unicode="&#xe0;" horiz-adv-x="507" 
d="M418 630q-10 -27 -33 -50l-213 149q18 39 47 67zM301 519q91 0 134.5 -37t28.5 -124l-63 -358q-58 -7 -113 0q4 18 11 30l-5 5q-64 -45 -144 -45q-70 0 -108.5 38t-26.5 104l4 26q12 65 64 103t123 38q81 0 127 -43l6 5q-1 23 3 45l6 37q9 47 -9 68t-75 21
q-76 0 -153 -35q-16 36 -9 76q85 46 199 46zM305 96l17 98q-49 30 -97 30q-83 0 -97 -71l-2 -16q-6 -33 11.5 -52.5t59.5 -19.5q50 0 108 31z" />
    <glyph glyph-name="aacute" unicode="&#xe1;" horiz-adv-x="507" 
d="M252 630l199 166q29 -28 47 -67l-213 -149q-23 23 -33 50zM301 519q91 0 134.5 -37t28.5 -124l-63 -358q-58 -7 -113 0q4 18 11 30l-5 5q-64 -45 -144 -45q-70 0 -108.5 38t-26.5 104l4 26q12 65 64 103t123 38q81 0 127 -43l6 5q-1 23 3 45l6 37q9 47 -9 68t-75 21
q-76 0 -153 -35q-16 36 -9 76q85 46 199 46zM305 96l17 98q-49 30 -97 30q-83 0 -97 -71l-2 -16q-6 -33 11.5 -52.5t59.5 -19.5q50 0 108 31z" />
    <glyph glyph-name="acircumflex" unicode="&#xe2;" horiz-adv-x="507" 
d="M183 580q-25 23 -39 61l189 140l141 -140q-29 -38 -60 -61l-75 100q-15 19 -14 39h-4q-7 -21 -27 -39zM301 519q91 0 134.5 -37t28.5 -124l-63 -358q-58 -7 -113 0q4 18 11 30l-5 5q-64 -45 -144 -45q-70 0 -108.5 38t-26.5 104l4 26q12 65 64 103t123 38q81 0 127 -43
l6 5q-1 23 3 45l6 37q9 47 -9 68t-75 21q-76 0 -153 -35q-16 36 -9 76q85 46 199 46zM305 96l17 98q-49 30 -97 30q-83 0 -97 -71l-2 -16q-6 -33 11.5 -52.5t59.5 -19.5q50 0 108 31z" />
    <glyph glyph-name="atilde" unicode="&#xe3;" horiz-adv-x="507" 
d="M397 726q74 0 109 -78q-30 -26 -57 -39q-29 39 -59 39q-19 0 -62 -21.5t-73 -21.5q-66 0 -110 78q30 24 56 38q30 -38 61 -38q20 0 62 21.5t73 21.5zM301 519q91 0 134.5 -37t28.5 -124l-63 -358q-58 -7 -113 0q4 18 11 30l-5 5q-64 -45 -144 -45q-70 0 -108.5 38
t-26.5 104l4 26q12 65 64 103t123 38q81 0 127 -43l6 5q-1 23 3 45l6 37q9 47 -9 68t-75 21q-76 0 -153 -35q-16 36 -9 76q85 46 199 46zM305 96l17 98q-49 30 -97 30q-83 0 -97 -71l-2 -16q-6 -33 11.5 -52.5t59.5 -19.5q50 0 108 31z" />
    <glyph glyph-name="adieresis" unicode="&#xe4;" horiz-adv-x="507" 
d="M192 597q-55 0 -55 49q0 80 78 80q54 0 54 -50q0 -79 -77 -79zM420 597q-55 0 -55 49q0 80 78 80q54 0 54 -50q0 -79 -77 -79zM301 519q91 0 134.5 -37t28.5 -124l-63 -358q-58 -7 -113 0q4 18 11 30l-5 5q-64 -45 -144 -45q-70 0 -108.5 38t-26.5 104l4 26q12 65 64 103
t123 38q81 0 127 -43l6 5q-1 23 3 45l6 37q9 47 -9 68t-75 21q-76 0 -153 -35q-16 36 -9 76q85 46 199 46zM305 96l17 98q-49 30 -97 30q-83 0 -97 -71l-2 -16q-6 -33 11.5 -52.5t59.5 -19.5q50 0 108 31z" />
    <glyph glyph-name="aring" unicode="&#xe5;" horiz-adv-x="507" 
d="M308 567q-89 0 -89 78q0 57 32.5 89.5t91.5 32.5q88 0 88 -80q0 -58 -32 -89t-91 -31zM317 619q55 0 55 58q0 38 -38 38q-28 0 -42.5 -16.5t-14.5 -43.5q0 -36 40 -36zM301 519q91 0 134.5 -37t28.5 -124l-63 -358q-58 -7 -113 0q4 18 11 30l-5 5q-64 -45 -144 -45
q-70 0 -108.5 38t-26.5 104l4 26q12 65 64 103t123 38q81 0 127 -43l6 5q-1 23 3 45l6 37q9 47 -9 68t-75 21q-76 0 -153 -35q-16 36 -9 76q85 46 199 46zM305 96l17 98q-49 30 -97 30q-83 0 -97 -71l-2 -16q-6 -33 11.5 -52.5t59.5 -19.5q50 0 108 31z" />
    <glyph glyph-name="ae" unicode="&#xe6;" horiz-adv-x="801" 
d="M602 519q98 0 142 -52t30 -134l-18 -99h-105h-159q-26 0 -44 5l-6 -5l-7 -43q-11 -59 16 -86.5t95 -27.5q77 0 145 37q20 -37 12 -76q-80 -48 -186 -48q-124 0 -166 71q-98 -71 -201 -71q-70 0 -108.5 38t-26.5 104l4 26q12 65 64 103t123 38q81 0 127 -43l-11 -62
q-49 30 -97 30q-83 0 -97 -71l-2 -16q-6 -33 11.5 -52.5t59.5 -19.5q50 0 108 31l28 160l6 5q-1 23 3 45l6 37q9 47 -9 68t-75 21q-76 0 -153 -35q-16 36 -9 76q85 46 199 46q106 0 140 -53q64 53 161 53zM665 314l2 11q20 112 -80 112q-109 0 -130 -118l-1 -5h159
q27 0 44 -5z" />
    <glyph glyph-name="ccedilla" unicode="&#xe7;" horiz-adv-x="454" 
d="M170 318l-22 -127q-21 -114 100 -114q64 0 128 33q19 -37 13 -76q-66 -41 -154 -44l-22 -35q40 -7 61 -29.5t15 -57.5q-9 -46 -54.5 -67t-122.5 -6q0 29 11 60q32 -7 54.5 1t22.5 32q0 28 -62 43l38 62q-82 12 -118.5 61.5t-24.5 121.5l27 157q15 82 82 134t174 52
q95 0 151 -43q-8 -42 -40 -77q-52 33 -116 33q-120 0 -141 -114z" />
    <glyph glyph-name="egrave" unicode="&#xe8;" horiz-adv-x="512" 
d="M422 630q-10 -27 -33 -50l-213 149q18 39 47 67zM159 239l-6 -5l-8 -43q-10 -59 17 -86.5t95 -27.5q76 0 145 37q20 -37 12 -76q-80 -48 -185 -48q-109 0 -159.5 52t-36.5 134l26 152q15 83 82.5 137t171.5 54q98 0 142.5 -52t29.5 -134l-17 -99h-265q-25 0 -44 5z
M298 437q-110 0 -130 -118l-1 -5h160q25 0 44 -5l5 5l2 11q20 112 -80 112z" />
    <glyph glyph-name="eacute" unicode="&#xe9;" horiz-adv-x="512" 
d="M256 630l199 166q29 -28 47 -67l-213 -149q-23 23 -33 50zM159 239l-6 -5l-8 -43q-10 -59 17 -86.5t95 -27.5q76 0 145 37q20 -37 12 -76q-80 -48 -185 -48q-109 0 -159.5 52t-36.5 134l26 152q15 83 82.5 137t171.5 54q98 0 142.5 -52t29.5 -134l-17 -99h-265
q-25 0 -44 5zM298 437q-110 0 -130 -118l-1 -5h160q25 0 44 -5l5 5l2 11q20 112 -80 112z" />
    <glyph glyph-name="ecircumflex" unicode="&#xea;" horiz-adv-x="512" 
d="M187 580q-25 23 -39 61l189 140l141 -140q-29 -38 -60 -61l-75 100q-15 19 -14 39h-4q-7 -21 -27 -39zM313 519q98 0 142.5 -52t29.5 -134l-17 -99h-265q-25 0 -44 5l-6 -5l-8 -43q-10 -59 17 -86.5t95 -27.5q76 0 145 37q20 -37 12 -76q-80 -48 -185 -48
q-109 0 -159.5 52t-36.5 134l26 152q15 83 82.5 137t171.5 54zM378 325q20 112 -80 112q-110 0 -130 -118l-1 -5h160q25 0 44 -5l5 5z" />
    <glyph glyph-name="edieresis" unicode="&#xeb;" horiz-adv-x="512" 
d="M196 597q-55 0 -55 49q0 80 78 80q54 0 54 -50q0 -79 -77 -79zM424 597q-55 0 -55 49q0 80 78 80q54 0 54 -50q0 -79 -77 -79zM159 239l-6 -5l-8 -43q-10 -59 17 -86.5t95 -27.5q76 0 145 37q20 -37 12 -76q-80 -48 -185 -48q-109 0 -159.5 52t-36.5 134l26 152
q15 83 82.5 137t171.5 54q98 0 142.5 -52t29.5 -134l-17 -99h-265q-25 0 -44 5zM298 437q-110 0 -130 -118l-1 -5h160q25 0 44 -5l5 5l2 11q20 112 -80 112z" />
    <glyph glyph-name="igrave" unicode="&#xec;" horiz-adv-x="236" 
d="M285 630q-10 -27 -33 -50l-213 149q18 39 47 67zM103 490q49 26 117 26l-90 -516q-58 -9 -113 0z" />
    <glyph glyph-name="iacute" unicode="&#xed;" horiz-adv-x="236" 
d="M119 630l199 166q29 -28 47 -67l-213 -149q-23 23 -33 50zM103 490q49 26 117 26l-90 -516q-58 -9 -113 0z" />
    <glyph glyph-name="icircumflex" unicode="&#xee;" horiz-adv-x="236" 
d="M200 781l141 -140q-29 -38 -60 -61l-75 100q-15 19 -14 39h-4q-7 -21 -27 -39l-111 -100q-25 23 -39 61zM17 0l86 490q49 26 117 26l-90 -516q-58 -9 -113 0z" />
    <glyph glyph-name="idieresis" unicode="&#xef;" horiz-adv-x="236" 
d="M59 597q-55 0 -55 49q0 80 78 80q54 0 54 -50q0 -79 -77 -79zM287 597q-55 0 -55 49q0 80 78 80q54 0 54 -50q0 -79 -77 -79zM103 490q49 26 117 26l-90 -516q-58 -9 -113 0z" />
    <glyph glyph-name="eth" unicode="&#xf0;" horiz-adv-x="532" 
d="M375 701q96 -42 124.5 -122.5t6.5 -206.5l-34 -196q-15 -83 -79.5 -134.5t-169.5 -51.5q-109 0 -156.5 51.5t-33.5 134.5l9 49h-1l9 53q14 83 70.5 132t152.5 49q81 0 128 -45l6 5q27 153 -82 221l-66 -81q-25 10 -46 31l61 75q-41 15 -86 23q8 30 32 54q56 -8 99 -21
l55 68q28 -11 46 -32zM238 77q55 0 84 27.5t40 86.5l27 153q-41 28 -98 28q-58 0 -89 -27.5t-42 -86.5l-6 -33l-6 -34q-11 -60 10.5 -87t79.5 -27z" />
    <glyph glyph-name="ntilde" unicode="&#xf1;" horiz-adv-x="552" 
d="M435 726q74 0 109 -78q-30 -26 -57 -39q-29 39 -59 39q-19 0 -62 -21.5t-73 -21.5q-66 0 -110 78q30 24 56 38q30 -38 61 -38q20 0 62 21.5t73 21.5zM388 519q149 0 125 -137l-68 -382q-57 -9 -112 0l60 340q9 49 -8.5 67.5t-61.5 18.5q-63 0 -124 -32l-69 -394
q-58 -9 -113 0l86 490q49 26 117 26q-4 -28 -13 -45l5 -5q76 53 176 53z" />
    <glyph glyph-name="ograve" unicode="&#xf2;" horiz-adv-x="539" 
d="M434 630q-10 -27 -33 -50l-213 149q18 39 47 67zM316 519q109 0 156.5 -51.5t33.5 -134.5l-27 -157q-15 -83 -81 -134.5t-175 -51.5t-156.5 51.5t-33.5 134.5l27 157q15 83 81 134.5t175 51.5zM369 191l22 127q11 60 -10.5 87t-79.5 27t-89 -27.5t-42 -86.5l-22 -127
q-11 -60 10.5 -87t79.5 -27t89 27.5t42 86.5z" />
    <glyph glyph-name="oacute" unicode="&#xf3;" horiz-adv-x="539" 
d="M268 630l199 166q29 -28 47 -67l-213 -149q-23 23 -33 50zM316 519q109 0 156.5 -51.5t33.5 -134.5l-27 -157q-15 -83 -81 -134.5t-175 -51.5t-156.5 51.5t-33.5 134.5l27 157q15 83 81 134.5t175 51.5zM369 191l22 127q11 60 -10.5 87t-79.5 27t-89 -27.5t-42 -86.5
l-22 -127q-11 -60 10.5 -87t79.5 -27t89 27.5t42 86.5z" />
    <glyph glyph-name="ocircumflex" unicode="&#xf4;" horiz-adv-x="539" 
d="M199 580q-25 23 -39 61l189 140l141 -140q-29 -38 -60 -61l-75 100q-15 19 -14 39h-4q-7 -21 -27 -39zM316 519q109 0 156.5 -51.5t33.5 -134.5l-27 -157q-15 -83 -81 -134.5t-175 -51.5t-156.5 51.5t-33.5 134.5l27 157q15 83 81 134.5t175 51.5zM391 318
q11 60 -10.5 87t-79.5 27t-89 -27.5t-42 -86.5l-22 -127q-11 -60 10.5 -87t79.5 -27t89 27.5t42 86.5z" />
    <glyph glyph-name="otilde" unicode="&#xf5;" horiz-adv-x="539" 
d="M413 726q74 0 109 -78q-30 -26 -57 -39q-29 39 -59 39q-19 0 -62 -21.5t-73 -21.5q-66 0 -110 78q30 24 56 38q30 -38 61 -38q20 0 62 21.5t73 21.5zM316 519q109 0 156.5 -51.5t33.5 -134.5l-27 -157q-15 -83 -81 -134.5t-175 -51.5t-156.5 51.5t-33.5 134.5l27 157
q15 83 81 134.5t175 51.5zM369 191l22 127q11 60 -10.5 87t-79.5 27t-89 -27.5t-42 -86.5l-22 -127q-11 -60 10.5 -87t79.5 -27t89 27.5t42 86.5z" />
    <glyph glyph-name="odieresis" unicode="&#xf6;" horiz-adv-x="539" 
d="M208 597q-55 0 -55 49q0 80 78 80q54 0 54 -50q0 -79 -77 -79zM436 597q-55 0 -55 49q0 80 78 80q54 0 54 -50q0 -79 -77 -79zM316 519q109 0 156.5 -51.5t33.5 -134.5l-27 -157q-15 -83 -81 -134.5t-175 -51.5t-156.5 51.5t-33.5 134.5l27 157q15 83 81 134.5t175 51.5z
M369 191l22 127q11 60 -10.5 87t-79.5 27t-89 -27.5t-42 -86.5l-22 -127q-11 -60 10.5 -87t79.5 -27t89 27.5t42 86.5z" />
    <glyph glyph-name="divide" unicode="&#xf7;" horiz-adv-x="649" 
d="M359 485q-65 0 -53 64q11 65 75 65t53 -65q-12 -64 -75 -64zM627 389q0 -43 -15 -87h-559q0 44 15 87h559zM294 67q-66 0 -54 64q11 65 76 65q64 0 53 -65q-12 -64 -75 -64z" />
    <glyph glyph-name="oslash" unicode="&#xf8;" horiz-adv-x="539" 
d="M414 504q57 -20 79.5 -65t12.5 -106l-27 -157q-15 -83 -81 -134.5t-175 -51.5q-25 0 -48 3l-33 -71q-23 6 -43 20l29 62q-58 20 -82 65.5t-13 106.5l27 157q15 83 81 134.5t175 51.5q26 0 49 -3l32 68q22 -4 44 -21zM148 191q-13 -72 21 -97l157 337q-8 1 -25 1
q-58 0 -89 -27.5t-42 -86.5zM391 318q12 71 -20 96l-156 -336q7 -1 23 -1q58 0 89 27.5t42 86.5z" />
    <glyph glyph-name="ugrave" unicode="&#xf9;" horiz-adv-x="544" 
d="M449 630q-10 -27 -33 -50l-213 149q18 39 47 67zM411 490q49 26 117 26l-90 -516q-58 -9 -113 0q5 23 12 36l-4 5q-75 -53 -170 -53q-148 0 -124 137l64 365q49 26 118 26l-62 -348q-9 -50 8.5 -68t61.5 -18q57 0 116 31z" />
    <glyph glyph-name="uacute" unicode="&#xfa;" horiz-adv-x="544" 
d="M283 630l199 166q29 -28 47 -67l-213 -149q-23 23 -33 50zM411 490q49 26 117 26l-90 -516q-58 -9 -113 0q5 23 12 36l-4 5q-75 -53 -170 -53q-148 0 -124 137l64 365q49 26 118 26l-62 -348q-9 -50 8.5 -68t61.5 -18q57 0 116 31z" />
    <glyph glyph-name="ucircumflex" unicode="&#xfb;" horiz-adv-x="544" 
d="M214 580q-25 23 -39 61l189 140l141 -140q-29 -38 -60 -61l-75 100q-15 19 -14 39h-4q-7 -21 -27 -39zM411 490q49 26 117 26l-90 -516q-58 -9 -113 0q5 23 12 36l-4 5q-75 -53 -170 -53q-148 0 -124 137l64 365q49 26 118 26l-62 -348q-9 -50 8.5 -68t61.5 -18
q57 0 116 31z" />
    <glyph glyph-name="udieresis" unicode="&#xfc;" horiz-adv-x="544" 
d="M223 597q-55 0 -55 49q0 80 78 80q54 0 54 -50q0 -79 -77 -79zM451 597q-55 0 -55 49q0 80 78 80q54 0 54 -50q0 -79 -77 -79zM411 490q49 26 117 26l-90 -516q-58 -9 -113 0q5 23 12 36l-4 5q-75 -53 -170 -53q-148 0 -124 137l64 365q49 26 118 26l-62 -348
q-9 -50 8.5 -68t61.5 -18q57 0 116 31z" />
    <glyph glyph-name="yacute" unicode="&#xfd;" horiz-adv-x="511" 
d="M257 630l199 166q29 -28 47 -67l-213 -149q-23 23 -33 50zM432 509q59 7 116 0l-266 -498q-59 -110 -129 -163.5t-174 -57.5q0 38 14 82q59 7 96.5 37t74.5 97l-106 503q61 8 121 0l58 -323q5 -37 3 -61h5q8 33 23 63z" />
    <glyph glyph-name="thorn" unicode="&#xfe;" horiz-adv-x="547" 
d="M357 519q95 0 133.5 -49t24.5 -132l-30 -166q-14 -83 -70 -132.5t-151 -49.5q-81 0 -128 45l-6 -5q2 -22 -3 -45l-29 -159q-50 -26 -116 -26l148 840l13 74q50 26 117 26l-39 -216q-6 -30 -13 -45l5 -5q63 45 144 45zM376 191l23 127q11 59 -11 86.5t-80 27.5
q-55 0 -108 -28l-52 -299q41 -28 97 -28q58 0 89.5 27.5t41.5 86.5z" />
    <glyph glyph-name="ydieresis" unicode="&#xff;" horiz-adv-x="511" 
d="M197 597q-55 0 -55 49q0 80 78 80q54 0 54 -50q0 -79 -77 -79zM425 597q-55 0 -55 49q0 80 78 80q54 0 54 -50q0 -79 -77 -79zM432 509q59 7 116 0l-266 -498q-59 -110 -129 -163.5t-174 -57.5q0 38 14 82q59 7 96.5 37t74.5 97l-106 503q61 8 121 0l58 -323q5 -37 3 -61
h5q8 33 23 63z" />
    <glyph glyph-name="Amacron" unicode="&#x100;" horiz-adv-x="624" 
d="M259 895h349q2 -40 -14 -82h-350q0 45 15 82zM455 700l118 -700q-65 -8 -128 0l-29 174h-239l-90 -174q-63 -8 -122 0l363 700q64 8 127 0zM221 260h181l-37 219q-5 27 -2 63h-5q-12 -42 -23 -63z" />
    <glyph glyph-name="amacron" unicode="&#x101;" horiz-adv-x="507" 
d="M158 704h349q2 -40 -14 -82h-350q0 44 15 82zM301 519q91 0 134.5 -37t28.5 -124l-63 -358q-58 -7 -113 0q4 18 11 30l-5 5q-64 -45 -144 -45q-70 0 -108.5 38t-26.5 104l4 26q12 65 64 103t123 38q81 0 127 -43l6 5q-1 23 3 45l6 37q9 47 -9 68t-75 21q-76 0 -153 -35
q-16 36 -9 76q85 46 199 46zM305 96l17 98q-49 30 -97 30q-83 0 -97 -71l-2 -16q-6 -33 11.5 -52.5t59.5 -19.5q50 0 108 31z" />
    <glyph glyph-name="Abreve" unicode="&#x102;" horiz-adv-x="624" 
d="M414 782q-59 0 -96.5 35.5t-36.5 112.5q32 10 65 10q9 -79 81 -79q73 0 110 79q31 0 61 -10q-27 -77 -76.5 -112.5t-107.5 -35.5zM328 700q64 8 127 0l118 -700q-65 -8 -128 0l-29 174h-239l-90 -174q-63 -8 -122 0zM221 260h181l-37 219q-5 27 -2 63h-5q-12 -42 -23 -63
z" />
    <glyph glyph-name="abreve" unicode="&#x103;" horiz-adv-x="507" 
d="M313 591q-59 0 -96.5 35.5t-36.5 112.5q32 10 65 10q9 -79 81 -79q73 0 110 79q31 0 61 -10q-27 -77 -76.5 -112.5t-107.5 -35.5zM301 519q91 0 134.5 -37t28.5 -124l-63 -358q-58 -7 -113 0q4 18 11 30l-5 5q-64 -45 -144 -45q-70 0 -108.5 38t-26.5 104l4 26
q12 65 64 103t123 38q81 0 127 -43l6 5q-1 23 3 45l6 37q9 47 -9 68t-75 21q-76 0 -153 -35q-16 36 -9 76q85 46 199 46zM305 96l17 98q-49 30 -97 30q-83 0 -97 -71l-2 -16q-6 -33 11.5 -52.5t59.5 -19.5q50 0 108 31z" />
    <glyph glyph-name="Aogonek" unicode="&#x104;" horiz-adv-x="624" 
d="M505 -4q-44 -31 -62 -52.5t-18 -45.5q0 -40 61 -30q1 -31 -12 -73q-81 -15 -119 11t-30 74q14 75 119 127l-28 167h-239l-90 -174q-63 -8 -122 0l363 700q64 8 127 0l118 -700q-28 -4 -68 -4zM221 260h181l-37 219q-5 27 -2 63h-5q-12 -42 -23 -63z" />
    <glyph glyph-name="aogonek" unicode="&#x105;" horiz-adv-x="509" 
d="M301 519q91 0 134.5 -37t28.5 -124l-63 -358q-48 -21 -73 -48.5t-25 -54.5q0 -40 61 -29q1 -36 -12 -73q-82 -15 -119.5 9.5t-28.5 75.5q11 68 103 123q-5 20 -13 32q-64 -45 -144 -45q-70 0 -108.5 38t-26.5 104l4 26q12 65 64 103t123 38q81 0 127 -43l-11 -62
q-49 30 -97 30q-83 0 -97 -71l-2 -16q-6 -33 11.5 -52.5t59.5 -19.5q50 0 108 31l28 160l6 5q-1 23 3 45l6 37q9 47 -9 68t-75 21q-76 0 -153 -35q-16 36 -9 76q85 46 199 46z" />
    <glyph glyph-name="Cacute" unicode="&#x106;" horiz-adv-x="541" 
d="M328 821l199 166q29 -28 47 -67l-213 -149q-23 23 -33 50zM283 86q83 0 176 54q18 -40 14 -89q-99 -61 -212 -61q-122 0 -181 60.5t-40 165.5l47 268q18 105 98.5 165.5t202.5 60.5q113 0 191 -61q-13 -48 -48 -90q-73 55 -155 55q-146 0 -173 -154l-39 -220
q-29 -154 119 -154z" />
    <glyph glyph-name="cacute" unicode="&#x107;" horiz-adv-x="454" 
d="M250 630l199 166q29 -28 47 -67l-213 -149q-23 23 -33 50zM248 77q64 0 128 33q19 -37 13 -76q-73 -44 -166 -44q-106 0 -155 52t-35 134l27 157q15 82 82 134t174 52q95 0 151 -43q-8 -42 -40 -77q-52 33 -116 33q-120 0 -141 -114l-22 -127q-21 -114 100 -114z" />
    <glyph glyph-name="Cdotaccent" unicode="&#x10a;" horiz-adv-x="541" 
d="M389 788q-55 0 -55 49q0 80 78 80q54 0 54 -50q0 -79 -77 -79zM283 86q83 0 176 54q18 -40 14 -89q-99 -61 -212 -61q-122 0 -181 60.5t-40 165.5l47 268q18 105 98.5 165.5t202.5 60.5q113 0 191 -61q-13 -48 -48 -90q-73 55 -155 55q-146 0 -173 -154l-39 -220
q-29 -154 119 -154z" />
    <glyph glyph-name="cdotaccent" unicode="&#x10b;" horiz-adv-x="454" 
d="M311 597q-55 0 -55 49q0 80 78 80q54 0 54 -50q0 -79 -77 -79zM248 77q64 0 128 33q19 -37 13 -76q-73 -44 -166 -44q-106 0 -155 52t-35 134l27 157q15 82 82 134t174 52q95 0 151 -43q-8 -42 -40 -77q-52 33 -116 33q-120 0 -141 -114l-22 -127q-21 -114 100 -114z" />
    <glyph glyph-name="Ccaron" unicode="&#x10c;" horiz-adv-x="541" 
d="M576 911l-189 -140l-141 140q29 38 60 61l75 -100q15 -19 14 -39h4q7 21 27 39l111 100q25 -23 39 -61zM203 460l-39 -220q-29 -154 119 -154q83 0 176 54q18 -40 14 -89q-99 -61 -212 -61q-122 0 -181 60.5t-40 165.5l47 268q18 105 98.5 165.5t202.5 60.5
q113 0 191 -61q-13 -48 -48 -90q-73 55 -155 55q-146 0 -173 -154z" />
    <glyph glyph-name="ccaron" unicode="&#x10d;" horiz-adv-x="454" 
d="M498 720l-189 -140l-141 140q29 38 60 61l75 -100q15 -19 14 -39h4q7 21 27 39l111 100q25 -23 39 -61zM60 333q15 82 82 134t174 52q95 0 151 -43q-8 -42 -40 -77q-52 33 -116 33q-120 0 -141 -114l-22 -127q-21 -114 100 -114q64 0 128 33q19 -37 13 -76
q-73 -44 -166 -44q-106 0 -155 52t-35 134z" />
    <glyph glyph-name="Dcaron" unicode="&#x10e;" horiz-adv-x="624" 
d="M591 911l-189 -140l-141 140q29 38 60 61l75 -100q15 -19 14 -39h4q7 21 27 39l111 100q25 -23 39 -61zM411 700q117 0 171 -59t36 -158l-47 -266q-18 -99 -92.5 -158t-190.5 -59h-261l123 700h261zM494 455q26 150 -113 150h-127l-81 -459q-5 -25 -13 -45l4 -5h128
q138 0 165 150z" />
    <glyph glyph-name="dcaron" unicode="&#x10f;" horiz-adv-x="667" 
d="M453 714q50 26 116 26l-130 -740q-57 -9 -112 0q3 18 11 30l-5 5q-63 -45 -144 -45q-95 0 -133.5 49.5t-23.5 132.5l29 166q14 83 70 132t152 49q80 0 128 -45l6 5q-2 18 3 45zM609 506l25 194q51 8 101 0l-44 -194q-42 -6 -82 0zM346 105l52 299q-41 28 -98 28
q-58 0 -89 -27.5t-41 -86.5l-22 -127q-11 -59 10.5 -86.5t79.5 -27.5q57 0 108 28z" />
    <glyph glyph-name="Dcroat" unicode="&#x110;" horiz-adv-x="638" 
d="M425 700q117 0 171 -59t36 -158l-47 -266q-18 -99 -92.5 -158t-190.5 -59h-261l56 320h-91q0 47 14 86h92l52 294h261zM508 455q26 150 -113 150h-127l-35 -199h127q0 -42 -15 -86h-127l-31 -174q-5 -25 -13 -45l4 -5h128q138 0 165 150z" />
    <glyph glyph-name="dcroat" unicode="&#x111;" horiz-adv-x="573" 
d="M629 639q3 -34 -12 -73h-79l-99 -566q-57 -9 -112 0q3 18 11 30l-5 5q-63 -45 -144 -45q-95 0 -133.5 49.5t-23.5 132.5l29 166q14 83 70 132t152 49q80 0 128 -45l6 5q-2 18 3 45l7 42h-130q-3 34 12 73h131l13 75q50 26 116 26l-18 -101h78zM346 105l52 299
q-41 28 -98 28q-58 0 -89 -27.5t-41 -86.5l-22 -127q-11 -59 10.5 -86.5t79.5 -27.5q57 0 108 28z" />
    <glyph glyph-name="Emacron" unicode="&#x112;" horiz-adv-x="543" 
d="M235 895h349q2 -40 -14 -82h-350q0 45 15 82zM479 96q0 -47 -17 -96h-435l123 700h425q0 -49 -16 -96h-305l-26 -146q-5 -25 -13 -45l4 -5h265q0 -47 -17 -96h-265l-29 -166q-5 -25 -13 -45l4 -5h315z" />
    <glyph glyph-name="emacron" unicode="&#x113;" horiz-adv-x="512" 
d="M162 704h349q2 -40 -14 -82h-350q0 44 15 82zM159 239l-6 -5l-8 -43q-10 -59 17 -86.5t95 -27.5q76 0 145 37q20 -37 12 -76q-80 -48 -185 -48q-109 0 -159.5 52t-36.5 134l26 152q15 83 82.5 137t171.5 54q98 0 142.5 -52t29.5 -134l-17 -99h-265q-25 0 -44 5zM298 437
q-110 0 -130 -118l-1 -5h160q25 0 44 -5l5 5l2 11q20 112 -80 112z" />
    <glyph glyph-name="Edotaccent" unicode="&#x116;" horiz-adv-x="543" 
d="M390 788q-55 0 -55 49q0 80 78 80q54 0 54 -50q0 -79 -77 -79zM479 96q0 -47 -17 -96h-435l123 700h425q0 -49 -16 -96h-305l-26 -146q-5 -25 -13 -45l4 -5h265q0 -47 -17 -96h-265l-29 -166q-5 -25 -13 -45l4 -5h315z" />
    <glyph glyph-name="edotaccent" unicode="&#x117;" horiz-adv-x="512" 
d="M317 597q-55 0 -55 49q0 80 78 80q54 0 54 -50q0 -79 -77 -79zM159 239l-6 -5l-8 -43q-10 -59 17 -86.5t95 -27.5q76 0 145 37q20 -37 12 -76q-80 -48 -185 -48q-109 0 -159.5 52t-36.5 134l26 152q15 83 82.5 137t171.5 54q98 0 142.5 -52t29.5 -134l-17 -99h-265
q-25 0 -44 5zM298 437q-110 0 -130 -118l-1 -5h160q25 0 44 -5l5 5l2 11q20 112 -80 112z" />
    <glyph glyph-name="Eogonek" unicode="&#x118;" horiz-adv-x="543" 
d="M254 604l-26 -146q-5 -25 -13 -45l4 -5h265q0 -47 -17 -96h-265l-29 -166q-5 -25 -13 -45l4 -5h315q0 -47 -17 -96q-47 -33 -66 -55t-19 -47q0 -40 61 -30q1 -31 -12 -73q-81 -15 -119 11t-30 74q13 69 106 120h-356l123 700h425q0 -49 -16 -96h-305z" />
    <glyph glyph-name="eogonek" unicode="&#x119;" horiz-adv-x="512" 
d="M313 519q98 0 142.5 -52t29.5 -134l-17 -99h-265q-25 0 -44 5l-6 -5l-8 -43q-10 -59 17 -86.5t95 -27.5q76 0 145 37q20 -37 12 -76q-33 -20 -78 -33q-67 -47 -77 -99q-4 -27 12 -35t48 -3q2 -37 -13 -73q-82 -15 -119.5 9.5t-28.5 75.5q11 63 75 110h-4
q-109 0 -159.5 52t-36.5 134l26 152q15 83 82.5 137t171.5 54zM378 325q20 112 -80 112q-110 0 -130 -118l-1 -5h160q25 0 44 -5l5 5z" />
    <glyph glyph-name="Ecaron" unicode="&#x11a;" horiz-adv-x="543" 
d="M577 911l-189 -140l-141 140q29 38 60 61l75 -100q15 -19 14 -39h4q7 21 27 39l111 100q25 -23 39 -61zM150 700h425q0 -49 -16 -96h-305l-26 -146q-5 -25 -13 -45l4 -5h265q0 -47 -17 -96h-265l-29 -166q-5 -25 -13 -45l4 -5h315q0 -47 -17 -96h-435z" />
    <glyph glyph-name="ecaron" unicode="&#x11b;" horiz-adv-x="512" 
d="M504 720l-189 -140l-141 140q29 38 60 61l75 -100q15 -19 14 -39h4q7 21 27 39l111 100q25 -23 39 -61zM313 519q98 0 142.5 -52t29.5 -134l-17 -99h-265q-25 0 -44 5l-6 -5l-8 -43q-10 -59 17 -86.5t95 -27.5q76 0 145 37q20 -37 12 -76q-80 -48 -185 -48
q-109 0 -159.5 52t-36.5 134l26 152q15 83 82.5 137t171.5 54zM378 325q20 112 -80 112q-110 0 -130 -118l-1 -5h160q25 0 44 -5l5 5z" />
    <glyph glyph-name="Gbreve" unicode="&#x11e;" horiz-adv-x="588" 
d="M387 782q-59 0 -96.5 35.5t-36.5 112.5q32 10 65 10q9 -79 81 -79q73 0 110 79q31 0 61 -10q-27 -77 -76.5 -112.5t-107.5 -35.5zM444 341q54 8 108 0l-52 -290q-97 -61 -233 -61q-124 0 -185 61t-42 165l47 268q18 105 99.5 165.5t206.5 60.5q121 0 198 -61
q-13 -47 -47 -90q-77 55 -162 55q-152 0 -179 -154l-39 -220q-14 -76 15.5 -115t109.5 -39q58 0 113 22z" />
    <glyph glyph-name="gbreve" unicode="&#x11f;" horiz-adv-x="546" 
d="M333 591q-59 0 -96.5 35.5t-36.5 112.5q32 10 65 10q9 -79 81 -79q73 0 110 79q31 0 61 -10q-27 -77 -76.5 -112.5t-107.5 -35.5zM417 509q59 9 112 0l-97 -554q-11 -59 -48 -97t-85 -53t-109 -15q-112 0 -183 49q8 38 37 76q64 -38 145 -38q119 0 132 89l4 19
q5 25 13 45l-4 5q-65 -45 -144 -45q-95 0 -133.5 49.5t-24.5 132.5l29 166q14 83 70.5 132t151.5 49q80 0 128 -45l6 5q-2 10 0 30zM346 105l53 299q-41 28 -98 28q-58 0 -89 -27.5t-42 -86.5l-22 -127q-11 -59 10.5 -86.5t79.5 -27.5q57 0 108 28z" />
    <glyph glyph-name="Gdotaccent" unicode="&#x120;" horiz-adv-x="588" 
d="M387 788q-55 0 -55 49q0 80 78 80q54 0 54 -50q0 -79 -77 -79zM444 341q54 8 108 0l-52 -290q-97 -61 -233 -61q-124 0 -185 61t-42 165l47 268q18 105 99.5 165.5t206.5 60.5q121 0 198 -61q-13 -47 -47 -90q-77 55 -162 55q-152 0 -179 -154l-39 -220
q-14 -76 15.5 -115t109.5 -39q58 0 113 22z" />
    <glyph glyph-name="gdotaccent" unicode="&#x121;" horiz-adv-x="546" 
d="M333 597q-55 0 -55 49q0 80 78 80q54 0 54 -50q0 -79 -77 -79zM417 509q59 9 112 0l-97 -554q-11 -59 -48 -97t-85 -53t-109 -15q-112 0 -183 49q8 38 37 76q64 -38 145 -38q119 0 132 89l4 19q5 25 13 45l-4 5q-65 -45 -144 -45q-95 0 -133.5 49.5t-24.5 132.5l29 166
q14 83 70.5 132t151.5 49q80 0 128 -45l6 5q-2 10 0 30zM346 105l53 299q-41 28 -98 28q-58 0 -89 -27.5t-42 -86.5l-22 -127q-11 -59 10.5 -86.5t79.5 -27.5q57 0 108 28z" />
    <glyph glyph-name="Gcommaaccent" unicode="&#x122;" horiz-adv-x="588" 
d="M444 341q54 8 108 0l-52 -290q-97 -61 -233 -61q-124 0 -185 61t-42 165l47 268q18 105 99.5 165.5t206.5 60.5q121 0 198 -61q-13 -47 -47 -90q-77 55 -162 55q-152 0 -179 -154l-39 -220q-14 -76 15.5 -115t109.5 -39q58 0 113 22zM128 -238l99 164q13 -4 35.5 -17
t31.5 -21l-114 -157q-30 10 -52 31z" />
    <glyph glyph-name="gcommaaccent" unicode="&#x123;" horiz-adv-x="546" 
d="M425 743l-99 -164q-13 4 -35.5 17t-31.5 21l114 157q30 -10 52 -31zM417 509q59 9 112 0l-97 -554q-11 -59 -48 -97t-85 -53t-109 -15q-112 0 -183 49q8 38 37 76q64 -38 145 -38q119 0 132 89l4 19q5 25 13 45l-4 5q-65 -45 -144 -45q-95 0 -133.5 49.5t-24.5 132.5
l29 166q14 83 70.5 132t151.5 49q80 0 128 -45l6 5q-2 10 0 30zM346 105l53 299q-41 28 -98 28q-58 0 -89 -27.5t-42 -86.5l-22 -127q-11 -59 10.5 -86.5t79.5 -27.5q57 0 108 28z" />
    <glyph glyph-name="Hbar" unicode="&#x126;" horiz-adv-x="679" 
d="M737 596q0 -46 -14 -87h-71l-89 -509q-61 -8 -120 0l47 267q5 25 13 45l-4 5h-296l-56 -317q-61 -8 -120 0l89 509h-69q0 42 14 87h71l18 104q62 8 120 0l-18 -104h296l18 104q62 8 120 0l-18 -104h69zM517 413l16 96h-296l-8 -46q-5 -25 -13 -45l4 -5h297z" />
    <glyph glyph-name="hbar" unicode="&#x127;" horiz-adv-x="575" 
d="M411 519q149 0 125 -137l-68 -382q-57 -9 -112 0l60 340q9 49 -8.5 67.5t-61.5 18.5q-63 0 -124 -32l-69 -394q-58 -9 -113 0l100 566h-73q-3 34 12 73h74l13 75q52 26 117 26l-18 -101h134q3 -34 -12 -73h-135l-9 -50q-6 -30 -13 -45l5 -5q76 53 176 53z" />
    <glyph glyph-name="Imacron" unicode="&#x12a;" horiz-adv-x="263" 
d="M70 895h349q2 -40 -14 -82h-350q0 45 15 82zM270 700l-123 -700q-61 -8 -120 0l123 700q62 8 120 0z" />
    <glyph glyph-name="imacron" unicode="&#x12b;" horiz-adv-x="236" 
d="M25 704h349q2 -40 -14 -82h-350q0 44 15 82zM103 490q49 26 117 26l-90 -516q-58 -9 -113 0z" />
    <glyph glyph-name="Iogonek" unicode="&#x12e;" horiz-adv-x="263" 
d="M93 -4q-44 -31 -62 -52.5t-18 -45.5q0 -40 61 -30q1 -31 -12 -73q-81 -15 -119 11t-30 74q13 73 115 124l122 696q62 8 120 0l-123 -700q-18 -2 -54 -4z" />
    <glyph glyph-name="iogonek" unicode="&#x12f;" horiz-adv-x="256" 
d="M212 726q55 0 55 -50q0 -79 -78 -79q-54 0 -54 49q0 80 77 80zM26 1l86 489q49 26 117 26l-91 -516q-18 -3 -40 -3q-43 -31 -61.5 -53t-18.5 -46q0 -40 61 -30q1 -31 -12 -73q-81 -15 -119 11t-30 74q13 70 108 121z" />
    <glyph glyph-name="Idotaccent" unicode="&#x130;" horiz-adv-x="263" 
d="M225 788q-55 0 -55 49q0 80 78 80q54 0 54 -50q0 -79 -77 -79zM270 700l-123 -700q-61 -8 -120 0l123 700q62 8 120 0z" />
    <glyph glyph-name="dotlessi" unicode="&#x131;" horiz-adv-x="236" 
d="M103 490q49 26 117 26l-90 -516q-58 -9 -113 0z" />
    <glyph glyph-name="Kcommaaccent" unicode="&#x136;" horiz-adv-x="623" 
d="M270 700l-123 -700q-61 -8 -120 0l123 700q62 8 120 0zM385 369q5 -2 9 -5t7.5 -8t5.5 -8.5t6 -12t6 -13.5l143 -322q-68 -8 -133 0l-168 364l290 336q66 8 129 0l-236 -278q-32 -38 -59 -48v-5zM146 -238l99 164q13 -4 35.5 -17t31.5 -21l-114 -157q-30 10 -52 31z" />
    <glyph glyph-name="kcommaaccent" unicode="&#x137;" horiz-adv-x="508" 
d="M143 714q52 26 117 26l-130 -740q-58 -9 -113 0zM368 238l95 -238q-58 -10 -124 0l-115 283l198 226q66 9 118 0l-147 -171q-34 -38 -59 -47l-1 -6q13 -5 19.5 -14.5t15.5 -32.5zM86 -238l99 164q13 -4 35.5 -17t31.5 -21l-114 -157q-30 10 -52 31z" />
    <glyph glyph-name="Lacute" unicode="&#x139;" horiz-adv-x="512" 
d="M193 821l199 166q29 -28 47 -67l-213 -149q-23 23 -33 50zM464 96q0 -47 -17 -96h-420l123 700q62 8 120 0l-97 -554q-5 -25 -13 -45l4 -5h300z" />
    <glyph glyph-name="lacute" unicode="&#x13a;" horiz-adv-x="236" 
d="M150 814l199 166q29 -28 47 -67l-213 -149q-23 23 -33 50zM143 714q52 26 117 26l-130 -740q-58 -9 -113 0z" />
    <glyph glyph-name="Lcommaaccent" unicode="&#x13b;" horiz-adv-x="512" 
d="M464 96q0 -47 -17 -96h-420l123 700q62 8 120 0l-97 -554q-5 -25 -13 -45l4 -5h300zM96 -238l99 164q13 -4 35.5 -17t31.5 -21l-114 -157q-30 10 -52 31z" />
    <glyph glyph-name="lcommaaccent" unicode="&#x13c;" horiz-adv-x="236" 
d="M143 714q52 26 117 26l-130 -740q-58 -9 -113 0zM-47 -238l99 164q13 -4 35.5 -17t31.5 -21l-114 -157q-30 10 -52 31z" />
    <glyph glyph-name="Lcaron" unicode="&#x13d;" horiz-adv-x="512" 
d="M464 96q0 -47 -17 -96h-420l123 700q62 8 120 0l-97 -554q-5 -25 -13 -45l4 -5h300zM398 506l25 194q51 8 101 0l-44 -194q-42 -6 -82 0z" />
    <glyph glyph-name="lcaron" unicode="&#x13e;" horiz-adv-x="357" 
d="M143 714q52 26 117 26l-130 -740q-58 -9 -113 0zM299 506l25 194q51 8 101 0l-44 -194q-42 -6 -82 0z" />
    <glyph glyph-name="Lslash" unicode="&#x141;" horiz-adv-x="562" 
d="M214 96h300q0 -47 -17 -96h-420l45 254l-89 -51q-23 38 -32 73l139 80l60 344q62 8 120 0l-47 -267l172 99q20 -32 32 -73l-222 -128l-32 -185q-5 -25 -13 -45z" />
    <glyph glyph-name="lslash" unicode="&#x142;" horiz-adv-x="336" 
d="M375 443l-128 -73l-65 -370q-58 -9 -113 0l53 299l-71 -40q-21 32 -32 73l121 69l55 313q52 26 117 26l-47 -268l78 44q22 -36 32 -73z" />
    <glyph glyph-name="Nacute" unicode="&#x143;" horiz-adv-x="684" 
d="M364 821l199 166q29 -28 47 -67l-213 -149q-23 23 -33 50zM579 700q57 9 112 0l-123 -700q-51 -8 -98 0l-246 479l-5 -3q1 -20 -4 -47l-75 -429q-58 -9 -113 0l123 700q51 8 98 0l246 -479l6 3q-3 19 3 47z" />
    <glyph glyph-name="nacute" unicode="&#x144;" horiz-adv-x="552" 
d="M290 630l199 166q29 -28 47 -67l-213 -149q-23 23 -33 50zM388 519q149 0 125 -137l-68 -382q-57 -9 -112 0l60 340q9 49 -8.5 67.5t-61.5 18.5q-63 0 -124 -32l-69 -394q-58 -9 -113 0l86 490q49 26 117 26q-4 -28 -13 -45l5 -5q76 53 176 53z" />
    <glyph glyph-name="Ncommaaccent" unicode="&#x145;" horiz-adv-x="684" 
d="M579 700q57 9 112 0l-123 -700q-51 -8 -98 0l-246 479l-5 -3q1 -20 -4 -47l-75 -429q-58 -9 -113 0l123 700q51 8 98 0l246 -479l6 3q-3 19 3 47zM166 -238l99 164q13 -4 35.5 -17t31.5 -21l-114 -157q-30 10 -52 31z" />
    <glyph glyph-name="ncommaaccent" unicode="&#x146;" horiz-adv-x="552" 
d="M388 519q149 0 125 -137l-68 -382q-57 -9 -112 0l60 340q9 49 -8.5 67.5t-61.5 18.5q-63 0 -124 -32l-69 -394q-58 -9 -113 0l86 490q49 26 117 26q-4 -28 -13 -45l5 -5q76 53 176 53zM111 -238l99 164q13 -4 35.5 -17t31.5 -21l-114 -157q-30 10 -52 31z" />
    <glyph glyph-name="Ncaron" unicode="&#x147;" horiz-adv-x="684" 
d="M612 911l-189 -140l-141 140q29 38 60 61l75 -100q15 -19 14 -39h4q7 21 27 39l111 100q25 -23 39 -61zM579 700q57 9 112 0l-123 -700q-51 -8 -98 0l-246 479l-5 -3q1 -20 -4 -47l-75 -429q-58 -9 -113 0l123 700q51 8 98 0l246 -479l6 3q-3 19 3 47z" />
    <glyph glyph-name="ncaron" unicode="&#x148;" horiz-adv-x="552" 
d="M538 720l-189 -140l-141 140q29 38 60 61l75 -100q15 -19 14 -39h4q7 21 27 39l111 100q25 -23 39 -61zM388 519q149 0 125 -137l-68 -382q-57 -9 -112 0l60 340q9 49 -8.5 67.5t-61.5 18.5q-63 0 -124 -32l-69 -394q-58 -9 -113 0l86 490q49 26 117 26q-4 -28 -13 -45
l5 -5q76 53 176 53z" />
    <glyph glyph-name="Eng" unicode="&#x14a;" horiz-adv-x="684" 
d="M691 700l-130 -740q-30 -170 -208 -170q0 43 14 82q35 2 54 22t28 70l10 57l-235 458l-5 -3q1 -20 -4 -47l-75 -429q-58 -9 -113 0l123 700q51 8 98 0l246 -479l6 3q-3 19 3 47l76 429q57 9 112 0z" />
    <glyph glyph-name="eng" unicode="&#x14b;" horiz-adv-x="552" 
d="M388 519q149 0 125 -137l-75 -422q-29 -170 -208 -170q0 40 15 82q34 2 53.5 22t28.5 70l66 376q9 49 -8.5 67.5t-61.5 18.5q-63 0 -124 -32l-69 -394q-58 -9 -113 0l86 490q49 26 117 26q-4 -28 -13 -45l5 -5q76 53 176 53z" />
    <glyph glyph-name="Omacron" unicode="&#x14c;" horiz-adv-x="613" 
d="M245 895h349q2 -40 -14 -82h-350q0 45 15 82zM387 710q122 0 180.5 -59t40.5 -162l-49 -278q-18 -103 -97 -162t-202 -59t-181.5 59t-39.5 162l49 278q18 103 97 162t202 59zM444 234l40 232q13 75 -14 112t-100 36q-142 -1 -167 -148l-40 -232q-14 -75 13 -112t101 -36
q142 1 167 148z" />
    <glyph glyph-name="omacron" unicode="&#x14d;" horiz-adv-x="539" 
d="M174 704h349q2 -40 -14 -82h-350q0 44 15 82zM316 519q109 0 156.5 -51.5t33.5 -134.5l-27 -157q-15 -83 -81 -134.5t-175 -51.5t-156.5 51.5t-33.5 134.5l27 157q15 83 81 134.5t175 51.5zM369 191l22 127q11 60 -10.5 87t-79.5 27t-89 -27.5t-42 -86.5l-22 -127
q-11 -60 10.5 -87t79.5 -27t89 27.5t42 86.5z" />
    <glyph glyph-name="Ohungarumlaut" unicode="&#x150;" horiz-adv-x="613" 
d="M249 815l170 172q31 -27 48 -60l-183 -156q-26 17 -35 44zM427 815l170 172q30 -25 48 -60l-183 -156q-26 17 -35 44zM387 710q122 0 180.5 -59t40.5 -162l-49 -278q-18 -103 -97 -162t-202 -59t-181.5 59t-39.5 162l49 278q18 103 97 162t202 59zM444 234l40 232
q13 75 -14 112t-100 36q-142 -1 -167 -148l-40 -232q-14 -75 13 -112t101 -36q142 1 167 148z" />
    <glyph glyph-name="ohungarumlaut" unicode="&#x151;" horiz-adv-x="539" 
d="M178 624l170 172q32 -27 48 -60l-183 -156q-26 17 -35 44zM356 624l170 172q30 -25 48 -60l-183 -156q-26 17 -35 44zM316 519q109 0 156.5 -51.5t33.5 -134.5l-27 -157q-15 -83 -81 -134.5t-175 -51.5t-156.5 51.5t-33.5 134.5l27 157q15 83 81 134.5t175 51.5zM369 191
l22 127q11 60 -10.5 87t-79.5 27t-89 -27.5t-42 -86.5l-22 -127q-11 -60 10.5 -87t79.5 -27t89 27.5t42 86.5z" />
    <glyph glyph-name="OE" unicode="&#x152;" horiz-adv-x="906" 
d="M617 604l-26 -146q-6 -30 -13 -45l4 -5h266q-1 -46 -17 -96h-266l-29 -166q-6 -30 -13 -45l4 -5h316q-1 -46 -17 -96h-436h-128q-122 0 -180.5 59t-40.5 162l22 129l23 129q18 103 97.5 162t202.5 59h248h306q-2 -48 -18 -96h-305zM279 96h128l90 508h-129
q-73 -1 -113 -37t-53 -111l-38 -212q-13 -75 14 -111t101 -37z" />
    <glyph glyph-name="oe" unicode="&#x153;" horiz-adv-x="848" 
d="M649 519q98 0 142.5 -52t29.5 -134l-17 -99h-265q-25 0 -44 5l-6 -5v-2l-10 -55q-5 -52 22.5 -76t91.5 -24q76 0 145 37q20 -37 12 -76q-80 -48 -185 -48q-110 0 -163 55q-70 -55 -179 -55t-156.5 51.5t-33.5 134.5l27 157q15 83 81 134.5t175 51.5q111 0 160 -55
q70 55 173 55zM714 325q20 112 -80 112q-110 0 -130 -118l-1 -5h160q25 0 44 -5l5 5zM238 77q58 0 89 27.5t42 86.5l22 127q11 60 -10.5 87t-79.5 27t-89 -27.5t-42 -86.5l-22 -127q-11 -60 10.5 -87t79.5 -27z" />
    <glyph glyph-name="Racute" unicode="&#x154;" horiz-adv-x="620" 
d="M329 821l199 166q29 -28 47 -67l-213 -149q-23 23 -33 50zM408 295q16 -8 24.5 -13.5t19.5 -20t16.5 -27t17.5 -47t21.5 -66.5t28.5 -97q5 -16 7 -24q-63 -7 -122 0q-37 126 -60 181t-45 73t-60 18h-61l-48 -272q-61 -8 -120 0l123 700h243q110 0 163.5 -47t39.5 -124
l-15 -86q-10 -56 -55.5 -94.5t-116.5 -48.5zM212 368h119q119 0 135 100l6 36q18 100 -100 100h-118l-33 -186q-5 -25 -13 -45z" />
    <glyph glyph-name="racute" unicode="&#x155;" horiz-adv-x="353" 
d="M170 630l199 166q29 -28 47 -67l-213 -149q-23 23 -33 50zM203 434q71 89 190 81q-12 -61 -40 -106q-89 7 -161 -54l-62 -355q-58 -9 -113 0l86 490q49 26 117 26q-7 -45 -21 -77z" />
    <glyph glyph-name="Rcommaaccent" unicode="&#x156;" horiz-adv-x="620" 
d="M408 295q16 -8 24.5 -13.5t19.5 -20t16.5 -27t17.5 -47t21.5 -66.5t28.5 -97q5 -16 7 -24q-63 -7 -122 0q-37 126 -60 181t-45 73t-60 18h-61l-48 -272q-61 -8 -120 0l123 700h243q110 0 163.5 -47t39.5 -124l-15 -86q-10 -56 -55.5 -94.5t-116.5 -48.5zM212 368h119
q119 0 135 100l6 36q18 100 -100 100h-118l-33 -186q-5 -25 -13 -45zM131 -238l99 164q13 -4 35.5 -17t31.5 -21l-114 -157q-30 10 -52 31z" />
    <glyph glyph-name="rcommaaccent" unicode="&#x157;" horiz-adv-x="353" 
d="M203 434q71 89 190 81q-12 -61 -40 -106q-89 7 -161 -54l-62 -355q-58 -9 -113 0l86 490q49 26 117 26q-7 -45 -21 -77zM-59 -238l99 164q13 -4 35.5 -17t31.5 -21l-114 -157q-30 10 -52 31z" />
    <glyph glyph-name="Rcaron" unicode="&#x158;" horiz-adv-x="620" 
d="M577 911l-189 -140l-141 140q29 38 60 61l75 -100q15 -19 14 -39h4q7 21 27 39l111 100q25 -23 39 -61zM393 700q110 0 163.5 -47t39.5 -124l-15 -86q-10 -56 -55.5 -94.5t-116.5 -48.5l-1 -5q16 -8 24.5 -13.5t19.5 -20t16.5 -27t17.5 -47t21.5 -66.5t28.5 -97
q5 -16 7 -24q-63 -7 -122 0q-37 126 -60 181t-45 73t-60 18h-61l-48 -272q-61 -8 -120 0l123 700h243zM472 504q18 100 -100 100h-118l-33 -186q-5 -25 -13 -45l4 -5h119q119 0 135 100z" />
    <glyph glyph-name="rcaron" unicode="&#x159;" horiz-adv-x="353" 
d="M418 720l-189 -140l-141 140q29 38 60 61l75 -100q15 -19 14 -39h4q7 21 27 39l111 100q25 -23 39 -61zM203 434q71 89 190 81q-12 -61 -40 -106q-89 7 -161 -54l-62 -355q-58 -9 -113 0l86 490q49 26 117 26q-7 -45 -21 -77z" />
    <glyph glyph-name="Sacute" unicode="&#x15a;" horiz-adv-x="564" 
d="M314 821l199 166q29 -28 47 -67l-213 -149q-23 23 -33 50zM222 507q0 -34 29.5 -57t71.5 -38t84 -33t71.5 -56t29.5 -94q0 -108 -74 -173.5t-212 -65.5q-124 0 -211 63q14 53 48 93q82 -60 176 -60q74 0 112 32.5t38 81.5q0 36 -29.5 59.5t-71.5 38.5t-84 33t-71.5 55.5
t-29.5 93.5q0 103 74 166.5t200 63.5q112 0 190 -61q-13 -47 -47 -90q-78 57 -154 57q-64 0 -102 -29.5t-38 -79.5z" />
    <glyph glyph-name="sacute" unicode="&#x15b;" horiz-adv-x="465" 
d="M236 630l199 166q29 -28 47 -67l-213 -149q-23 23 -33 50zM180 -10q-117 0 -176 52q7 40 39 76q59 -44 142 -44q56 0 85.5 19.5t29.5 49.5q0 24 -24 40t-58.5 26t-69 23t-58.5 40.5t-24 69.5q0 80 61 128.5t170 48.5q96 0 160 -43q-8 -41 -39 -77q-60 36 -129 36
q-52 0 -80.5 -18t-28.5 -49q0 -24 24 -39t59 -25.5t69.5 -24t58.5 -42t24 -70.5q0 -79 -60 -128t-175 -49z" />
    <glyph glyph-name="Scedilla" unicode="&#x15e;" horiz-adv-x="564" 
d="M362 616q-64 0 -102 -29.5t-38 -79.5q0 -34 29.5 -57t71.5 -38t84 -33t71.5 -56t29.5 -94q0 -99 -62.5 -163t-180.5 -74l-23 -37q40 -7 61 -29.5t15 -57.5q-9 -46 -54.5 -67t-122.5 -6q0 29 11 60q32 -7 54.5 1t22.5 32q0 28 -62 43l36 59q-113 5 -192 63q14 53 48 93
q82 -60 176 -60q74 0 112 32.5t38 81.5q0 36 -29.5 59.5t-71.5 38.5t-84 33t-71.5 55.5t-29.5 93.5q0 103 74 166.5t200 63.5q112 0 190 -61q-13 -47 -47 -90q-78 57 -154 57z" />
    <glyph glyph-name="scedilla" unicode="&#x15f;" horiz-adv-x="465" 
d="M289 435q-52 0 -80.5 -18t-28.5 -49q0 -24 24 -39t59 -25.5t69.5 -24t58.5 -42t24 -70.5q0 -71 -49.5 -118.5t-144.5 -56.5l-23 -37q40 -7 61 -29.5t15 -57.5q-9 -46 -54.5 -67t-122.5 -6q0 29 11 60q32 -7 54.5 1t22.5 32q0 28 -62 43l36 59q-101 5 -155 52q7 40 39 76
q59 -44 142 -44q56 0 85.5 19.5t29.5 49.5q0 24 -24 40t-58.5 26t-69 23t-58.5 40.5t-24 69.5q0 80 61 128.5t170 48.5q96 0 160 -43q-8 -41 -39 -77q-60 36 -129 36z" />
    <glyph glyph-name="Scaron" unicode="&#x160;" horiz-adv-x="564" 
d="M562 911l-189 -140l-141 140q29 38 60 61l75 -100q15 -19 14 -39h4q7 21 27 39l111 100q25 -23 39 -61zM362 616q-64 0 -102 -29.5t-38 -79.5q0 -34 29.5 -57t71.5 -38t84 -33t71.5 -56t29.5 -94q0 -108 -74 -173.5t-212 -65.5q-124 0 -211 63q14 53 48 93
q82 -60 176 -60q74 0 112 32.5t38 81.5q0 36 -29.5 59.5t-71.5 38.5t-84 33t-71.5 55.5t-29.5 93.5q0 103 74 166.5t200 63.5q112 0 190 -61q-13 -47 -47 -90q-78 57 -154 57z" />
    <glyph glyph-name="scaron" unicode="&#x161;" horiz-adv-x="465" 
d="M484 720l-189 -140l-141 140q29 38 60 61l75 -100q15 -19 14 -39h4q7 21 27 39l111 100q25 -23 39 -61zM66 342q0 80 61 128.5t170 48.5q96 0 160 -43q-8 -41 -39 -77q-60 36 -129 36q-52 0 -80.5 -18t-28.5 -49q0 -24 24 -39t59 -25.5t69.5 -24t58.5 -42t24 -70.5
q0 -79 -60 -128t-175 -49q-117 0 -176 52q7 40 39 76q59 -44 142 -44q56 0 85.5 19.5t29.5 49.5q0 24 -24 40t-58.5 26t-69 23t-58.5 40.5t-24 69.5z" />
    <glyph glyph-name="uni0162" unicode="&#x162;" horiz-adv-x="561" 
d="M626 700q-2 -51 -17 -96h-207l-107 -604l-28 -3l-26 -42q40 -7 61 -29.5t15 -57.5q-9 -46 -54.5 -67t-122.5 -6q0 29 11 60q32 -7 54.5 1t22.5 32q0 28 -62 43l40 66l-31 3l98 554q6 30 13 45l-4 5h-207q1 46 17 96h534z" />
    <glyph glyph-name="uni0163" unicode="&#x163;" horiz-adv-x="407" 
d="M240 418l-44 -253q-9 -47 3.5 -65.5t44.5 -18.5q31 0 86 28q20 -37 11 -80q-62 -35 -116 -38l-22 -36q40 -7 61 -29.5t15 -57.5q-9 -46 -54.5 -67t-122.5 -6q0 29 11 60q32 -7 54.5 1t22.5 32q0 28 -62 43l38 63q-109 21 -87 151l40 223q6 30 13 45l-4 5h-75q2 47 17 91
h74l17 98q49 27 117 27l-13 -75q-5 -25 -13 -45l4 -5h157q-1 -46 -16 -91h-157z" />
    <glyph glyph-name="Tcaron" unicode="&#x164;" horiz-adv-x="561" 
d="M561 911l-189 -140l-141 140q29 38 60 61l75 -100q15 -19 14 -39h4q7 21 27 39l111 100q25 -23 39 -61zM626 700q-2 -51 -17 -96h-207l-107 -604q-60 -8 -120 0l98 554q6 30 13 45l-4 5h-207q1 46 17 96h534z" />
    <glyph glyph-name="tcaron" unicode="&#x165;" horiz-adv-x="422" 
d="M375 564l25 194q51 8 101 0l-44 -194q-42 -6 -82 0zM330 109q20 -37 11 -80q-69 -39 -134 -39q-73 0 -107 39t-21 116l40 223q6 30 13 45l-4 5h-75q2 47 17 91h74l17 98q49 27 117 27l-13 -75q-5 -25 -13 -45l4 -5h157q-1 -46 -16 -91h-157l-44 -253q-9 -47 3.5 -65.5
t44.5 -18.5q31 0 86 28z" />
    <glyph glyph-name="Tbar" unicode="&#x166;" horiz-adv-x="561" 
d="M609 604h-207l-25 -141h124q0 -43 -15 -86h-124l-67 -377q-60 -8 -120 0l67 377h-125q0 43 15 86h125l16 91q6 30 13 45l-4 5h-207q1 46 17 96h327h207q-2 -51 -17 -96z" />
    <glyph glyph-name="tbar" unicode="&#x167;" horiz-adv-x="407" 
d="M398 418h-157l-13 -73h155q1 -42 -14 -87h-156l-16 -93q-9 -47 3.5 -65.5t44.5 -18.5q31 0 86 28q20 -37 11 -80q-69 -39 -134 -39q-73 0 -107 39t-21 116l20 113h-74q0 44 15 87h75l4 23q6 30 13 45l-4 5h-75q2 47 17 91h74l17 98q49 27 117 27l-13 -75q-5 -25 -13 -45
l4 -5h157q-1 -46 -16 -91z" />
    <glyph glyph-name="Umacron" unicode="&#x16a;" horiz-adv-x="668" 
d="M272 895h349q2 -40 -14 -82h-350q0 45 15 82zM555 700q61 8 120 0l-84 -479q-19 -105 -96.5 -168t-207.5 -63t-185 63t-37 168l85 479q61 8 119 0l-80 -460q-14 -78 14.5 -116.5t100.5 -37.5q143 1 170 154z" />
    <glyph glyph-name="umacron" unicode="&#x16b;" horiz-adv-x="544" 
d="M189 704h349q2 -40 -14 -82h-350q0 44 15 82zM411 490q49 26 117 26l-90 -516q-58 -9 -113 0q5 23 12 36l-4 5q-75 -53 -170 -53q-148 0 -124 137l64 365q49 26 118 26l-62 -348q-9 -50 8.5 -68t61.5 -18q57 0 116 31z" />
    <glyph glyph-name="Uring" unicode="&#x16e;" horiz-adv-x="668" 
d="M422 758q-89 0 -89 78q0 57 32.5 89.5t91.5 32.5q88 0 88 -80q0 -58 -32 -89t-91 -31zM431 810q55 0 55 58q0 38 -38 38q-28 0 -42.5 -16.5t-14.5 -43.5q0 -36 40 -36zM555 700q61 8 120 0l-84 -479q-19 -105 -96.5 -168t-207.5 -63t-185 63t-37 168l85 479q61 8 119 0
l-80 -460q-14 -78 14.5 -116.5t100.5 -37.5q143 1 170 154z" />
    <glyph glyph-name="uring" unicode="&#x16f;" horiz-adv-x="544" 
d="M339 567q-89 0 -89 78q0 57 32.5 89.5t91.5 32.5q88 0 88 -80q0 -58 -32 -89t-91 -31zM348 619q55 0 55 58q0 38 -38 38q-28 0 -42.5 -16.5t-14.5 -43.5q0 -36 40 -36zM411 490q49 26 117 26l-90 -516q-58 -9 -113 0q5 23 12 36l-4 5q-75 -53 -170 -53q-148 0 -124 137
l64 365q49 26 118 26l-62 -348q-9 -50 8.5 -68t61.5 -18q57 0 116 31z" />
    <glyph glyph-name="Uhungarumlaut" unicode="&#x170;" horiz-adv-x="668" 
d="M276 815l170 172q32 -27 48 -60l-183 -156q-26 17 -35 44zM454 815l170 172q30 -25 48 -60l-183 -156q-26 17 -35 44zM555 700q61 8 120 0l-84 -479q-19 -105 -96.5 -168t-207.5 -63t-185 63t-37 168l85 479q61 8 119 0l-80 -460q-14 -78 14.5 -116.5t100.5 -37.5
q143 1 170 154z" />
    <glyph glyph-name="uhungarumlaut" unicode="&#x171;" horiz-adv-x="544" 
d="M193 624l170 172q31 -27 48 -60l-183 -156q-26 17 -35 44zM371 624l170 172q30 -25 48 -60l-183 -156q-26 17 -35 44zM411 490q49 26 117 26l-90 -516q-58 -9 -113 0q5 23 12 36l-4 5q-75 -53 -170 -53q-148 0 -124 137l64 365q49 26 118 26l-62 -348q-9 -50 8.5 -68
t61.5 -18q57 0 116 31z" />
    <glyph glyph-name="Uogonek" unicode="&#x172;" horiz-adv-x="668" 
d="M555 700q61 8 120 0l-84 -479q-16 -85 -70 -143.5t-144 -78.5q-46 -32 -65 -54t-19 -47q0 -40 61 -30q1 -31 -12 -73q-81 -15 -119 11t-30 74q12 64 89 110q-127 1 -181 64t-36 167l85 479q61 8 119 0l-80 -460q-14 -78 14.5 -116.5t100.5 -37.5q143 1 170 154z" />
    <glyph glyph-name="uogonek" unicode="&#x173;" horiz-adv-x="546" 
d="M389 -205q-74 -14 -112 6.5t-38 64.5q0 75 105 137q-3 21 -11 38q-75 -53 -170 -53q-148 0 -124 137l64 365q49 26 118 26l-62 -348q-9 -50 8.5 -68t61.5 -18q57 0 116 31l66 377q49 26 117 26l-90 -516q-48 -21 -73 -48.5t-25 -54.5q0 -40 62 -29q2 -37 -13 -73z" />
    <glyph glyph-name="Wcircumflex" unicode="&#x174;" horiz-adv-x="854" 
d="M391 771q-25 23 -39 61l189 140l141 -140q-29 -38 -60 -61l-75 100q-15 19 -14 39h-4q-7 -21 -27 -39zM798 700q66 8 125 0l-295 -700q-64 -7 -125 0l-38 377q-4 46 -1 77h-4q-8 -36 -27 -77l-172 -377q-63 -8 -123 0l-49 700q63 8 124 0l21 -452v-84h5q10 43 27 84
l170 377q36 4 57 4q20 0 56 -4l36 -377q4 -34 -1 -84h5q7 26 29 84z" />
    <glyph glyph-name="wcircumflex" unicode="&#x175;" horiz-adv-x="775" 
d="M318 580q-25 23 -39 61l189 140l141 -140q-29 -38 -60 -61l-75 100q-15 19 -14 39h-4q-7 -21 -27 -39zM692 509q62 8 120 0l-249 -509q-59 -7 -114 0l-38 292q-5 46 -2 75h-4q-6 -28 -27 -75l-141 -292q-59 -7 -114 0l-70 509q61 8 120 0l32 -310q3 -48 2 -63h5
q10 36 24 63l136 285q34 4 56 4q24 0 56 -4l36 -285q4 -33 1 -63h5q9 28 25 63z" />
    <glyph glyph-name="Ycircumflex" unicode="&#x176;" horiz-adv-x="589" 
d="M258 771q-25 23 -39 61l189 140l141 -140q-29 -38 -60 -61l-75 100q-15 19 -14 39h-4q-7 -21 -27 -39zM534 700q64 8 124 0l-290 -416l-49 -284q-62 -9 -120 0l50 285l-160 415q67 8 132 0l100 -272q6 -16 2 -63h5q12 45 24 63z" />
    <glyph glyph-name="ycircumflex" unicode="&#x177;" horiz-adv-x="511" 
d="M188 580q-25 23 -39 61l189 140l141 -140q-29 -38 -60 -61l-75 100q-15 19 -14 39h-4q-7 -21 -27 -39zM432 509q59 7 116 0l-266 -498q-59 -110 -129 -163.5t-174 -57.5q0 38 14 82q59 7 96.5 37t74.5 97l-106 503q61 8 121 0l58 -323q5 -37 3 -61h5q8 33 23 63z" />
    <glyph glyph-name="Ydieresis" unicode="&#x178;" horiz-adv-x="589" 
d="M267 788q-55 0 -55 49q0 80 78 80q54 0 54 -50q0 -79 -77 -79zM495 788q-55 0 -55 49q0 80 78 80q54 0 54 -50q0 -79 -77 -79zM658 700l-290 -416l-49 -284q-62 -9 -120 0l50 285l-160 415q67 8 132 0l100 -272q6 -16 2 -63h5q12 45 24 63l182 272q64 8 124 0z" />
    <glyph glyph-name="Zacute" unicode="&#x179;" horiz-adv-x="559" 
d="M322 821l199 166q29 -28 47 -67l-213 -149q-23 23 -33 50zM506 96q0 -48 -17 -96h-505q0 34 12 68l392 486q26 33 52 45l-1 5h-326q0 48 17 96h475q1 -28 -11 -68l-392 -486q-27 -34 -53 -45l2 -5h355z" />
    <glyph glyph-name="zacute" unicode="&#x17a;" horiz-adv-x="456" 
d="M481 729l-213 -149q-23 23 -33 50l199 166q29 -28 47 -67zM66 418q0 46 16 91h395q0 -34 -12 -67l-299 -326q-14 -16 -25 -20l1 -5h264q-2 -46 -16 -91h-415q0 34 12 68l298 325q15 18 25 20l-1 5h-243z" />
    <glyph glyph-name="Zdotaccent" unicode="&#x17b;" horiz-adv-x="559" 
d="M383 788q-55 0 -55 49q0 80 78 80q54 0 54 -50q0 -79 -77 -79zM506 96q0 -48 -17 -96h-505q0 34 12 68l392 486q26 33 52 45l-1 5h-326q0 48 17 96h475q1 -28 -11 -68l-392 -486q-27 -34 -53 -45l2 -5h355z" />
    <glyph glyph-name="zdotaccent" unicode="&#x17c;" horiz-adv-x="456" 
d="M296 597q-55 0 -55 49q0 80 78 80q54 0 54 -50q0 -79 -77 -79zM166 116q-14 -16 -25 -20l1 -5h264q-2 -46 -16 -91h-415q0 34 12 68l298 325q15 18 25 20l-1 5h-243q0 46 16 91h395q0 -34 -12 -67z" />
    <glyph glyph-name="Zcaron" unicode="&#x17d;" horiz-adv-x="559" 
d="M570 911l-189 -140l-141 140q29 38 60 61l75 -100q15 -19 14 -39h4q7 21 27 39l111 100q25 -23 39 -61zM202 146q-27 -34 -53 -45l2 -5h355q0 -48 -17 -96h-505q0 34 12 68l392 486q26 33 52 45l-1 5h-326q0 48 17 96h475q1 -28 -11 -68z" />
    <glyph glyph-name="zcaron" unicode="&#x17e;" horiz-adv-x="456" 
d="M483 720l-189 -140l-141 140q29 38 60 61l75 -100q15 -19 14 -39h4q7 21 27 39l111 100q25 -23 39 -61zM66 418q0 46 16 91h395q0 -34 -12 -67l-299 -326q-14 -16 -25 -20l1 -5h264q-2 -46 -16 -91h-415q0 34 12 68l298 325q15 18 25 20l-1 5h-243z" />
    <glyph glyph-name="uni01CE" unicode="&#x1ce;" horiz-adv-x="507" 
d="M500 720l-189 -140l-141 140q29 38 60 61l75 -100q15 -19 14 -39h4q7 21 27 39l111 100q25 -23 39 -61zM301 519q91 0 134.5 -37t28.5 -124l-63 -358q-58 -7 -113 0q4 18 11 30l-5 5q-64 -45 -144 -45q-70 0 -108.5 38t-26.5 104l4 26q12 65 64 103t123 38q81 0 127 -43
l6 5q-1 23 3 45l6 37q9 47 -9 68t-75 21q-76 0 -153 -35q-16 36 -9 76q85 46 199 46zM305 96l17 98q-49 30 -97 30q-83 0 -97 -71l-2 -16q-6 -33 11.5 -52.5t59.5 -19.5q50 0 108 31z" />
    <glyph glyph-name="Scommaaccent" unicode="&#x218;" horiz-adv-x="564" 
d="M222 507q0 -34 29.5 -57t71.5 -38t84 -33t71.5 -56t29.5 -94q0 -108 -74 -173.5t-212 -65.5q-124 0 -211 63q14 53 48 93q82 -60 176 -60q74 0 112 32.5t38 81.5q0 36 -29.5 59.5t-71.5 38.5t-84 33t-71.5 55.5t-29.5 93.5q0 103 74 166.5t200 63.5q112 0 190 -61
q-13 -47 -47 -90q-78 57 -154 57q-64 0 -102 -29.5t-38 -79.5zM115 -238l99 164q13 -4 35.5 -17t31.5 -21l-114 -157q-30 10 -52 31z" />
    <glyph glyph-name="scommaaccent" unicode="&#x219;" horiz-adv-x="465" 
d="M180 -10q-117 0 -176 52q7 40 39 76q59 -44 142 -44q56 0 85.5 19.5t29.5 49.5q0 24 -24 40t-58.5 26t-69 23t-58.5 40.5t-24 69.5q0 80 61 128.5t170 48.5q96 0 160 -43q-8 -41 -39 -77q-60 36 -129 36q-52 0 -80.5 -18t-28.5 -49q0 -24 24 -39t59 -25.5t69.5 -24
t58.5 -42t24 -70.5q0 -79 -60 -128t-175 -49zM71 -238l99 164q13 -4 35.5 -17t31.5 -21l-114 -157q-30 10 -52 31z" />
    <glyph glyph-name="uni021A" unicode="&#x21a;" horiz-adv-x="561" 
d="M626 700q-2 -51 -17 -96h-207l-107 -604q-60 -8 -120 0l98 554q6 30 13 45l-4 5h-207q1 46 17 96h327h207zM114 -238l99 164q13 -4 35.5 -17t31.5 -21l-114 -157q-30 10 -52 31z" />
    <glyph glyph-name="uni021B" unicode="&#x21b;" horiz-adv-x="407" 
d="M330 109q20 -37 11 -80q-69 -39 -134 -39q-73 0 -107 39t-21 116l40 223q6 30 13 45l-4 5h-75q2 47 17 91h74l17 98q49 27 117 27l-13 -75q-5 -25 -13 -45l4 -5h157q-1 -46 -16 -91h-157l-44 -253q-9 -47 3.5 -65.5t44.5 -18.5q31 0 86 28zM76 -238l99 164
q13 -4 35.5 -17t31.5 -21l-114 -157q-30 10 -52 31z" />
    <glyph glyph-name="circumflex" unicode="&#x2c6;" horiz-adv-x="420" 
d="M95 781l141 -140q-29 -38 -60 -61l-75 100q-15 19 -14 39h-4q-7 -21 -27 -39l-111 -100q-25 23 -39 61z" />
    <glyph glyph-name="caron" unicode="&#x2c7;" horiz-adv-x="420" 
d="M336 781q25 -23 39 -61l-189 -140l-141 140q29 38 60 61l75 -100q15 -19 14 -39h4q7 21 27 39z" />
    <glyph glyph-name="breve" unicode="&#x2d8;" horiz-adv-x="398" 
d="M297 749q31 0 61 -10q-27 -77 -76.5 -112.5t-107.5 -35.5q-59 0 -96.5 35.5t-36.5 112.5q32 10 65 10q9 -79 81 -79q73 0 110 79z" />
    <glyph glyph-name="dotaccent" unicode="&#x2d9;" horiz-adv-x="228" 
d="M103 597q-55 0 -55 49q0 80 78 80q54 0 54 -50q0 -79 -77 -79z" />
    <glyph glyph-name="ring" unicode="&#x2da;" horiz-adv-x="279" 
d="M123 567q-89 0 -89 78q0 57 32.5 89.5t91.5 32.5q88 0 88 -80q0 -58 -32 -89t-91 -31zM132 619q55 0 55 58q0 38 -38 38q-28 0 -42.5 -16.5t-14.5 -43.5q0 -36 40 -36z" />
    <glyph glyph-name="ogonek" unicode="&#x2db;" horiz-adv-x="627" 
d="M378 10l59 -10q-47 -33 -66 -55t-19 -47q0 -40 61 -30q1 -31 -12 -73q-81 -15 -119 11t-30 74q14 77 126 130z" />
    <glyph glyph-name="tilde" unicode="&#x2dc;" horiz-adv-x="379" 
d="M261 726q74 0 109 -78q-30 -26 -57 -39q-29 39 -59 39q-19 0 -62 -21.5t-73 -21.5q-66 0 -110 78q30 24 56 38q30 -38 61 -38q20 0 62 21.5t73 21.5z" />
    <glyph glyph-name="hungarumlaut" unicode="&#x2dd;" horiz-adv-x="532" 
d="M60 624l170 172q32 -27 48 -60l-183 -156q-26 17 -35 44zM238 624l170 172q30 -25 48 -60l-183 -156q-26 17 -35 44z" />
    <glyph glyph-name="gravecomb" unicode="&#x300;" 
 />
    <glyph glyph-name="acutecomb" unicode="&#x301;" 
 />
    <glyph glyph-name="uni0302" unicode="&#x302;" 
 />
    <glyph glyph-name="tildecomb" unicode="&#x303;" 
 />
    <glyph glyph-name="uni0304" unicode="&#x304;" 
 />
    <glyph glyph-name="uni0306" unicode="&#x306;" 
 />
    <glyph glyph-name="uni0307" unicode="&#x307;" 
 />
    <glyph glyph-name="uni0308" unicode="&#x308;" 
 />
    <glyph glyph-name="uni030A" unicode="&#x30a;" 
 />
    <glyph glyph-name="uni030B" unicode="&#x30b;" 
 />
    <glyph glyph-name="uni030C" unicode="&#x30c;" 
 />
    <glyph glyph-name="uni0312" unicode="&#x312;" 
 />
    <glyph glyph-name="uni0326" unicode="&#x326;" 
d="M-224 -238l99 164q13 -4 35.5 -17t31.5 -21l-114 -157q-30 10 -52 31z" />
    <glyph glyph-name="uni0327" unicode="&#x327;" 
 />
    <glyph glyph-name="uni0328" unicode="&#x328;" 
 />
    <glyph glyph-name="uni0335" unicode="&#x335;" 
 />
    <glyph glyph-name="uni0336" unicode="&#x336;" 
 />
    <glyph glyph-name="uni0337" unicode="&#x337;" 
 />
    <glyph glyph-name="uni0338" unicode="&#x338;" 
 />
    <glyph glyph-name="Wgrave" unicode="&#x1e80;" horiz-adv-x="854" 
d="M626 821q-10 -27 -33 -50l-213 149q18 39 47 67zM798 700q66 8 125 0l-295 -700q-64 -7 -125 0l-38 377q-4 46 -1 77h-4q-8 -36 -27 -77l-172 -377q-63 -8 -123 0l-49 700q63 8 124 0l21 -452v-84h5q10 43 27 84l170 377q36 4 57 4q20 0 56 -4l36 -377q4 -34 -1 -84h5
q7 26 29 84z" />
    <glyph glyph-name="wgrave" unicode="&#x1e81;" horiz-adv-x="775" 
d="M553 630q-10 -27 -33 -50l-213 149q18 39 47 67zM692 509q62 8 120 0l-249 -509q-59 -7 -114 0l-38 292q-5 46 -2 75h-4q-6 -28 -27 -75l-141 -292q-59 -7 -114 0l-70 509q61 8 120 0l32 -310q3 -48 2 -63h5q10 36 24 63l136 285q34 4 56 4q24 0 56 -4l36 -285
q4 -33 1 -63h5q9 28 25 63z" />
    <glyph glyph-name="Wacute" unicode="&#x1e82;" horiz-adv-x="854" 
d="M460 821l199 166q29 -28 47 -67l-213 -149q-23 23 -33 50zM798 700q66 8 125 0l-295 -700q-64 -7 -125 0l-38 377q-4 46 -1 77h-4q-8 -36 -27 -77l-172 -377q-63 -8 -123 0l-49 700q63 8 124 0l21 -452v-84h5q10 43 27 84l170 377q36 4 57 4q20 0 56 -4l36 -377
q4 -34 -1 -84h5q7 26 29 84z" />
    <glyph glyph-name="wacute" unicode="&#x1e83;" horiz-adv-x="775" 
d="M387 630l199 166q29 -28 47 -67l-213 -149q-23 23 -33 50zM692 509q62 8 120 0l-249 -509q-59 -7 -114 0l-38 292q-5 46 -2 75h-4q-6 -28 -27 -75l-141 -292q-59 -7 -114 0l-70 509q61 8 120 0l32 -310q3 -48 2 -63h5q10 36 24 63l136 285q34 4 56 4q24 0 56 -4l36 -285
q4 -33 1 -63h5q9 28 25 63z" />
    <glyph glyph-name="Wdieresis" unicode="&#x1e84;" horiz-adv-x="854" 
d="M400 788q-55 0 -55 49q0 80 78 80q54 0 54 -50q0 -79 -77 -79zM628 788q-55 0 -55 49q0 80 78 80q54 0 54 -50q0 -79 -77 -79zM798 700q66 8 125 0l-295 -700q-64 -7 -125 0l-38 377q-4 46 -1 77h-4q-8 -36 -27 -77l-172 -377q-63 -8 -123 0l-49 700q63 8 124 0l21 -452
v-84h5q10 43 27 84l170 377q36 4 57 4q20 0 56 -4l36 -377q4 -34 -1 -84h5q7 26 29 84z" />
    <glyph glyph-name="wdieresis" unicode="&#x1e85;" horiz-adv-x="775" 
d="M327 597q-55 0 -55 49q0 80 78 80q54 0 54 -50q0 -79 -77 -79zM555 597q-55 0 -55 49q0 80 78 80q54 0 54 -50q0 -79 -77 -79zM692 509q62 8 120 0l-249 -509q-59 -7 -114 0l-38 292q-5 46 -2 75h-4q-6 -28 -27 -75l-141 -292q-59 -7 -114 0l-70 509q61 8 120 0l32 -310
q3 -48 2 -63h5q10 36 24 63l136 285q34 4 56 4q24 0 56 -4l36 -285q4 -33 1 -63h5q9 28 25 63z" />
    <glyph glyph-name="Ygrave" unicode="&#x1ef2;" horiz-adv-x="589" 
d="M493 821q-10 -27 -33 -50l-213 149q18 39 47 67zM658 700l-290 -416l-49 -284q-62 -9 -120 0l50 285l-160 415q67 8 132 0l100 -272q6 -16 2 -63h5q12 45 24 63l182 272q64 8 124 0z" />
    <glyph glyph-name="ygrave" unicode="&#x1ef3;" horiz-adv-x="511" 
d="M423 630q-10 -27 -33 -50l-213 149q18 39 47 67zM432 509q59 7 116 0l-266 -498q-59 -110 -129 -163.5t-174 -57.5q0 38 14 82q59 7 96.5 37t74.5 97l-106 503q61 8 121 0l58 -323q5 -37 3 -61h5q8 33 23 63z" />
    <glyph glyph-name="endash" unicode="&#x2013;" horiz-adv-x="547" 
d="M571 359q0 -43 -15 -87h-559q0 44 15 87h559z" />
    <glyph glyph-name="emdash" unicode="&#x2014;" horiz-adv-x="746" 
d="M770 359q1 -42 -14 -87h-759q0 44 15 87h758z" />
    <glyph glyph-name="quoteleft" unicode="&#x2018;" horiz-adv-x="214" 
d="M313 785l-132 -217q-39 12 -71 40l152 208q29 -9 51 -31z" />
    <glyph glyph-name="quoteright" unicode="&#x2019;" horiz-adv-x="214" 
d="M55 599l132 217q39 -12 71 -40l-152 -208q-29 9 -51 31z" />
    <glyph glyph-name="quotesinglbase" unicode="&#x201a;" horiz-adv-x="214" 
d="M-67 -94l132 217q39 -12 71 -40l-152 -208q-29 9 -51 31z" />
    <glyph glyph-name="quotedblleft" unicode="&#x201c;" horiz-adv-x="383" 
d="M313 785l-132 -217q-39 12 -71 40l152 208q29 -9 51 -31zM482 785l-132 -217q-39 12 -71 40l152 208q29 -9 51 -31z" />
    <glyph glyph-name="quotedblright" unicode="&#x201d;" horiz-adv-x="382" 
d="M55 599l132 217q39 -12 71 -40l-152 -208q-29 9 -51 31zM224 599l132 217q39 -12 71 -40l-152 -208q-29 9 -51 31z" />
    <glyph glyph-name="quotedblbase" unicode="&#x201e;" horiz-adv-x="383" 
d="M-67 -94l132 217q39 -12 71 -40l-152 -208q-29 9 -51 31zM101 -94l132 217q39 -12 71 -40l-152 -208q-29 9 -51 31z" />
    <glyph glyph-name="dagger" unicode="&#x2020;" horiz-adv-x="484" 
d="M531 598q0 -43 -12 -73l-184 2l-126 -727q-44 -7 -87 0l126 727l-185 2q-2 39 12 73l185 -2l40 240q45 8 87 0l-40 -240z" />
    <glyph glyph-name="daggerdbl" unicode="&#x2021;" horiz-adv-x="484" 
d="M261 112l184 -1q1 -37 -12 -73l-184 2l-40 -240q-44 -7 -87 0l40 240l-185 1q-2 40 12 73l185 -2l74 415l-185 2q-2 39 12 73l185 -2l40 240q45 8 87 0l-40 -240l184 -2q0 -43 -12 -73l-184 2z" />
    <glyph glyph-name="bullet" unicode="&#x2022;" horiz-adv-x="307" 
d="M144 177q-111 0 -92 110q20 112 132 112q110 0 89 -112q-18 -110 -129 -110z" />
    <glyph glyph-name="ellipsis" unicode="&#x2026;" horiz-adv-x="679" 
d="M213 119q64 0 52 -65q-10 -64 -75 -64h-9h-9q-65 0 -53 64q11 65 76 65h9h9zM543 119q64 0 52 -65q-10 -64 -75 -64t-53 64q11 65 76 65z" />
    <glyph glyph-name="perthousand" unicode="&#x2030;" horiz-adv-x="1203" 
d="M778 678l-608 -694q-36 17 -59 47l608 694q37 -19 59 -47zM280 710q74 0 106 -38.5t22 -96.5l-16 -91q-10 -58 -56.5 -96.5t-119.5 -38.5q-74 0 -106.5 38.5t-22.5 96.5l16 91q10 58 56.5 96.5t120.5 38.5zM304 502l10 55q14 72 -49 72q-60 0 -73 -72l-11 -55
q-11 -73 50 -73q62 0 73 73zM667 352q74 0 106 -38.5t22 -96.5l-16 -91q-10 -58 -56 -97t-119 -39q-74 0 -106.5 39t-22.5 97l16 91q10 58 56 96.5t120 38.5zM1022 352q74 0 106 -38.5t22 -96.5l-16 -91q-10 -58 -56 -97t-119 -39q-74 0 -107 39t-23 97l16 91
q10 58 56.5 96.5t120.5 38.5zM692 143l10 56q13 72 -49 72q-61 0 -74 -72l-10 -56q-11 -72 49 -72q61 0 74 72zM1047 143l9 56q14 72 -48 72q-61 0 -74 -72l-10 -56q-13 -72 49 -72q61 0 74 72z" />
    <glyph glyph-name="guilsinglleft" unicode="&#x2039;" horiz-adv-x="350" 
d="M105 252q25 -4 41 -24l115 -129q-36 -36 -83 -64l-170 219l246 218q37 -26 61 -64l-160 -129q-24 -20 -50 -23v-4z" />
    <glyph glyph-name="guilsinglright" unicode="&#x203a;" horiz-adv-x="350" 
d="M172 472l169 -218l-246 -219q-37 28 -61 64l161 129q23 19 49 24l1 2v2q-24 3 -41 23l-115 129q39 39 83 64z" />
    <glyph glyph-name="fraction" unicode="&#x2044;" horiz-adv-x="615" 
d="M549 700l-465 -725q-43 12 -74 37l466 725q45 -13 73 -37z" />
    <glyph glyph-name="Euro" unicode="&#x20ac;" horiz-adv-x="602" 
d="M437 614q-146 0 -173 -154l-6 -34h203q2 -25 -9 -50h-203l-11 -60h204q1 -24 -9 -50h-203l-5 -26q-29 -154 119 -154q83 0 176 54q18 -40 14 -89q-99 -61 -212 -61q-122 0 -181 60.5t-40 165.5l9 50h-95q-4 25 9 50h95l10 60h-95q-2 25 9 50h95l10 58q18 105 98.5 165.5
t202.5 60.5q113 0 191 -61q-13 -48 -48 -90q-73 55 -155 55z" />
    <glyph glyph-name="trademark" unicode="&#x2122;" horiz-adv-x="1041" 
d="M966 700q41 7 81 0l-92 -522q-46 -7 -89 0l56 317q4 20 10 34l-4 3l-173 -209q-5 -2 -23 -2q-19 0 -23 2l-99 209l-4 -3q1 -15 -2 -34l-56 -317q-47 -8 -90 0l92 522q42 7 83 0l103 -224q13 -30 13 -49h3q7 18 31 49zM490 700q-2 -41 -13 -71h-154l-80 -451q-45 -6 -89 0
l73 413q4 22 9 34l-3 4h-154q2 37 13 71h244h154z" />
    <glyph glyph-name="emptyset" unicode="&#x2205;" horiz-adv-x="614" 
d="M649 520l-95 -80q56 -75 38 -180q-20 -115 -116 -192.5t-216 -77.5q-100 0 -167 57l-97 -82q-16 15 -28 34l95 81q-56 75 -38 180q20 115 116 192.5t215 77.5q102 0 168 -58l97 82q16 -15 28 -34zM134 260q-12 -63 12 -110l300 255q-41 41 -105 41q-74 0 -133 -52
t-74 -134zM483 260q12 62 -11 109l-301 -255q40 -40 105 -40q74 0 133.5 52t73.5 134z" />
    <glyph glyph-name="product" unicode="&#x220f;" horiz-adv-x="631" 
d="M638 700l-159 -900q-45 -8 -87 0l145 822h-313l-145 -822q-45 -8 -87 0l159 900h487z" />
    <glyph glyph-name="summation" unicode="&#x2211;" horiz-adv-x="507" 
d="M-60 -191q0 35 12 68l294 328q36 39 53 48v4q-15 9 -35 48l-179 327q0 35 12 68h452q1 -39 -13 -78h-341l-3 -5q19 -11 37 -45l169 -317l-281 -318q-34 -36 -53 -45l1 -5h341q2 -40 -13 -78h-453z" />
    <glyph glyph-name="minus" unicode="&#x2212;" horiz-adv-x="648" 
d="M627 389q0 -43 -15 -87h-559q0 44 15 87h559z" />
    <glyph glyph-name="infinity" unicode="&#x221e;" horiz-adv-x="731" 
d="M553 509q76 0 117 -53.5t27 -134.5q-15 -82 -74.5 -135t-136.5 -53q-91 0 -125 82h-5q-60 -83 -153 -83q-77 0 -118 53.5t-27 135.5q14 81 74 134.5t137 53.5q92 0 125 -83h5q60 83 154 83zM227 224q43 0 74 29t38 68q7 38 -13 67.5t-64 29.5q-41 0 -69.5 -27.5
t-36.5 -69.5q-7 -43 11.5 -70t59.5 -27zM494 224q41 0 69 27.5t35 69.5q8 43 -10.5 70t-59.5 27q-44 0 -74.5 -29.5t-37.5 -67.5t13.5 -67.5t64.5 -29.5z" />
    <glyph glyph-name="integral" unicode="&#x222b;" horiz-adv-x="449" 
d="M32 -210q-64 0 -116 26q7 41 38 76q45 -20 80 -20q34 0 53.5 18.5t27.5 64.5l113 639q14 76 65.5 116t128.5 40q64 0 117 -26q-8 -44 -39 -76q-45 20 -79 20t-54 -19t-28 -64l-113 -639q-13 -76 -65 -116t-129 -40z" />
    <glyph glyph-name="approxequal" unicode="&#x2248;" horiz-adv-x="648" 
d="M221 391q-45 0 -78.5 20.5t-62.5 68.5q36 27 57 38q28 -37 84 -37q43 0 138.5 27t142.5 27q96 0 139 -90q-25 -22 -57 -38q-30 38 -84 38q-42 0 -138 -27t-141 -27zM182 171q-87 0 -140 90q25 22 56 38q30 -38 85 -38q42 0 137.5 27.5t142.5 27.5q96 0 139 -90
q-28 -25 -56 -38q-31 38 -85 38q-42 0 -138 -27.5t-141 -27.5z" />
    <glyph glyph-name="notequal" unicode="&#x2260;" horiz-adv-x="649" 
d="M633 422h-220l-98 -153h292q-2 -45 -16 -87h-332l-115 -179q-23 6 -40 20l102 159h-174q0 45 16 87h213l98 153h-285q2 49 16 87h324l100 156q20 -4 41 -21l-87 -135h181q-2 -49 -16 -87z" />
    <glyph glyph-name="lessequal" unicode="&#x2264;" horiz-adv-x="648" 
d="M675 660q0 -42 -16 -94l-478 -174l416 -174q0 -45 -17 -94l-519 224q0 45 16 87zM0 0q0 44 15 87h559q0 -43 -15 -87h-559z" />
    <glyph glyph-name="greaterequal" unicode="&#x2265;" horiz-adv-x="648" 
d="M116 660l519 -225q0 -43 -15 -87l-599 -224q0 45 17 94l478 174l-416 174q-1 43 16 94zM0 0q0 44 15 87h559q0 -43 -15 -87h-559z" />
    <glyph glyph-name="lozenge" unicode="&#x25ca;" horiz-adv-x="514" 
d="M345 745l181 -387l-317 -387l-181 387zM266 170l145 188l-79 188q-12 26 -10 54h-4q-10 -29 -30 -54l-145 -188l79 -188q12 -26 10 -54h4q10 29 30 54z" />
    <glyph glyph-name="i.loclTRK" horiz-adv-x="236" 
d="M180 597q-55 0 -55 49q0 80 78 80q54 0 54 -50q0 -79 -77 -79zM103 490q49 26 117 26l-90 -516q-58 -9 -113 0z" />
    <glyph glyph-name="com_o" horiz-adv-x="600" 
d="M-7 250v78q0 83 57 135t166 52v-87q-58 0 -84.5 -27.5t-26.5 -87.5v-63h-112z" />
    <glyph glyph-name="com_lacznik_b" horiz-adv-x="600" 
d="M270 432q-57 0 -103 -28v70q57 45 136 45z" />
    <glyph glyph-name="com_l" horiz-adv-x="395" 
d="M174 740v-740q-57 -9 -112 0v740q55 9 112 0z" />
    <glyph glyph-name="com_b_brzuch" horiz-adv-x="600" 
d="M-7 250v83q0 83 47.5 132.5t142.5 49.5l33 -87q-58 0 -84.5 -27.5t-26.5 -87.5v-63h-112z" />
    <glyph glyph-name="com_O" horiz-adv-x="600" 
d="M156 350v139q0 103 69 162t191 59v-96q-73 -1 -107 -37.5t-34 -110.5v-116h-119z" />
    <glyph glyph-name="com_i" horiz-adv-x="236" 
d="M103 490q49 26 117 26l-90 -516q-58 -9 -113 0z" />
    <glyph glyph-name="com_n" horiz-adv-x="568" 
d="M337 519q148 0 148 -137v-382q-56 -9 -112 0v340q0 49 -21 67.5t-64 18.5q-64 0 -119 -32v72q67 53 168 53z" />
    <glyph glyph-name="com_gora_skos" horiz-adv-x="381" 
d="M56 640v74q47 26 113 26v-100h-113z" />
    </font>
</defs>
</svg>
