<?xml version="1.0" standalone="no"?>
<!DOCTYPE svg PUBLIC "-//W3C//DTD SVG 1.1//EN" "http://www.w3.org/Graphics/SVG/1.1/DTD/svg11.dtd" >
<svg xmlns="http://www.w3.org/2000/svg" xmlns:xlink="http://www.w3.org/1999/xlink" version="1.1">
<metadata>
Created by FontForge 20170731 at Wed Jul 27 18:01:12 2016
 By Aleksey,,,
copyright missing
</metadata>
<defs>
<font id="AnebaNeue-SemiBolditalic" horiz-adv-x="0" >
  <font-face 
    font-family="AnebaNeue-SemiBolditalic"
    font-weight="400"
    font-style="italic"
    font-stretch="normal"
    units-per-em="1000"
    panose-1="0 0 7 0 0 0 0 0 0 0"
    ascent="781"
    descent="-219"
    x-height="516"
    cap-height="700"
    bbox="-248 -286 1221.2 997"
    underline-thickness="50"
    underline-position="-150"
    slope="-10"
    unicode-range="U+0020-25CA"
  />
<missing-glyph horiz-adv-x="470" 
d="M385 740v-940h-298v940h298zM313 677h-155v-31h61v-35h-62v-31h156v31h-62v35h62v31zM251 556h-94v-98h156v32h-62v66zM219 524v-34h-31v34h31zM313 433h-156v-31h62v-35h-62v-31h94v66h62v31zM313 376h-31v-62h-125v-32h156v94zM313 262h-94v-53h32v22h31v-45h-94v76
h-31v-107h156v107zM313 99h-156v-106h156v106zM282 68v-44h-94v44h94zM313 -29h-156v-31h66l-66 -44v-31h156v31h-96l66 44h30v31z" />
    <glyph glyph-name=".notdef" horiz-adv-x="470" 
d="M385 740v-940h-298v940h298zM313 677h-155v-31h61v-35h-62v-31h156v31h-62v35h62v31zM251 556h-94v-98h156v32h-62v66zM219 524v-34h-31v34h31zM313 433h-156v-31h62v-35h-62v-31h94v66h62v31zM313 376h-31v-62h-125v-32h156v94zM313 262h-94v-53h32v22h31v-45h-94v76
h-31v-107h156v107zM313 99h-156v-106h156v106zM282 68v-44h-94v44h94zM313 -29h-156v-31h66l-66 -44v-31h156v31h-96l66 44h30v31z" />
    <glyph glyph-name=".null" 
 />
    <glyph glyph-name="nonmarkingreturn" horiz-adv-x="333" 
 />
    <glyph glyph-name="space" unicode=" " horiz-adv-x="209" 
 />
    <glyph glyph-name="exclam" unicode="!" horiz-adv-x="284" 
d="M302 700l-97 -453q-65 -8 -127 0l63 453q83 8 161 0zM95 -10q-81 0 -66 79q14 80 93 80q80 0 66 -80q-15 -79 -93 -79z" />
    <glyph glyph-name="quotedbl" unicode="&#x22;" horiz-adv-x="362" 
d="M83 497l24 203q67 7 133 0l-50 -203q-53 -7 -107 0zM254 497l24 203q67 7 133 0l-50 -203q-53 -7 -107 0z" />
    <glyph glyph-name="numbersign" unicode="#" horiz-adv-x="730" 
d="M747 435h-114l-45 -170h115q-7 -55 -30 -111h-114l-41 -154q-73 -7 -144 0l41 154h-171l-41 -154q-74 -7 -143 0l41 154h-115q6 54 29 111h115l45 170h-115q8 59 29 111h115l41 154q73 7 143 0l-41 -154h172l41 154q74 7 143 0l-41 -154h115q-7 -56 -30 -111zM444 265
l46 170h-172l-45 -170h171z" />
    <glyph glyph-name="dollar" unicode="$" horiz-adv-x="539" 
d="M327 434q8 -3 32 -12.5t35 -14t33 -15.5t33 -20t27 -24t23.5 -30t13.5 -36.5t6 -45.5q0 -111 -79 -178.5t-227 -67.5q-28 0 -53 3l-34 -97q-25 -2 -47 8l34 96q-67 15 -123 55q19 71 61 123q50 -35 107 -50l58 166q-66 28 -104 67t-38 108q0 105 75 172.5t213 68.5l29 81
q26 1 48 -9l-26 -74q92 -9 156 -59q-18 -65 -61 -119q-71 51 -138 56zM251 507q0 -30 33 -51l45 127q-37 -8 -57.5 -27.5t-20.5 -48.5zM240 118q60 0 92 22.5t32 57.5q0 18 -14 33.5t-30.5 24t-47.5 21.5l-56 -158q8 -1 24 -1z" />
    <glyph glyph-name="percent" unicode="%" horiz-adv-x="886" 
d="M795 662l-589 -671q-44 23 -75 60l588 671q44 -25 76 -60zM281 710q77 0 112.5 -40t25.5 -98l-15 -90q-10 -58 -60.5 -98t-127.5 -40q-78 0 -113.5 40t-25.5 98l16 90q10 58 60 98t128 40zM290 501l10 52q9 57 -37 57t-57 -57l-9 -52q-9 -57 37 -57q47 0 56 57zM704 357
q77 0 113 -40t26 -98l-16 -90q-10 -58 -60 -98t-127 -40q-78 0 -114 40t-26 98l16 90q10 58 60 98t128 40zM713 148l9 52q11 57 -35 57q-47 0 -58 -57l-8 -52q-9 -58 36 -58q47 0 56 58z" />
    <glyph glyph-name="ampersand" unicode="&#x26;" horiz-adv-x="593" 
d="M509 151l109 -151q-92 -9 -179 0l-36 50q-94 -60 -204 -60q-89 0 -147.5 39t-58.5 116q0 75 45 128.5t125 104.5q-53 80 -53 146q0 79 68 132.5t169 53.5q80 0 126.5 -37t46.5 -100q0 -67 -43.5 -112t-123.5 -91l79 -111q25 45 41 101q14 4 68.5 4t67.5 -4
q-32 -120 -100 -209zM256 535q0 -29 35 -79q41 27 61.5 49.5t20.5 51.5q0 22 -12 35.5t-35 13.5q-32 0 -51 -20.5t-19 -50.5zM239 118q50 0 93 28l-109 148q-75 -52 -75 -108q0 -31 24 -49.5t67 -18.5z" />
    <glyph glyph-name="quotesingle" unicode="'" horiz-adv-x="191" 
d="M83 497l24 203q67 7 133 0l-50 -203q-53 -7 -107 0z" />
    <glyph glyph-name="parenleft" unicode="(" horiz-adv-x="301" 
d="M162 325q-43 -249 44 -497q-35 -15 -80 -18q-125 247 -78 515t260 515q44 -3 72 -18q-173 -248 -218 -497z" />
    <glyph glyph-name="parenright" unicode=")" horiz-adv-x="301" 
d="M198 840q125 -247 78 -515t-260 -515q-44 3 -72 18q173 248 218 497q43 249 -43 497q33 15 79 18z" />
    <glyph glyph-name="asterisk" unicode="*" horiz-adv-x="419" 
d="M251 750q48 7 91 0l-46 -157h-55zM113 665l128 -72l-25 -50l-149 36q18 44 46 86zM449 665q16 -48 16 -86l-162 -36l-7 50zM84 429l132 114l38 -33l-106 -135q-33 18 -64 54zM395 429q-44 -36 -81 -54l-60 135l49 33z" />
    <glyph glyph-name="plus" unicode="+" horiz-adv-x="652" 
d="M637 396q-1 -52 -19 -113h-232l-41 -231q-58 -8 -112 0l41 231h-231q1 52 19 113h232l41 231q58 8 112 0l-41 -231h231z" />
    <glyph glyph-name="comma" unicode="," horiz-adv-x="240" 
d="M-63 -87l138 227q60 -26 91 -55l-167 -212q-37 15 -62 40z" />
    <glyph glyph-name="hyphen" unicode="-" horiz-adv-x="451" 
d="M436 396q-1 -52 -19 -113h-374q1 52 19 113h374z" />
    <glyph glyph-name="period" unicode="." horiz-adv-x="245" 
d="M76 -10q-81 0 -66 79q14 80 93 80q80 0 66 -80q-15 -79 -93 -79z" />
    <glyph glyph-name="slash" unicode="/" horiz-adv-x="455" 
d="M523 697l-465 -725q-51 15 -90 45l465 725q51 -18 90 -45z" />
    <glyph glyph-name="zero" unicode="0" horiz-adv-x="629" 
d="M394 710q114 0 175 -62t43 -168l-47 -260q-18 -106 -101 -168t-197 -62t-175 62t-42 168l46 260q18 106 101 168t197 62zM411 250l34 200q23 132 -73 132q-99 -2 -120 -132l-36 -200q-23 -132 74 -132q97 1 121 132z" />
    <glyph glyph-name="one" unicode="1" horiz-adv-x="484" 
d="M329 700q60 7 120 0l-124 -700q-82 -8 -161 0l86 485q5 25 13 47l-4 5l-162 -63q4 71 26 149z" />
    <glyph glyph-name="two" unicode="2" horiz-adv-x="592" 
d="M511 128q-3 -65 -22 -128h-480q2 45 16 87q31 27 83 67.5t88.5 69.5t80 68.5t70 72t45 71.5t18.5 75q0 75 -83 75q-69 0 -181 -66q-32 55 -28 111q132 79 263 79q96 0 146 -40t50 -117q0 -119 -84 -221.5t-243 -198.5l1 -5h260z" />
    <glyph glyph-name="three" unicode="3" horiz-adv-x="613" 
d="M427 361q50 -11 85 -50.5t35 -100.5q0 -103 -83.5 -162.5t-211.5 -59.5q-131 0 -236 78q15 55 67 112q47 -35 84.5 -51t81.5 -16q59 0 98.5 26t39.5 73q0 43 -41 67t-109 25q1 47 17 98q171 16 171 120q0 32 -21.5 49t-61.5 17q-69 0 -179 -65q-31 56 -27 111
q128 78 251 78q98 0 151.5 -40.5t53.5 -111.5q0 -77 -49 -127.5t-115 -64.5z" />
    <glyph glyph-name="four" unicode="4" horiz-adv-x="642" 
d="M606 243q-3 -60 -20 -112h-104l-23 -131q-81 -8 -161 0l23 131h-328q2 45 16 87l453 482q61 7 120 0l-80 -457h104zM171 243h170l31 173q6 32 13 47l-4 5z" />
    <glyph glyph-name="five" unicode="5" horiz-adv-x="581" 
d="M230 -12q-128 0 -229 78q15 55 67 112q89 -67 161 -67q63 0 106 32.5t43 87.5q0 38 -25.5 61t-81 28.5t-143.5 -20.5l-55 27l112 373h390q-3 -57 -22 -128h-271l-43 -148q84 15 142 8t93.5 -35t51.5 -64t16 -80q0 -115 -90 -190t-222 -75z" />
    <glyph glyph-name="six" unicode="6" horiz-adv-x="610" 
d="M563 576q-247 -16 -319 -211q68 46 145 46q92 0 138 -53.5t30 -148.5q-19 -104 -93.5 -161.5t-185.5 -57.5q-125 0 -184.5 70t-32.5 220q35 193 184.5 305t339.5 115q-4 -66 -22 -124zM403 199q7 44 -11.5 70t-56.5 26q-54 0 -117 -40q-10 -81 9.5 -117t69.5 -36
q41 0 69.5 27t36.5 70z" />
    <glyph glyph-name="seven" unicode="7" horiz-adv-x="554" 
d="M606 700q0 -44 -15 -87q-126 -151 -205.5 -299t-119.5 -314q-90 -7 -177 0q77 291 265 522q22 28 53 45l-1 5h-315q3 61 23 128h492z" />
    <glyph glyph-name="eight" unicode="8" horiz-adv-x="653" 
d="M494 359q91 -60 91 -143q0 -110 -89.5 -169t-216.5 -59q-103 0 -169.5 43.5t-66.5 126.5q0 72 37 115.5t114 85.5l1 5q-73 54 -73 131q0 92 81 153.5t203 61.5q99 0 158 -46t59 -120q0 -112 -128 -180zM345 558q-59 -34 -44 -91q10 -22 40 -28.5t54 15.5q27 12 41.5 38.5
t1.5 50.5q-17 20 -44 25.5t-49 -10.5zM301 111q47 0 83.5 30.5t36.5 74.5q0 37 -27 58t-61 21q-44 0 -82.5 -29t-38.5 -76q0 -34 25.5 -56.5t63.5 -22.5z" />
    <glyph glyph-name="nine" unicode="9" horiz-adv-x="610" 
d="M363 700q124 0 183.5 -70t33.5 -220q-35 -193 -184.5 -305t-339.5 -115q2 59 22 124q246 16 318 210q-69 -45 -144 -45q-92 0 -138.5 53.5t-29.5 148.5q18 104 93 161.5t186 57.5zM238 491q-8 -44 10.5 -70t57.5 -26q53 0 116 40q10 81 -9.5 117t-69.5 36q-41 0 -69 -27
t-36 -70z" />
    <glyph glyph-name="colon" unicode=":" horiz-adv-x="248" 
d="M141 357q-81 0 -66 79q14 80 93 80q80 0 66 -80q-15 -79 -93 -79zM78 -10q-81 0 -66 79q14 80 93 80q80 0 66 -80q-15 -79 -93 -79z" />
    <glyph glyph-name="semicolon" unicode=";" horiz-adv-x="247" 
d="M142 357q-81 0 -66 79q14 80 93 80q80 0 66 -80q-15 -79 -93 -79zM-63 -87l138 227q60 -26 91 -55l-167 -212q-37 15 -62 40z" />
    <glyph glyph-name="less" unicode="&#x3c;" horiz-adv-x="652" 
d="M677 623q-2 -61 -21 -121l-455 -163l398 -162q-3 -63 -22 -121l-534 227q1 52 19 113z" />
    <glyph glyph-name="equal" unicode="=" horiz-adv-x="652" 
d="M64 403q1 54 20 113h575q-3 -54 -20 -113h-575zM21 163q3 54 20 113h575q-1 -54 -20 -113h-575z" />
    <glyph glyph-name="greater" unicode="&#x3e;" horiz-adv-x="652" 
d="M103 623l534 -227q-1 -52 -19 -113l-615 -227q2 60 21 121l455 163l-398 162q3 64 22 121z" />
    <glyph glyph-name="question" unicode="?" horiz-adv-x="458" 
d="M323 513q7 38 -16.5 57.5t-68.5 19.5q-66 0 -151 -42q-6 55 4 119q86 43 206 43q103 0 154.5 -43.5t37.5 -126.5q-8 -43 -31.5 -79t-52 -61t-57.5 -47.5t-52.5 -49.5t-30.5 -56q-64 -7 -127 0q9 40 30 73t45 55.5t47 43t40.5 44t22.5 50.5zM164 -10q-81 0 -66 79
q14 80 93 80q80 0 66 -80q-15 -79 -93 -79z" />
    <glyph glyph-name="at" unicode="@" horiz-adv-x="903" 
d="M342 -10q-63 0 -103.5 39.5t-28.5 105.5l5 26q13 68 63.5 106.5t119.5 38.5q73 0 116 -43l6 5q-2 22 3 45l5 27q7 37 -7.5 55t-66.5 18q-68 0 -151 -36q-18 53 -10 98q93 51 210 51q194 0 164 -171l-36 -202q-11 -59 31 -59q20 0 32 14t19 47l58 329q10 57 -11 82.5
t-74 25.5h-351q-53 0 -82.5 -25.5t-39.5 -82.5l-86 -484q-69 -9 -135 0l86 492q20 111 94.5 165t175.5 54h367q101 0 156 -54t36 -165l-60 -344q-16 -87 -74.5 -122.5t-136.5 -35.5q-104 0 -135 61q-74 -61 -159 -61zM403 85q35 0 86 30l10 66q-35 29 -74 29q-32 0 -51 -16
t-23 -38l-3 -16q-4 -23 10 -39t45 -16z" />
    <glyph glyph-name="A" unicode="A" horiz-adv-x="657" 
d="M495 700l114 -700q-88 -8 -172 0l-23 145h-215l-74 -145q-82 -8 -161 0l358 700q88 8 173 0zM256 257h141l-27 163q-5 30 0 73h-5q-12 -49 -25 -73z" />
    <glyph glyph-name="B" unicode="B" horiz-adv-x="627" 
d="M478 356q54 -10 83.5 -47.5t21.5 -86.5l-10 -56q-14 -79 -83 -122.5t-185 -43.5h-291l123 700h258q116 0 169.5 -44.5t39.5 -128.5l-9 -48q-7 -41 -38 -73.5t-78 -44.5zM370 576h-93l-20 -111q-6 -30 -13 -45l4 -5h93q85 0 99 71l3 19q7 34 -12 52.5t-61 18.5zM418 196
l3 19q5 35 -13 53.5t-60 18.5h-122l-20 -113q-5 -25 -13 -45l4 -5h123q87 0 98 72z" />
    <glyph glyph-name="C" unicode="C" horiz-adv-x="539" 
d="M301 118q72 0 164 51q24 -50 19 -118q-103 -61 -215 -61q-126 0 -192 61.5t-47 171.5l46 254q19 110 106.5 171.5t213.5 61.5q113 0 193 -61q-18 -67 -60 -119q-75 52 -146 52q-129 0 -151 -134l-35 -196q-26 -134 104 -134z" />
    <glyph glyph-name="D" unicode="D" horiz-adv-x="634" 
d="M427 700q115 0 171 -58.5t39 -158.5l-47 -266q-18 -100 -94.5 -158.5t-191.5 -58.5h-290l123 700h290zM436 255l33 190q23 128 -87 128h-106l-70 -395q-6 -30 -13 -45l4 -5h106q110 0 133 127z" />
    <glyph glyph-name="E" unicode="E" horiz-adv-x="540" 
d="M494 128q-3 -59 -22 -128h-458l123 700h448q-3 -59 -22 -128h-287l-17 -98q-5 -25 -13 -45l4 -5h246q-3 -59 -22 -128h-247l-21 -118q-6 -30 -13 -45l4 -5h297z" />
    <glyph glyph-name="F" unicode="F" horiz-adv-x="530" 
d="M276 572l-22 -126q-6 -30 -13 -45l4 -5h266q-3 -65 -22 -128h-266l-48 -268q-81 -8 -161 0l123 700h448q-3 -59 -22 -128h-287z" />
    <glyph glyph-name="G" unicode="G" horiz-adv-x="591" 
d="M422 341q74 8 144 0l-51 -290q-99 -61 -241 -61q-126 0 -194.5 62t-49.5 171l46 254q19 110 106.5 171.5t215.5 61.5q127 0 205 -61q-17 -64 -60 -119q-74 52 -157 52q-132 0 -154 -134l-35 -196q-12 -67 13 -100.5t95 -33.5q41 0 80 12z" />
    <glyph glyph-name="H" unicode="H" horiz-adv-x="686" 
d="M544 700q81 8 161 0l-123 -700q-83 -8 -161 0l43 248q5 25 13 45l-4 5h-245l-53 -298q-81 -8 -161 0l123 700q83 8 162 0l-40 -224q-6 -30 -12 -45l4 -5h245z" />
    <glyph glyph-name="I" unicode="I" horiz-adv-x="280" 
d="M298 700l-123 -700q-81 -8 -161 0l123 700q83 8 161 0z" />
    <glyph glyph-name="J" unicode="J" horiz-adv-x="371" 
d="M36 118q92 7 110 113l84 469q80 8 160 0l-87 -492q-19 -110 -94.5 -164t-194.5 -54q2 62 22 128z" />
    <glyph glyph-name="K" unicode="K" horiz-adv-x="653" 
d="M137 700q83 8 161 0l-123 -700q-81 -8 -161 0zM438 371q12 -5 18.5 -15t15.5 -32l124 -324q-90 -8 -177 0l-144 365l270 335q87 7 172 0l-221 -276q-30 -39 -57 -48l-1 -2v-3z" />
    <glyph glyph-name="L" unicode="L" horiz-adv-x="518" 
d="M479 128q-3 -59 -22 -128h-443l123 700q83 8 161 0l-92 -522q-6 -30 -13 -45l4 -5h282z" />
    <glyph glyph-name="M" unicode="M" horiz-adv-x="816" 
d="M684 700q77 9 151 0l-123 -700q-82 -10 -161 0l61 349q6 28 14 46l-5 4l-188 -233q-12 -3 -41 -3t-41 3l-106 233l-5 -4q1 -20 -4 -46l-61 -349q-82 -10 -161 0l123 700q77 9 152 0l118 -271q19 -48 17 -68h5q7 23 42 68z" />
    <glyph glyph-name="N" unicode="N" horiz-adv-x="694" 
d="M561 700q77 9 152 0l-123 -700q-69 -8 -135 0l-217 409l-5 -4q2 -23 -3 -46l-64 -359q-78 -9 -152 0l123 700q69 8 134 0l218 -409l6 4q-2 19 3 46z" />
    <glyph glyph-name="O" unicode="O" horiz-adv-x="629" 
d="M394 710q128 0 192.5 -61.5t45.5 -168.5l-47 -260q-19 -107 -104.5 -168.5t-213.5 -61.5t-192 61.5t-45 168.5l46 260q19 107 104.5 168.5t213.5 61.5zM431 250l34 200q12 67 -10 100t-83 32q-62 -1 -95.5 -33.5t-44.5 -98.5l-36 -200q-12 -67 10 -100t84 -32t95.5 33.5
t45.5 98.5z" />
    <glyph glyph-name="P" unicode="P" horiz-adv-x="576" 
d="M396 700q119 0 175 -52t41 -139l-15 -86q-15 -88 -89 -140t-194 -52h-98l-41 -231q-81 -8 -161 0l123 700h259zM440 448l6 36q16 88 -80 88h-90l-29 -163q-6 -30 -13 -45l4 -5h90q96 0 112 89z" />
    <glyph glyph-name="Q" unicode="Q" horiz-adv-x="654" 
d="M394 710q128 0 192.5 -61.5t45.5 -168.5l-47 -260q-18 -105 -103 -168l70 -165q-89 -8 -162 0l-48 109q-34 -6 -75 -6q-128 0 -192 61.5t-45 168.5l46 260q19 107 104.5 168.5t213.5 61.5zM196 250q-12 -67 10 -100t84 -32t95.5 33.5t45.5 98.5l34 200q12 67 -10 100
t-83 32q-62 -1 -95.5 -33.5t-44.5 -98.5z" />
    <glyph glyph-name="R" unicode="R" horiz-adv-x="626" 
d="M435 288q46 -17 63.5 -59t63.5 -229q-82 -7 -162 0q-30 120 -50 171t-40 66.5t-59 15.5h-31l-45 -253q-81 -8 -161 0l123 700h259q118 0 174.5 -50.5t42.5 -129.5l-15 -86q-10 -56 -53 -94t-109 -47zM243 381h90q96 0 109 78l6 36q6 37 -14.5 57t-67.5 20h-90l-24 -141
q-5 -25 -13 -45z" />
    <glyph glyph-name="S" unicode="S" horiz-adv-x="575" 
d="M251 507q0 -28 28.5 -48t69.5 -35t82.5 -34.5t70 -58.5t28.5 -95q0 -111 -79 -178.5t-227 -67.5q-132 0 -223 65q19 71 61 123q86 -60 178 -60q60 0 92 22.5t32 57.5q0 20 -15.5 36t-40 27t-54 22t-59.5 26.5t-54.5 35t-40 51.5t-15.5 73q0 107 76.5 174t218.5 67
q123 0 200 -61q-18 -65 -61 -119q-78 56 -152 56q-53 0 -84.5 -21t-31.5 -58z" />
    <glyph glyph-name="T" unicode="T" horiz-adv-x="580" 
d="M644 700q-3 -59 -22 -128h-196l-101 -572q-81 -8 -161 0l92 522q6 30 13 45l-4 5h-196q4 58 22 128h357h196z" />
    <glyph glyph-name="U" unicode="U" horiz-adv-x="681" 
d="M539 700q81 8 161 0l-83 -470q-20 -110 -101.5 -175t-222.5 -65t-200 65t-39 175l83 470q82 8 160 0l-78 -447q-13 -71 11 -103.5t85 -31.5q62 1 97 32.5t48 102.5z" />
    <glyph glyph-name="V" unicode="V" horiz-adv-x="643" 
d="M550 700q83 8 161 0l-337 -700q-87 -8 -171 0l-115 700q88 8 175 0l59 -432q4 -38 0 -73h5q9 38 26 73z" />
    <glyph glyph-name="W" unicode="W" horiz-adv-x="892" 
d="M795 700q84 8 165 0l-291 -700q-84 -8 -165 0l-30 320q-4 51 0 82h-4q-9 -34 -29 -82l-144 -320q-83 -8 -164 0l-45 700q84 8 165 0l11 -386q0 -82 -1 -93h5q10 46 30 93l137 314q33 4 77 4q43 0 75 -4l27 -314q4 -42 -2 -93h5q7 28 31 93z" />
    <glyph glyph-name="X" unicode="X" horiz-adv-x="648" 
d="M447 357q19 -6 35 -47l109 -310q-93 -8 -183 0l-85 258l-180 -258q-89 -7 -176 0l219 310q30 41 51 47l1 6q-26 9 -41 47l-106 290q93 8 182 0l86 -252l183 252q87 7 172 0l-209 -290q-27 -38 -57 -47z" />
    <glyph glyph-name="Y" unicode="Y" horiz-adv-x="630" 
d="M698 700l-291 -430l-47 -270q-82 -10 -160 0l47 270l-159 430q91 8 178 0l81 -247q6 -18 1 -73h5q11 50 25 73l152 247q86 8 168 0z" />
    <glyph glyph-name="Z" unicode="Z" horiz-adv-x="576" 
d="M535 128q-3 -65 -22 -128h-533q2 44 15 87l349 435q22 28 53 45l-1 5h-294q3 61 23 128h502q0 -44 -15 -87l-348 -435q-26 -32 -54 -45l1 -5h324z" />
    <glyph glyph-name="bracketleft" unicode="[" horiz-adv-x="304" 
d="M368 751h-115l-152 -862h115q0 -47 -16 -89h-135h-87l184 1040h107h115q0 -45 -16 -89z" />
    <glyph glyph-name="backslash" unicode="\" horiz-adv-x="440" 
d="M88 697q40 26 95 37l210 -725q-34 -24 -96 -37z" />
    <glyph glyph-name="bracketright" unicode="]" horiz-adv-x="304" 
d="M347 840l-184 -1040h-106h-116q2 46 16 89h116l152 862h-116q2 47 16 89h222z" />
    <glyph glyph-name="asciicircum" unicode="^" horiz-adv-x="499" 
d="M339 750l203 -224q-42 -52 -98 -95l-111 146q-14 18 -14 48h-4q-11 -30 -31 -48l-162 -146q-38 40 -65 95z" />
    <glyph glyph-name="underscore" unicode="_" horiz-adv-x="381" 
d="M331 0q-1 -53 -19 -112h-373q2 57 18 112h374z" />
    <glyph glyph-name="grave" unicode="`" horiz-adv-x="372" 
d="M317 636q-13 -33 -41 -62l-224 152q22 46 61 87z" />
    <glyph glyph-name="a" unicode="a" horiz-adv-x="517" 
d="M310 526q96 0 144 -38.5t31 -132.5l-62 -355q-78 -8 -152 0q1 12 10 32l-4 5q-63 -47 -137 -47q-70 0 -108 38.5t-27 106.5l5 26q11 68 63 106.5t124 38.5q77 0 120 -43l6 5q-3 21 2 45l5 27q7 37 -7.5 55t-66.5 18q-69 0 -150 -36q-18 49 -11 98q95 51 215 51zM290 115
l12 66q-35 29 -73 29q-30 0 -49 -16t-23 -38l-2 -16q-4 -23 8.5 -39t42.5 -16q40 0 84 30z" />
    <glyph glyph-name="b" unicode="b" horiz-adv-x="558" 
d="M378 526q96 0 134.5 -51t23.5 -134l-30 -166q-15 -84 -70.5 -134.5t-151.5 -50.5q-77 0 -121 47l-6 -5q2 -13 -1 -32q-78 -9 -152 0l124 706q73 34 159 34l-37 -211q-6 -30 -13 -45l4 -5q61 47 137 47zM359 198l21 120q17 95 -70 95q-44 0 -86 -28l-45 -255
q35 -28 76 -28q86 0 104 96z" />
    <glyph glyph-name="c" unicode="c" horiz-adv-x="456" 
d="M265 102q58 0 121 33q23 -49 14 -98q-71 -47 -171 -47q-113 0 -166 55t-39 138l26 150q15 83 88 138t185 55q100 0 155 -47q-10 -52 -50 -99q-47 33 -108 33q-103 0 -120 -95l-22 -120q-16 -96 87 -96z" />
    <glyph glyph-name="d" unicode="d" horiz-adv-x="557" 
d="M436 706q70 34 157 34l-130 -740q-79 -9 -152 0q1 12 10 32l-4 5q-61 -47 -138 -47q-96 0 -133.5 50.5t-22.5 134.5l29 166q14 84 70 134.5t151 50.5q78 0 122 -47l6 5q-2 18 3 45zM334 130l44 255q-31 28 -76 28q-86 0 -103 -95l-21 -120q-17 -96 70 -96q42 0 86 28z
" />
    <glyph glyph-name="e" unicode="e" horiz-adv-x="517" 
d="M185 227l-6 -5l-5 -24q-9 -51 15 -73.5t84 -22.5q73 0 142 41q23 -46 14 -98q-81 -55 -198 -55q-114 0 -167.5 55t-39.5 138l26 148q15 83 86 139t182 56q103 0 149 -55t31 -138l-19 -111h-250q-25 0 -44 5zM299 421q-84 0 -102 -94l-1 -5h111q25 0 44 -5l5 5l1 8
q18 91 -58 91z" />
    <glyph glyph-name="f" unicode="f" horiz-adv-x="398" 
d="M285 516h144q-3 -60 -21 -120h-144l-70 -396q-77 -9 -152 0l61 346q6 30 13 45l-4 5h-69q1 58 21 120h69l13 71q13 78 70 120.5t147 42.5q70 0 123 -28q-9 -51 -49 -98q-39 19 -72 19q-29 0 -45.5 -15.5t-23.5 -51.5l-3 -18q-3 -20 -12 -37z" />
    <glyph glyph-name="g" unicode="g" horiz-adv-x="557" 
d="M402 516q77 9 152 0l-97 -548q-17 -94 -91 -136t-175 -42q-116 0 -193 52q8 46 45 98q67 -38 147 -38q105 0 117 73l1 12q5 25 13 45l-4 5q-61 -47 -137 -47q-96 0 -133.5 50.5t-23.5 134.5l29 166q14 84 70 134.5t152 50.5q77 0 121 -47l6 5q-3 13 1 32zM334 130l45 255
q-33 28 -76 28q-86 0 -104 -95l-21 -120q-17 -96 71 -96q41 0 85 28z" />
    <glyph glyph-name="h" unicode="h" horiz-adv-x="560" 
d="M407 526q151 0 127 -137l-68 -389q-79 -9 -152 0l57 327q8 43 -4.5 59t-47.5 16q-46 0 -97 -27l-66 -375q-78 -9 -152 0l124 706q73 34 159 34l-39 -217q-6 -30 -13 -45l5 -5q75 53 167 53z" />
    <glyph glyph-name="i" unicode="i" horiz-adv-x="263" 
d="M190 581q-67 0 -67 60q0 99 95 99q68 0 68 -62q0 -97 -96 -97zM94 490q68 34 158 34l-92 -524q-79 -9 -152 0z" />
    <glyph glyph-name="j" unicode="j" horiz-adv-x="260" 
d="M191 600q-52 0 -52 46q0 75 72 75q52 0 52 -47q0 -74 -72 -74zM91 490q68 34 158 34l-93 -524l-4 -24q-16 -95 -75.5 -140.5t-166.5 -45.5q1 47 18 107q31 3 48 21t25 61z" />
    <glyph glyph-name="k" unicode="k" horiz-adv-x="543" 
d="M128 706q73 34 158 34l-130 -740q-78 -9 -152 0zM418 239l79 -239q-80 -10 -164 0l-94 281l182 235q84 10 155 0l-133 -177q-30 -39 -57 -47l-1 -6q20 -7 33 -47z" />
    <glyph glyph-name="l" unicode="l" horiz-adv-x="251" 
d="M128 706q73 34 158 34l-130 -740q-78 -9 -152 0z" />
    <glyph glyph-name="m" unicode="m" horiz-adv-x="845" 
d="M692 526q152 0 127 -137l-68 -389q-78 -9 -152 0l57 327q9 45 -2 60t-45 15q-39 0 -90 -27l-66 -375q-77 -9 -152 0l58 327q8 45 -3 60t-44 15q-40 0 -89 -27l-67 -375q-78 -9 -152 0l86 490q68 34 158 34q-4 -30 -13 -46l5 -5q73 53 154 53q105 0 126 -63q84 63 172 63z
" />
    <glyph glyph-name="n" unicode="n" horiz-adv-x="560" 
d="M407 526q151 0 127 -137l-68 -389q-79 -9 -152 0l57 327q8 43 -4.5 59t-47.5 16q-46 0 -97 -27l-66 -375q-78 -9 -152 0l86 490q68 34 158 34q-4 -30 -13 -46l5 -5q75 53 167 53z" />
    <glyph glyph-name="o" unicode="o" horiz-adv-x="552" 
d="M323 526q114 0 166.5 -55t38.5 -138l-26 -150q-14 -83 -86.5 -138t-186.5 -55q-115 0 -167 55t-38 138l26 150q15 83 87 138t186 55zM352 198l22 120q17 95 -71 95q-86 0 -103 -95l-22 -120q-16 -96 71 -96q86 0 103 96z" />
    <glyph glyph-name="p" unicode="p" horiz-adv-x="557" 
d="M378 526q96 0 134 -50.5t23 -134.5l-29 -166q-15 -84 -70.5 -134.5t-151.5 -50.5q-78 0 -122 47l-6 -5q2 -22 -3 -45l-27 -153q-70 -34 -158 -34l122 690q68 34 158 34q-2 -24 -12 -40l4 -5q61 47 138 47zM358 198l21 120q17 95 -70 95q-43 0 -85 -28l-46 -255
q35 -28 76 -28q87 0 104 96z" />
    <glyph glyph-name="q" unicode="q" horiz-adv-x="557" 
d="M402 516q76 9 152 0l-120 -682q-73 -34 -158 -34l32 187q3 24 13 45l-4 5q-61 -47 -138 -47q-96 0 -133.5 50.5t-22.5 134.5l29 166q14 84 70 134.5t151 50.5q78 0 122 -47l6 5q-3 13 1 32zM334 130l44 255q-31 28 -76 28q-86 0 -103 -95l-21 -120q-17 -96 70 -96
q42 0 86 28z" />
    <glyph glyph-name="r" unicode="r" horiz-adv-x="375" 
d="M229 439q67 95 190 79q-16 -81 -53 -141q-84 11 -151 -44l-59 -333q-78 -9 -152 0l86 490q68 34 158 34q-8 -49 -23 -80z" />
    <glyph glyph-name="s" unicode="s" horiz-adv-x="467" 
d="M173 -10q-123 0 -180 50q9 51 49 98q58 -40 135 -40q44 0 69 13t25 35q0 18 -22.5 30.5t-54.5 23t-63.5 24.5t-54 43t-22.5 70q0 84 64.5 136.5t181.5 52.5q103 0 168 -47q-8 -49 -49 -99q-56 37 -126 37q-40 0 -63.5 -12t-23.5 -33q0 -18 23 -30.5t55 -23t64.5 -25
t55.5 -44t23 -72.5q0 -86 -65.5 -136.5t-188.5 -50.5z" />
    <glyph glyph-name="t" unicode="t" horiz-adv-x="421" 
d="M346 138q23 -47 13 -106q-70 -42 -145 -42q-84 0 -121 44.5t-23 123.5l33 188q6 30 13 45l-4 5h-69q1 58 21 120h69l17 93q66 34 158 34l-14 -77q-5 -25 -13 -45l4 -5h144q-3 -60 -21 -120h-144l-38 -215q-12 -71 40 -71q27 0 80 28z" />
    <glyph glyph-name="u" unicode="u" horiz-adv-x="554" 
d="M394 490q68 34 158 34l-92 -524q-79 -9 -152 0q3 19 11 34l-4 5q-73 -52 -162 -52q-152 0 -128 137l65 366q68 34 159 34l-60 -339q-7 -44 5.5 -59t46.5 -15q42 0 91 26z" />
    <glyph glyph-name="v" unicode="v" horiz-adv-x="538" 
d="M425 516q79 7 155 0l-265 -516q-86 -8 -169 0l-97 516q83 8 165 0l45 -281q4 -31 0 -73h5q8 32 26 73z" />
    <glyph glyph-name="w" unicode="w" horiz-adv-x="812" 
d="M693 516q83 7 161 0l-253 -516q-78 -7 -154 0l-23 256q-5 62 -3 77h-4q-5 -23 -29 -77l-114 -256q-78 -7 -154 0l-71 516q81 7 161 0l23 -264q3 -49 0 -73h5q11 46 26 73l108 241q40 5 76 5q38 0 75 -5l23 -241q5 -35 0 -73h5q11 38 26 73z" />
    <glyph glyph-name="x" unicode="x" horiz-adv-x="549" 
d="M381 260q23 -8 35 -47l74 -213q-81 -10 -168 0l-58 204l-136 -204q-86 -10 -160 0l149 213q26 39 51 47l1 3v3q-28 10 -40 47l-69 203q80 10 167 0l58 -198l136 198q86 10 159 0l-140 -203q-27 -37 -58 -47v-3z" />
    <glyph glyph-name="y" unicode="y" horiz-adv-x="543" 
d="M430 516q79 7 155 0l-263 -500q-60 -113 -139 -169t-202 -57q1 49 19 107q58 5 94.5 30.5t65.5 80.5l-106 508q84 8 164 0l44 -281q4 -36 0 -73h5q11 44 26 73z" />
    <glyph glyph-name="z" unicode="z" horiz-adv-x="473" 
d="M221 148q-16 -19 -29 -23l1 -5h235q-3 -60 -21 -120h-442q0 39 15 87l261 281q15 18 29 23l-1 5h-215q1 58 21 120h422q-2 -47 -16 -87z" />
    <glyph glyph-name="braceleft" unicode="{" horiz-adv-x="282" 
d="M141 68q-23 -95 -2.5 -137.5t72.5 -42.5q-1 -41 -16 -88q-103 0 -152.5 71.5t-14.5 198.5q31 97 30.5 153t-45.5 70q-3 24 9 54q51 14 69 64.5t25 158.5q10 127 85 198.5t178 71.5q-1 -43 -16 -88q-52 0 -90 -45t-43 -135q-10 -194 -109 -252q77 -59 20 -252z" />
    <glyph glyph-name="bar" unicode="|" horiz-adv-x="332" 
d="M315 839l-173 -1040q-52 -7 -104 2l174 1039q54 6 103 -1z" />
    <glyph glyph-name="braceright" unicode="}" horiz-adv-x="282" 
d="M74 68q10 194 109 252q-77 59 -20 252q19 63 12.5 103t-27.5 58.5t-54 18.5q0 42 16 88q103 0 152 -71t14 -199q-31 -97 -30.5 -153t45.5 -70q3 -24 -9 -54q-51 -14 -69 -64.5t-25 -158.5q-10 -128 -84.5 -199t-177.5 -71q0 43 16 88q52 0 89.5 45t42.5 135z" />
    <glyph glyph-name="asciitilde" unicode="~" horiz-adv-x="661" 
d="M481 393q113 0 150 -111q-35 -27 -73 -43q-25 37 -77 37q-45 0 -140 -28t-142 -28q-52 0 -87 25.5t-65 85.5q38 29 74 43q23 -36 77 -36q46 0 139.5 27.5t143.5 27.5z" />
    <glyph glyph-name="exclamdown" unicode="&#xa1;" horiz-adv-x="284" 
d="M189 526q81 0 66 -79q-14 -80 -93 -80q-80 0 -66 80q15 79 93 79zM-18 -184l97 453q65 8 127 0l-63 -453q-83 -8 -161 0z" />
    <glyph glyph-name="cent" unicode="&#xa2;" horiz-adv-x="456" 
d="M428 380q-42 29 -91 32l-55 -309q47 2 104 32q23 -49 14 -98q-55 -37 -137 -46l-16 -91q-26 -6 -50 0l16 90q-105 4 -153.5 58.5t-35.5 134.5l26 150q14 79 82.5 134t174.5 59l18 105q26 6 50 0l-19 -106q76 -7 122 -46q-10 -52 -50 -99zM178 198q-13 -81 55 -93l53 305
q-71 -12 -86 -92z" />
    <glyph glyph-name="sterling" unicode="&#xa3;" horiz-adv-x="585" 
d="M428 582q-129 0 -151 -134q-2 -7 -4 -25h196q1 -24 -9 -50h-192q-1 -10 -2.5 -30t-2.5 -30h186q2 -25 -9 -50h-182q-10 -82 -42 -143h315q-3 -62 -22 -120h-493q70 106 85 263h-92q-4 25 9 50h87q1 10 2 30t2 30h-80q-5 25 9 50h75q2 18 8 54q19 110 106.5 171.5
t213.5 61.5q113 0 194 -61q-20 -68 -61 -119q-75 52 -146 52z" />
    <glyph glyph-name="currency" unicode="&#xa4;" horiz-adv-x="761" 
d="M678 299q0 -95 -69 -178l100 -101q-51 -55 -110 -94l-81 116q-85 -52 -185 -52q-99 0 -167 52l-121 -116q-46 39 -77 94l135 101q-20 42 -20 100q0 93 69 178l-99 101q49 55 110 94l80 -116q85 52 185 52q99 0 167 -52l122 116q44 -38 77 -94l-135 -101q19 -43 19 -100z
M356 118q67 0 113.5 48t46.5 119q0 52 -30 84.5t-80 32.5q-67 0 -114 -48t-47 -119q0 -52 30.5 -84.5t80.5 -32.5z" />
    <glyph glyph-name="yen" unicode="&#xa5;" horiz-adv-x="630" 
d="M425 296h116q2 -25 -9 -50h-129l-11 -60h130q1 -24 -9 -50h-129l-24 -136q-82 -10 -160 0l24 136h-143q-4 25 9 50h142l11 60h-143q-2 25 9 50h128l-149 404q91 8 178 0l81 -247q6 -18 1 -73h5q11 50 25 73l152 247q86 8 168 0z" />
    <glyph glyph-name="brokenbar" unicode="&#xa6;" horiz-adv-x="335" 
d="M318 839l-50 -340q-53 -7 -106 2l50 339q57 6 106 -1zM195 139l-50 -340q-52 -7 -107 2l50 339q57 6 107 -1z" />
    <glyph glyph-name="section" unicode="&#xa7;" horiz-adv-x="547" 
d="M439 159q40 -42 40 -113q0 -111 -79 -178.5t-227 -67.5q-132 0 -223 65q19 71 61 123q86 -60 178 -60q60 0 92 22.5t32 57.5q0 20 -15.5 36t-40 27t-54 22t-59.5 26.5t-54.5 35t-40 51.5t-15.5 73q0 116 104 186q-41 41 -41 113q0 107 76.5 174.5t218.5 67.5
q123 0 199 -61q-18 -67 -60 -119q-78 56 -152 56q-53 0 -84.5 -21t-31.5 -58q0 -28 28.5 -48t69.5 -35t81.5 -34.5t69 -58.5t28.5 -95q0 -116 -101 -187zM200 317q0 -8 2.5 -15.5t5.5 -13t10.5 -11.5l12.5 -10t16 -9.5t16 -7.5t18.5 -8t18.5 -8q35 10 54 30t19 44
q0 20 -14.5 36t-29.5 23t-48 20q-7 3 -10 4q-71 -17 -71 -74z" />
    <glyph glyph-name="dieresis" unicode="&#xa8;" horiz-adv-x="500" 
d="M111 581q-68 0 -68 60q0 47 24 73t72 26q67 0 67 -62q0 -97 -95 -97zM361 581q-68 0 -68 60q0 47 24 73t72 26q67 0 67 -62q0 -97 -95 -97z" />
    <glyph glyph-name="copyright" unicode="&#xa9;" horiz-adv-x="798" 
d="M351 -10q-136 0 -219 87t-83 218q0 110 58 206t157.5 152.5t213.5 56.5q137 0 220 -87t83 -218q0 -168 -127.5 -291.5t-302.5 -123.5zM357 23q159 0 274.5 112t115.5 264q0 119 -75.5 198.5t-198.5 79.5q-159 0 -274.5 -112t-115.5 -264q0 -119 75.5 -198.5t198.5 -79.5z
M409 193q48 0 111 34q16 -34 13 -79q-70 -42 -146 -42q-86 0 -130.5 42t-31.5 116l31 172q13 74 72 116t145 42q76 0 131 -42q-12 -45 -41 -80q-51 35 -99 35q-88 0 -102 -91l-24 -132q-16 -91 71 -91z" />
    <glyph glyph-name="guillemotleft" unicode="&#xab;" horiz-adv-x="605" 
d="M128 255q27 -3 44 -22l121 -137q-49 -45 -109 -81l-181 242l267 243q47 -35 80 -82l-170 -136q-20 -18 -52 -23v-4zM362 255q27 -3 44 -22l122 -137q-49 -45 -109 -81l-181 242l266 243q48 -35 80 -82l-169 -136q-22 -18 -53 -23v-4z" />
    <glyph glyph-name="logicalnot" unicode="&#xac;" horiz-adv-x="648" 
d="M637 396l-45 -259q-66 -8 -129 0l25 146h-446q3 54 20 113h575z" />
    <glyph glyph-name="registered" unicode="&#xae;" horiz-adv-x="798" 
d="M351 -10q-136 0 -219 87t-83 218q0 110 58 206t157.5 152.5t213.5 56.5q137 0 220 -87t83 -218q0 -168 -127.5 -291.5t-302.5 -123.5zM357 23q159 0 274.5 112t115.5 264q0 119 -75.5 198.5t-198.5 79.5q-159 0 -274.5 -112t-115.5 -264q0 -119 75.5 -198.5t198.5 -79.5z
M487 308q31 -12 43 -39.5t43 -155.5q-55 -4 -109 0q-21 81 -34.5 115.5t-26.5 45t-40 10.5h-21l-31 -171q-55 -5 -109 0l84 474h175q80 0 118 -34t29 -88l-10 -58q-7 -38 -36.5 -64t-73.5 -32zM357 371h61q66 0 74 53l4 24q5 25 -9 38.5t-46 13.5h-61l-16 -95q-3 -17 -9 -31
z" />
    <glyph glyph-name="macron" unicode="&#xaf;" horiz-adv-x="479" 
d="M64 713h369q0 -52 -18 -104h-369q0 52 18 104z" />
    <glyph glyph-name="degree" unicode="&#xb0;" horiz-adv-x="298" 
d="M203 564q-95 0 -95 83q0 60 35 95t98 35q45 0 69.5 -22.5t24.5 -64.5q0 -60 -34.5 -93t-97.5 -33zM216 632q21 0 32 12.5t11 33.5q0 30 -30 30q-45 0 -45 -47q0 -29 32 -29z" />
    <glyph glyph-name="plusminus" unicode="&#xb1;" horiz-adv-x="652" 
d="M425 501h231q-1 -52 -19 -113h-232l-41 -231q-58 -8 -112 0l41 231h-231q1 52 19 113h232l41 231q58 8 112 0zM-6 0q1 52 19 113h575q-1 -52 -19 -113h-575z" />
    <glyph glyph-name="acute" unicode="&#xb4;" horiz-adv-x="372" 
d="M55 636l204 177q39 -41 61 -87l-224 -152q-28 29 -41 62z" />
    <glyph glyph-name="paragraph" unicode="&#xb6;" horiz-adv-x="712" 
d="M732 700l-159 -900q-61 -8 -107 0l142 803h-144l-141 -803q-61 -8 -107 0l67 383q-94 0 -155.5 64t-61.5 158q0 118 94 206.5t215 88.5h357z" />
    <glyph glyph-name="periodcentered" unicode="&#xb7;" horiz-adv-x="247" 
d="M117 214q-83 0 -68 81q14 81 95 81q82 0 68 -81q-15 -81 -95 -81z" />
    <glyph glyph-name="cedilla" unicode="&#xb8;" horiz-adv-x="618" 
d="M275 2l77 -1l-30 -41q42 -6 65.5 -30.5t16.5 -62.5q-9 -51 -60 -72.5t-139 -2.5q0 29 11 66q30 -5 52.5 3t22.5 33q0 15 -14 24t-45 16z" />
    <glyph glyph-name="guillemotright" unicode="&#xbb;" horiz-adv-x="618" 
d="M186 500l181 -243l-266 -242q-49 37 -80 81l169 137q25 19 52 22l2 4q-30 5 -45 23l-121 136q49 47 108 82zM421 500l181 -243l-267 -242q-46 34 -80 81l170 137q24 19 52 22v2l1 2q-30 5 -44 23l-122 136q50 48 109 82z" />
    <glyph glyph-name="questiondown" unicode="&#xbf;" horiz-adv-x="433" 
d="M285 526q81 0 66 -79q-14 -80 -93 -80q-80 0 -66 80q15 79 93 79zM126 3q-7 -38 16.5 -57.5t68.5 -19.5q66 0 151 42q6 -55 -4 -119q-86 -43 -206 -43q-103 0 -154.5 43.5t-37.5 126.5q8 43 31.5 79t52 61t57.5 47.5t52.5 49.5t30.5 56q64 7 127 0q-9 -40 -30 -73
t-45 -55.5t-47 -43t-40.5 -44t-22.5 -50.5z" />
    <glyph glyph-name="Agrave" unicode="&#xc0;" horiz-adv-x="657" 
d="M549 820q-13 -33 -41 -62l-224 152q22 46 61 87zM495 700l114 -700q-88 -8 -172 0l-23 145h-215l-74 -145q-82 -8 -161 0l358 700q88 8 173 0zM256 257h141l-27 163q-5 30 0 73h-5q-12 -49 -25 -73z" />
    <glyph glyph-name="Aacute" unicode="&#xc1;" horiz-adv-x="657" 
d="M358 820l204 177q39 -41 61 -87l-224 -152q-28 29 -41 62zM495 700l114 -700q-88 -8 -172 0l-23 145h-215l-74 -145q-82 -8 -161 0l358 700q88 8 173 0zM256 257h141l-27 163q-5 30 0 73h-5q-12 -49 -25 -73z" />
    <glyph glyph-name="Acircumflex" unicode="&#xc2;" horiz-adv-x="657" 
d="M405 861l-114 -103q-27 27 -47 79l203 142l152 -142q-38 -52 -74 -79l-78 103q-14 17 -12 40h-4q-9 -26 -26 -40zM495 700l114 -700q-88 -8 -172 0l-23 145h-215l-74 -145q-82 -8 -161 0l358 700q88 8 173 0zM256 257h141l-27 163q-5 30 0 73h-5q-12 -49 -25 -73z" />
    <glyph glyph-name="Atilde" unicode="&#xc3;" horiz-adv-x="657" 
d="M517 916q89 0 117 -94q-37 -29 -74 -43q-24 37 -52 37q-18 0 -63 -20t-74 -20q-77 0 -120 94q30 26 73 44q26 -37 54 -37q18 0 62 19.5t77 19.5zM495 700l114 -700q-88 -8 -172 0l-23 145h-215l-74 -145q-82 -8 -161 0l358 700q88 8 173 0zM256 257h141l-27 163
q-5 30 0 73h-5q-12 -49 -25 -73z" />
    <glyph glyph-name="Adieresis" unicode="&#xc4;" horiz-adv-x="657" 
d="M293 765q-68 0 -68 60q0 47 24 73t72 26q67 0 67 -62q0 -97 -95 -97zM543 765q-68 0 -68 60q0 47 24 73t72 26q67 0 67 -62q0 -97 -95 -97zM495 700l114 -700q-88 -8 -172 0l-23 145h-215l-74 -145q-82 -8 -161 0l358 700q88 8 173 0zM256 257h141l-27 163q-5 30 0 73h-5
q-12 -49 -25 -73z" />
    <glyph glyph-name="Aring" unicode="&#xc5;" horiz-adv-x="656" 
d="M497 687l112 -687q-88 -8 -172 0l-23 145h-215l-74 -145q-82 -8 -161 0l348 681q-14 20 -14 50q0 60 35 95t98 35q46 0 70 -22.5t24 -64.5q0 -54 -28 -87zM420 796q-49 0 -49 -52q0 -31 34 -31q48 0 48 50q0 33 -33 33zM256 257h141l-27 163q-5 30 0 73h-5
q-12 -49 -25 -73z" />
    <glyph glyph-name="AE" unicode="&#xc6;" horiz-adv-x="896" 
d="M662 572l-17 -98q-6 -30 -13 -45l4 -5h216q-3 -65 -22 -128h-216l-21 -118q-6 -30 -13 -45l4 -5h266q-5 -66 -22 -128h-302h-125l25 145h-202l-98 -145q-84 -8 -162 0l474 700h86l-24 -136h-5q-18 -45 -38 -73l-158 -234h147l78 443h161h256q-5 -66 -22 -128h-257z" />
    <glyph glyph-name="Ccedilla" unicode="&#xc7;" horiz-adv-x="539" 
d="M232 448l-35 -196q-26 -134 104 -134q72 0 164 51q24 -50 19 -118q-94 -56 -193 -60l-22 -31q42 -6 65.5 -30.5t16.5 -62.5q-9 -51 -60 -72.5t-139 -2.5q0 29 11 66q30 -5 52.5 3t22.5 33q0 15 -14 24t-45 16l37 59q-102 13 -152.5 73t-33.5 157l46 254
q19 110 106.5 171.5t213.5 61.5q113 0 193 -61q-18 -67 -60 -119q-75 52 -146 52q-129 0 -151 -134z" />
    <glyph glyph-name="Egrave" unicode="&#xc8;" horiz-adv-x="540" 
d="M506 820q-13 -33 -41 -62l-224 152q22 46 61 87zM494 128q-3 -59 -22 -128h-458l123 700h448q-3 -59 -22 -128h-287l-17 -98q-5 -25 -13 -45l4 -5h246q-3 -59 -22 -128h-247l-21 -118q-6 -30 -13 -45l4 -5h297z" />
    <glyph glyph-name="Eacute" unicode="&#xc9;" horiz-adv-x="540" 
d="M315 820l204 177q39 -41 61 -87l-224 -152q-28 29 -41 62zM494 128q-3 -59 -22 -128h-458l123 700h448q-3 -59 -22 -128h-287l-17 -98q-5 -25 -13 -45l4 -5h246q-3 -59 -22 -128h-247l-21 -118q-6 -30 -13 -45l4 -5h297z" />
    <glyph glyph-name="Ecircumflex" unicode="&#xca;" horiz-adv-x="540" 
d="M362 861l-114 -103q-27 27 -47 79l203 142l152 -142q-38 -52 -74 -79l-78 103q-14 17 -12 40h-4q-9 -26 -26 -40zM276 572l-17 -98q-5 -25 -13 -45l4 -5h246q-3 -59 -22 -128h-247l-21 -118q-6 -30 -13 -45l4 -5h297q-3 -59 -22 -128h-458l123 700h448q-3 -59 -22 -128
h-287z" />
    <glyph glyph-name="Edieresis" unicode="&#xcb;" horiz-adv-x="540" 
d="M250 765q-68 0 -68 60q0 47 24 73t72 26q67 0 67 -62q0 -97 -95 -97zM500 765q-68 0 -68 60q0 47 24 73t72 26q67 0 67 -62q0 -97 -95 -97zM494 128q-3 -59 -22 -128h-458l123 700h448q-3 -59 -22 -128h-287l-17 -98q-5 -25 -13 -45l4 -5h246q-3 -59 -22 -128h-247
l-21 -118q-6 -30 -13 -45l4 -5h297z" />
    <glyph glyph-name="Igrave" unicode="&#xcc;" horiz-adv-x="280" 
d="M351 820q-13 -33 -41 -62l-224 152q22 46 61 87zM298 700l-123 -700q-81 -8 -161 0l123 700q83 8 161 0z" />
    <glyph glyph-name="Iacute" unicode="&#xcd;" horiz-adv-x="280" 
d="M160 820l204 177q39 -41 61 -87l-224 -152q-28 29 -41 62zM298 700l-123 -700q-81 -8 -161 0l123 700q83 8 161 0z" />
    <glyph glyph-name="Icircumflex" unicode="&#xce;" horiz-adv-x="280" 
d="M249 979l152 -142q-38 -52 -74 -79l-78 103q-14 17 -12 40h-4q-9 -26 -26 -40l-114 -103q-27 27 -47 79zM137 700q83 8 161 0l-123 -700q-81 -8 -161 0z" />
    <glyph glyph-name="Idieresis" unicode="&#xcf;" horiz-adv-x="280" 
d="M95 765q-68 0 -68 60q0 47 24 73t72 26q67 0 67 -62q0 -97 -95 -97zM345 765q-68 0 -68 60q0 47 24 73t72 26q67 0 67 -62q0 -97 -95 -97zM298 700l-123 -700q-81 -8 -161 0l123 700q83 8 161 0z" />
    <glyph glyph-name="Eth" unicode="&#xd0;" horiz-adv-x="640" 
d="M433 700q115 0 171 -58.5t39 -158.5l-47 -266q-18 -100 -94.5 -158.5t-191.5 -58.5h-290l53 302h-78q1 53 19 112h79l50 286h290zM475 445q23 128 -87 128h-106l-28 -159h103q-1 -53 -19 -112h-104l-22 -124q-6 -30 -13 -45l4 -5h106q110 0 133 127z" />
    <glyph glyph-name="Ntilde" unicode="&#xd1;" horiz-adv-x="694" 
d="M516 916q89 0 117 -94q-37 -29 -74 -43q-24 37 -52 37q-17 0 -62 -20t-75 -20q-77 0 -120 94q30 26 73 44q26 -37 54 -37q19 0 62 19.5t77 19.5zM561 700q77 9 152 0l-123 -700q-69 -8 -135 0l-217 409l-5 -4q2 -23 -3 -46l-64 -359q-78 -9 -152 0l123 700q69 8 134 0
l218 -409l6 4q-2 19 3 46z" />
    <glyph glyph-name="Ograve" unicode="&#xd2;" horiz-adv-x="629" 
d="M525 820q-13 -33 -41 -62l-224 152q22 46 61 87zM394 710q128 0 192.5 -61.5t45.5 -168.5l-47 -260q-19 -107 -104.5 -168.5t-213.5 -61.5t-192 61.5t-45 168.5l46 260q19 107 104.5 168.5t213.5 61.5zM431 250l34 200q12 67 -10 100t-83 32q-62 -1 -95.5 -33.5
t-44.5 -98.5l-36 -200q-12 -67 10 -100t84 -32t95.5 33.5t45.5 98.5z" />
    <glyph glyph-name="Oacute" unicode="&#xd3;" horiz-adv-x="629" 
d="M334 820l204 177q39 -41 61 -87l-224 -152q-28 29 -41 62zM394 710q128 0 192.5 -61.5t45.5 -168.5l-47 -260q-19 -107 -104.5 -168.5t-213.5 -61.5t-192 61.5t-45 168.5l46 260q19 107 104.5 168.5t213.5 61.5zM431 250l34 200q12 67 -10 100t-83 32q-62 -1 -95.5 -33.5
t-44.5 -98.5l-36 -200q-12 -67 10 -100t84 -32t95.5 33.5t45.5 98.5z" />
    <glyph glyph-name="Ocircumflex" unicode="&#xd4;" horiz-adv-x="629" 
d="M381 861l-114 -103q-27 27 -47 79l203 142l152 -142q-38 -52 -74 -79l-78 103q-14 17 -12 40h-4q-9 -26 -26 -40zM394 710q128 0 192.5 -61.5t45.5 -168.5l-47 -260q-19 -107 -104.5 -168.5t-213.5 -61.5t-192 61.5t-45 168.5l46 260q19 107 104.5 168.5t213.5 61.5z
M465 450q12 67 -10 100t-83 32q-62 -1 -95.5 -33.5t-44.5 -98.5l-36 -200q-12 -67 10 -100t84 -32t95.5 33.5t45.5 98.5z" />
    <glyph glyph-name="Otilde" unicode="&#xd5;" horiz-adv-x="629" 
d="M493 916q89 0 117 -94q-37 -29 -74 -43q-24 37 -52 37q-18 0 -63 -20t-74 -20q-77 0 -120 94q30 26 73 44q26 -37 54 -37q18 0 62 19.5t77 19.5zM394 710q128 0 192.5 -61.5t45.5 -168.5l-47 -260q-19 -107 -104.5 -168.5t-213.5 -61.5t-192 61.5t-45 168.5l46 260
q19 107 104.5 168.5t213.5 61.5zM431 250l34 200q12 67 -10 100t-83 32q-62 -1 -95.5 -33.5t-44.5 -98.5l-36 -200q-12 -67 10 -100t84 -32t95.5 33.5t45.5 98.5z" />
    <glyph glyph-name="Odieresis" unicode="&#xd6;" horiz-adv-x="629" 
d="M269 765q-68 0 -68 60q0 47 24 73t72 26q67 0 67 -62q0 -97 -95 -97zM519 765q-68 0 -68 60q0 47 24 73t72 26q67 0 67 -62q0 -97 -95 -97zM394 710q128 0 192.5 -61.5t45.5 -168.5l-47 -260q-19 -107 -104.5 -168.5t-213.5 -61.5t-192 61.5t-45 168.5l46 260
q19 107 104.5 168.5t213.5 61.5zM431 250l34 200q12 67 -10 100t-83 32q-62 -1 -95.5 -33.5t-44.5 -98.5l-36 -200q-12 -67 10 -100t84 -32t95.5 33.5t45.5 98.5z" />
    <glyph glyph-name="multiply" unicode="&#xd7;" horiz-adv-x="609" 
d="M623 530l-225 -191l153 -184q-38 -41 -93 -79l-153 184l-224 -190q-34 28 -65 79l224 190l-153 185q42 43 93 79l153 -185l224 191q32 -27 66 -79z" />
    <glyph glyph-name="Oslash" unicode="&#xd8;" horiz-adv-x="629" 
d="M559 670q95 -62 73 -190l-47 -260q-19 -107 -104.5 -168.5t-213.5 -61.5q-76 0 -131 23l-53 -83q-24 7 -45 23l54 84q-84 62 -62 183l46 260q19 107 104.5 168.5t213.5 61.5q67 0 118 -18l49 77q24 -6 46 -24zM196 250q-6 -30 -4 -56l241 376q-22 12 -61 12
q-62 -1 -95.5 -33.5t-44.5 -98.5zM465 450q8 47 1 75l-249 -387q25 -20 73 -20q62 1 95.5 33.5t45.5 98.5z" />
    <glyph glyph-name="Ugrave" unicode="&#xd9;" horiz-adv-x="681" 
d="M551 820q-13 -33 -41 -62l-224 152q22 46 61 87zM539 700q81 8 161 0l-83 -470q-20 -110 -101.5 -175t-222.5 -65t-200 65t-39 175l83 470q82 8 160 0l-78 -447q-13 -71 11 -103.5t85 -31.5q62 1 97 32.5t48 102.5z" />
    <glyph glyph-name="Uacute" unicode="&#xda;" horiz-adv-x="681" 
d="M360 820l204 177q39 -41 61 -87l-224 -152q-28 29 -41 62zM539 700q81 8 161 0l-83 -470q-20 -110 -101.5 -175t-222.5 -65t-200 65t-39 175l83 470q82 8 160 0l-78 -447q-13 -71 11 -103.5t85 -31.5q62 1 97 32.5t48 102.5z" />
    <glyph glyph-name="Ucircumflex" unicode="&#xdb;" horiz-adv-x="681" 
d="M407 861l-114 -103q-27 27 -47 79l203 142l152 -142q-38 -52 -74 -79l-78 103q-14 17 -12 40h-4q-9 -26 -26 -40zM539 700q81 8 161 0l-83 -470q-20 -110 -101.5 -175t-222.5 -65t-200 65t-39 175l83 470q82 8 160 0l-78 -447q-13 -71 11 -103.5t85 -31.5q62 1 97 32.5
t48 102.5z" />
    <glyph glyph-name="Udieresis" unicode="&#xdc;" horiz-adv-x="681" 
d="M295 765q-68 0 -68 60q0 47 24 73t72 26q67 0 67 -62q0 -97 -95 -97zM545 765q-68 0 -68 60q0 47 24 73t72 26q67 0 67 -62q0 -97 -95 -97zM539 700q81 8 161 0l-83 -470q-20 -110 -101.5 -175t-222.5 -65t-200 65t-39 175l83 470q82 8 160 0l-78 -447q-13 -71 11 -103.5
t85 -31.5q62 1 97 32.5t48 102.5z" />
    <glyph glyph-name="Yacute" unicode="&#xdd;" horiz-adv-x="630" 
d="M335 820l204 177q39 -41 61 -87l-224 -152q-28 29 -41 62zM698 700l-291 -430l-47 -270q-82 -10 -160 0l47 270l-159 430q91 8 178 0l81 -247q6 -18 1 -73h5q11 50 25 73l152 247q86 8 168 0z" />
    <glyph glyph-name="Thorn" unicode="&#xde;" horiz-adv-x="604" 
d="M404 588q120 0 175 -52t40 -140l-16 -86q-15 -88 -88 -139.5t-193 -51.5h-127l-21 -119q-81 -8 -161 0l124 700q83 8 161 0l-20 -112h126zM447 335l4 18l3 18q15 88 -80 89h-118l-29 -163q-6 -30 -13 -45l4 -5h118q96 2 111 88z" />
    <glyph glyph-name="germandbls" unicode="&#xdf;" horiz-adv-x="687" 
d="M505 381q0 -24 22 -46t49 -38t49 -47.5t22 -72.5q0 -86 -59.5 -136.5t-174.5 -50.5q-102 0 -167 47q8 50 48 98q62 -37 122 -37q75 0 75 48q0 17 -14 31.5t-34 27.5t-40.5 29t-34.5 42t-14 60q0 43 15 73t33 45t33 43.5t15 68.5q0 69 -69 69q-75 0 -90 -86l-97 -549
q-77 -9 -152 0l70 396h-69q1 58 21 120h68l10 51q16 88 88 135.5t172 47.5q87 0 141.5 -40t54.5 -116q0 -40 -14.5 -74.5t-32 -53.5t-32 -42t-14.5 -43z" />
    <glyph glyph-name="agrave" unicode="&#xe0;" horiz-adv-x="517" 
d="M438 636q-13 -33 -41 -62l-224 152q22 46 61 87zM310 526q96 0 144 -38.5t31 -132.5l-62 -355q-78 -8 -152 0q1 12 10 32l-4 5q-63 -47 -137 -47q-70 0 -108 38.5t-27 106.5l5 26q11 68 63 106.5t124 38.5q77 0 120 -43l6 5q-3 21 2 45l5 27q7 37 -7.5 55t-66.5 18
q-69 0 -150 -36q-18 49 -11 98q95 51 215 51zM290 115l12 66q-35 29 -73 29q-30 0 -49 -16t-23 -38l-2 -16q-4 -23 8.5 -39t42.5 -16q40 0 84 30z" />
    <glyph glyph-name="aacute" unicode="&#xe1;" horiz-adv-x="517" 
d="M247 636l204 177q39 -41 61 -87l-224 -152q-28 29 -41 62zM310 526q96 0 144 -38.5t31 -132.5l-62 -355q-78 -8 -152 0q1 12 10 32l-4 5q-63 -47 -137 -47q-70 0 -108 38.5t-27 106.5l5 26q11 68 63 106.5t124 38.5q77 0 120 -43l6 5q-3 21 2 45l5 27q7 37 -7.5 55
t-66.5 18q-69 0 -150 -36q-18 49 -11 98q95 51 215 51zM290 115l12 66q-35 29 -73 29q-30 0 -49 -16t-23 -38l-2 -16q-4 -23 8.5 -39t42.5 -16q40 0 84 30z" />
    <glyph glyph-name="acircumflex" unicode="&#xe2;" horiz-adv-x="517" 
d="M294 677l-114 -103q-27 27 -47 79l203 142l152 -142q-38 -52 -74 -79l-78 103q-14 17 -12 40h-4q-9 -26 -26 -40zM310 526q96 0 144 -38.5t31 -132.5l-62 -355q-78 -8 -152 0q1 12 10 32l-4 5q-63 -47 -137 -47q-70 0 -108 38.5t-27 106.5l5 26q11 68 63 106.5t124 38.5
q77 0 120 -43l6 5q-3 21 2 45l5 27q7 37 -7.5 55t-66.5 18q-69 0 -150 -36q-18 49 -11 98q95 51 215 51zM290 115l12 66q-35 29 -73 29q-30 0 -49 -16t-23 -38l-2 -16q-4 -23 8.5 -39t42.5 -16q40 0 84 30z" />
    <glyph glyph-name="atilde" unicode="&#xe3;" horiz-adv-x="517" 
d="M406 732q89 0 117 -94q-37 -29 -74 -43q-24 37 -52 37q-17 0 -62 -20t-75 -20q-77 0 -120 94q30 26 73 44q26 -37 54 -37q19 0 62 19.5t77 19.5zM310 526q96 0 144 -38.5t31 -132.5l-62 -355q-78 -8 -152 0q1 12 10 32l-4 5q-63 -47 -137 -47q-70 0 -108 38.5t-27 106.5
l5 26q11 68 63 106.5t124 38.5q77 0 120 -43l6 5q-3 21 2 45l5 27q7 37 -7.5 55t-66.5 18q-69 0 -150 -36q-18 49 -11 98q95 51 215 51zM290 115l12 66q-35 29 -73 29q-30 0 -49 -16t-23 -38l-2 -16q-4 -23 8.5 -39t42.5 -16q40 0 84 30z" />
    <glyph glyph-name="adieresis" unicode="&#xe4;" horiz-adv-x="517" 
d="M182 581q-68 0 -68 60q0 47 24 73t72 26q67 0 67 -62q0 -97 -95 -97zM432 581q-68 0 -68 60q0 47 24 73t72 26q67 0 67 -62q0 -97 -95 -97zM310 526q96 0 144 -38.5t31 -132.5l-62 -355q-78 -8 -152 0q1 12 10 32l-4 5q-63 -47 -137 -47q-70 0 -108 38.5t-27 106.5l5 26
q11 68 63 106.5t124 38.5q77 0 120 -43l6 5q-3 21 2 45l5 27q7 37 -7.5 55t-66.5 18q-69 0 -150 -36q-18 49 -11 98q95 51 215 51zM290 115l12 66q-35 29 -73 29q-30 0 -49 -16t-23 -38l-2 -16q-4 -23 8.5 -39t42.5 -16q40 0 84 30z" />
    <glyph glyph-name="aring" unicode="&#xe5;" horiz-adv-x="517" 
d="M313 564q-96 0 -96 83q0 60 35 95t98 35q46 0 70 -22.5t24 -64.5q0 -61 -34.5 -93.5t-96.5 -32.5zM324 629q48 0 48 50q0 33 -33 33q-49 0 -49 -52q0 -31 34 -31zM310 526q96 0 144 -38.5t31 -132.5l-62 -355q-78 -8 -152 0q1 12 10 32l-4 5q-63 -47 -137 -47
q-70 0 -108 38.5t-27 106.5l5 26q11 68 63 106.5t124 38.5q77 0 120 -43l6 5q-3 21 2 45l5 27q7 37 -7.5 55t-66.5 18q-69 0 -150 -36q-18 49 -11 98q95 51 215 51zM290 115l12 66q-35 29 -73 29q-30 0 -49 -16t-23 -38l-2 -16q-4 -23 8.5 -39t42.5 -16q40 0 84 30z" />
    <glyph glyph-name="ae" unicode="&#xe6;" horiz-adv-x="799" 
d="M600 526q104 0 150 -55t31 -138l-20 -111h-140h-110q-27 0 -44 5l-6 -5l-4 -24q-9 -51 15 -73.5t83 -22.5q75 0 142 41q24 -48 14 -98q-81 -55 -197 -55q-129 0 -174 75q-92 -75 -200 -75q-70 0 -108 38.5t-27 106.5l5 26q11 68 63 106.5t124 38.5q77 0 120 -43l-15 -82
q-35 29 -73 29q-30 0 -49 -16t-23 -38l-2 -16q-4 -23 8.5 -39t42.5 -16q40 0 84 30l27 148l6 5q-3 21 2 45l5 27q7 37 -7.5 55t-66.5 18q-69 0 -150 -36q-18 49 -11 98q95 51 215 51q96 0 135 -44q65 44 155 44zM633 317l6 5l1 8q17 91 -59 91q-85 0 -101 -94l-1 -5h110
q27 0 44 -5z" />
    <glyph glyph-name="ccedilla" unicode="&#xe7;" horiz-adv-x="456" 
d="M200 318l-22 -120q-16 -96 87 -96q58 0 121 33q23 -49 14 -98q-62 -42 -152 -47l-22 -30q42 -6 65.5 -30.5t16.5 -62.5q-9 -51 -60 -72.5t-139 -2.5q0 29 11 66q30 -5 52.5 3t22.5 33q0 15 -14 24t-45 16l38 60q-85 13 -123.5 65t-26.5 124l26 150q15 83 88 138t185 55
q100 0 155 -47q-10 -52 -50 -99q-47 33 -108 33q-103 0 -120 -95z" />
    <glyph glyph-name="egrave" unicode="&#xe8;" horiz-adv-x="517" 
d="M437 636q-13 -33 -41 -62l-224 152q22 46 61 87zM185 227l-6 -5l-5 -24q-9 -51 15 -73.5t84 -22.5q73 0 142 41q23 -46 14 -98q-81 -55 -198 -55q-114 0 -167.5 55t-39.5 138l26 148q15 83 86 139t182 56q103 0 149 -55t31 -138l-19 -111h-250q-25 0 -44 5zM299 421
q-84 0 -102 -94l-1 -5h111q25 0 44 -5l5 5l1 8q18 91 -58 91z" />
    <glyph glyph-name="eacute" unicode="&#xe9;" horiz-adv-x="517" 
d="M246 636l204 177q39 -41 61 -87l-224 -152q-28 29 -41 62zM185 227l-6 -5l-5 -24q-9 -51 15 -73.5t84 -22.5q73 0 142 41q23 -46 14 -98q-81 -55 -198 -55q-114 0 -167.5 55t-39.5 138l26 148q15 83 86 139t182 56q103 0 149 -55t31 -138l-19 -111h-250q-25 0 -44 5z
M299 421q-84 0 -102 -94l-1 -5h111q25 0 44 -5l5 5l1 8q18 91 -58 91z" />
    <glyph glyph-name="ecircumflex" unicode="&#xea;" horiz-adv-x="517" 
d="M293 677l-114 -103q-27 27 -47 79l203 142l152 -142q-38 -52 -74 -79l-78 103q-14 17 -12 40h-4q-9 -26 -26 -40zM318 526q103 0 149 -55t31 -138l-19 -111h-250q-25 0 -44 5l-6 -5l-5 -24q-9 -51 15 -73.5t84 -22.5q73 0 142 41q23 -46 14 -98q-81 -55 -198 -55
q-114 0 -167.5 55t-39.5 138l26 148q15 83 86 139t182 56zM357 330q18 91 -58 91q-84 0 -102 -94l-1 -5h111q25 0 44 -5l5 5z" />
    <glyph glyph-name="edieresis" unicode="&#xeb;" horiz-adv-x="517" 
d="M181 581q-68 0 -68 60q0 47 24 73t72 26q67 0 67 -62q0 -97 -95 -97zM431 581q-68 0 -68 60q0 47 24 73t72 26q67 0 67 -62q0 -97 -95 -97zM185 227l-6 -5l-5 -24q-9 -51 15 -73.5t84 -22.5q73 0 142 41q23 -46 14 -98q-81 -55 -198 -55q-114 0 -167.5 55t-39.5 138
l26 148q15 83 86 139t182 56q103 0 149 -55t31 -138l-19 -111h-250q-25 0 -44 5zM299 421q-84 0 -102 -94l-1 -5h111q25 0 44 -5l5 5l1 8q18 91 -58 91z" />
    <glyph glyph-name="igrave" unicode="&#xec;" horiz-adv-x="251" 
d="M307 636q-13 -33 -41 -62l-224 152q22 46 61 87zM90 490q68 34 158 34l-92 -524q-78 -9 -152 0z" />
    <glyph glyph-name="iacute" unicode="&#xed;" horiz-adv-x="251" 
d="M116 636l204 177q39 -41 61 -87l-224 -152q-28 29 -41 62zM90 490q68 34 158 34l-92 -524q-78 -9 -152 0z" />
    <glyph glyph-name="icircumflex" unicode="&#xee;" horiz-adv-x="251" 
d="M205 795l152 -142q-38 -52 -74 -79l-78 103q-14 17 -12 40h-4q-9 -26 -26 -40l-114 -103q-27 27 -47 79zM4 0l86 490q68 34 158 34l-92 -524q-78 -9 -152 0z" />
    <glyph glyph-name="idieresis" unicode="&#xef;" horiz-adv-x="251" 
d="M51 581q-68 0 -68 60q0 47 24 73t72 26q67 0 67 -62q0 -97 -95 -97zM301 581q-68 0 -68 60q0 47 24 73t72 26q67 0 67 -62q0 -97 -95 -97zM90 490q68 34 158 34l-92 -524q-78 -9 -152 0z" />
    <glyph glyph-name="eth" unicode="&#xf0;" horiz-adv-x="546" 
d="M529 372h1l-34 -189q-14 -83 -84 -138t-183 -55q-115 0 -167.5 55t-37.5 138l8 45l9 53q14 83 70.5 134t152.5 51q77 0 121 -47l-11 -63h1l10 63l6 5q22 129 -63 192l-64 -83q-33 11 -61 39l61 79q-35 13 -85 24q15 40 44 68q48 -7 98 -20l54 70q33 -13 60 -39l-43 -55
q96 -42 128 -120.5t9 -206.5zM249 102q80 0 97 96l23 127q-33 28 -76 28q-86 0 -104 -95l-5 -30l-6 -30q-16 -96 71 -96z" />
    <glyph glyph-name="ntilde" unicode="&#xf1;" horiz-adv-x="560" 
d="M445 732q89 0 117 -94q-37 -29 -74 -43q-24 37 -52 37q-18 0 -63 -20t-74 -20q-77 0 -120 94q30 26 73 44q26 -37 54 -37q18 0 62 19.5t77 19.5zM407 526q151 0 127 -137l-68 -389q-79 -9 -152 0l57 327q8 43 -4.5 59t-47.5 16q-46 0 -97 -27l-66 -375q-78 -9 -152 0
l86 490q68 34 158 34q-4 -30 -13 -46l5 -5q75 53 167 53z" />
    <glyph glyph-name="ograve" unicode="&#xf2;" horiz-adv-x="552" 
d="M454 636q-13 -33 -41 -62l-224 152q22 46 61 87zM323 526q114 0 166.5 -55t38.5 -138l-26 -150q-14 -83 -86.5 -138t-186.5 -55q-115 0 -167 55t-38 138l26 150q15 83 87 138t186 55zM352 198l22 120q17 95 -71 95q-86 0 -103 -95l-22 -120q-16 -96 71 -96q86 0 103 96z
" />
    <glyph glyph-name="oacute" unicode="&#xf3;" horiz-adv-x="552" 
d="M263 636l204 177q39 -41 61 -87l-224 -152q-28 29 -41 62zM323 526q114 0 166.5 -55t38.5 -138l-26 -150q-14 -83 -86.5 -138t-186.5 -55q-115 0 -167 55t-38 138l26 150q15 83 87 138t186 55zM352 198l22 120q17 95 -71 95q-86 0 -103 -95l-22 -120q-16 -96 71 -96
q86 0 103 96z" />
    <glyph glyph-name="ocircumflex" unicode="&#xf4;" horiz-adv-x="552" 
d="M310 677l-114 -103q-27 27 -47 79l203 142l152 -142q-38 -52 -74 -79l-78 103q-14 17 -12 40h-4q-9 -26 -26 -40zM323 526q114 0 166.5 -55t38.5 -138l-26 -150q-14 -83 -86.5 -138t-186.5 -55q-115 0 -167 55t-38 138l26 150q15 83 87 138t186 55zM374 318q17 95 -71 95
q-86 0 -103 -95l-22 -120q-16 -96 71 -96q86 0 103 96z" />
    <glyph glyph-name="otilde" unicode="&#xf5;" horiz-adv-x="552" 
d="M422 732q89 0 117 -94q-37 -29 -74 -43q-24 37 -52 37q-17 0 -62 -20t-75 -20q-77 0 -120 94q30 26 73 44q26 -37 54 -37q19 0 62 19.5t77 19.5zM323 526q114 0 166.5 -55t38.5 -138l-26 -150q-14 -83 -86.5 -138t-186.5 -55q-115 0 -167 55t-38 138l26 150q15 83 87 138
t186 55zM352 198l22 120q17 95 -71 95q-86 0 -103 -95l-22 -120q-16 -96 71 -96q86 0 103 96z" />
    <glyph glyph-name="odieresis" unicode="&#xf6;" horiz-adv-x="552" 
d="M198 581q-68 0 -68 60q0 47 24 73t72 26q67 0 67 -62q0 -97 -95 -97zM448 581q-68 0 -68 60q0 47 24 73t72 26q67 0 67 -62q0 -97 -95 -97zM323 526q114 0 166.5 -55t38.5 -138l-26 -150q-14 -83 -86.5 -138t-186.5 -55q-115 0 -167 55t-38 138l26 150q15 83 87 138
t186 55zM352 198l22 120q17 95 -71 95q-86 0 -103 -95l-22 -120q-16 -96 71 -96q86 0 103 96z" />
    <glyph glyph-name="divide" unicode="&#xf7;" horiz-adv-x="652" 
d="M355 465q-41 0 -57 19t-9 60q14 79 94 79q79 0 65 -79q-15 -79 -93 -79zM637 396q-1 -52 -19 -113h-575q1 52 19 113h575zM293 51q-79 0 -66 79q14 80 94 80q79 0 65 -80q-15 -79 -93 -79z" />
    <glyph glyph-name="oslash" unicode="&#xf8;" horiz-adv-x="552" 
d="M425 511q61 -22 87 -69.5t16 -108.5l-26 -150q-14 -83 -86.5 -138t-186.5 -55q-23 0 -46 3l-33 -72q-26 8 -49 23l28 61q-63 21 -89.5 69t-15.5 109l26 150q15 83 87 138t186 55q25 0 47 -3l31 67q19 -4 50 -23zM178 198q-7 -47 8 -71l132 285q-4 1 -15 1q-86 0 -103 -95
zM374 318q7 46 -7 69l-132 -284q4 -1 14 -1q86 0 103 96z" />
    <glyph glyph-name="ugrave" unicode="&#xf9;" horiz-adv-x="554" 
d="M466 636q-13 -33 -41 -62l-224 152q22 46 61 87zM394 490q68 34 158 34l-92 -524q-79 -9 -152 0q3 19 11 34l-4 5q-73 -52 -162 -52q-152 0 -128 137l65 366q68 34 159 34l-60 -339q-7 -44 5.5 -59t46.5 -15q42 0 91 26z" />
    <glyph glyph-name="uacute" unicode="&#xfa;" horiz-adv-x="554" 
d="M275 636l204 177q39 -41 61 -87l-224 -152q-28 29 -41 62zM394 490q68 34 158 34l-92 -524q-79 -9 -152 0q3 19 11 34l-4 5q-73 -52 -162 -52q-152 0 -128 137l65 366q68 34 159 34l-60 -339q-7 -44 5.5 -59t46.5 -15q42 0 91 26z" />
    <glyph glyph-name="ucircumflex" unicode="&#xfb;" horiz-adv-x="554" 
d="M322 677l-114 -103q-27 27 -47 79l203 142l152 -142q-38 -52 -74 -79l-78 103q-14 17 -12 40h-4q-9 -26 -26 -40zM394 490q68 34 158 34l-92 -524q-79 -9 -152 0q3 19 11 34l-4 5q-73 -52 -162 -52q-152 0 -128 137l65 366q68 34 159 34l-60 -339q-7 -44 5.5 -59
t46.5 -15q42 0 91 26z" />
    <glyph glyph-name="udieresis" unicode="&#xfc;" horiz-adv-x="554" 
d="M210 581q-68 0 -68 60q0 47 24 73t72 26q67 0 67 -62q0 -97 -95 -97zM460 581q-68 0 -68 60q0 47 24 73t72 26q67 0 67 -62q0 -97 -95 -97zM394 490q68 34 158 34l-92 -524q-79 -9 -152 0q3 19 11 34l-4 5q-73 -52 -162 -52q-152 0 -128 137l65 366q68 34 159 34
l-60 -339q-7 -44 5.5 -59t46.5 -15q42 0 91 26z" />
    <glyph glyph-name="yacute" unicode="&#xfd;" horiz-adv-x="543" 
d="M261 636l204 177q39 -41 61 -87l-224 -152q-28 29 -41 62zM430 516q79 7 155 0l-263 -500q-60 -113 -139 -169t-202 -57q1 49 19 107q58 5 94.5 30.5t65.5 80.5l-106 508q84 8 164 0l44 -281q4 -36 0 -73h5q11 44 26 73z" />
    <glyph glyph-name="thorn" unicode="&#xfe;" horiz-adv-x="557" 
d="M378 526q96 0 134 -50.5t23 -134.5l-29 -166q-15 -84 -70.5 -134.5t-151.5 -50.5q-78 0 -122 47l-6 -5q2 -22 -3 -45l-27 -153q-70 -34 -158 -34l148 840l12 66q71 34 158 34l-37 -211q-6 -30 -13 -45l4 -5q61 47 138 47zM358 198l21 120q17 95 -70 95q-43 0 -85 -28
l-46 -255q35 -28 76 -28q87 0 104 96z" />
    <glyph glyph-name="ydieresis" unicode="&#xff;" horiz-adv-x="543" 
d="M196 581q-68 0 -68 60q0 47 24 73t72 26q67 0 67 -62q0 -97 -95 -97zM446 581q-68 0 -68 60q0 47 24 73t72 26q67 0 67 -62q0 -97 -95 -97zM430 516q79 7 155 0l-263 -500q-60 -113 -139 -169t-202 -57q1 49 19 107q58 5 94.5 30.5t65.5 80.5l-106 508q84 8 164 0
l44 -281q4 -36 0 -73h5q11 44 26 73z" />
    <glyph glyph-name="Amacron" unicode="&#x100;" horiz-adv-x="657" 
d="M266 897h369q0 -52 -18 -104h-369q0 52 18 104zM495 700l114 -700q-88 -8 -172 0l-23 145h-215l-74 -145q-82 -8 -161 0l358 700q88 8 173 0zM256 257h141l-27 163q-5 30 0 73h-5q-12 -49 -25 -73z" />
    <glyph glyph-name="amacron" unicode="&#x101;" horiz-adv-x="517" 
d="M155 713h369q0 -52 -18 -104h-369q0 52 18 104zM310 526q96 0 144 -38.5t31 -132.5l-62 -355q-78 -8 -152 0q1 12 10 32l-4 5q-63 -47 -137 -47q-70 0 -108 38.5t-27 106.5l5 26q11 68 63 106.5t124 38.5q77 0 120 -43l6 5q-3 21 2 45l5 27q7 37 -7.5 55t-66.5 18
q-69 0 -150 -36q-18 49 -11 98q95 51 215 51zM290 115l12 66q-35 29 -73 29q-30 0 -49 -16t-23 -38l-2 -16q-4 -23 8.5 -39t42.5 -16q40 0 84 30z" />
    <glyph glyph-name="Abreve" unicode="&#x102;" horiz-adv-x="657" 
d="M428 768q-63 0 -103 39.5t-39 122.5q39 11 80 10q15 -68 80 -68q66 0 105 68q40 1 77 -10q-29 -84 -83 -123t-117 -39zM322 700q88 8 173 0l114 -700q-88 -8 -172 0l-23 145h-215l-74 -145q-82 -8 -161 0zM256 257h141l-27 163q-5 30 0 73h-5q-12 -49 -25 -73z" />
    <glyph glyph-name="abreve" unicode="&#x103;" horiz-adv-x="517" 
d="M317 584q-63 0 -103 39.5t-39 122.5q39 11 80 10q15 -68 80 -68q66 0 105 68q40 1 77 -10q-29 -84 -83 -123t-117 -39zM310 526q96 0 144 -38.5t31 -132.5l-62 -355q-78 -8 -152 0q1 12 10 32l-4 5q-63 -47 -137 -47q-70 0 -108 38.5t-27 106.5l5 26q11 68 63 106.5
t124 38.5q77 0 120 -43l6 5q-3 21 2 45l5 27q7 37 -7.5 55t-66.5 18q-69 0 -150 -36q-18 49 -11 98q95 51 215 51zM290 115l12 66q-35 29 -73 29q-30 0 -49 -16t-23 -38l-2 -16q-4 -23 8.5 -39t42.5 -16q40 0 84 30z" />
    <glyph glyph-name="Aogonek" unicode="&#x104;" horiz-adv-x="657" 
d="M514 -4q-39 -29 -55.5 -48t-16.5 -39t17 -26t38 -2q0 -44 -15 -89q-93 -18 -135.5 10t-34.5 78q15 79 124 129l-22 136h-215l-74 -145q-82 -8 -161 0l358 700q88 8 173 0l114 -700q-41 -4 -95 -4zM256 257h141l-27 163q-5 30 0 73h-5q-12 -49 -25 -73z" />
    <glyph glyph-name="aogonek" unicode="&#x105;" horiz-adv-x="518" 
d="M310 526q96 0 144 -38.5t31 -132.5l-62 -355q-46 -14 -72 -39.5t-26 -53.5q0 -35 55 -26q0 -44 -15 -89q-95 -18 -137.5 8t-32.5 80q11 72 100 124q-7 18 -18 33l40 226l6 5q-3 21 2 45l5 27q7 37 -7.5 55t-66.5 18q-69 0 -150 -36q-18 49 -11 98q95 51 215 51zM206 85
q40 0 84 30l-13 -78q-63 -47 -137 -47q-70 0 -108 38.5t-27 106.5l5 26q11 68 63 106.5t124 38.5q77 0 120 -43l-15 -82q-35 29 -73 29q-30 0 -49 -16t-23 -38l-2 -16q-4 -23 8.5 -39t42.5 -16z" />
    <glyph glyph-name="Cacute" unicode="&#x106;" horiz-adv-x="539" 
d="M319 820l204 177q39 -41 61 -87l-224 -152q-28 29 -41 62zM301 118q72 0 164 51q24 -50 19 -118q-103 -61 -215 -61q-126 0 -192 61.5t-47 171.5l46 254q19 110 106.5 171.5t213.5 61.5q113 0 193 -61q-18 -67 -60 -119q-75 52 -146 52q-129 0 -151 -134l-35 -196
q-26 -134 104 -134z" />
    <glyph glyph-name="cacute" unicode="&#x107;" horiz-adv-x="456" 
d="M243 636l204 177q39 -41 61 -87l-224 -152q-28 29 -41 62zM265 102q58 0 121 33q23 -49 14 -98q-71 -47 -171 -47q-113 0 -166 55t-39 138l26 150q15 83 88 138t185 55q100 0 155 -47q-10 -52 -50 -99q-47 33 -108 33q-103 0 -120 -95l-22 -120q-16 -96 87 -96z" />
    <glyph glyph-name="Cdotaccent" unicode="&#x10a;" horiz-adv-x="539" 
d="M388 765q-68 0 -68 60q0 47 24 73t72 26q67 0 67 -62q0 -97 -95 -97zM301 118q72 0 164 51q24 -50 19 -118q-103 -61 -215 -61q-126 0 -192 61.5t-47 171.5l46 254q19 110 106.5 171.5t213.5 61.5q113 0 193 -61q-18 -67 -60 -119q-75 52 -146 52q-129 0 -151 -134
l-35 -196q-26 -134 104 -134z" />
    <glyph glyph-name="cdotaccent" unicode="&#x10b;" horiz-adv-x="456" 
d="M312 581q-68 0 -68 60q0 47 24 73t72 26q67 0 67 -62q0 -97 -95 -97zM265 102q58 0 121 33q23 -49 14 -98q-71 -47 -171 -47q-113 0 -166 55t-39 138l26 150q15 83 88 138t185 55q100 0 155 -47q-10 -52 -50 -99q-47 33 -108 33q-103 0 -120 -95l-22 -120q-16 -96 87 -96
z" />
    <glyph glyph-name="Ccaron" unicode="&#x10c;" horiz-adv-x="539" 
d="M590 900l-203 -142l-152 142q38 52 74 79l78 -103q14 -17 12 -40h4q9 26 26 40l114 103q27 -27 47 -79zM76 477q19 110 106.5 171.5t213.5 61.5q113 0 193 -61q-18 -67 -60 -119q-75 52 -146 52q-129 0 -151 -134l-35 -196q-26 -134 104 -134q72 0 164 51q24 -50 19 -118
q-103 -61 -215 -61q-126 0 -192 61.5t-47 171.5z" />
    <glyph glyph-name="ccaron" unicode="&#x10d;" horiz-adv-x="456" 
d="M514 716l-203 -142l-152 142q38 52 74 79l78 -103q14 -17 12 -40h4q9 26 26 40l114 103q27 -27 47 -79zM50 333q15 83 88 138t185 55q100 0 155 -47q-10 -52 -50 -99q-47 33 -108 33q-103 0 -120 -95l-22 -120q-16 -96 87 -96q58 0 121 33q23 -49 14 -98
q-71 -47 -171 -47q-113 0 -166 55t-39 138z" />
    <glyph glyph-name="Dcaron" unicode="&#x10e;" horiz-adv-x="634" 
d="M603 900l-203 -142l-152 142q38 52 74 79l78 -103q14 -17 12 -40h4q9 26 26 40l114 103q27 -27 47 -79zM427 700q115 0 171 -58.5t39 -158.5l-47 -266q-18 -100 -94.5 -158.5t-191.5 -58.5h-290l123 700h290zM469 445q23 128 -87 128h-106l-70 -395q-6 -30 -13 -45l4 -5
h106q110 0 133 127z" />
    <glyph glyph-name="dcaron" unicode="&#x10f;" horiz-adv-x="710" 
d="M436 706q70 34 157 34l-130 -740q-79 -9 -152 0q1 12 10 32l-4 5q-61 -47 -138 -47q-96 0 -133.5 50.5t-22.5 134.5l29 166q14 84 70 134.5t151 50.5q78 0 122 -47l6 5q-2 18 3 45zM621 497l24 203q67 7 133 0l-50 -203q-54 -7 -107 0zM334 130l44 255q-31 28 -76 28
q-86 0 -103 -95l-21 -120q-17 -96 70 -96q42 0 86 28z" />
    <glyph glyph-name="Dcroat" unicode="&#x110;" horiz-adv-x="640" 
d="M433 700q115 0 171 -58.5t39 -158.5l-47 -266q-18 -100 -94.5 -158.5t-191.5 -58.5h-290l53 302h-78q1 53 19 112h79l50 286h290zM475 445q23 128 -87 128h-106l-28 -159h103q-1 -53 -19 -112h-104l-22 -124q-6 -30 -13 -45l4 -5h106q110 0 133 127z" />
    <glyph glyph-name="dcroat" unicode="&#x111;" horiz-adv-x="578" 
d="M640 646q2 -47 -16 -89h-63l-98 -557q-79 -9 -152 0q1 12 10 32l-4 5q-61 -47 -138 -47q-96 0 -133.5 50.5t-22.5 134.5l29 166q14 84 70 134.5t151 50.5q78 0 122 -47l6 5q-2 18 3 45l5 28h-111q-2 45 16 89h111l11 60q70 34 157 34l-17 -94h64zM334 130l44 255
q-31 28 -76 28q-86 0 -103 -95l-21 -120q-17 -96 70 -96q42 0 86 28z" />
    <glyph glyph-name="Emacron" unicode="&#x112;" horiz-adv-x="540" 
d="M223 897h369q0 -52 -18 -104h-369q0 52 18 104zM494 128q-3 -59 -22 -128h-458l123 700h448q-3 -59 -22 -128h-287l-17 -98q-5 -25 -13 -45l4 -5h246q-3 -59 -22 -128h-247l-21 -118q-6 -30 -13 -45l4 -5h297z" />
    <glyph glyph-name="emacron" unicode="&#x113;" horiz-adv-x="517" 
d="M154 713h369q0 -52 -18 -104h-369q0 52 18 104zM185 227l-6 -5l-5 -24q-9 -51 15 -73.5t84 -22.5q73 0 142 41q23 -46 14 -98q-81 -55 -198 -55q-114 0 -167.5 55t-39.5 138l26 148q15 83 86 139t182 56q103 0 149 -55t31 -138l-19 -111h-250q-25 0 -44 5zM299 421
q-84 0 -102 -94l-1 -5h111q25 0 44 -5l5 5l1 8q18 91 -58 91z" />
    <glyph glyph-name="Edotaccent" unicode="&#x116;" horiz-adv-x="540" 
d="M384 765q-68 0 -68 60q0 47 24 73t72 26q67 0 67 -62q0 -97 -95 -97zM494 128q-3 -59 -22 -128h-458l123 700h448q-3 -59 -22 -128h-287l-17 -98q-5 -25 -13 -45l4 -5h246q-3 -59 -22 -128h-247l-21 -118q-6 -30 -13 -45l4 -5h297z" />
    <glyph glyph-name="edotaccent" unicode="&#x117;" horiz-adv-x="517" 
d="M315 581q-68 0 -68 60q0 47 24 73t72 26q67 0 67 -62q0 -97 -95 -97zM185 227l-6 -5l-5 -24q-9 -51 15 -73.5t84 -22.5q73 0 142 41q23 -46 14 -98q-81 -55 -198 -55q-114 0 -167.5 55t-39.5 138l26 148q15 83 86 139t182 56q103 0 149 -55t31 -138l-19 -111h-250
q-25 0 -44 5zM299 421q-84 0 -102 -94l-1 -5h111q25 0 44 -5l5 5l1 8q18 91 -58 91z" />
    <glyph glyph-name="Eogonek" unicode="&#x118;" horiz-adv-x="540" 
d="M276 572l-17 -98q-5 -25 -13 -45l4 -5h246q-3 -59 -22 -128h-247l-21 -118q-6 -30 -13 -45l4 -5h297q-3 -59 -22 -128q-42 -31 -59.5 -50.5t-17.5 -40.5q0 -20 17 -26t38 -2q0 -44 -15 -89q-93 -18 -135.5 10t-34.5 78q13 71 105 120h-356l123 700h448q-3 -59 -22 -128
h-287z" />
    <glyph glyph-name="eogonek" unicode="&#x119;" horiz-adv-x="517" 
d="M318 526q103 0 149 -55t31 -138l-19 -111h-250q-25 0 -44 5l-6 -5l-5 -24q-9 -51 15 -73.5t84 -22.5q73 0 142 41q23 -46 14 -98q-39 -26 -86 -39q-60 -43 -69 -91q-5 -24 10.5 -31t43.5 -3q0 -41 -16 -89q-94 -18 -136.5 8t-33.5 80q13 67 73 110q-105 4 -154.5 59
t-36.5 134l26 148q15 83 86 139t182 56zM357 330q18 91 -58 91q-84 0 -102 -94l-1 -5h111q25 0 44 -5l5 5z" />
    <glyph glyph-name="Ecaron" unicode="&#x11a;" horiz-adv-x="540" 
d="M586 900l-203 -142l-152 142q38 52 74 79l78 -103q14 -17 12 -40h4q9 26 26 40l114 103q27 -27 47 -79zM137 700h448q-3 -59 -22 -128h-287l-17 -98q-5 -25 -13 -45l4 -5h246q-3 -59 -22 -128h-247l-21 -118q-6 -30 -13 -45l4 -5h297q-3 -59 -22 -128h-458z" />
    <glyph glyph-name="ecaron" unicode="&#x11b;" horiz-adv-x="517" 
d="M517 716l-203 -142l-152 142q38 52 74 79l78 -103q14 -17 12 -40h4q9 26 26 40l114 103q27 -27 47 -79zM318 526q103 0 149 -55t31 -138l-19 -111h-250q-25 0 -44 5l-6 -5l-5 -24q-9 -51 15 -73.5t84 -22.5q73 0 142 41q23 -46 14 -98q-81 -55 -198 -55q-114 0 -167.5 55
t-39.5 138l26 148q15 83 86 139t182 56zM357 330q18 91 -58 91q-84 0 -102 -94l-1 -5h111q25 0 44 -5l5 5z" />
    <glyph glyph-name="Gbreve" unicode="&#x11e;" horiz-adv-x="591" 
d="M386 768q-63 0 -103 39.5t-39 122.5q39 11 80 10q15 -68 80 -68q66 0 105 68q40 1 77 -10q-29 -84 -83 -123t-117 -39zM422 341q74 8 144 0l-51 -290q-99 -61 -241 -61q-126 0 -194.5 62t-49.5 171l46 254q19 110 106.5 171.5t215.5 61.5q127 0 205 -61q-17 -64 -60 -119
q-74 52 -157 52q-132 0 -154 -134l-35 -196q-12 -67 13 -100.5t95 -33.5q41 0 80 12z" />
    <glyph glyph-name="gbreve" unicode="&#x11f;" horiz-adv-x="557" 
d="M338 584q-63 0 -103 39.5t-39 122.5q39 11 80 10q15 -68 80 -68q66 0 105 68q40 1 77 -10q-29 -84 -83 -123t-117 -39zM402 516q77 9 152 0l-97 -548q-17 -94 -91 -136t-175 -42q-116 0 -193 52q8 46 45 98q67 -38 147 -38q105 0 117 73l1 12q5 25 13 45l-4 5
q-61 -47 -137 -47q-96 0 -133.5 50.5t-23.5 134.5l29 166q14 84 70 134.5t152 50.5q77 0 121 -47l6 5q-3 13 1 32zM334 130l45 255q-33 28 -76 28q-86 0 -104 -95l-21 -120q-17 -96 71 -96q41 0 85 28z" />
    <glyph glyph-name="Gdotaccent" unicode="&#x120;" horiz-adv-x="591" 
d="M385 765q-68 0 -68 60q0 47 24 73t72 26q67 0 67 -62q0 -97 -95 -97zM422 341q74 8 144 0l-51 -290q-99 -61 -241 -61q-126 0 -194.5 62t-49.5 171l46 254q19 110 106.5 171.5t215.5 61.5q127 0 205 -61q-17 -64 -60 -119q-74 52 -157 52q-132 0 -154 -134l-35 -196
q-12 -67 13 -100.5t95 -33.5q41 0 80 12z" />
    <glyph glyph-name="gdotaccent" unicode="&#x121;" horiz-adv-x="557" 
d="M337 581q-68 0 -68 60q0 47 24 73t72 26q67 0 67 -62q0 -97 -95 -97zM402 516q77 9 152 0l-97 -548q-17 -94 -91 -136t-175 -42q-116 0 -193 52q8 46 45 98q67 -38 147 -38q105 0 117 73l1 12q5 25 13 45l-4 5q-61 -47 -137 -47q-96 0 -133.5 50.5t-23.5 134.5l29 166
q14 84 70 134.5t152 50.5q77 0 121 -47l6 5q-3 13 1 32zM334 130l45 255q-33 28 -76 28q-86 0 -104 -95l-21 -120q-17 -96 71 -96q41 0 85 28z" />
    <glyph glyph-name="Gcommaaccent" unicode="&#x122;" horiz-adv-x="591" 
d="M422 341q74 8 144 0l-51 -290q-99 -61 -241 -61q-126 0 -194.5 62t-49.5 171l46 254q19 110 106.5 171.5t215.5 61.5q127 0 205 -61q-17 -64 -60 -119q-74 52 -157 52q-132 0 -154 -134l-35 -196q-12 -67 13 -100.5t95 -33.5q41 0 80 12zM118 -247l104 170q16 -7 45 -24
t40 -25l-125 -160q-38 13 -64 39z" />
    <glyph glyph-name="gcommaaccent" unicode="&#x123;" horiz-adv-x="557" 
d="M438 749l-104 -170q-16 7 -45 24t-40 25l125 160q38 -13 64 -39zM402 516q77 9 152 0l-97 -548q-17 -94 -91 -136t-175 -42q-116 0 -193 52q8 46 45 98q67 -38 147 -38q105 0 117 73l1 12q5 25 13 45l-4 5q-61 -47 -137 -47q-96 0 -133.5 50.5t-23.5 134.5l29 166
q14 84 70 134.5t152 50.5q77 0 121 -47l6 5q-3 13 1 32zM334 130l45 255q-33 28 -76 28q-86 0 -104 -95l-21 -120q-17 -96 71 -96q41 0 85 28z" />
    <glyph glyph-name="Hbar" unicode="&#x126;" horiz-adv-x="686" 
d="M747 610q-1 -53 -19 -112h-58l-88 -498q-83 -8 -161 0l43 248q5 25 13 45l-4 5h-245l-53 -298q-81 -8 -161 0l88 498h-59q1 53 19 112h59l16 90q83 8 162 0l-16 -90h245l16 90q81 8 161 0l-16 -90h58zM496 426l13 72h-246l-4 -22q-6 -30 -12 -45l4 -5h245z" />
    <glyph glyph-name="hbar" unicode="&#x127;" horiz-adv-x="578" 
d="M425 526q151 0 127 -137l-68 -389q-79 -9 -152 0l57 327q8 43 -4.5 59t-47.5 16q-46 0 -97 -27l-66 -375q-78 -9 -152 0l98 557h-60q-2 45 16 89h59l11 60q73 34 159 34l-17 -94h113q1 -16 -4 -44t-11 -45h-114l-6 -34q-6 -30 -13 -45l5 -5q75 53 167 53z" />
    <glyph glyph-name="Imacron" unicode="&#x12a;" horiz-adv-x="280" 
d="M68 897h369q0 -52 -18 -104h-369q0 52 18 104zM298 700l-123 -700q-81 -8 -161 0l123 700q83 8 161 0z" />
    <glyph glyph-name="imacron" unicode="&#x12b;" horiz-adv-x="251" 
d="M24 713h369q0 -52 -18 -104h-369q0 52 18 104zM90 490q68 34 158 34l-92 -524q-78 -9 -152 0z" />
    <glyph glyph-name="Iogonek" unicode="&#x12e;" horiz-adv-x="280" 
d="M103 -4q-39 -29 -55.5 -48t-16.5 -39t17 -26t38 -2q0 -44 -15 -89q-93 -18 -135.5 10t-34.5 78q14 75 114 124l122 696q83 8 161 0l-123 -700q-24 -2 -72 -4z" />
    <glyph glyph-name="iogonek" unicode="&#x12f;" horiz-adv-x="263" 
d="M218 740q68 0 68 -62q0 -97 -96 -97q-67 0 -67 60q0 99 95 99zM8 2l86 488q68 34 158 34l-92 -524q-18 -2 -59 -4q-39 -29 -55.5 -48t-16.5 -39t17 -26t38 -2q0 -44 -15 -89q-93 -18 -135.5 10t-34.5 78q14 73 109 122z" />
    <glyph glyph-name="Idotaccent" unicode="&#x130;" horiz-adv-x="280" 
d="M229 765q-68 0 -68 60q0 47 24 73t72 26q67 0 67 -62q0 -97 -95 -97zM298 700l-123 -700q-81 -8 -161 0l123 700q83 8 161 0z" />
    <glyph glyph-name="dotlessi" unicode="&#x131;" horiz-adv-x="251" 
d="M90 490q68 34 158 34l-92 -524q-78 -9 -152 0z" />
    <glyph glyph-name="Kcommaaccent" unicode="&#x136;" horiz-adv-x="653" 
d="M298 700l-123 -700q-81 -8 -161 0l123 700q83 8 161 0zM438 371q12 -5 18.5 -15t15.5 -32l124 -324q-90 -8 -177 0l-144 365l270 335q87 7 172 0l-221 -276q-30 -39 -57 -48l-1 -2v-3zM148 -247l104 170q16 -7 45 -24t40 -25l-125 -160q-38 13 -64 39z" />
    <glyph glyph-name="kcommaaccent" unicode="&#x137;" horiz-adv-x="543" 
d="M128 706q73 34 158 34l-130 -740q-78 -9 -152 0zM418 239l79 -239q-80 -10 -164 0l-94 281l182 235q84 10 155 0l-133 -177q-30 -39 -57 -47l-1 -6q20 -7 33 -47zM89 -247l104 170q16 -7 45 -24t40 -25l-125 -160q-38 13 -64 39z" />
    <glyph glyph-name="Lacute" unicode="&#x139;" horiz-adv-x="518" 
d="M186 820l204 177q39 -41 61 -87l-224 -152q-28 29 -41 62zM479 128q-3 -59 -22 -128h-443l123 700q83 8 161 0l-92 -522q-6 -30 -13 -45l4 -5h282z" />
    <glyph glyph-name="lacute" unicode="&#x13a;" horiz-adv-x="251" 
d="M145 815l204 177q39 -41 61 -87l-224 -152q-28 29 -41 62zM128 706q73 34 158 34l-130 -740q-78 -9 -152 0z" />
    <glyph glyph-name="Lcommaaccent" unicode="&#x13b;" horiz-adv-x="518" 
d="M479 128q-3 -59 -22 -128h-443l123 700q83 8 161 0l-92 -522q-6 -30 -13 -45l4 -5h282zM82 -247l104 170q16 -7 45 -24t40 -25l-125 -160q-38 13 -64 39z" />
    <glyph glyph-name="lcommaaccent" unicode="&#x13c;" horiz-adv-x="251" 
d="M128 706q73 34 158 34l-130 -740q-78 -9 -152 0zM-53 -247l104 170q16 -7 45 -24t40 -25l-125 -160q-38 13 -64 39z" />
    <glyph glyph-name="Lcaron" unicode="&#x13d;" horiz-adv-x="518" 
d="M479 128q-3 -59 -22 -128h-443l123 700q83 8 161 0l-92 -522q-6 -30 -13 -45l4 -5h282zM389 497l24 203q67 7 133 0l-50 -203q-53 -7 -107 0z" />
    <glyph glyph-name="lcaron" unicode="&#x13e;" horiz-adv-x="403" 
d="M128 706q73 34 158 34l-130 -740q-78 -9 -152 0zM314 497l24 203q67 7 133 0l-50 -203q-53 -7 -107 0z" />
    <glyph glyph-name="Lslash" unicode="&#x141;" horiz-adv-x="582" 
d="M261 128h282q-3 -59 -22 -128h-443l41 233l-79 -43q-25 42 -40 94l142 78l59 338q83 8 161 0l-42 -241l150 83q25 -42 39 -95l-212 -116l-27 -153q-6 -30 -13 -45z" />
    <glyph glyph-name="lslash" unicode="&#x142;" horiz-adv-x="379" 
d="M427 432l-140 -76l-63 -356q-78 -9 -152 0l47 266l-69 -37q-29 49 -39 95l130 70l55 312q73 34 158 34l-45 -255l79 42q26 -46 39 -95z" />
    <glyph glyph-name="Nacute" unicode="&#x143;" horiz-adv-x="694" 
d="M357 820l204 177q39 -41 61 -87l-224 -152q-28 29 -41 62zM561 700q77 9 152 0l-123 -700q-69 -8 -135 0l-217 409l-5 -4q2 -23 -3 -46l-64 -359q-78 -9 -152 0l123 700q69 8 134 0l218 -409l6 4q-2 19 3 46z" />
    <glyph glyph-name="nacute" unicode="&#x144;" horiz-adv-x="560" 
d="M286 636l204 177q39 -41 61 -87l-224 -152q-28 29 -41 62zM407 526q151 0 127 -137l-68 -389q-79 -9 -152 0l57 327q8 43 -4.5 59t-47.5 16q-46 0 -97 -27l-66 -375q-78 -9 -152 0l86 490q68 34 158 34q-4 -30 -13 -46l5 -5q75 53 167 53z" />
    <glyph glyph-name="Ncommaaccent" unicode="&#x145;" horiz-adv-x="694" 
d="M561 700q77 9 152 0l-123 -700q-69 -8 -135 0l-217 409l-5 -4q2 -23 -3 -46l-64 -359q-78 -9 -152 0l123 700q69 8 134 0l218 -409l6 4q-2 19 3 46zM159 -247l104 170q16 -7 45 -24t40 -25l-125 -160q-38 13 -64 39z" />
    <glyph glyph-name="ncommaaccent" unicode="&#x146;" horiz-adv-x="560" 
d="M407 526q151 0 127 -137l-68 -389q-79 -9 -152 0l57 327q8 43 -4.5 59t-47.5 16q-46 0 -97 -27l-66 -375q-78 -9 -152 0l86 490q68 34 158 34q-4 -30 -13 -46l5 -5q75 53 167 53zM102 -247l104 170q16 -7 45 -24t40 -25l-125 -160q-38 13 -64 39z" />
    <glyph glyph-name="Ncaron" unicode="&#x147;" horiz-adv-x="694" 
d="M628 900l-203 -142l-152 142q38 52 74 79l78 -103q14 -17 12 -40h4q9 26 26 40l114 103q27 -27 47 -79zM561 700q77 9 152 0l-123 -700q-69 -8 -135 0l-217 409l-5 -4q2 -23 -3 -46l-64 -359q-78 -9 -152 0l123 700q69 8 134 0l218 -409l6 4q-2 19 3 46z" />
    <glyph glyph-name="ncaron" unicode="&#x148;" horiz-adv-x="560" 
d="M557 716l-203 -142l-152 142q38 52 74 79l78 -103q14 -17 12 -40h4q9 26 26 40l114 103q27 -27 47 -79zM407 526q151 0 127 -137l-68 -389q-79 -9 -152 0l57 327q8 43 -4.5 59t-47.5 16q-46 0 -97 -27l-66 -375q-78 -9 -152 0l86 490q68 34 158 34q-4 -30 -13 -46l5 -5
q75 53 167 53z" />
    <glyph glyph-name="Eng" unicode="&#x14a;" horiz-adv-x="694" 
d="M713 700l-127 -724q-17 -96 -76.5 -141t-166.5 -45q3 60 19 107q31 3 47.5 20.5t25.5 61.5l7 45l-204 385l-5 -4q2 -23 -3 -46l-64 -359q-78 -9 -152 0l123 700q69 8 134 0l218 -409l6 4q-2 19 3 46l63 359q77 9 152 0z" />
    <glyph glyph-name="eng" unicode="&#x14b;" horiz-adv-x="560" 
d="M407 526q151 0 127 -137l-72 -413q-16 -96 -75.5 -141t-166.5 -45q1 53 18 107q31 3 47.5 20.5t25.5 61.5l60 348q8 43 -4.5 59t-47.5 16q-46 0 -97 -27l-66 -375q-78 -9 -152 0l86 490q68 34 158 34q-4 -30 -13 -46l5 -5q75 53 167 53z" />
    <glyph glyph-name="Omacron" unicode="&#x14c;" horiz-adv-x="629" 
d="M242 897h369q0 -52 -18 -104h-369q0 52 18 104zM394 710q128 0 192.5 -61.5t45.5 -168.5l-47 -260q-19 -107 -104.5 -168.5t-213.5 -61.5t-192 61.5t-45 168.5l46 260q19 107 104.5 168.5t213.5 61.5zM431 250l34 200q12 67 -10 100t-83 32q-62 -1 -95.5 -33.5
t-44.5 -98.5l-36 -200q-12 -67 10 -100t84 -32t95.5 33.5t45.5 98.5z" />
    <glyph glyph-name="omacron" unicode="&#x14d;" horiz-adv-x="552" 
d="M171 713h369q0 -52 -18 -104h-369q0 52 18 104zM323 526q114 0 166.5 -55t38.5 -138l-26 -150q-14 -83 -86.5 -138t-186.5 -55q-115 0 -167 55t-38 138l26 150q15 83 87 138t186 55zM352 198l22 120q17 95 -71 95q-86 0 -103 -95l-22 -120q-16 -96 71 -96q86 0 103 96z
" />
    <glyph glyph-name="Ohungarumlaut" unicode="&#x150;" horiz-adv-x="629" 
d="M237 811l175 186q40 -34 62 -78l-195 -161q-29 20 -42 53zM428 811l175 186q40 -34 62 -78l-195 -161q-29 20 -42 53zM394 710q128 0 192.5 -61.5t45.5 -168.5l-47 -260q-19 -107 -104.5 -168.5t-213.5 -61.5t-192 61.5t-45 168.5l46 260q19 107 104.5 168.5t213.5 61.5z
M431 250l34 200q12 67 -10 100t-83 32q-62 -1 -95.5 -33.5t-44.5 -98.5l-36 -200q-12 -67 10 -100t84 -32t95.5 33.5t45.5 98.5z" />
    <glyph glyph-name="ohungarumlaut" unicode="&#x151;" horiz-adv-x="552" 
d="M166 627l175 186q40 -34 62 -78l-195 -161q-29 20 -42 53zM357 627l175 186q40 -34 62 -78l-195 -161q-29 20 -42 53zM323 526q114 0 166.5 -55t38.5 -138l-26 -150q-14 -83 -86.5 -138t-186.5 -55q-115 0 -167 55t-38 138l26 150q15 83 87 138t186 55zM352 198l22 120
q17 95 -71 95q-86 0 -103 -95l-22 -120q-16 -96 71 -96q86 0 103 96z" />
    <glyph glyph-name="OE" unicode="&#x152;" horiz-adv-x="913" 
d="M649 572l-17 -98q-6 -30 -13 -45l4 -5h246q-5 -66 -22 -128h-246l-21 -118q-5 -25 -13 -45l4 -5h296q-5 -68 -23 -128h-457h-118q-128 0 -192 61.5t-45 168.5l42 240q19 107 105 168.5t214 61.5h279h286q-5 -68 -23 -128h-286zM292 128h118l78 444h-118q-62 -1 -95 -33.5
t-45 -98.5l-32 -180q-12 -66 10 -98.5t84 -33.5z" />
    <glyph glyph-name="oe" unicode="&#x153;" horiz-adv-x="846" 
d="M647 526q103 0 149 -55t31 -138l-19 -111h-250q-25 0 -44 5l-5 -4l-7 -40l-1 -7q-1 -39 23.5 -56.5t77.5 -17.5q73 0 142 41q23 -46 14 -98q-81 -55 -198 -55q-103 0 -157 46q-71 -46 -174 -46q-115 0 -167 55t-38 138l26 150q15 83 87 138t186 55q101 0 157 -46
q68 46 167 46zM686 330q18 91 -58 91q-77 0 -99 -79q0 -2 -0.5 -5t-0.5 -4l-2 -11h110q25 0 44 -5l5 5zM249 102q86 0 103 96l22 120q17 95 -71 95q-86 0 -103 -95l-22 -120q-16 -96 71 -96z" />
    <glyph glyph-name="Racute" unicode="&#x154;" horiz-adv-x="626" 
d="M327 820l204 177q39 -41 61 -87l-224 -152q-28 29 -41 62zM435 288q46 -17 63.5 -59t63.5 -229q-82 -7 -162 0q-30 120 -50 171t-40 66.5t-59 15.5h-31l-45 -253q-81 -8 -161 0l123 700h259q118 0 174.5 -50.5t42.5 -129.5l-15 -86q-10 -56 -53 -94t-109 -47zM243 381h90
q96 0 109 78l6 36q6 37 -14.5 57t-67.5 20h-90l-24 -141q-5 -25 -13 -45z" />
    <glyph glyph-name="racute" unicode="&#x155;" horiz-adv-x="375" 
d="M170 636l204 177q39 -41 61 -87l-224 -152q-28 29 -41 62zM229 439q67 95 190 79q-16 -81 -53 -141q-84 11 -151 -44l-59 -333q-78 -9 -152 0l86 490q68 34 158 34q-8 -49 -23 -80z" />
    <glyph glyph-name="Rcommaaccent" unicode="&#x156;" horiz-adv-x="626" 
d="M435 288q46 -17 63.5 -59t63.5 -229q-82 -7 -162 0q-30 120 -50 171t-40 66.5t-59 15.5h-31l-45 -253q-81 -8 -161 0l123 700h259q118 0 174.5 -50.5t42.5 -129.5l-15 -86q-10 -56 -53 -94t-109 -47zM243 381h90q96 0 109 78l6 36q6 37 -14.5 57t-67.5 20h-90l-24 -141
q-5 -25 -13 -45zM129 -247l104 170q16 -7 45 -24t40 -25l-125 -160q-38 13 -64 39z" />
    <glyph glyph-name="rcommaaccent" unicode="&#x157;" horiz-adv-x="375" 
d="M229 439q67 95 190 79q-16 -81 -53 -141q-84 11 -151 -44l-59 -333q-78 -9 -152 0l86 490q68 34 158 34q-8 -49 -23 -80zM-63 -247l104 170q16 -7 45 -24t40 -25l-125 -160q-38 13 -64 39z" />
    <glyph glyph-name="Rcaron" unicode="&#x158;" horiz-adv-x="626" 
d="M598 900l-203 -142l-152 142q38 52 74 79l78 -103q14 -17 12 -40h4q9 26 26 40l114 103q27 -27 47 -79zM396 700q118 0 174.5 -50.5t42.5 -129.5l-15 -86q-10 -56 -53 -94t-109 -47l-1 -5q46 -17 63.5 -59t63.5 -229q-82 -7 -162 0q-30 120 -50 171t-40 66.5t-59 15.5
h-31l-45 -253q-81 -8 -161 0l123 700h259zM448 495q6 37 -14.5 57t-67.5 20h-90l-24 -141q-5 -25 -13 -45l4 -5h90q96 0 109 78z" />
    <glyph glyph-name="rcaron" unicode="&#x159;" horiz-adv-x="375" 
d="M441 716l-203 -142l-152 142q38 52 74 79l78 -103q14 -17 12 -40h4q9 26 26 40l114 103q27 -27 47 -79zM229 439q67 95 190 79q-16 -81 -53 -141q-84 11 -151 -44l-59 -333q-78 -9 -152 0l86 490q68 34 158 34q-8 -49 -23 -80z" />
    <glyph glyph-name="Sacute" unicode="&#x15a;" horiz-adv-x="575" 
d="M307 820l204 177q39 -41 61 -87l-224 -152q-28 29 -41 62zM251 507q0 -28 28.5 -48t69.5 -35t82.5 -34.5t70 -58.5t28.5 -95q0 -111 -79 -178.5t-227 -67.5q-132 0 -223 65q19 71 61 123q86 -60 178 -60q60 0 92 22.5t32 57.5q0 20 -15.5 36t-40 27t-54 22t-59.5 26.5
t-54.5 35t-40 51.5t-15.5 73q0 107 76.5 174t218.5 67q123 0 200 -61q-18 -65 -61 -119q-78 56 -152 56q-53 0 -84.5 -21t-31.5 -58z" />
    <glyph glyph-name="sacute" unicode="&#x15b;" horiz-adv-x="467" 
d="M225 636l204 177q39 -41 61 -87l-224 -152q-28 29 -41 62zM173 -10q-123 0 -180 50q9 51 49 98q58 -40 135 -40q44 0 69 13t25 35q0 18 -22.5 30.5t-54.5 23t-63.5 24.5t-54 43t-22.5 70q0 84 64.5 136.5t181.5 52.5q103 0 168 -47q-8 -49 -49 -99q-56 37 -126 37
q-40 0 -63.5 -12t-23.5 -33q0 -18 23 -30.5t55 -23t64.5 -25t55.5 -44t23 -72.5q0 -86 -65.5 -136.5t-188.5 -50.5z" />
    <glyph glyph-name="Scedilla" unicode="&#x15e;" horiz-adv-x="575" 
d="M251 507q0 -28 28.5 -48t69.5 -35t82.5 -34.5t70 -58.5t28.5 -95q0 -100 -64 -165.5t-186 -77.5l-24 -33q42 -6 65.5 -30.5t16.5 -62.5q-9 -51 -60 -72.5t-139 -2.5q0 29 11 66q30 -5 52.5 3t22.5 33q0 15 -14 24t-45 16l36 56q-117 5 -201 65q19 71 61 123
q86 -60 178 -60q60 0 92 22.5t32 57.5q0 20 -15.5 36t-40 27t-54 22t-59.5 26.5t-54.5 35t-40 51.5t-15.5 73q0 107 76.5 174t218.5 67q123 0 200 -61q-18 -65 -61 -119q-78 56 -152 56q-53 0 -84.5 -21t-31.5 -58z" />
    <glyph glyph-name="scedilla" unicode="&#x15f;" horiz-adv-x="467" 
d="M206 372q0 -18 23 -30.5t55 -23t64.5 -25t55.5 -44t23 -72.5q0 -74 -50 -123t-146 -61l-24 -33q42 -6 65.5 -30.5t16.5 -62.5q-9 -51 -60 -72.5t-139 -2.5q0 29 11 66q30 -5 52.5 3t22.5 33q0 15 -14 24t-45 16l36 56q-108 5 -160 50q9 51 49 98q58 -40 135 -40
q44 0 69 13t25 35q0 18 -22.5 30.5t-54.5 23t-63.5 24.5t-54 43t-22.5 70q0 84 64.5 136.5t181.5 52.5q103 0 168 -47q-8 -49 -49 -99q-56 37 -126 37q-40 0 -63.5 -12t-23.5 -33z" />
    <glyph glyph-name="Scaron" unicode="&#x160;" horiz-adv-x="575" 
d="M578 900l-203 -142l-152 142q38 52 74 79l78 -103q14 -17 12 -40h4q9 26 26 40l114 103q27 -27 47 -79zM251 507q0 -28 28.5 -48t69.5 -35t82.5 -34.5t70 -58.5t28.5 -95q0 -111 -79 -178.5t-227 -67.5q-132 0 -223 65q19 71 61 123q86 -60 178 -60q60 0 92 22.5t32 57.5
q0 20 -15.5 36t-40 27t-54 22t-59.5 26.5t-54.5 35t-40 51.5t-15.5 73q0 107 76.5 174t218.5 67q123 0 200 -61q-18 -65 -61 -119q-78 56 -152 56q-53 0 -84.5 -21t-31.5 -58z" />
    <glyph glyph-name="scaron" unicode="&#x161;" horiz-adv-x="467" 
d="M496 716l-203 -142l-152 142q38 52 74 79l78 -103q14 -17 12 -40h4q9 26 26 40l114 103q27 -27 47 -79zM293 417q-40 0 -63.5 -12t-23.5 -33q0 -18 23 -30.5t55 -23t64.5 -25t55.5 -44t23 -72.5q0 -86 -65.5 -136.5t-188.5 -50.5t-180 50q9 51 49 98q58 -40 135 -40
q44 0 69 13t25 35q0 18 -22.5 30.5t-54.5 23t-63.5 24.5t-54 43t-22.5 70q0 84 64.5 136.5t181.5 52.5q103 0 168 -47q-8 -49 -49 -99q-56 37 -126 37z" />
    <glyph glyph-name="uni0162" unicode="&#x162;" horiz-adv-x="580" 
d="M644 700q-3 -59 -22 -128h-196l-101 -572l-38 -3l-27 -37q42 -6 65.5 -30.5t16.5 -62.5q-9 -51 -60 -72.5t-139 -2.5q0 29 11 66q30 -5 52.5 3t22.5 33q0 15 -14 24t-45 16l40 63l-46 3l92 522q6 30 13 45l-4 5h-196q4 58 22 128h553z" />
    <glyph glyph-name="uni0163" unicode="&#x163;" horiz-adv-x="421" 
d="M264 396l-38 -215q-12 -71 40 -71q27 0 80 28q23 -47 13 -106q-57 -35 -118 -41l-23 -31q42 -6 65.5 -30.5t16.5 -62.5q-9 -51 -60 -72.5t-139 -2.5q0 29 11 66q30 -5 52.5 3t22.5 33q0 15 -14 24t-45 16l38 60q-59 12 -83.5 54.5t-12.5 109.5l33 188q6 30 13 45l-4 5
h-69q1 58 21 120h69l17 93q66 34 158 34l-14 -77q-5 -25 -13 -45l4 -5h144q-3 -60 -21 -120h-144z" />
    <glyph glyph-name="Tcaron" unicode="&#x164;" horiz-adv-x="580" 
d="M581 900l-203 -142l-152 142q38 52 74 79l78 -103q14 -17 12 -40h4q9 26 26 40l114 103q27 -27 47 -79zM644 700q-3 -59 -22 -128h-196l-101 -572q-81 -8 -161 0l92 522q6 30 13 45l-4 5h-196q4 58 22 128h553z" />
    <glyph glyph-name="tcaron" unicode="&#x165;" horiz-adv-x="439" 
d="M363 574l24 203q67 7 133 0l-50 -203q-54 -7 -107 0zM346 138q23 -47 13 -106q-70 -42 -145 -42q-84 0 -121 44.5t-23 123.5l33 188q6 30 13 45l-4 5h-69q1 58 21 120h69l17 93q66 34 158 34l-14 -77q-5 -25 -13 -45l4 -5h144q-3 -60 -21 -120h-144l-38 -215
q-12 -71 40 -71q27 0 80 28z" />
    <glyph glyph-name="Tbar" unicode="&#x166;" horiz-adv-x="580" 
d="M622 572h-196l-24 -134h110q-1 -53 -19 -112h-110l-58 -326q-81 -8 -161 0l57 326h-106q1 53 19 112h107l15 84q6 30 13 45l-4 5h-196q4 58 22 128h357h196q-3 -59 -22 -128z" />
    <glyph glyph-name="tbar" unicode="&#x167;" horiz-adv-x="421" 
d="M408 396h-144l-8 -48h144q-3 -59 -19 -112h-145l-10 -55q-12 -71 40 -71q27 0 80 28q23 -47 13 -106q-70 -42 -145 -42q-84 0 -121 44.5t-23 123.5l14 78h-68q1 53 19 112h68q6 30 13 43l-4 5h-69q1 58 21 120h69l17 93q66 34 158 34l-14 -77q-5 -25 -13 -45l4 -5h144
q-3 -60 -21 -120z" />
    <glyph glyph-name="Umacron" unicode="&#x16a;" horiz-adv-x="681" 
d="M268 897h369q0 -52 -18 -104h-369q0 52 18 104zM539 700q81 8 161 0l-83 -470q-20 -110 -101.5 -175t-222.5 -65t-200 65t-39 175l83 470q82 8 160 0l-78 -447q-13 -71 11 -103.5t85 -31.5q62 1 97 32.5t48 102.5z" />
    <glyph glyph-name="umacron" unicode="&#x16b;" horiz-adv-x="554" 
d="M183 713h369q0 -52 -18 -104h-369q0 52 18 104zM394 490q68 34 158 34l-92 -524q-79 -9 -152 0q3 19 11 34l-4 5q-73 -52 -162 -52q-152 0 -128 137l65 366q68 34 159 34l-60 -339q-7 -44 5.5 -59t46.5 -15q42 0 91 26z" />
    <glyph glyph-name="Uring" unicode="&#x16e;" horiz-adv-x="681" 
d="M426 748q-96 0 -96 83q0 60 35 95t98 35q46 0 70 -22.5t24 -64.5q0 -61 -34.5 -93.5t-96.5 -32.5zM437 813q48 0 48 50q0 33 -33 33q-49 0 -49 -52q0 -31 34 -31zM539 700q81 8 161 0l-83 -470q-20 -110 -101.5 -175t-222.5 -65t-200 65t-39 175l83 470q82 8 160 0
l-78 -447q-13 -71 11 -103.5t85 -31.5q62 1 97 32.5t48 102.5z" />
    <glyph glyph-name="uring" unicode="&#x16f;" horiz-adv-x="554" 
d="M341 564q-96 0 -96 83q0 60 35 95t98 35q46 0 70 -22.5t24 -64.5q0 -61 -34.5 -93.5t-96.5 -32.5zM352 629q48 0 48 50q0 33 -33 33q-49 0 -49 -52q0 -31 34 -31zM394 490q68 34 158 34l-92 -524q-79 -9 -152 0q3 19 11 34l-4 5q-73 -52 -162 -52q-152 0 -128 137l65 366
q68 34 159 34l-60 -339q-7 -44 5.5 -59t46.5 -15q42 0 91 26z" />
    <glyph glyph-name="Uhungarumlaut" unicode="&#x170;" horiz-adv-x="681" 
d="M263 811l175 186q40 -34 62 -78l-195 -161q-29 20 -42 53zM454 811l175 186q40 -34 62 -78l-195 -161q-29 20 -42 53zM539 700q81 8 161 0l-83 -470q-20 -110 -101.5 -175t-222.5 -65t-200 65t-39 175l83 470q82 8 160 0l-78 -447q-13 -71 11 -103.5t85 -31.5
q62 1 97 32.5t48 102.5z" />
    <glyph glyph-name="uhungarumlaut" unicode="&#x171;" horiz-adv-x="554" 
d="M178 627l175 186q40 -34 62 -78l-195 -161q-29 20 -42 53zM369 627l175 186q40 -34 62 -78l-195 -161q-29 20 -42 53zM394 490q68 34 158 34l-92 -524q-79 -9 -152 0q3 19 11 34l-4 5q-73 -52 -162 -52q-152 0 -128 137l65 366q68 34 159 34l-60 -339q-7 -44 5.5 -59
t46.5 -15q42 0 91 26z" />
    <glyph glyph-name="Uogonek" unicode="&#x172;" horiz-adv-x="681" 
d="M539 700q81 8 161 0l-83 -470q-16 -89 -73 -150t-154 -81q-41 -30 -58.5 -49.5t-17.5 -40.5q0 -20 17 -26t38 -2q0 -44 -15 -89q-93 -18 -135.5 10t-34.5 78q12 65 88 110q-130 5 -183.5 69.5t-34.5 170.5l83 470q82 8 160 0l-78 -447q-13 -71 11 -103.5t85 -31.5
q62 1 97 32.5t48 102.5z" />
    <glyph glyph-name="uogonek" unicode="&#x173;" horiz-adv-x="555" 
d="M402 -208q-85 -17 -128.5 4.5t-43.5 68.5q0 78 102 139q-6 19 -17 35q-73 -52 -162 -52q-152 0 -128 137l65 366q68 34 159 34l-60 -339q-7 -44 5.5 -59t46.5 -15q42 0 91 26l62 353q68 34 158 34l-92 -524q-46 -14 -72 -39.5t-26 -53.5q0 -35 56 -26q-2 -46 -16 -89z
" />
    <glyph glyph-name="Wcircumflex" unicode="&#x174;" horiz-adv-x="892" 
d="M513 861l-114 -103q-27 27 -47 79l203 142l152 -142q-38 -52 -74 -79l-78 103q-14 17 -12 40h-4q-9 -26 -26 -40zM795 700q84 8 165 0l-291 -700q-84 -8 -165 0l-30 320q-4 51 0 82h-4q-9 -34 -29 -82l-144 -320q-83 -8 -164 0l-45 700q84 8 165 0l11 -386q0 -82 -1 -93
h5q10 46 30 93l137 314q33 4 77 4q43 0 75 -4l27 -314q4 -42 -2 -93h5q7 28 31 93z" />
    <glyph glyph-name="wcircumflex" unicode="&#x175;" horiz-adv-x="812" 
d="M441 677l-114 -103q-27 27 -47 79l203 142l152 -142q-38 -52 -74 -79l-78 103q-14 17 -12 40h-4q-9 -26 -26 -40zM693 516q83 7 161 0l-253 -516q-78 -7 -154 0l-23 256q-5 62 -3 77h-4q-5 -23 -29 -77l-114 -256q-78 -7 -154 0l-71 516q81 7 161 0l23 -264q3 -49 0 -73
h5q11 46 26 73l108 241q40 5 76 5q38 0 75 -5l23 -241q5 -35 0 -73h5q11 38 26 73z" />
    <glyph glyph-name="Ycircumflex" unicode="&#x176;" horiz-adv-x="630" 
d="M382 861l-114 -103q-27 27 -47 79l203 142l152 -142q-38 -52 -74 -79l-78 103q-14 17 -12 40h-4q-9 -26 -26 -40zM530 700q86 8 168 0l-291 -430l-47 -270q-82 -10 -160 0l47 270l-159 430q91 8 178 0l81 -247q6 -18 1 -73h5q11 50 25 73z" />
    <glyph glyph-name="ycircumflex" unicode="&#x177;" horiz-adv-x="543" 
d="M308 677l-114 -103q-27 27 -47 79l203 142l152 -142q-38 -52 -74 -79l-78 103q-14 17 -12 40h-4q-9 -26 -26 -40zM430 516q79 7 155 0l-263 -500q-60 -113 -139 -169t-202 -57q1 49 19 107q58 5 94.5 30.5t65.5 80.5l-106 508q84 8 164 0l44 -281q4 -36 0 -73h5
q11 44 26 73z" />
    <glyph glyph-name="Ydieresis" unicode="&#x178;" horiz-adv-x="630" 
d="M270 765q-68 0 -68 60q0 47 24 73t72 26q67 0 67 -62q0 -97 -95 -97zM520 765q-68 0 -68 60q0 47 24 73t72 26q67 0 67 -62q0 -97 -95 -97zM698 700l-291 -430l-47 -270q-82 -10 -160 0l47 270l-159 430q91 8 178 0l81 -247q6 -18 1 -73h5q11 50 25 73l152 247
q86 8 168 0z" />
    <glyph glyph-name="Zacute" unicode="&#x179;" horiz-adv-x="576" 
d="M318 820l204 177q39 -41 61 -87l-224 -152q-28 29 -41 62zM535 128q-3 -65 -22 -128h-533q2 44 15 87l349 435q22 28 53 45l-1 5h-294q3 61 23 128h502q0 -44 -15 -87l-348 -435q-26 -32 -54 -45l1 -5h324z" />
    <glyph glyph-name="zacute" unicode="&#x17a;" horiz-adv-x="473" 
d="M495 726l-224 -152q-28 29 -41 62l204 177q39 -41 61 -87zM221 148q-16 -19 -29 -23l1 -5h235q-3 -60 -21 -120h-442q0 39 15 87l261 281q15 18 29 23l-1 5h-215q1 58 21 120h422q-2 -47 -16 -87z" />
    <glyph glyph-name="Zdotaccent" unicode="&#x17b;" horiz-adv-x="576" 
d="M387 765q-68 0 -68 60q0 47 24 73t72 26q67 0 67 -62q0 -97 -95 -97zM535 128q-3 -65 -22 -128h-533q2 44 15 87l349 435q22 28 53 45l-1 5h-294q3 61 23 128h502q0 -44 -15 -87l-348 -435q-26 -32 -54 -45l1 -5h324z" />
    <glyph glyph-name="zdotaccent" unicode="&#x17c;" horiz-adv-x="473" 
d="M299 581q-68 0 -68 60q0 47 24 73t72 26q67 0 67 -62q0 -97 -95 -97zM221 148q-16 -19 -29 -23l1 -5h235q-3 -60 -21 -120h-442q0 39 15 87l261 281q15 18 29 23l-1 5h-215q1 58 21 120h422q-2 -47 -16 -87z" />
    <glyph glyph-name="Zcaron" unicode="&#x17d;" horiz-adv-x="576" 
d="M589 900l-203 -142l-152 142q38 52 74 79l78 -103q14 -17 12 -40h4q9 26 26 40l114 103q27 -27 47 -79zM264 178q-26 -32 -54 -45l1 -5h324q-3 -65 -22 -128h-533q2 44 15 87l349 435q22 28 53 45l-1 5h-294q3 61 23 128h502q0 -44 -15 -87z" />
    <glyph glyph-name="zcaron" unicode="&#x17e;" horiz-adv-x="473" 
d="M501 716l-203 -142l-152 142q38 52 74 79l78 -103q14 -17 12 -40h4q9 26 26 40l114 103q27 -27 47 -79zM54 396q1 58 21 120h422q-2 -47 -16 -87l-260 -281q-16 -19 -29 -23l1 -5h235q-3 -60 -21 -120h-442q0 39 15 87l261 281q15 18 29 23l-1 5h-215z" />
    <glyph glyph-name="uni01CE" unicode="&#x1ce;" horiz-adv-x="517" 
d="M518 716l-203 -142l-152 142q38 52 74 79l78 -103q14 -17 12 -40h4q9 26 26 40l114 103q27 -27 47 -79zM310 526q96 0 144 -38.5t31 -132.5l-62 -355q-78 -8 -152 0q1 12 10 32l-4 5q-63 -47 -137 -47q-70 0 -108 38.5t-27 106.5l5 26q11 68 63 106.5t124 38.5
q77 0 120 -43l6 5q-3 21 2 45l5 27q7 37 -7.5 55t-66.5 18q-69 0 -150 -36q-18 49 -11 98q95 51 215 51zM290 115l12 66q-35 29 -73 29q-30 0 -49 -16t-23 -38l-2 -16q-4 -23 8.5 -39t42.5 -16q40 0 84 30z" />
    <glyph glyph-name="Scommaaccent" unicode="&#x218;" horiz-adv-x="575" 
d="M251 507q0 -28 28.5 -48t69.5 -35t82.5 -34.5t70 -58.5t28.5 -95q0 -111 -79 -178.5t-227 -67.5q-132 0 -223 65q19 71 61 123q86 -60 178 -60q60 0 92 22.5t32 57.5q0 20 -15.5 36t-40 27t-54 22t-59.5 26.5t-54.5 35t-40 51.5t-15.5 73q0 107 76.5 174t218.5 67
q123 0 200 -61q-18 -65 -61 -119q-78 56 -152 56q-53 0 -84.5 -21t-31.5 -58zM108 -247l104 170q16 -7 45 -24t40 -25l-125 -160q-38 13 -64 39z" />
    <glyph glyph-name="scommaaccent" unicode="&#x219;" horiz-adv-x="467" 
d="M173 -10q-123 0 -180 50q9 51 49 98q58 -40 135 -40q44 0 69 13t25 35q0 18 -22.5 30.5t-54.5 23t-63.5 24.5t-54 43t-22.5 70q0 84 64.5 136.5t181.5 52.5q103 0 168 -47q-8 -49 -49 -99q-56 37 -126 37q-40 0 -63.5 -12t-23.5 -33q0 -18 23 -30.5t55 -23t64.5 -25
t55.5 -44t23 -72.5q0 -86 -65.5 -136.5t-188.5 -50.5zM59 -247l104 170q16 -7 45 -24t40 -25l-125 -160q-38 13 -64 39z" />
    <glyph glyph-name="uni021A" unicode="&#x21a;" horiz-adv-x="580" 
d="M644 700q-3 -59 -22 -128h-196l-101 -572q-81 -8 -161 0l92 522q6 30 13 45l-4 5h-196q4 58 22 128h357h196zM112 -247l104 170q16 -7 45 -24t40 -25l-125 -160q-38 13 -64 39z" />
    <glyph glyph-name="uni021B" unicode="&#x21b;" horiz-adv-x="421" 
d="M346 138q23 -47 13 -106q-70 -42 -145 -42q-84 0 -121 44.5t-23 123.5l33 188q6 30 13 45l-4 5h-69q1 58 21 120h69l17 93q66 34 158 34l-14 -77q-5 -25 -13 -45l4 -5h144q-3 -60 -21 -120h-144l-38 -215q-12 -71 40 -71q27 0 80 28zM70 -247l104 170q16 -7 45 -24
t40 -25l-125 -160q-38 13 -64 39z" />
    <glyph glyph-name="circumflex" unicode="&#x2c6;" horiz-adv-x="451" 
d="M105 795l152 -142q-38 -52 -74 -79l-78 103q-14 17 -12 40h-4q-9 -26 -26 -40l-114 -103q-27 27 -47 79z" />
    <glyph glyph-name="caron" unicode="&#x2c7;" horiz-adv-x="451" 
d="M356 795q27 -27 47 -79l-203 -142l-152 142q38 52 74 79l78 -103q14 -17 12 -40h4q9 26 26 40z" />
    <glyph glyph-name="breve" unicode="&#x2d8;" horiz-adv-x="424" 
d="M307 756q40 1 77 -10q-29 -84 -83 -123t-117 -39t-103 39.5t-39 122.5q39 11 80 10q15 -68 80 -68q66 0 105 68z" />
    <glyph glyph-name="dotaccent" unicode="&#x2d9;" horiz-adv-x="250" 
d="M111 581q-68 0 -68 60q0 47 24 73t72 26q67 0 67 -62q0 -97 -95 -97z" />
    <glyph glyph-name="ring" unicode="&#x2da;" horiz-adv-x="301" 
d="M133 564q-96 0 -96 83q0 60 35 95t98 35q46 0 70 -22.5t24 -64.5q0 -61 -34.5 -93.5t-96.5 -32.5zM144 629q48 0 48 50q0 33 -33 33q-49 0 -49 -52q0 -31 34 -31z" />
    <glyph glyph-name="ogonek" unicode="&#x2db;" horiz-adv-x="627" 
d="M356 10l81 -10q-42 -31 -59.5 -50.5t-17.5 -40.5q0 -20 17 -26t38 -2q0 -44 -15 -89q-93 -18 -135.5 10t-34.5 78q15 79 126 130z" />
    <glyph glyph-name="tilde" unicode="&#x2dc;" horiz-adv-x="415" 
d="M282 732q89 0 117 -94q-37 -29 -74 -43q-24 37 -52 37q-17 0 -62 -20t-75 -20q-77 0 -120 94q30 26 73 44q26 -37 54 -37q19 0 62 19.5t77 19.5z" />
    <glyph glyph-name="hungarumlaut" unicode="&#x2dd;" horiz-adv-x="561" 
d="M63 627l175 186q40 -34 62 -78l-195 -161q-29 20 -42 53zM254 627l175 186q40 -34 62 -78l-195 -161q-29 20 -42 53z" />
    <glyph glyph-name="gravecomb" unicode="&#x300;" 
 />
    <glyph glyph-name="acutecomb" unicode="&#x301;" 
 />
    <glyph glyph-name="uni0302" unicode="&#x302;" 
 />
    <glyph glyph-name="tildecomb" unicode="&#x303;" 
 />
    <glyph glyph-name="uni0304" unicode="&#x304;" 
 />
    <glyph glyph-name="uni0306" unicode="&#x306;" 
 />
    <glyph glyph-name="uni0307" unicode="&#x307;" 
 />
    <glyph glyph-name="uni0308" unicode="&#x308;" 
 />
    <glyph glyph-name="uni030A" unicode="&#x30a;" 
 />
    <glyph glyph-name="uni030B" unicode="&#x30b;" 
 />
    <glyph glyph-name="uni030C" unicode="&#x30c;" 
 />
    <glyph glyph-name="uni0312" unicode="&#x312;" 
 />
    <glyph glyph-name="uni0326" unicode="&#x326;" 
d="M-248 -247l104 170q16 -7 45 -24t40 -25l-125 -160q-38 13 -64 39z" />
    <glyph glyph-name="uni0327" unicode="&#x327;" 
 />
    <glyph glyph-name="uni0328" unicode="&#x328;" 
 />
    <glyph glyph-name="uni0335" unicode="&#x335;" 
 />
    <glyph glyph-name="uni0336" unicode="&#x336;" 
 />
    <glyph glyph-name="uni0337" unicode="&#x337;" 
 />
    <glyph glyph-name="uni0338" unicode="&#x338;" 
 />
    <glyph glyph-name="Wgrave" unicode="&#x1e80;" horiz-adv-x="892" 
d="M657 820q-13 -33 -41 -62l-224 152q22 46 61 87zM795 700q84 8 165 0l-291 -700q-84 -8 -165 0l-30 320q-4 51 0 82h-4q-9 -34 -29 -82l-144 -320q-83 -8 -164 0l-45 700q84 8 165 0l11 -386q0 -82 -1 -93h5q10 46 30 93l137 314q33 4 77 4q43 0 75 -4l27 -314
q4 -42 -2 -93h5q7 28 31 93z" />
    <glyph glyph-name="wgrave" unicode="&#x1e81;" horiz-adv-x="812" 
d="M585 636q-13 -33 -41 -62l-224 152q22 46 61 87zM693 516q83 7 161 0l-253 -516q-78 -7 -154 0l-23 256q-5 62 -3 77h-4q-5 -23 -29 -77l-114 -256q-78 -7 -154 0l-71 516q81 7 161 0l23 -264q3 -49 0 -73h5q11 46 26 73l108 241q40 5 76 5q38 0 75 -5l23 -241
q5 -35 0 -73h5q11 38 26 73z" />
    <glyph glyph-name="Wacute" unicode="&#x1e82;" horiz-adv-x="892" 
d="M466 820l204 177q39 -41 61 -87l-224 -152q-28 29 -41 62zM795 700q84 8 165 0l-291 -700q-84 -8 -165 0l-30 320q-4 51 0 82h-4q-9 -34 -29 -82l-144 -320q-83 -8 -164 0l-45 700q84 8 165 0l11 -386q0 -82 -1 -93h5q10 46 30 93l137 314q33 4 77 4q43 0 75 -4l27 -314
q4 -42 -2 -93h5q7 28 31 93z" />
    <glyph glyph-name="wacute" unicode="&#x1e83;" horiz-adv-x="812" 
d="M394 636l204 177q39 -41 61 -87l-224 -152q-28 29 -41 62zM693 516q83 7 161 0l-253 -516q-78 -7 -154 0l-23 256q-5 62 -3 77h-4q-5 -23 -29 -77l-114 -256q-78 -7 -154 0l-71 516q81 7 161 0l23 -264q3 -49 0 -73h5q11 46 26 73l108 241q40 5 76 5q38 0 75 -5l23 -241
q5 -35 0 -73h5q11 38 26 73z" />
    <glyph glyph-name="Wdieresis" unicode="&#x1e84;" horiz-adv-x="892" 
d="M401 765q-68 0 -68 60q0 47 24 73t72 26q67 0 67 -62q0 -97 -95 -97zM651 765q-68 0 -68 60q0 47 24 73t72 26q67 0 67 -62q0 -97 -95 -97zM795 700q84 8 165 0l-291 -700q-84 -8 -165 0l-30 320q-4 51 0 82h-4q-9 -34 -29 -82l-144 -320q-83 -8 -164 0l-45 700
q84 8 165 0l11 -386q0 -82 -1 -93h5q10 46 30 93l137 314q33 4 77 4q43 0 75 -4l27 -314q4 -42 -2 -93h5q7 28 31 93z" />
    <glyph glyph-name="wdieresis" unicode="&#x1e85;" horiz-adv-x="812" 
d="M329 581q-68 0 -68 60q0 47 24 73t72 26q67 0 67 -62q0 -97 -95 -97zM579 581q-68 0 -68 60q0 47 24 73t72 26q67 0 67 -62q0 -97 -95 -97zM693 516q83 7 161 0l-253 -516q-78 -7 -154 0l-23 256q-5 62 -3 77h-4q-5 -23 -29 -77l-114 -256q-78 -7 -154 0l-71 516
q81 7 161 0l23 -264q3 -49 0 -73h5q11 46 26 73l108 241q40 5 76 5q38 0 75 -5l23 -241q5 -35 0 -73h5q11 38 26 73z" />
    <glyph glyph-name="Ygrave" unicode="&#x1ef2;" horiz-adv-x="630" 
d="M526 820q-13 -33 -41 -62l-224 152q22 46 61 87zM698 700l-291 -430l-47 -270q-82 -10 -160 0l47 270l-159 430q91 8 178 0l81 -247q6 -18 1 -73h5q11 50 25 73l152 247q86 8 168 0z" />
    <glyph glyph-name="ygrave" unicode="&#x1ef3;" horiz-adv-x="543" 
d="M452 636q-13 -33 -41 -62l-224 152q22 46 61 87zM430 516q79 7 155 0l-263 -500q-60 -113 -139 -169t-202 -57q1 49 19 107q58 5 94.5 30.5t65.5 80.5l-106 508q84 8 164 0l44 -281q4 -36 0 -73h5q11 44 26 73z" />
    <glyph glyph-name="endash" unicode="&#x2013;" horiz-adv-x="563" 
d="M587 366q-2 -58 -19 -113h-574q2 58 19 113h574z" />
    <glyph glyph-name="emdash" unicode="&#x2014;" horiz-adv-x="762" 
d="M787 366q-3 -58 -19 -113h-774q2 58 19 113h774z" />
    <glyph glyph-name="quoteleft" unicode="&#x2018;" horiz-adv-x="239" 
d="M334 782l-138 -227q-60 26 -91 55l167 212q37 -15 62 -40z" />
    <glyph glyph-name="quoteright" unicode="&#x2019;" horiz-adv-x="239" 
d="M57 595l138 227q60 -26 91 -55l-167 -212q-37 15 -62 40z" />
    <glyph glyph-name="quotesinglbase" unicode="&#x201a;" horiz-adv-x="240" 
d="M-63 -87l138 227q60 -26 91 -55l-167 -212q-37 15 -62 40z" />
    <glyph glyph-name="quotedblleft" unicode="&#x201c;" horiz-adv-x="420" 
d="M334 782l-138 -227q-60 26 -91 55l167 212q37 -15 62 -40zM515 782l-138 -227q-60 26 -91 55l167 212q37 -15 62 -40z" />
    <glyph glyph-name="quotedblright" unicode="&#x201d;" horiz-adv-x="420" 
d="M57 595l138 227q60 -26 91 -55l-167 -212q-37 15 -62 40zM238 595l138 227q60 -26 91 -55l-167 -212q-37 15 -62 40z" />
    <glyph glyph-name="quotedblbase" unicode="&#x201e;" horiz-adv-x="421" 
d="M-63 -87l138 227q60 -26 91 -55l-167 -212q-37 15 -62 40zM118 -87l138 227q60 -26 91 -55l-167 -212q-37 15 -62 40z" />
    <glyph glyph-name="dagger" unicode="&#x2020;" horiz-adv-x="494" 
d="M540 597q-2 -52 -14 -89l-180 3l-120 -712q-54 -7 -107 2l121 710l-179 3q-2 47 13 89l181 -3l38 240q56 6 106 -1l-38 -239z" />
    <glyph glyph-name="daggerdbl" unicode="&#x2021;" horiz-adv-x="494" 
d="M278 128l178 -3q0 -46 -13 -89l-181 3l-36 -240q-54 -7 -107 2l38 238l-180 3q0 48 14 89l181 -3l68 383l-179 3q-2 47 13 89l181 -3l38 240q56 6 106 -1l-38 -239l179 -3q-2 -52 -14 -89l-180 3z" />
    <glyph glyph-name="bullet" unicode="&#x2022;" horiz-adv-x="328" 
d="M153 172q-128 0 -104 125q22 125 146 125q126 0 104 -125q-24 -125 -146 -125z" />
    <glyph glyph-name="ellipsis" unicode="&#x2026;" horiz-adv-x="744" 
d="M120 -10q-81 0 -66 79q14 80 93 80q80 0 66 -80q-15 -79 -93 -79zM286 -10q-81 0 -66 79q14 80 93 80q80 0 66 -80q-15 -79 -93 -79zM575 -10q-81 0 -66 79q14 80 93 80q80 0 66 -80q-15 -79 -93 -79z" />
    <glyph glyph-name="perthousand" unicode="&#x2030;" horiz-adv-x="1263" 
d="M795 662l-589 -671q-44 23 -75 60l588 671q44 -25 76 -60zM281 710q77 0 112.5 -40t25.5 -98l-15 -90q-10 -58 -60.5 -98t-127.5 -40q-78 0 -113.5 40t-25.5 98l16 90q10 58 60 98t128 40zM290 501l10 52q9 57 -37 57t-57 -57l-9 -52q-9 -57 37 -57q47 0 56 57zM704 357
q77 0 113 -40t26 -98l-16 -90q-10 -58 -60 -98t-127 -40q-78 0 -114 40t-26 98l16 90q10 58 60 98t128 40zM1081 357q77 0 112.5 -40t25.5 -98l-16 -90q-10 -58 -60 -98t-127 -40q-78 0 -113.5 40t-25.5 98l16 90q10 58 60 98t128 40zM713 148l9 52q11 57 -35 57
q-47 0 -58 -57l-8 -52q-9 -58 36 -58q47 0 56 58zM1090 148l9 52q11 57 -36 57q-46 0 -57 -57l-9 -52q-9 -58 37 -58q47 0 56 58z" />
    <glyph glyph-name="guilsinglleft" unicode="&#x2039;" horiz-adv-x="371" 
d="M128 255q27 -3 44 -22l121 -137q-49 -45 -109 -81l-181 242l267 243q47 -35 80 -82l-170 -136q-20 -18 -52 -23v-4z" />
    <glyph glyph-name="guilsinglright" unicode="&#x203a;" horiz-adv-x="371" 
d="M186 500l181 -243l-266 -242q-49 37 -80 81l169 137q25 19 52 22l2 4q-30 5 -45 23l-121 136q49 47 108 82z" />
    <glyph glyph-name="fraction" unicode="&#x2044;" horiz-adv-x="676" 
d="M566 697l-466 -725q-51 15 -90 45l466 725q51 -18 90 -45z" />
    <glyph glyph-name="Euro" unicode="&#x20ac;" horiz-adv-x="599" 
d="M443 582q-129 0 -151 -134l-4 -25h180q2 -25 -9 -50h-180l-11 -60h181q1 -24 -9 -50h-181l-2 -11q-26 -134 104 -134q72 0 164 51q24 -50 19 -118q-103 -61 -215 -61q-126 0 -192 61.5t-47 171.5l7 40h-88q-4 25 9 50h88l11 60h-89q-2 25 9 50h89l10 54
q19 110 106.5 171.5t213.5 61.5q113 0 193 -61q-18 -67 -60 -119q-75 52 -146 52z" />
    <glyph glyph-name="trademark" unicode="&#x2122;" horiz-adv-x="1058" 
d="M964 700q58 7 113 0l-92 -522q-61 -8 -120 0l46 260q3 21 10 35l-4 3l-140 -174q-6 -2 -30 -2q-25 0 -31 2l-79 174l-4 -3q1 -11 -3 -35l-45 -260q-62 -8 -121 0l92 522q58 7 114 0l88 -202q14 -36 12 -51h4q5 17 31 51zM503 700q-3 -44 -17 -95h-146l-75 -427
q-61 -6 -121 0l69 390q3 18 10 33l-3 4h-147q4 43 17 95h266h147z" />
    <glyph glyph-name="emptyset" unicode="&#x2205;" horiz-adv-x="618" 
d="M650 520l-89 -76q61 -76 42 -184q-21 -117 -119 -193.5t-223 -76.5q-101 0 -171 54l-93 -79q-16 15 -28 34l90 76q-62 75 -43 185q21 117 119 193.5t222 76.5q104 0 172 -55l93 79q16 -15 28 -34zM159 260q-9 -53 8 -93l261 222q-35 33 -90 33q-66 0 -116 -45.5
t-63 -116.5zM460 260q9 53 -8 92l-260 -221q35 -33 89 -33q66 0 116 45.5t63 116.5z" />
    <glyph glyph-name="product" unicode="&#x220f;" horiz-adv-x="625" 
d="M644 700l-159 -900q-59 -8 -107 0l142 803h-294l-141 -803q-59 -8 -107 0l159 900h507z" />
    <glyph glyph-name="summation" unicode="&#x2211;" horiz-adv-x="502" 
d="M-62 -184q0 44 15 86l273 306q29 34 54 48v4q-19 15 -36 48l-166 305q2 45 16 87h463q-2 -51 -17 -97h-323l-3 -5q21 -14 37 -45l157 -295l-261 -296q-29 -31 -53 -45l1 -5h323q-2 -51 -17 -96h-463z" />
    <glyph glyph-name="minus" unicode="&#x2212;" horiz-adv-x="652" 
d="M637 396q-1 -52 -19 -113h-575q1 52 19 113h575z" />
    <glyph glyph-name="infinity" unicode="&#x221e;" horiz-adv-x="733" 
d="M556 516q79 0 122.5 -56.5t28.5 -145.5q-16 -89 -80 -145.5t-142 -56.5q-89 0 -127 79h-5q-66 -79 -155 -79q-78 0 -122.5 57t-28.5 145q15 89 79 145.5t143 56.5q91 0 127 -79h5q65 79 155 79zM234 234q33 0 58.5 24t30.5 56q6 32 -11 55.5t-49 23.5t-56 -22.5
t-30 -56.5q-6 -35 10 -57.5t47 -22.5zM492 235q31 0 54.5 22t29.5 57q7 34 -9 56.5t-47 22.5q-33 0 -58.5 -23.5t-31.5 -55.5t11.5 -55.5t50.5 -23.5z" />
    <glyph glyph-name="integral" unicode="&#x222b;" horiz-adv-x="459" 
d="M33 -210q-69 0 -122 28q9 53 49 98q39 -19 71 -19q58 0 70 67l110 623q14 78 71 120.5t147 42.5q70 0 123 -28q-11 -54 -50 -98q-38 19 -71 19q-30 0 -46.5 -15.5t-23.5 -51.5l-110 -623q-13 -78 -70.5 -120.5t-147.5 -42.5z" />
    <glyph glyph-name="approxequal" unicode="&#x2248;" horiz-adv-x="661" 
d="M226 374q-52 0 -86.5 25.5t-65.5 85.5q41 30 74 44q24 -37 77 -37q46 0 139.5 28t143.5 28q113 0 150 -111q-38 -29 -73 -44q-26 38 -77 38q-44 0 -139 -28.5t-143 -28.5zM186 149q-52 0 -86.5 25.5t-64.5 85.5q35 28 73 43q24 -37 78 -37q46 0 139 28t144 28
q112 0 150 -111q-42 -30 -74 -43q-26 37 -77 37q-44 0 -139 -28t-143 -28z" />
    <glyph glyph-name="notequal" unicode="&#x2260;" horiz-adv-x="652" 
d="M639 403h-231l-81 -127h290q-3 -54 -20 -113h-342l-108 -168q-27 8 -45 23l93 145h-173q1 54 20 113h225l81 127h-284q3 60 20 113h336l95 148q21 -4 46 -23l-80 -125h178q-3 -60 -20 -113z" />
    <glyph glyph-name="lessequal" unicode="&#x2264;" horiz-adv-x="651" 
d="M691 701q-1 -55 -21 -121l-457 -163l399 -163q-3 -62 -21 -121l-535 228q1 55 20 112zM-7 0q1 55 20 112h575q-3 -55 -20 -112h-575z" />
    <glyph glyph-name="greaterequal" unicode="&#x2265;" horiz-adv-x="651" 
d="M116 701l535 -228q-3 -55 -20 -112l-615 -228q3 62 21 121l457 163l-399 163q1 55 21 121zM-7 0q1 55 20 112h575q-3 -55 -20 -112h-575z" />
    <glyph glyph-name="lozenge" unicode="&#x25ca;" horiz-adv-x="559" 
d="M370 750l203 -392l-342 -392l-204 392zM296 203l128 155l-73 155q-14 24 -12 51h-4q-10 -28 -30 -51l-128 -155l73 -155q12 -24 12 -51h4q10 28 30 51z" />
    <glyph glyph-name="i.loclTRK" horiz-adv-x="251" 
d="M185 581q-68 0 -68 60q0 47 24 73t72 26q67 0 67 -62q0 -97 -95 -97zM90 490q68 34 158 34l-92 -524q-78 -9 -152 0z" />
    <glyph glyph-name="com_o" horiz-adv-x="600" 
d="M-23 250v75q0 83 62.5 138t176.5 55v-112q-87 0 -87 -96v-60h-152z" />
    <glyph glyph-name="com_lacznik_b" horiz-adv-x="600" 
d="M270 413q-44 0 -81 -28v94q54 47 130 47z" />
    <glyph glyph-name="com_l" horiz-adv-x="316" 
d="M201 740v-740q-76 -9 -152 0v740q76 9 152 0z" />
    <glyph glyph-name="com_b_brzuch" horiz-adv-x="600" 
d="M-23 250v83q0 84 47 134.5t143 50.5l49 -112q-87 0 -87 -96v-60h-152z" />
    <glyph glyph-name="com_O" horiz-adv-x="600" 
d="M138 350v130q0 107 75 168.5t203 61.5v-128q-62 -1 -89.5 -33.5t-27.5 -98.5v-100h-161z" />
    <glyph glyph-name="com_i" horiz-adv-x="251" 
d="M90 490q68 34 158 34l-92 -524q-78 -9 -152 0z" />
    <glyph glyph-name="com_n" horiz-adv-x="587" 
d="M351 526q152 0 152 -137v-389q-77 -9 -152 0v327q0 43 -15.5 59t-49.5 16q-47 0 -93 -27v98q67 53 158 53z" />
    <glyph glyph-name="com_gora_skos" horiz-adv-x="509" 
d="M47 640v66q65 34 152 34v-100h-152z" />
    </font>
</defs>
</svg>
