<?xml version="1.0" standalone="no"?>
<!DOCTYPE svg PUBLIC "-//W3C//DTD SVG 1.1//EN" "http://www.w3.org/Graphics/SVG/1.1/DTD/svg11.dtd" >
<svg xmlns="http://www.w3.org/2000/svg" xmlns:xlink="http://www.w3.org/1999/xlink" version="1.1">
<metadata>
Created by FontForge 20170731 at Wed Jul 27 18:01:14 2016
 By Aleksey,,,
copyright missing
</metadata>
<defs>
<font id="AnebaNeue-Bold" horiz-adv-x="0" >
  <font-face 
    font-family="AnebaNeue-Bold"
    font-weight="400"
    font-stretch="normal"
    units-per-em="1000"
    panose-1="0 0 8 0 0 0 0 0 0 0"
    ascent="782"
    descent="-218"
    x-height="522"
    cap-height="700"
    bbox="-250 -303 1291 1007"
    underline-thickness="50"
    underline-position="-150"
    unicode-range="U+0020-25CA"
  />
<missing-glyph horiz-adv-x="470" 
d="M385 740v-940h-298v940h298zM313 677h-155v-31h61v-35h-62v-31h156v31h-62v35h62v31zM251 556h-94v-98h156v32h-62v66zM219 524v-34h-31v34h31zM313 433h-156v-31h62v-35h-62v-31h94v66h62v31zM313 376h-31v-62h-125v-32h156v94zM313 262h-94v-53h32v22h31v-45h-94v76
h-31v-107h156v107zM313 99h-156v-106h156v106zM282 68v-44h-94v44h94zM313 -29h-156v-31h66l-66 -44v-31h156v31h-96l66 44h30v31z" />
    <glyph glyph-name=".notdef" horiz-adv-x="470" 
d="M385 740v-940h-298v940h298zM313 677h-155v-31h61v-35h-62v-31h156v31h-62v35h62v31zM251 556h-94v-98h156v32h-62v66zM219 524v-34h-31v34h31zM313 433h-156v-31h62v-35h-62v-31h94v66h62v31zM313 376h-31v-62h-125v-32h156v94zM313 262h-94v-53h32v22h31v-45h-94v76
h-31v-107h156v107zM313 99h-156v-106h156v106zM282 68v-44h-94v44h94zM313 -29h-156v-31h66l-66 -44v-31h156v31h-96l66 44h30v31z" />
    <glyph glyph-name=".null" 
 />
    <glyph glyph-name="nonmarkingreturn" horiz-adv-x="333" 
 />
    <glyph glyph-name="space" unicode=" " horiz-adv-x="197" 
 />
    <glyph glyph-name="exclam" unicode="!" horiz-adv-x="292" 
d="M246 700l-21 -435q-79 -7 -158 0l-21 435q100 8 200 0zM146 -10q-49 0 -71.5 23t-22.5 71q0 94 94 94q93 0 93 -94t-93 -94z" />
    <glyph glyph-name="quotedbl" unicode="&#x22;" horiz-adv-x="380" 
d="M33 488l-16 212q81 7 163 0l-16 -212q-65 -9 -131 0zM216 488l-16 212q81 7 163 0l-16 -212q-65 -9 -131 0z" />
    <glyph glyph-name="numbersign" unicode="#" horiz-adv-x="752" 
d="M742 421h-109l-13 -142h109q2 -69 -12 -137h-109l-13 -142q-89 -7 -179 0l13 142h-142l-12 -142q-91 -7 -180 0l12 142h-108q-2 69 12 137h108l13 142h-108q-2 74 11 137h109l12 142q90 7 180 0l-12 -142h141l13 142q90 7 180 0l-13 -142h108q1 -67 -11 -137zM441 279
l12 142h-141l-13 -142h142z" />
    <glyph glyph-name="dollar" unicode="$" horiz-adv-x="542" 
d="M319 446q6 -2 29 -10.5t32.5 -12.5t31.5 -13.5t32.5 -16t28.5 -18.5t28 -23t22.5 -27t18.5 -33t10.5 -38.5t4.5 -45.5q0 -102 -71.5 -160t-211.5 -58q-24 0 -35 1l-17 -95q-24 -2 -49 8l16 92q-87 15 -161 60q10 91 47 152q70 -42 142 -56l20 115q-42 15 -71 30t-62 41
t-50.5 65.5t-17.5 91.5q0 98 67 156.5t205 58.5h7l14 81q26 1 50 -9l-13 -75q94 -10 162 -58q-7 -81 -47 -146q-83 49 -142 53zM236 512q0 -26 36 -46l15 88q-51 -8 -51 -42zM267 148q42 0 66 12.5t24 32.5q0 18 -18 30.5t-54 26.5z" />
    <glyph glyph-name="percent" unicode="%" horiz-adv-x="922" 
d="M741 647l-455 -649q-55 27 -104 72l455 649q57 -31 104 -72zM201 710q81 0 127.5 -41.5t46.5 -99.5v-88q0 -58 -46.5 -99.5t-127.5 -41.5t-127 41.5t-46 99.5v88q0 58 46 99.5t127 41.5zM234 501v48q0 21 -9.5 32t-23.5 11t-23 -11t-9 -32v-48q0 -21 9 -32t23 -11
t23.5 11t9.5 32zM720 361q81 0 127.5 -41.5t46.5 -99.5v-88q0 -58 -46.5 -99.5t-127.5 -41.5t-127.5 41.5t-46.5 99.5v88q0 58 46.5 99.5t127.5 41.5zM752 152v48q0 21 -9 32t-23 11t-23 -11t-9 -32v-48q0 -21 9 -32t23 -11t23 11t9 32z" />
    <glyph glyph-name="ampersand" unicode="&#x26;" horiz-adv-x="659" 
d="M553 163l148 -163q-110 -9 -221 0l-39 41q-80 -51 -187 -51q-64 0 -116.5 16.5t-90 60.5t-37.5 110q0 109 120 201q-77 90 -77 164q0 72 63 120t162 48t156.5 -45t57.5 -119q0 -57 -33.5 -97.5t-92.5 -78.5l64 -71q8 29 12 61q13 4 84 4t85 -4q-11 -113 -58 -197z
M232 541q0 -14 7.5 -27t30.5 -39q43 36 43 66q0 18 -10 30.5t-29 12.5t-30.5 -12.5t-11.5 -30.5zM276 148q28 0 55 11l-108 116q-30 -30 -30 -65q0 -29 22.5 -45.5t60.5 -16.5z" />
    <glyph glyph-name="quotesingle" unicode="'" horiz-adv-x="197" 
d="M33 488l-16 212q81 7 163 0l-16 -212q-65 -9 -131 0z" />
    <glyph glyph-name="parenleft" unicode="(" horiz-adv-x="307" 
d="M300 819q-137 -244 -137 -494t137 -494q-37 -18 -88 -21q-184 238 -184 515t184 515q51 -3 88 -21z" />
    <glyph glyph-name="parenright" unicode=")" horiz-adv-x="307" 
d="M95 840q184 -238 184 -515t-184 -515q-51 3 -88 21q137 244 137 494t-137 494q37 18 88 21z" />
    <glyph glyph-name="asterisk" unicode="*" horiz-adv-x="412" 
d="M153 750q54 7 106 0l-20 -154h-65zM35 668l139 -72l-20 -61l-155 33q12 52 36 100zM377 668q25 -48 36 -100l-154 -33l-20 61zM42 423l112 112l52 -39l-79 -136q-47 26 -85 63zM369 423q-41 -40 -84 -63l-79 136l53 39z" />
    <glyph glyph-name="plus" unicode="+" horiz-adv-x="655" 
d="M622 402q8 -69 0 -137h-226v-227q-68 -8 -137 0v227h-227q-8 69 0 137h227v226q69 8 137 0v-226h226z" />
    <glyph glyph-name="comma" unicode="," horiz-adv-x="267" 
d="M3 -80l102 235q79 -34 123 -67l-143 -216q-45 17 -82 48z" />
    <glyph glyph-name="hyphen" unicode="-" horiz-adv-x="454" 
d="M421 402q8 -68 0 -137h-389q-8 69 0 137h389z" />
    <glyph glyph-name="period" unicode="." horiz-adv-x="265" 
d="M133 -10q-49 0 -71.5 23t-22.5 71q0 94 94 94q93 0 93 -94t-93 -94z" />
    <glyph glyph-name="slash" unicode="/" horiz-adv-x="462" 
d="M462 694l-338 -725q-61 20 -114 53l338 725q63 -21 114 -53z" />
    <glyph glyph-name="zero" unicode="0" horiz-adv-x="644" 
d="M322 710q119 0 196.5 -64t77.5 -175v-242q0 -111 -77.5 -175t-196.5 -64t-196.5 64t-77.5 175v242q0 111 77.5 175t196.5 64zM396 265v170q0 116 -74 117q-74 -1 -74 -117v-170q0 -116 74 -117q74 1 74 117z" />
    <glyph glyph-name="one" unicode="1" horiz-adv-x="498" 
d="M255 700q73 8 147 0v-700q-100 -8 -200 0v451q0 27 5 44l-5 5l-150 -54q-7 90 0 181z" />
    <glyph glyph-name="two" unicode="2" horiz-adv-x="608" 
d="M556 158q8 -79 0 -158h-501q-7 52 0 105q26 28 85.5 82.5t100.5 94t75.5 94t34.5 102.5q0 39 -22.5 59t-60.5 20q-63 0 -161 -64q-52 68 -58 135q122 82 264 82q118 0 178 -51t60 -148q0 -205 -227 -348l2 -5h230z" />
    <glyph glyph-name="three" unicode="3" horiz-adv-x="630" 
d="M440 361q57 -13 99 -61t42 -118q0 -91 -74.5 -143t-193.5 -52q-144 0 -263 82q6 67 58 135q100 -65 171 -65q44 0 73 17t29 48q0 33 -36 58.5t-116 27.5q-8 57 0 116q137 15 137 89q0 28 -20 45t-56 17q-64 0 -162 -65q-52 68 -58 136q122 82 253 82q116 0 180 -50
t64 -131q0 -64 -37.5 -106t-89.5 -57v-5z" />
    <glyph glyph-name="four" unicode="4" horiz-adv-x="664" 
d="M630 252q8 -68 0 -136h-99v-116q-100 -8 -200 0v116h-318q-7 52 0 105l371 479q74 8 147 0v-448h99zM205 252h126v115q0 27 5 44l-5 5z" />
    <glyph glyph-name="five" unicode="5" horiz-adv-x="587" 
d="M284 -13q-138 0 -256 82q7 66 58 135q100 -65 167 -65q46 0 75.5 22.5t29.5 58.5q0 30 -21.5 51.5t-73.5 30t-139 -15.5l-74 31l51 383h405q8 -79 0 -158h-257l-14 -104q76 14 131.5 3.5t92.5 -31t59 -54t31.5 -66t9.5 -66.5q0 -101 -76 -169t-199 -68z" />
    <glyph glyph-name="six" unicode="6" horiz-adv-x="621" 
d="M377 418q95 0 150.5 -55t55.5 -153q0 -104 -66.5 -162t-185.5 -58q-130 0 -206.5 70t-76.5 220q0 98 39.5 179t105.5 133.5t151.5 80.5t178.5 27q8 -76 0 -153q-219 -12 -264 -166q53 37 118 37zM331 127q30 0 46 20.5t16 52.5t-16 54t-45 22q-39 0 -82 -33q4 -62 24 -89
t57 -27z" />
    <glyph glyph-name="seven" unicode="7" horiz-adv-x="574" 
d="M551 700q7 -52 0 -105q-196 -313 -208 -595q-110 -7 -222 0q24 271 165 492q15 23 45 45l-2 5h-296q-8 79 0 158h518z" />
    <glyph glyph-name="eight" unicode="8" horiz-adv-x="656" 
d="M497 358q58 -39 84.5 -76t26.5 -95q0 -68 -40.5 -114.5t-101.5 -66t-138 -19.5t-138 19.5t-101.5 66t-40.5 114.5q0 58 26.5 95t84.5 76v5q-91 65 -91 151q0 87 71 141.5t189 54.5t189 -54.5t71 -141.5q0 -93 -91 -151v-5zM328 429q28 0 51 22t23 48q0 25 -23 46t-51 21
q-32 0 -53.5 -20.5t-21.5 -46.5q0 -27 21.5 -48.5t53.5 -21.5zM328 139q29 0 51.5 21t22.5 49q0 26 -20.5 48t-53.5 22q-34 0 -55 -22t-21 -48q0 -28 23 -49t53 -21z" />
    <glyph glyph-name="nine" unicode="9" horiz-adv-x="621" 
d="M290 700q130 0 206.5 -70t76.5 -220q0 -98 -39.5 -179t-105.5 -133.5t-151.5 -80.5t-178.5 -27q-8 76 0 153q219 12 264 166q-53 -37 -118 -37q-95 0 -150.5 55t-55.5 153q0 104 66.5 162t185.5 58zM228 490q0 -32 16 -54t45 -22q39 0 82 33q-4 62 -24 89t-57 27
q-30 0 -46 -20.5t-16 -52.5z" />
    <glyph glyph-name="colon" unicode=":" horiz-adv-x="265" 
d="M133 334q-49 0 -71.5 23t-22.5 71q0 94 94 94q93 0 93 -94t-93 -94zM133 -10q-49 0 -71.5 23t-22.5 71q0 94 94 94q93 0 93 -94t-93 -94z" />
    <glyph glyph-name="semicolon" unicode=";" horiz-adv-x="272" 
d="M140 334q-49 0 -71.5 23t-22.5 71q0 94 94 94q93 0 93 -94t-93 -94zM3 -80l102 235q79 -34 123 -67l-143 -216q-45 17 -82 48z" />
    <glyph glyph-name="less" unicode="&#x3c;" horiz-adv-x="655" 
d="M215 334l407 -153q8 -74 0 -147l-590 231q-8 69 0 137l590 230q8 -73 0 -146z" />
    <glyph glyph-name="equal" unicode="=" horiz-adv-x="655" 
d="M622 522q8 -68 0 -137h-590q-8 69 0 137h590zM622 282q8 -68 0 -137h-590q-8 69 0 137h590z" />
    <glyph glyph-name="greater" unicode="&#x3e;" horiz-adv-x="655" 
d="M623 402q8 -69 0 -137l-590 -231q-8 74 0 147l407 153l-407 152q-8 73 0 146z" />
    <glyph glyph-name="question" unicode="?" horiz-adv-x="454" 
d="M247 502q0 30 -23 45.5t-59 15.5q-62 0 -140 -42q-18 65 -18 146q78 43 208 43q111 0 172 -44t61 -129q0 -42 -16 -77t-39.5 -58t-47 -43.5t-42 -44t-21.5 -49.5q-79 -7 -158 0q4 46 24 84t42 58.5t39.5 45.5t17.5 49zM204 -10q-49 0 -71.5 23t-22.5 71q0 94 94 94
q93 0 93 -94t-93 -94z" />
    <glyph glyph-name="at" unicode="@" horiz-adv-x="931" 
d="M649 723q107 0 180.5 -60t73.5 -174v-334q0 -47 -18.5 -81t-50 -51t-65.5 -25t-72 -8q-115 0 -163 66q-23 -29 -62.5 -47.5t-79.5 -18.5q-61 0 -108.5 40t-47.5 108v26q0 70 43.5 109t111.5 39q70 0 115 -43l5 5q-5 19 -5 45v18q0 13 -1.5 21t-8 17.5t-22.5 14.5t-41 5
q-65 0 -143 -38q-32 68 -32 119q92 56 214 56q203 0 203 -180v-183q0 -52 31 -52q28 0 28 48v313q0 51 -24 73.5t-72 22.5h-345q-49 0 -73 -22.5t-24 -73.5v-478q-84 -9 -168 0v489q0 114 73 174t181 60h367zM405 143q0 -12 11.5 -25t32.5 -13q28 0 57 27v37q-27 27 -57 27
q-21 0 -32.5 -12.5t-11.5 -24.5v-16z" />
    <glyph glyph-name="A" unicode="A" horiz-adv-x="700" 
d="M457 700l233 -700q-107 -8 -213 0l-39 118h-192l-38 -118q-98 -7 -198 0l230 700q109 8 217 0zM290 254h103l-36 110q-10 29 -13 83h-5q-3 -54 -13 -83z" />
    <glyph glyph-name="B" unicode="B" horiz-adv-x="632" 
d="M475 356q55 -12 92 -49t37 -84v-56q0 -79 -66 -123t-188 -44h-208h-95v700h200h69q123 0 188.5 -46t65.5 -133v-45q0 -39 -25 -71t-70 -44v-5zM310 547h-63v-68q0 -26 -5 -45l5 -5h63q30 0 47.5 14t17.5 37v16q0 23 -17.5 37t-47.5 14zM404 204v15q0 24 -17.5 38
t-47.5 14h-92v-68q0 -26 -5 -45l5 -5h92q30 0 47.5 14t17.5 37z" />
    <glyph glyph-name="C" unicode="C" horiz-adv-x="538" 
d="M337 148q62 0 147 49q40 -65 47 -146q-90 -61 -207 -61q-129 0 -212.5 62.5t-83.5 176.5v242q0 114 83.5 176.5t212.5 62.5q117 0 207 -61q-7 -81 -47 -146q-85 49 -147 49q-58 0 -83.5 -29.5t-25.5 -86.5v-172q0 -57 25.5 -86.5t83.5 -29.5z" />
    <glyph glyph-name="D" unicode="D" horiz-adv-x="642" 
d="M364 700q114 0 182.5 -58t68.5 -159v-266q0 -101 -68.5 -159t-182.5 -58h-317v700h317zM414 264v173q0 55 -19 80.5t-63 25.5h-85v-335q0 -26 -5 -45l5 -5h85q44 0 63 25.5t19 80.5z" />
    <glyph glyph-name="E" unicode="E" horiz-adv-x="536" 
d="M525 158q7 -79 0 -158h-314h-164v700h200h268q7 -79 0 -158h-268v-53q0 -26 -5 -45l5 -5h228q7 -79 0 -158h-228v-73q0 -26 -5 -45l5 -5h278z" />
    <glyph glyph-name="F" unicode="F" horiz-adv-x="526" 
d="M247 542v-84q0 -26 -5 -45l5 -5h248q8 -78 0 -158h-248v-250q-100 -8 -200 0v700h200h268q7 -79 0 -158h-268z" />
    <glyph glyph-name="G" unicode="G" horiz-adv-x="594" 
d="M388 341q89 8 179 0v-290q-41 -28 -107 -44.5t-131 -16.5q-129 0 -215 62.5t-86 176.5v242q0 114 83 176.5t214 62.5q132 0 221 -61q-7 -81 -47 -146q-82 49 -160 49q-60 0 -85.5 -29t-25.5 -87v-172q0 -59 25.5 -87.5t87.5 -28.5q26 0 47 4v189z" />
    <glyph glyph-name="H" unicode="H" horiz-adv-x="692" 
d="M444 700q100 8 201 0v-700q-101 -8 -201 0v230q0 26 5 45l-5 5h-197v-280q-100 -8 -200 0v700q100 8 200 0v-212q0 -26 -5 -45l5 -5h197v262z" />
    <glyph glyph-name="I" unicode="I" horiz-adv-x="294" 
d="M247 700v-700q-100 -8 -200 0v700q100 8 200 0z" />
    <glyph glyph-name="J" unicode="J" horiz-adv-x="344" 
d="M18 148q78 9 79 102v450q100 8 200 0v-480q0 -115 -71.5 -172.5t-207.5 -57.5q-9 79 0 158z" />
    <glyph glyph-name="K" unicode="K" horiz-adv-x="682" 
d="M47 700q100 8 200 0v-700q-100 -8 -200 0v700zM469 372q23 -6 41 -47l162 -325q-108 -8 -216 0l-188 365l194 335q106 8 211 0l-157 -275q-25 -40 -47 -46v-7z" />
    <glyph glyph-name="L" unicode="L" horiz-adv-x="524" 
d="M510 158q7 -79 0 -158h-299h-164v700q100 8 200 0v-492q0 -26 -5 -45l5 -5h263z" />
    <glyph glyph-name="M" unicode="M" horiz-adv-x="822" 
d="M584 700q96 9 191 0v-700q-101 -10 -201 0v276q0 27 5 46l-5 4l-113 -186q-12 -4 -50 -4t-51 4l-113 186l-5 -4q5 -19 5 -46v-276q-100 -10 -200 0v700q95 10 190 0l142 -242q28 -50 29 -71h6q0 19 29 71z" />
    <glyph glyph-name="N" unicode="N" horiz-adv-x="702" 
d="M466 700q94 9 190 0v-700q-85 -8 -170 0l-249 342l-5 -4q5 -19 5 -46v-292q-96 -9 -190 0v700q84 8 169 0l250 -342l5 4q-5 19 -5 46v292z" />
    <glyph glyph-name="O" unicode="O" horiz-adv-x="644" 
d="M322 710q132 0 213 -63.5t81 -175.5v-242q0 -112 -81 -175.5t-213 -63.5t-213 63.5t-81 175.5v242q0 112 81 175.5t213 63.5zM416 265v170q0 59 -21.5 87.5t-72.5 29.5q-51 -1 -72.5 -29.5t-21.5 -87.5v-170q0 -59 21.5 -87.5t72.5 -29.5q51 1 72.5 29.5t21.5 87.5z" />
    <glyph glyph-name="P" unicode="P" horiz-adv-x="582" 
d="M321 700q127 0 195.5 -55t68.5 -144v-86q0 -89 -68.5 -144t-195.5 -55h-74v-216q-100 -8 -200 0v700h200h74zM384 440v36q0 65 -74 66h-63v-118q0 -26 -5 -45l5 -5h63q74 1 74 66z" />
    <glyph glyph-name="Q" unicode="Q" horiz-adv-x="644" 
d="M322 710q132 0 213 -63.5t81 -175.5v-242q0 -128 -105 -192l85 -150q-108 -8 -200 0l-59 103h-15q-132 0 -213 63.5t-81 175.5v242q0 112 81 175.5t213 63.5zM416 265v170q0 59 -21.5 87.5t-72.5 29.5q-51 -1 -72.5 -29.5t-21.5 -87.5v-170q0 -59 21.5 -87.5t72.5 -29.5
q51 1 72.5 29.5t21.5 87.5z" />
    <glyph glyph-name="R" unicode="R" horiz-adv-x="632" 
d="M456 281q52 -13 77 -56.5t92 -224.5q-105 -7 -211 0q-44 113 -69 161t-43 61t-52 13h-3v-235q-100 -8 -200 0v700h200h74q126 0 195 -53t69 -136v-86q0 -56 -34 -93.5t-95 -45.5v-5zM247 393h63q37 1 55.5 16.5t18.5 40.5v36q0 24 -18.5 39.5t-55.5 16.5h-63v-99
q0 -26 -5 -45z" />
    <glyph glyph-name="S" unicode="S" horiz-adv-x="586" 
d="M236 512q0 -22 24 -38.5t59.5 -27.5t77 -29.5t77 -41t59.5 -66t24 -101.5q0 -102 -71.5 -160t-211.5 -58q-137 0 -246 66q10 91 47 152q99 -60 191 -60q43 0 67 12.5t24 32.5q0 22 -33 39t-80 33t-94.5 40t-80.5 72.5t-33 117.5q0 98 67 156.5t205 58.5q133 0 220 -61
q-7 -81 -47 -146q-90 54 -160 54q-85 0 -85 -45z" />
    <glyph glyph-name="T" unicode="T" horiz-adv-x="596" 
d="M583 700q7 -79 0 -158h-185v-542q-100 -8 -200 0v492q0 26 5 45l-5 5h-186q-7 79 0 158h276h110h185z" />
    <glyph glyph-name="U" unicode="U" horiz-adv-x="693" 
d="M446 700q100 8 200 0v-461q0 -115 -73.5 -182t-225.5 -67t-226 67t-74 182v461q100 8 200 0v-435q0 -64 24 -90t76 -27q51 1 75 27t24 90v435z" />
    <glyph glyph-name="V" unicode="V" horiz-adv-x="658" 
d="M458 700q100 8 201 0l-210 -700q-107 -8 -213 0l-237 700q109 8 217 0l114 -380q11 -36 13 -83h5q2 47 13 83z" />
    <glyph glyph-name="W" unicode="W" horiz-adv-x="906" 
d="M702 700q102 7 205 0l-163 -700q-103 -7 -206 0l-68 266q-13 48 -15 86h-4q-2 -38 -15 -86l-68 -266q-103 -7 -206 0l-163 700q102 7 205 0l57 -322q14 -76 15 -103h5q3 49 15 103l63 253q50 5 94 5t94 -5l63 -253q12 -54 15 -103h5q1 27 15 103z" />
    <glyph glyph-name="X" unicode="X" horiz-adv-x="678" 
d="M472 357q22 -7 42 -47l155 -310q-113 -8 -226 0l-106 231l-111 -231q-108 -7 -217 0l155 310q20 40 42 47v6q-29 8 -48 47l-149 290q113 8 226 0l106 -227l116 227q106 7 212 0l-149 -290q-19 -39 -48 -47v-6z" />
    <glyph glyph-name="Y" unicode="Y" horiz-adv-x="647" 
d="M647 700l-212 -443v-257q-100 -10 -201 0v256l-235 444q111 8 222 0l102 -223q10 -20 13 -82h5q3 58 13 82l84 223q105 8 209 0z" />
    <glyph glyph-name="Z" unicode="Z" horiz-adv-x="593" 
d="M581 158q8 -79 0 -158h-558q-7 52 0 105l240 387q11 22 45 45l-2 5h-263q-8 79 0 158h528q7 -52 0 -105l-239 -387q-11 -18 -19.5 -26t-26.5 -19l2 -5h293z" />
    <glyph glyph-name="bracketleft" unicode="[" horiz-adv-x="295" 
d="M172 -96h112q8 -52 0 -104h-132h-105v1040h125h112q8 -52 0 -104h-112v-832z" />
    <glyph glyph-name="backslash" unicode="\" horiz-adv-x="462" 
d="M0 694q51 32 114 53l338 -725q-53 -33 -114 -53z" />
    <glyph glyph-name="bracketright" unicode="]" horiz-adv-x="295" 
d="M248 840v-1040h-125h-112q-8 52 0 104h112v832h-112q-8 52 0 104h237z" />
    <glyph glyph-name="asciicircum" unicode="^" horiz-adv-x="552" 
d="M276 754l266 -239q-44 -65 -98 -115l-144 153q-16 18 -22 50h-4q-6 -32 -22 -50l-144 -153q-54 50 -98 115z" />
    <glyph glyph-name="underscore" unicode="_" horiz-adv-x="397" 
d="M393 0q8 -68 0 -136h-389q-8 68 0 136h389z" />
    <glyph glyph-name="grave" unicode="`" horiz-adv-x="375" 
d="M320 641q-24 -39 -61 -73l-207 155q34 52 92 106z" />
    <glyph glyph-name="a" unicode="a" horiz-adv-x="525" 
d="M270 532q47 0 83.5 -8t68.5 -27t49.5 -55.5t17.5 -89.5v-352q-96 -7 -190 0q0 19 5 33l-5 5q-51 -48 -123 -48q-69 0 -113.5 39t-44.5 109v26q0 70 45 109t117 39q74 0 119 -43l5 5q-5 19 -5 45v18q0 13 -2 21t-8.5 17.5t-22.5 14.5t-41 5q-66 0 -142 -38q-33 66 -33 119
q95 56 220 56zM299 133v36q-29 27 -56 27q-20 0 -30.5 -12.5t-10.5 -24.5v-16q0 -12 11 -25t30 -13q26 0 56 28z" />
    <glyph glyph-name="b" unicode="b" horiz-adv-x="568" 
d="M350 532q96 0 143 -52t47 -136v-166q0 -84 -47 -136t-143 -52q-74 0 -123 49v-1l-5 -5q5 -14 5 -33q-96 -9 -190 0v698q81 42 190 42v-207q0 -26 -5 -45l5 -5q49 49 123 49zM350 204v114q0 40 -18 58.5t-46 18.5t-59 -28v-212q31 -28 59 -28t46 18.5t18 58.5z" />
    <glyph glyph-name="c" unicode="c" horiz-adv-x="456" 
d="M304 126q54 0 107 33q38 -56 38 -119q-60 -50 -167 -50q-119 0 -186.5 58t-67.5 141v144q0 83 67.5 141t186.5 58q107 0 167 -50q0 -62 -38 -120q-51 33 -107 33q-86 0 -86 -77v-114q0 -78 86 -78z" />
    <glyph glyph-name="d" unicode="d" horiz-adv-x="568" 
d="M341 698q81 42 190 42v-740q-95 -10 -190 0q0 19 5 33l-5 5v1q-49 -49 -123 -49q-96 0 -143 52t-47 136v166q0 84 47 136t143 52q74 0 123 -49l5 5q-5 19 -5 45v165zM341 155v212q-31 28 -59 28t-46 -18.5t-18 -58.5v-114q0 -40 18 -58.5t46 -18.5t59 28z" />
    <glyph glyph-name="e" unicode="e" horiz-adv-x="521" 
d="M217 215l-5 -5v-6q0 -43 24 -60.5t75 -17.5q69 0 131 44q38 -56 38 -119q-73 -61 -199 -61q-118 0 -185.5 58t-67.5 141v145q0 84 64.5 141t181.5 57q109 0 167 -57.5t58 -141.5v-123h-174h-63q-26 0 -45 5zM273 406q-61 0 -61 -71v-5h63q26 0 45 -5l5 5v4
q0 38 -12.5 54.5t-39.5 17.5z" />
    <glyph glyph-name="f" unicode="f" horiz-adv-x="417" 
d="M267 522h132q7 -74 0 -148h-132v-374q-94 -9 -190 0v324q0 26 5 45l-5 5h-65q-7 74 0 148h65v59q0 80 54.5 124.5t156.5 44.5q75 0 133 -29q0 -65 -37 -120q-39 18 -67 18q-49 0 -50 -51v-7q0 -21 -5 -34z" />
    <glyph glyph-name="g" unicode="g" horiz-adv-x="568" 
d="M341 522q95 10 190 0v-542q0 -53 -22.5 -91.5t-61 -59t-81 -30t-91.5 -9.5q-124 0 -213 55q0 55 32 119q76 -38 155 -38q47 0 69.5 18t22.5 40v4q0 26 5 45l-5 5v1q-49 -49 -123 -49q-96 0 -143 52t-47 136v166q0 84 47 136t143 52q74 0 123 -49l5 5q-5 14 -5 34z
M341 155v212q-31 28 -59 28t-46 -18.5t-18 -58.5v-114q0 -40 18 -58.5t46 -18.5t59 28z" />
    <glyph glyph-name="h" unicode="h" horiz-adv-x="567" 
d="M377 532q153 0 153 -137v-395q-94 -9 -190 0v315q0 38 -10 51t-36 13q-30 0 -67 -22v-357q-96 -9 -190 0v698q81 42 190 42v-211q0 -26 -5 -45l5 -5q64 53 150 53z" />
    <glyph glyph-name="i" unicode="i" horiz-adv-x="264" 
d="M137 566q-49 0 -71.5 23t-22.5 71q0 94 94 94q93 0 93 -94t-93 -94zM37 490q82 42 190 42v-532q-96 -9 -190 0v490z" />
    <glyph glyph-name="j" unicode="j" horiz-adv-x="264" 
d="M138 566q-49 0 -71.5 23t-22.5 71q0 94 94 94q93 0 93 -94t-93 -94zM37 490q82 42 190 42v-532v-9q0 -104 -57 -152.5t-183 -48.5q-7 66 0 131q27 5 38 20t12 53v496z" />
    <glyph glyph-name="k" unicode="k" horiz-adv-x="575" 
d="M37 698q81 42 190 42v-740q-96 -9 -190 0v698zM470 240l105 -240q-98 -10 -204 0l-122 280l123 242q101 10 193 0l-89 -182q-19 -39 -48 -47v-6q25 -8 42 -47z" />
    <glyph glyph-name="l" unicode="l" horiz-adv-x="264" 
d="M37 698q81 42 190 42v-740q-96 -9 -190 0v698z" />
    <glyph glyph-name="m" unicode="m" horiz-adv-x="852" 
d="M659 532q156 0 156 -137v-395q-94 -9 -190 0v315q0 38 -9 50.5t-34 13.5q-25 0 -61 -21v-358q-95 -10 -190 0v315q0 38 -9 50.5t-34 13.5q-26 0 -61 -22v-357q-96 -9 -190 0v490q82 42 190 42q0 -32 -5 -48l5 -5q64 53 138 53q107 0 140 -64q69 64 154 64z" />
    <glyph glyph-name="n" unicode="n" horiz-adv-x="567" 
d="M377 532q153 0 153 -137v-395q-94 -9 -190 0v315q0 38 -10 51t-36 13q-30 0 -67 -22v-357q-96 -9 -190 0v490q82 42 190 42q0 -32 -5 -48l5 -5q64 53 150 53z" />
    <glyph glyph-name="o" unicode="o" horiz-adv-x="563" 
d="M282 532q120 0 187 -57.5t67 -141.5v-144q0 -84 -67 -141.5t-187 -57.5t-187 57.5t-67 141.5v144q0 84 67 141.5t187 57.5zM346 204v114q0 40 -18 58.5t-46 18.5t-46 -18.5t-18 -58.5v-114q0 -40 18 -58.5t46 -18.5t46 18.5t18 58.5z" />
    <glyph glyph-name="p" unicode="p" horiz-adv-x="568" 
d="M350 532q96 0 143 -52t47 -136v-166q0 -84 -47 -136t-143 -52q-74 0 -123 49v-1l-5 -5q5 -19 5 -45v-88h-1v-58q-81 -42 -190 -42v100h1v590q82 42 190 42q0 -30 -5 -44l5 -5q49 49 123 49zM350 204v114q0 40 -18 58.5t-46 18.5t-59 -28v-212q31 -28 59 -28t46 18.5
t18 58.5z" />
    <glyph glyph-name="q" unicode="q" horiz-adv-x="568" 
d="M341 522q95 10 190 0v-680q-81 -42 -190 -42v188q0 26 5 45l-5 5v1q-49 -49 -123 -49q-96 0 -143 52t-47 136v166q0 84 47 136t143 52q74 0 123 -49l5 5q-5 14 -5 34zM341 155v212q-31 28 -59 28t-46 -18.5t-18 -58.5v-114q0 -40 18 -58.5t46 -18.5t59 28z" />
    <glyph glyph-name="r" unicode="r" horiz-adv-x="396" 
d="M222 443q43 101 174 78q0 -97 -33 -174q-45 8 -76.5 0t-59.5 -36v-311q-96 -9 -190 0v490q82 42 190 42q0 -51 -10 -84z" />
    <glyph glyph-name="s" unicode="s" horiz-adv-x="466" 
d="M214 -10q-131 0 -191 49q0 64 37 119q67 -37 135 -37q69 0 69 26q0 13 -24.5 23.5t-59 22t-69.5 28.5t-59.5 52.5t-24.5 84.5q0 78 59 126t170 48q109 0 184 -50q0 -62 -38 -120q-66 39 -130 39q-60 0 -60 -24q0 -13 25 -24t60.5 -22.5t71 -29.5t60.5 -54.5t25 -87.5
q0 -81 -61.5 -125t-178.5 -44z" />
    <glyph glyph-name="t" unicode="t" horiz-adv-x="435" 
d="M378 165q37 -55 37 -130q-61 -45 -147 -45q-93 0 -142 49t-49 131v154q0 26 5 45l-5 5h-65q-7 74 0 148h65v88q79 42 190 42v-80q0 -26 -5 -45l5 -5h132q7 -74 0 -148h-132v-178q0 -59 43 -59q23 0 68 28z" />
    <glyph glyph-name="u" unicode="u" horiz-adv-x="562" 
d="M336 490q81 42 190 42v-532q-96 -9 -190 0q0 19 5 33l-5 5q-61 -52 -146 -52q-153 0 -153 137v367q81 42 190 42v-330q0 -37 10.5 -50t35.5 -14q26 0 63 22v330z" />
    <glyph glyph-name="v" unicode="v" horiz-adv-x="568" 
d="M376 522q97 7 193 0l-170 -522q-107 -8 -214 0l-186 522q103 7 206 0l74 -241q10 -33 13 -82h5q2 38 13 82z" />
    <glyph glyph-name="w" unicode="w" horiz-adv-x="847" 
d="M648 522q101 7 200 0l-164 -522q-97 -7 -192 0l-49 221q-17 74 -17 81h-4q-1 -12 -4 -25.5t-7.5 -30t-6.5 -25.5l-48 -221q-96 -7 -193 0l-164 522q101 7 200 0l53 -220q11 -44 13 -82h5q2 41 13 82l47 200q56 6 94 6q36 0 94 -6l46 -200q12 -45 14 -82h5q1 21 12 82z
" />
    <glyph glyph-name="x" unicode="x" horiz-adv-x="578" 
d="M426 263q23 -7 41 -47l102 -216q-100 -10 -206 0l-75 188l-81 -188q-104 -10 -198 0l101 216q20 40 42 47v6q-30 7 -48 47l-96 206q99 10 207 0l75 -186l83 186q103 10 196 0l-95 -206q-18 -40 -48 -47v-6z" />
    <glyph glyph-name="y" unicode="y" horiz-adv-x="573" 
d="M381 522q97 7 193 0l-172 -501q-40 -116 -116.5 -174t-218.5 -57q-7 66 0 131q57 4 88.5 24.5t45.5 65.5l-197 511q103 7 206 0l72 -241q10 -33 13 -82h5q3 49 13 82z" />
    <glyph glyph-name="z" unicode="z" horiz-adv-x="488" 
d="M262 147h208q8 -73 0 -147h-468q-8 52 0 105l182 239q15 20 28 25l-2 5h-188q-7 74 0 148h448q8 -53 0 -105l-183 -239q-16 -22 -27 -26z" />
    <glyph glyph-name="braceleft" unicode="{" horiz-adv-x="298" 
d="M198 67q-8 -85 20.5 -124t76.5 -39q8 -51 0 -104q-108 0 -175 70.5t-56 199.5q7 102 -2.5 153.5t-58.5 65.5q-7 31 0 62q49 14 58.5 65.5t2.5 153.5q-11 129 56 199.5t175 70.5q8 -53 0 -104q-48 0 -76.5 -39t-20.5 -124q17 -189 -79 -253q96 -64 79 -253z" />
    <glyph glyph-name="bar" unicode="|" horiz-adv-x="319" 
d="M222 840v-1040q-68 -8 -125 0v1040q70 7 125 0z" />
    <glyph glyph-name="braceright" unicode="}" horiz-adv-x="298" 
d="M100 67q-17 189 79 253q-96 64 -79 253q8 85 -20.5 124t-76.5 39q-8 51 0 104q108 0 175 -70.5t56 -199.5q-7 -102 2.5 -153.5t58.5 -65.5q7 -31 0 -62q-49 -14 -58.5 -65.5t-2.5 -153.5q11 -129 -56 -199.5t-175 -70.5q-8 53 0 104q48 0 76.5 39t20.5 124z" />
    <glyph glyph-name="asciitilde" unicode="~" horiz-adv-x="673" 
d="M462 398q65 0 109 -30.5t74 -100.5q-36 -31 -81 -48q-28 36 -76 36q-46 0 -135 -29t-140 -29q-59 0 -99.5 29.5t-85.5 101.5q37 31 81 49q28 -36 78 -36q48 0 134.5 28.5t140.5 28.5z" />
    <glyph glyph-name="exclamdown" unicode="&#xa1;" horiz-adv-x="292" 
d="M146 532q93 0 93 -94t-93 -94q-94 0 -94 94q0 48 22.5 71t71.5 23zM246 -178q-100 -8 -200 0l21 435q79 7 158 0z" />
    <glyph glyph-name="cent" unicode="&#xa2;" horiz-adv-x="456" 
d="M411 159q38 -56 38 -119q-47 -39 -126 -48v-92q-25 -6 -50 0v90q-115 2 -180 59.5t-65 139.5v144q0 82 65 139.5t180 59.5v111q25 6 50 0v-113q79 -9 126 -48q0 -62 -38 -120q-43 28 -88 32v-267q45 4 88 32zM218 204q0 -62 55 -75v263q-55 -13 -55 -74v-114z" />
    <glyph glyph-name="sterling" unicode="&#xa3;" horiz-adv-x="582" 
d="M274 147h286q8 -73 0 -147h-507q52 103 38 260h-87q-9 25 0 50h82q-1 10 -3.5 30t-3.5 30h-75q-9 25 0 50h71q-2 34 -2 51q0 114 83.5 176.5t212.5 62.5q117 0 207 -61q-9 -84 -47 -146q-85 49 -147 49q-58 0 -83.5 -29.5t-25.5 -86.5v-16h174q6 -25 0 -50h-171l6 -60
h165q6 -25 0 -50h-162q3 -63 -11 -113z" />
    <glyph glyph-name="currency" unicode="&#xa4;" horiz-adv-x="792" 
d="M699 260q0 -71 -32 -127l126 -109q-54 -68 -113 -113l-110 124q-74 -45 -174 -45q-99 0 -174 46l-110 -125q-59 45 -113 113l127 110q-32 56 -32 126t32 126l-127 110q54 68 113 113l110 -125q75 46 174 46q100 0 174 -45l110 124q59 -45 113 -113l-126 -109
q32 -56 32 -127zM396 148q47 0 74.5 32t27.5 80t-27.5 80t-74.5 32t-74.5 -32t-27.5 -80t27.5 -80t74.5 -32z" />
    <glyph glyph-name="yen" unicode="&#xa5;" horiz-adv-x="647" 
d="M545 232h-110v-60h110q6 -25 0 -50h-110v-122q-100 -10 -201 0v122h-132q-8 25 0 50h132v60h-132q-8 25 0 50h118l-221 418q111 8 222 0l102 -223q10 -20 13 -82h5q3 58 13 82l84 223q105 8 209 0l-200 -418h98q6 -25 0 -50z" />
    <glyph glyph-name="brokenbar" unicode="&#xa6;" horiz-adv-x="318" 
d="M222 840v-340q-69 -8 -125 0v340q69 7 125 0zM222 140v-340q-69 -8 -125 0v340q69 7 125 0z" />
    <glyph glyph-name="section" unicode="&#xa7;" horiz-adv-x="553" 
d="M476 166q60 -57 60 -148q0 -102 -71.5 -160t-211.5 -58q-137 0 -246 66q8 88 47 152q97 -60 190 -60q43 0 67 12.5t24 32.5q0 22 -33 39t-80 33t-94.5 40t-80.5 72.5t-33 117.5q0 93 69 151q-59 57 -59 149q0 98 67.5 156.5t204.5 58.5q133 0 221 -61q-9 -84 -47 -146
q-92 54 -161 54q-84 0 -84 -45q0 -22 24 -38.5t59.5 -27.5t77 -29.5t77 -41t59.5 -66t24 -101.5q0 -94 -70 -152zM215 322q0 -20 18 -34t53 -28q60 8 60 43q0 19 -21 32.5t-64 28.5q-46 -10 -46 -42z" />
    <glyph glyph-name="dieresis" unicode="&#xa8;" horiz-adv-x="530" 
d="M133 566q-49 0 -71.5 23t-22.5 71q0 94 94 94q93 0 93 -94t-93 -94zM398 566q-49 0 -71.5 23t-22.5 71q0 94 94 94q93 0 93 -94t-93 -94z" />
    <glyph glyph-name="copyright" unicode="&#xa9;" horiz-adv-x="775" 
d="M388 -10q-155 0 -257.5 104.5t-102.5 255.5t102.5 255.5t257.5 104.5t257.5 -104.5t102.5 -255.5t-102.5 -255.5t-257.5 -104.5zM388 23q141 0 234 95t93 232t-93 232t-234 95t-234 -95t-93 -232t93 -232t234 -95zM414 213q41 0 100 33q27 -45 31 -98q-61 -42 -140 -42
q-87 0 -143.5 42.5t-56.5 119.5v164q0 77 56.5 119.5t143.5 42.5q79 0 140 -42q-4 -52 -31 -99q-57 34 -100 34q-74 0 -74 -79v-116q0 -79 74 -79z" />
    <glyph glyph-name="guillemotleft" unicode="&#xab;" horiz-adv-x="646" 
d="M150 259q32 -6 50 -22l153 -144q-50 -54 -115 -98l-239 266l239 266q65 -44 115 -98l-153 -144q-18 -16 -50 -22v-4zM406 259q32 -6 50 -22l153 -144q-50 -54 -115 -98l-239 266l239 266q65 -44 115 -98l-153 -144q-18 -16 -50 -22v-4z" />
    <glyph glyph-name="logicalnot" unicode="&#xac;" horiz-adv-x="651" 
d="M32 402h590v-137v-138q-78 -8 -157 0v138h-433q-8 69 0 137z" />
    <glyph glyph-name="registered" unicode="&#xae;" horiz-adv-x="775" 
d="M388 710q155 0 257.5 -104.5t102.5 -255.5t-102.5 -255.5t-257.5 -104.5t-257.5 104.5t-102.5 255.5t102.5 255.5t257.5 104.5zM388 23q141 0 234 95t93 232t-93 232t-234 95t-234 -95t-93 -232t93 -232t234 -95zM482 303q35 -9 52 -38t62 -152q-72 -4 -143 0
q-30 76 -46.5 108.5t-29 41.5t-35.5 9h-2v-159q-67 -5 -135 0v474h135h50q86 0 132.5 -36t46.5 -92v-58q0 -38 -23 -63.5t-64 -30.5v-4zM340 379h43q50 1 50 39v24q0 16 -12.5 26.5t-37.5 11.5h-43v-67q0 -15 -3 -31z" />
    <glyph glyph-name="macron" unicode="&#xaf;" horiz-adv-x="470" 
d="M42 722h386q9 -62 0 -125h-386q-9 63 0 125z" />
    <glyph glyph-name="degree" unicode="&#xb0;" horiz-adv-x="291" 
d="M146 561q-118 0 -118 111q0 55 30.5 84t87.5 29q56 0 86.5 -29.5t30.5 -83.5q0 -55 -30.5 -83t-86.5 -28zM146 637q34 0 34 36t-34 36q-35 0 -35 -36t35 -36z" />
    <glyph glyph-name="plusminus" unicode="&#xb1;" horiz-adv-x="655" 
d="M259 404h-227q-8 68 0 137h227v226q69 8 137 0v-226h226q8 -69 0 -137h-226v-227q-68 -8 -137 0v227zM32 137h590q8 -69 0 -137h-590q-8 68 0 137z" />
    <glyph glyph-name="acute" unicode="&#xb4;" horiz-adv-x="375" 
d="M55 641l176 188q58 -54 92 -106l-207 -155q-37 34 -61 73z" />
    <glyph glyph-name="paragraph" unicode="&#xb6;" horiz-adv-x="708" 
d="M661 700v-900q-68 -8 -124 0v785h-126v-785q-68 -8 -124 0v383q-107 0 -183 76t-76 183t76 182.5t183 75.5h374z" />
    <glyph glyph-name="periodcentered" unicode="&#xb7;" horiz-adv-x="265" 
d="M132 210q-48 0 -70.5 22.5t-22.5 70.5q0 94 93 94q92 0 92 -94q0 -93 -92 -93z" />
    <glyph glyph-name="cedilla" unicode="&#xb8;" horiz-adv-x="600" 
d="M232 -1l92 1l-23 -36q46 -5 75.5 -30.5t29.5 -66.5q0 -56 -51.5 -78t-155.5 0q-5 36 0 72q26 -4 45.5 3.5t19.5 29.5q0 17 -14 26.5t-47 16.5z" />
    <glyph glyph-name="guillemotright" unicode="&#xbb;" horiz-adv-x="662" 
d="M152 527l239 -266l-239 -266q-65 44 -115 98l153 144q18 16 50 22v4q-32 6 -50 22l-153 144q50 54 115 98zM408 527l239 -266l-239 -266q-65 44 -115 98l153 144q18 16 50 22v4q-32 6 -50 22l-153 144q50 54 115 98z" />
    <glyph glyph-name="questiondown" unicode="&#xbf;" horiz-adv-x="461" 
d="M254 532q49 0 71.5 -23t22.5 -71q0 -94 -94 -94q-93 0 -93 94t93 94zM211 20q0 -30 23 -45.5t59 -15.5q62 0 140 42q18 -65 18 -146q-78 -43 -208 -43q-111 0 -172 44t-61 129q0 42 16 77t39.5 58t47 43.5t42 44t21.5 49.5q79 7 158 0q-4 -46 -24 -84t-42 -58.5
t-39.5 -45.5t-17.5 -49z" />
    <glyph glyph-name="Agrave" unicode="&#xc0;" horiz-adv-x="700" 
d="M489 819q-24 -39 -61 -73l-207 155q34 52 92 106zM457 700l233 -700q-107 -8 -213 0l-39 118h-192l-38 -118q-98 -7 -198 0l230 700q109 8 217 0zM290 254h103l-36 110q-10 29 -13 83h-5q-3 -54 -13 -83z" />
    <glyph glyph-name="Aacute" unicode="&#xc1;" horiz-adv-x="700" 
d="M327 746q-37 34 -61 73l176 188q58 -54 92 -106zM457 700l233 -700q-107 -8 -213 0l-39 118h-192l-38 -118q-98 -7 -198 0l230 700q109 8 217 0zM290 254h103l-36 110q-10 29 -13 83h-5q-3 -54 -13 -83z" />
    <glyph glyph-name="Acircumflex" unicode="&#xc2;" horiz-adv-x="700" 
d="M238 746q-39 37 -70 96l189 145l189 -145q-34 -61 -71 -96l-99 106q-13 13 -17 41h-4q-4 -27 -18 -41zM457 700l233 -700q-107 -8 -213 0l-39 118h-192l-38 -118q-98 -7 -198 0l230 700q109 8 217 0zM290 254h103l-36 110q-10 29 -13 83h-5q-3 -54 -13 -83z" />
    <glyph glyph-name="Atilde" unicode="&#xc3;" horiz-adv-x="700" 
d="M298 758q-86 0 -149 110q36 31 81 48q26 -36 54 -36q18 0 59.5 18.5t76.5 18.5q101 0 145 -110q-39 -34 -81 -49q-27 37 -53 37q-16 0 -59.5 -18.5t-73.5 -18.5zM457 700l233 -700q-107 -8 -213 0l-39 118h-192l-38 -118q-98 -7 -198 0l230 700q109 8 217 0zM290 254h103
l-36 110q-10 29 -13 83h-5q-3 -54 -13 -83z" />
    <glyph glyph-name="Adieresis" unicode="&#xc4;" horiz-adv-x="700" 
d="M225 744q-49 0 -71.5 23t-22.5 71q0 94 94 94q93 0 93 -94t-93 -94zM490 744q-49 0 -71.5 23t-22.5 71q0 94 94 94q93 0 93 -94t-93 -94zM457 700l233 -700q-107 -8 -213 0l-39 118h-192l-38 -118q-98 -7 -198 0l230 700q109 8 217 0zM290 254h103l-36 110q-10 29 -13 83
h-5q-3 -54 -13 -83z" />
    <glyph glyph-name="Aring" unicode="&#xc5;" horiz-adv-x="700" 
d="M457 699l233 -699q-107 -8 -213 0l-39 118h-192l-38 -118q-98 -7 -198 0l229 698q-9 23 -9 52q0 55 31 84t88 29q56 0 86.5 -29.5t30.5 -83.5q0 -28 -9 -51zM349 786q-35 0 -35 -35q0 -34 35 -34q32 0 32 34q0 35 -32 35zM290 254h103l-36 110q-10 29 -13 83h-5
q-3 -54 -13 -83z" />
    <glyph glyph-name="AE" unicode="&#xc6;" horiz-adv-x="928" 
d="M917 158q7 -79 0 -158h-284h-165v118h-200l-60 -118q-100 -7 -198 0l354 700h269h274q7 -79 0 -158h-238v-53q0 -26 -5 -45l5 -5h198q7 -79 0 -158h-198v-73q0 -26 -5 -45l5 -5h248zM337 254h131v276h-5q-10 -51 -27 -82z" />
    <glyph glyph-name="Ccedilla" unicode="&#xc7;" horiz-adv-x="538" 
d="M531 51q-80 -56 -182 -60l-17 -27q46 -5 75.5 -30.5t29.5 -66.5q0 -56 -51.5 -78t-155.5 0q-5 36 0 72q26 -4 45.5 3.5t19.5 29.5q0 17 -14 26.5t-47 16.5l27 57q-105 15 -169 75.5t-64 159.5v242q0 114 83.5 176.5t212.5 62.5q117 0 207 -61q-7 -81 -47 -146
q-85 49 -147 49q-58 0 -83.5 -29.5t-25.5 -86.5v-172q0 -57 25.5 -86.5t83.5 -29.5q62 0 147 49q40 -65 47 -146z" />
    <glyph glyph-name="Egrave" unicode="&#xc8;" horiz-adv-x="536" 
d="M426 819q-24 -39 -61 -73l-207 155q34 52 92 106zM525 158q7 -79 0 -158h-314h-164v700h200h268q7 -79 0 -158h-268v-53q0 -26 -5 -45l5 -5h228q7 -79 0 -158h-228v-73q0 -26 -5 -45l5 -5h278z" />
    <glyph glyph-name="Eacute" unicode="&#xc9;" horiz-adv-x="536" 
d="M264 746q-37 34 -61 73l176 188q58 -54 92 -106zM525 158q7 -79 0 -158h-314h-164v700h200h268q7 -79 0 -158h-268v-53q0 -26 -5 -45l5 -5h228q7 -79 0 -158h-228v-73q0 -26 -5 -45l5 -5h278z" />
    <glyph glyph-name="Ecircumflex" unicode="&#xca;" horiz-adv-x="536" 
d="M175 746q-39 37 -70 96l189 145l189 -145q-34 -61 -71 -96l-99 106q-13 13 -17 41h-4q-4 -27 -18 -41zM525 158q7 -79 0 -158h-314h-164v700h200h268q7 -79 0 -158h-268v-53q0 -26 -5 -45l5 -5h228q7 -79 0 -158h-228v-73q0 -26 -5 -45l5 -5h278z" />
    <glyph glyph-name="Edieresis" unicode="&#xcb;" horiz-adv-x="536" 
d="M162 744q-49 0 -71.5 23t-22.5 71q0 94 94 94q93 0 93 -94t-93 -94zM427 744q-49 0 -71.5 23t-22.5 71q0 94 94 94q93 0 93 -94t-93 -94zM525 158q7 -79 0 -158h-314h-164v700h200h268q7 -79 0 -158h-268v-53q0 -26 -5 -45l5 -5h228q7 -79 0 -158h-228v-73q0 -26 -5 -45
l5 -5h278z" />
    <glyph glyph-name="Igrave" unicode="&#xcc;" horiz-adv-x="294" 
d="M279 819q-24 -39 -61 -73l-207 155q34 52 92 106zM247 700v-700q-100 -8 -200 0v700q100 8 200 0z" />
    <glyph glyph-name="Iacute" unicode="&#xcd;" horiz-adv-x="294" 
d="M56 819l176 188q58 -54 92 -106l-207 -155q-37 34 -61 73zM247 700v-700q-100 -8 -200 0v700q100 8 200 0z" />
    <glyph glyph-name="Icircumflex" unicode="&#xce;" horiz-adv-x="294" 
d="M147 987l189 -145q-34 -61 -71 -96l-99 106q-13 13 -17 41h-4q-4 -27 -18 -41l-99 -106q-39 37 -70 96zM47 700q100 8 200 0v-700q-100 -8 -200 0v700z" />
    <glyph glyph-name="Idieresis" unicode="&#xcf;" horiz-adv-x="294" 
d="M15 744q-49 0 -71.5 23t-22.5 71q0 94 94 94q93 0 93 -94t-93 -94zM280 744q-49 0 -71.5 23t-22.5 71q0 94 94 94q93 0 93 -94t-93 -94zM247 700v-700q-100 -8 -200 0v700q100 8 200 0z" />
    <glyph glyph-name="Eth" unicode="&#xd0;" horiz-adv-x="642" 
d="M364 700q114 0 182.5 -58t68.5 -159v-266q0 -101 -68.5 -159t-182.5 -58h-317v286h-48q-8 68 0 136h48v278h317zM414 264v173q0 55 -19 80.5t-63 25.5h-85v-121h97q8 -68 0 -136h-97v-78q0 -26 -5 -45l5 -5h85q44 0 63 25.5t19 80.5z" />
    <glyph glyph-name="Ntilde" unicode="&#xd1;" horiz-adv-x="702" 
d="M282 758q-86 0 -149 110q36 31 81 48q26 -36 54 -36q18 0 59.5 18.5t76.5 18.5q101 0 145 -110q-39 -34 -81 -49q-27 37 -53 37q-16 0 -59.5 -18.5t-73.5 -18.5zM466 700q94 9 190 0v-700q-85 -8 -170 0l-249 342l-5 -4q5 -19 5 -46v-292q-96 -9 -190 0v700q84 8 169 0
l250 -342l5 4q-5 19 -5 46v292z" />
    <glyph glyph-name="Ograve" unicode="&#xd2;" horiz-adv-x="644" 
d="M454 819q-24 -39 -61 -73l-207 155q34 52 92 106zM322 710q132 0 213 -63.5t81 -175.5v-242q0 -112 -81 -175.5t-213 -63.5t-213 63.5t-81 175.5v242q0 112 81 175.5t213 63.5zM416 265v170q0 59 -21.5 87.5t-72.5 29.5q-51 -1 -72.5 -29.5t-21.5 -87.5v-170
q0 -59 21.5 -87.5t72.5 -29.5q51 1 72.5 29.5t21.5 87.5z" />
    <glyph glyph-name="Oacute" unicode="&#xd3;" horiz-adv-x="644" 
d="M292 746q-37 34 -61 73l176 188q58 -54 92 -106zM322 710q132 0 213 -63.5t81 -175.5v-242q0 -112 -81 -175.5t-213 -63.5t-213 63.5t-81 175.5v242q0 112 81 175.5t213 63.5zM416 265v170q0 59 -21.5 87.5t-72.5 29.5q-51 -1 -72.5 -29.5t-21.5 -87.5v-170
q0 -59 21.5 -87.5t72.5 -29.5q51 1 72.5 29.5t21.5 87.5z" />
    <glyph glyph-name="Ocircumflex" unicode="&#xd4;" horiz-adv-x="644" 
d="M203 746q-39 37 -70 96l189 145l189 -145q-34 -61 -71 -96l-99 106q-13 13 -17 41h-4q-4 -27 -18 -41zM322 710q132 0 213 -63.5t81 -175.5v-242q0 -112 -81 -175.5t-213 -63.5t-213 63.5t-81 175.5v242q0 112 81 175.5t213 63.5zM416 265v170q0 59 -21.5 87.5
t-72.5 29.5q-51 -1 -72.5 -29.5t-21.5 -87.5v-170q0 -59 21.5 -87.5t72.5 -29.5q51 1 72.5 29.5t21.5 87.5z" />
    <glyph glyph-name="Otilde" unicode="&#xd5;" horiz-adv-x="644" 
d="M263 758q-86 0 -149 110q36 31 81 48q26 -36 54 -36q18 0 59.5 18.5t76.5 18.5q101 0 145 -110q-39 -34 -81 -49q-27 37 -53 37q-16 0 -59.5 -18.5t-73.5 -18.5zM322 710q132 0 213 -63.5t81 -175.5v-242q0 -112 -81 -175.5t-213 -63.5t-213 63.5t-81 175.5v242
q0 112 81 175.5t213 63.5zM416 265v170q0 59 -21.5 87.5t-72.5 29.5q-51 -1 -72.5 -29.5t-21.5 -87.5v-170q0 -59 21.5 -87.5t72.5 -29.5q51 1 72.5 29.5t21.5 87.5z" />
    <glyph glyph-name="Odieresis" unicode="&#xd6;" horiz-adv-x="644" 
d="M190 744q-49 0 -71.5 23t-22.5 71q0 94 94 94q93 0 93 -94t-93 -94zM455 744q-49 0 -71.5 23t-22.5 71q0 94 94 94q93 0 93 -94t-93 -94zM322 710q132 0 213 -63.5t81 -175.5v-242q0 -112 -81 -175.5t-213 -63.5t-213 63.5t-81 175.5v242q0 112 81 175.5t213 63.5z
M416 265v170q0 59 -21.5 87.5t-72.5 29.5q-51 -1 -72.5 -29.5t-21.5 -87.5v-170q0 -59 21.5 -87.5t72.5 -29.5q51 1 72.5 29.5t21.5 87.5z" />
    <glyph glyph-name="multiply" unicode="&#xd7;" horiz-adv-x="628" 
d="M600 523l-189 -189l181 -182q-43 -53 -96 -96l-182 181l-189 -189q-49 38 -97 96l190 190l-182 181q44 54 97 96l181 -181l189 189q49 -38 97 -96z" />
    <glyph glyph-name="Oslash" unicode="&#xd8;" horiz-adv-x="644" 
d="M504 667q112 -64 112 -196v-242q0 -112 -81 -175.5t-213 -63.5q-69 0 -125 18l-37 -79q-31 9 -55 25l36 78q-113 65 -113 197v242q0 112 81 175.5t213 63.5q69 0 126 -18l36 78q23 -6 56 -26zM228 265q0 -22 3 -40l146 314q-23 13 -55 13q-51 -1 -72.5 -29.5t-21.5 -87.5
v-170zM416 265v170q0 14 -2 38l-146 -312q23 -13 54 -13q51 1 72.5 29.5t21.5 87.5z" />
    <glyph glyph-name="Ugrave" unicode="&#xd9;" horiz-adv-x="693" 
d="M479 819q-24 -39 -61 -73l-207 155q34 52 92 106zM446 700q100 8 200 0v-461q0 -115 -73.5 -182t-225.5 -67t-226 67t-74 182v461q100 8 200 0v-435q0 -64 24 -90t76 -27q51 1 75 27t24 90v435z" />
    <glyph glyph-name="Uacute" unicode="&#xda;" horiz-adv-x="693" 
d="M317 746q-37 34 -61 73l176 188q58 -54 92 -106zM446 700q100 8 200 0v-461q0 -115 -73.5 -182t-225.5 -67t-226 67t-74 182v461q100 8 200 0v-435q0 -64 24 -90t76 -27q51 1 75 27t24 90v435z" />
    <glyph glyph-name="Ucircumflex" unicode="&#xdb;" horiz-adv-x="693" 
d="M228 746q-39 37 -70 96l189 145l189 -145q-34 -61 -71 -96l-99 106q-13 13 -17 41h-4q-4 -27 -18 -41zM446 700q100 8 200 0v-461q0 -115 -73.5 -182t-225.5 -67t-226 67t-74 182v461q100 8 200 0v-435q0 -64 24 -90t76 -27q51 1 75 27t24 90v435z" />
    <glyph glyph-name="Udieresis" unicode="&#xdc;" horiz-adv-x="693" 
d="M215 744q-49 0 -71.5 23t-22.5 71q0 94 94 94q93 0 93 -94t-93 -94zM480 744q-49 0 -71.5 23t-22.5 71q0 94 94 94q93 0 93 -94t-93 -94zM446 700q100 8 200 0v-461q0 -115 -73.5 -182t-225.5 -67t-226 67t-74 182v461q100 8 200 0v-435q0 -64 24 -90t76 -27q51 1 75 27
t24 90v435z" />
    <glyph glyph-name="Yacute" unicode="&#xdd;" horiz-adv-x="647" 
d="M293 746q-37 34 -61 73l176 188q58 -54 92 -106zM647 700l-212 -443v-257q-100 -10 -201 0v256l-235 444q111 8 222 0l102 -223q10 -20 13 -82h5q3 58 13 82l84 223q105 8 209 0z" />
    <glyph glyph-name="Thorn" unicode="&#xde;" horiz-adv-x="612" 
d="M352 591q127 0 195.5 -55t68.5 -144v-86q0 -90 -68 -144.5t-196 -54.5h-105v-107q-100 -8 -200 0v700q100 8 200 0v-109h105zM415 331v36q0 65 -74 66h-94v-118q0 -26 -5 -45l5 -5h94q74 1 74 66z" />
    <glyph glyph-name="germandbls" unicode="&#xdf;" horiz-adv-x="714" 
d="M520 396q0 -21 18.5 -39.5t45 -34.5t53.5 -35t45.5 -51.5t18.5 -74.5q0 -171 -217 -171q-114 0 -187 50q0 63 38 119q64 -38 128 -38q48 0 48 23q0 15 -17.5 29.5t-42.5 28.5t-50.5 33t-43 51t-17.5 74q0 41 26.5 86t26.5 84q0 78 -67 78q-59 0 -59 -71v-537
q-94 -9 -190 0v374h-65q-7 74 0 148h65v39q0 91 70.5 140t178.5 49q107 0 176.5 -49t69.5 -145q0 -45 -26 -94.5t-26 -65.5z" />
    <glyph glyph-name="agrave" unicode="&#xe0;" horiz-adv-x="525" 
d="M398 641q-24 -39 -61 -73l-207 155q34 52 92 106zM270 532q47 0 83.5 -8t68.5 -27t49.5 -55.5t17.5 -89.5v-352q-96 -7 -190 0q0 19 5 33l-5 5q-51 -48 -123 -48q-69 0 -113.5 39t-44.5 109v26q0 70 45 109t117 39q74 0 119 -43l5 5q-5 19 -5 45v18q0 13 -2 21t-8.5 17.5
t-22.5 14.5t-41 5q-66 0 -142 -38q-33 66 -33 119q95 56 220 56zM299 133v36q-29 27 -56 27q-20 0 -30.5 -12.5t-10.5 -24.5v-16q0 -12 11 -25t30 -13q26 0 56 28z" />
    <glyph glyph-name="aacute" unicode="&#xe1;" horiz-adv-x="525" 
d="M236 568q-37 34 -61 73l176 188q58 -54 92 -106zM270 532q47 0 83.5 -8t68.5 -27t49.5 -55.5t17.5 -89.5v-352q-96 -7 -190 0q0 19 5 33l-5 5q-51 -48 -123 -48q-69 0 -113.5 39t-44.5 109v26q0 70 45 109t117 39q74 0 119 -43l5 5q-5 19 -5 45v18q0 13 -2 21t-8.5 17.5
t-22.5 14.5t-41 5q-66 0 -142 -38q-33 66 -33 119q95 56 220 56zM299 133v36q-29 27 -56 27q-20 0 -30.5 -12.5t-10.5 -24.5v-16q0 -12 11 -25t30 -13q26 0 56 28z" />
    <glyph glyph-name="acircumflex" unicode="&#xe2;" horiz-adv-x="525" 
d="M147 568q-39 37 -70 96l189 145l189 -145q-34 -61 -71 -96l-99 106q-13 13 -17 41h-4q-4 -27 -18 -41zM270 532q47 0 83.5 -8t68.5 -27t49.5 -55.5t17.5 -89.5v-352q-96 -7 -190 0q0 19 5 33l-5 5q-51 -48 -123 -48q-69 0 -113.5 39t-44.5 109v26q0 70 45 109t117 39
q74 0 119 -43l5 5q-5 19 -5 45v18q0 13 -2 21t-8.5 17.5t-22.5 14.5t-41 5q-66 0 -142 -38q-33 66 -33 119q95 56 220 56zM299 133v36q-29 27 -56 27q-20 0 -30.5 -12.5t-10.5 -24.5v-16q0 -12 11 -25t30 -13q26 0 56 28z" />
    <glyph glyph-name="atilde" unicode="&#xe3;" horiz-adv-x="525" 
d="M207 580q-86 0 -149 110q36 31 81 48q26 -36 54 -36q18 0 59.5 18.5t76.5 18.5q101 0 145 -110q-39 -34 -81 -49q-27 37 -53 37q-16 0 -59.5 -18.5t-73.5 -18.5zM270 532q47 0 83.5 -8t68.5 -27t49.5 -55.5t17.5 -89.5v-352q-96 -7 -190 0q0 19 5 33l-5 5
q-51 -48 -123 -48q-69 0 -113.5 39t-44.5 109v26q0 70 45 109t117 39q74 0 119 -43l5 5q-5 19 -5 45v18q0 13 -2 21t-8.5 17.5t-22.5 14.5t-41 5q-66 0 -142 -38q-33 66 -33 119q95 56 220 56zM299 133v36q-29 27 -56 27q-20 0 -30.5 -12.5t-10.5 -24.5v-16q0 -12 11 -25
t30 -13q26 0 56 28z" />
    <glyph glyph-name="adieresis" unicode="&#xe4;" horiz-adv-x="525" 
d="M134 566q-49 0 -71.5 23t-22.5 71q0 94 94 94q93 0 93 -94t-93 -94zM399 566q-49 0 -71.5 23t-22.5 71q0 94 94 94q93 0 93 -94t-93 -94zM270 532q47 0 83.5 -8t68.5 -27t49.5 -55.5t17.5 -89.5v-352q-96 -7 -190 0q0 19 5 33l-5 5q-51 -48 -123 -48q-69 0 -113.5 39
t-44.5 109v26q0 70 45 109t117 39q74 0 119 -43l5 5q-5 19 -5 45v18q0 13 -2 21t-8.5 17.5t-22.5 14.5t-41 5q-66 0 -142 -38q-33 66 -33 119q95 56 220 56zM299 133v36q-29 27 -56 27q-20 0 -30.5 -12.5t-10.5 -24.5v-16q0 -12 11 -25t30 -13q26 0 56 28z" />
    <glyph glyph-name="aring" unicode="&#xe5;" horiz-adv-x="525" 
d="M266 561q-119 0 -119 111q0 55 31 84t88 29q56 0 86.5 -29.5t30.5 -83.5q0 -55 -30.5 -83t-86.5 -28zM266 708q-35 0 -35 -35q0 -34 35 -34q32 0 32 34q0 35 -32 35zM270 532q47 0 83.5 -8t68.5 -27t49.5 -55.5t17.5 -89.5v-352q-96 -7 -190 0q0 19 5 33l-5 5
q-51 -48 -123 -48q-69 0 -113.5 39t-44.5 109v26q0 70 45 109t117 39q74 0 119 -43l5 5q-5 19 -5 45v18q0 13 -2 21t-8.5 17.5t-22.5 14.5t-41 5q-66 0 -142 -38q-33 66 -33 119q95 56 220 56zM299 133v36q-29 27 -56 27q-20 0 -30.5 -12.5t-10.5 -24.5v-16q0 -12 11 -25
t30 -13q26 0 56 28z" />
    <glyph glyph-name="ae" unicode="&#xe6;" horiz-adv-x="798" 
d="M494 215l-5 -5v-6q0 -43 24 -60.5t74 -17.5q71 0 131 44q38 -56 38 -119q-73 -61 -199 -61q-134 0 -195 79q-71 -79 -186 -79q-69 0 -113.5 39t-44.5 109v26q0 70 45 109t117 39q74 0 119 -43l5 5q-5 19 -5 45v18q0 13 -2 21t-8.5 17.5t-22.5 14.5t-41 5q-66 0 -142 -38
q-33 66 -33 119q95 56 220 56q88 0 138 -38q55 38 142 38q110 0 167.5 -57t57.5 -142v-123h-174h-62q-26 0 -45 5zM549 406q-60 0 -60 -71v-5h62q26 0 45 -5l5 5v4q0 39 -12.5 55.5t-39.5 16.5zM243 105q26 0 56 28v36q-29 27 -56 27q-20 0 -30.5 -12.5t-10.5 -24.5v-16
q0 -12 11 -25t30 -13z" />
    <glyph glyph-name="ccedilla" unicode="&#xe7;" horiz-adv-x="456" 
d="M449 40q-55 -45 -144 -49l-17 -27q46 -5 75.5 -30.5t29.5 -66.5q0 -56 -51.5 -78t-155.5 0q-5 36 0 72q26 -4 45.5 3.5t19.5 29.5q0 17 -14 26.5t-47 16.5l27 58q-90 15 -139.5 69t-49.5 125v144q0 83 67.5 141t186.5 58q107 0 167 -50q0 -62 -38 -120q-51 33 -107 33
q-86 0 -86 -77v-114q0 -78 86 -78q54 0 107 33q38 -56 38 -119z" />
    <glyph glyph-name="egrave" unicode="&#xe8;" horiz-adv-x="521" 
d="M393 641q-24 -39 -61 -73l-207 155q34 52 92 106zM217 215l-5 -5v-6q0 -43 24 -60.5t75 -17.5q69 0 131 44q38 -56 38 -119q-73 -61 -199 -61q-118 0 -185.5 58t-67.5 141v145q0 84 64.5 141t181.5 57q109 0 167 -57.5t58 -141.5v-123h-174h-63q-26 0 -45 5zM273 406
q-61 0 -61 -71v-5h63q26 0 45 -5l5 5v4q0 38 -12.5 54.5t-39.5 17.5z" />
    <glyph glyph-name="eacute" unicode="&#xe9;" horiz-adv-x="521" 
d="M231 568q-37 34 -61 73l176 188q58 -54 92 -106zM217 215l-5 -5v-6q0 -43 24 -60.5t75 -17.5q69 0 131 44q38 -56 38 -119q-73 -61 -199 -61q-118 0 -185.5 58t-67.5 141v145q0 84 64.5 141t181.5 57q109 0 167 -57.5t58 -141.5v-123h-174h-63q-26 0 -45 5zM273 406
q-61 0 -61 -71v-5h63q26 0 45 -5l5 5v4q0 38 -12.5 54.5t-39.5 17.5z" />
    <glyph glyph-name="ecircumflex" unicode="&#xea;" horiz-adv-x="521" 
d="M142 568q-39 37 -70 96l189 145l189 -145q-34 -61 -71 -96l-99 106q-13 13 -17 41h-4q-4 -27 -18 -41zM217 215l-5 -5v-6q0 -43 24 -60.5t75 -17.5q69 0 131 44q38 -56 38 -119q-73 -61 -199 -61q-118 0 -185.5 58t-67.5 141v145q0 84 64.5 141t181.5 57q109 0 167 -57.5
t58 -141.5v-123h-174h-63q-26 0 -45 5zM273 406q-61 0 -61 -71v-5h63q26 0 45 -5l5 5v4q0 38 -12.5 54.5t-39.5 17.5z" />
    <glyph glyph-name="edieresis" unicode="&#xeb;" horiz-adv-x="521" 
d="M129 566q-49 0 -71.5 23t-22.5 71q0 94 94 94q93 0 93 -94t-93 -94zM394 566q-49 0 -71.5 23t-22.5 71q0 94 94 94q93 0 93 -94t-93 -94zM217 215l-5 -5v-6q0 -43 24 -60.5t75 -17.5q69 0 131 44q38 -56 38 -119q-73 -61 -199 -61q-118 0 -185.5 58t-67.5 141v145
q0 84 64.5 141t181.5 57q109 0 167 -57.5t58 -141.5v-123h-174h-63q-26 0 -45 5zM273 406q-61 0 -61 -71v-5h63q26 0 45 -5l5 5v4q0 38 -12.5 54.5t-39.5 17.5z" />
    <glyph glyph-name="igrave" unicode="&#xec;" horiz-adv-x="264" 
d="M269 641q-24 -39 -61 -73l-207 155q34 52 92 106zM37 490q82 42 190 42v-532q-96 -9 -190 0v490z" />
    <glyph glyph-name="iacute" unicode="&#xed;" horiz-adv-x="264" 
d="M46 641l176 188q58 -54 92 -106l-207 -155q-37 34 -61 73zM37 490q82 42 190 42v-532q-96 -9 -190 0v490z" />
    <glyph glyph-name="icircumflex" unicode="&#xee;" horiz-adv-x="264" 
d="M137 809l189 -145q-34 -61 -71 -96l-99 106q-13 13 -17 41h-4q-4 -27 -18 -41l-99 -106q-39 37 -70 96zM37 0v490q82 42 190 42v-532q-96 -9 -190 0z" />
    <glyph glyph-name="idieresis" unicode="&#xef;" horiz-adv-x="264" 
d="M5 566q-49 0 -71.5 23t-22.5 71q0 94 94 94q93 0 93 -94t-93 -94zM270 566q-49 0 -71.5 23t-22.5 71q0 94 94 94q93 0 93 -94t-93 -94zM37 490q82 42 190 42v-532q-96 -9 -190 0v490z" />
    <glyph glyph-name="eth" unicode="&#xf0;" horiz-adv-x="559" 
d="M332 697q103 -41 151 -117.5t48 -207.5v-183q0 -84 -65 -141.5t-184 -57.5q-120 0 -187 57.5t-67 141.5v95q0 85 46.5 136.5t143.5 51.5q74 0 123 -49l5 5q0 106 -74 164l-49 -85q-41 16 -82 47l47 83q-39 16 -88 26q9 47 40 81q58 -8 99 -19l41 72q44 -15 82 -47z
M341 204v103q-31 28 -59 28q-64 0 -64 -77v-54q0 -78 64 -78q59 0 59 78z" />
    <glyph glyph-name="ntilde" unicode="&#xf1;" horiz-adv-x="567" 
d="M246 580q-86 0 -149 110q36 31 81 48q26 -36 54 -36q18 0 59.5 18.5t76.5 18.5q101 0 145 -110q-39 -34 -81 -49q-27 37 -53 37q-16 0 -59.5 -18.5t-73.5 -18.5zM377 532q153 0 153 -137v-395q-94 -9 -190 0v315q0 38 -10 51t-36 13q-30 0 -67 -22v-357q-96 -9 -190 0
v490q82 42 190 42q0 -32 -5 -48l5 -5q64 53 150 53z" />
    <glyph glyph-name="ograve" unicode="&#xf2;" horiz-adv-x="563" 
d="M414 641q-24 -39 -61 -73l-207 155q34 52 92 106zM282 532q120 0 187 -57.5t67 -141.5v-144q0 -84 -67 -141.5t-187 -57.5t-187 57.5t-67 141.5v144q0 84 67 141.5t187 57.5zM346 204v114q0 40 -18 58.5t-46 18.5t-46 -18.5t-18 -58.5v-114q0 -40 18 -58.5t46 -18.5
t46 18.5t18 58.5z" />
    <glyph glyph-name="oacute" unicode="&#xf3;" horiz-adv-x="563" 
d="M252 568q-37 34 -61 73l176 188q58 -54 92 -106zM282 532q120 0 187 -57.5t67 -141.5v-144q0 -84 -67 -141.5t-187 -57.5t-187 57.5t-67 141.5v144q0 84 67 141.5t187 57.5zM346 204v114q0 40 -18 58.5t-46 18.5t-46 -18.5t-18 -58.5v-114q0 -40 18 -58.5t46 -18.5
t46 18.5t18 58.5z" />
    <glyph glyph-name="ocircumflex" unicode="&#xf4;" horiz-adv-x="563" 
d="M163 568q-39 37 -70 96l189 145l189 -145q-34 -61 -71 -96l-99 106q-13 13 -17 41h-4q-4 -27 -18 -41zM282 532q120 0 187 -57.5t67 -141.5v-144q0 -84 -67 -141.5t-187 -57.5t-187 57.5t-67 141.5v144q0 84 67 141.5t187 57.5zM346 204v114q0 40 -18 58.5t-46 18.5
t-46 -18.5t-18 -58.5v-114q0 -40 18 -58.5t46 -18.5t46 18.5t18 58.5z" />
    <glyph glyph-name="otilde" unicode="&#xf5;" horiz-adv-x="563" 
d="M223 580q-86 0 -149 110q36 31 81 48q26 -36 54 -36q18 0 59.5 18.5t76.5 18.5q101 0 145 -110q-39 -34 -81 -49q-27 37 -53 37q-16 0 -59.5 -18.5t-73.5 -18.5zM282 532q120 0 187 -57.5t67 -141.5v-144q0 -84 -67 -141.5t-187 -57.5t-187 57.5t-67 141.5v144
q0 84 67 141.5t187 57.5zM346 204v114q0 40 -18 58.5t-46 18.5t-46 -18.5t-18 -58.5v-114q0 -40 18 -58.5t46 -18.5t46 18.5t18 58.5z" />
    <glyph glyph-name="odieresis" unicode="&#xf6;" horiz-adv-x="563" 
d="M150 566q-49 0 -71.5 23t-22.5 71q0 94 94 94q93 0 93 -94t-93 -94zM415 566q-49 0 -71.5 23t-22.5 71q0 94 94 94q93 0 93 -94t-93 -94zM282 532q120 0 187 -57.5t67 -141.5v-144q0 -84 -67 -141.5t-187 -57.5t-187 57.5t-67 141.5v144q0 84 67 141.5t187 57.5zM346 204
v114q0 40 -18 58.5t-46 18.5t-46 -18.5t-18 -58.5v-114q0 -40 18 -58.5t46 -18.5t46 18.5t18 58.5z" />
    <glyph glyph-name="divide" unicode="&#xf7;" horiz-adv-x="655" 
d="M328 445q-49 0 -71.5 23t-22.5 71q0 94 94 94q93 0 93 -94t-93 -94zM622 402q8 -69 0 -137h-590q-8 69 0 137h590zM328 36q-49 0 -71.5 23t-22.5 71q0 94 94 94q93 0 93 -94t-93 -94z" />
    <glyph glyph-name="oslash" unicode="&#xf8;" horiz-adv-x="563" 
d="M428 501q52 -26 80 -71t28 -97v-144q0 -84 -67 -141.5t-187 -57.5q-50 0 -87 10l-37 -80q-33 10 -54 25l35 75q-54 26 -82.5 71t-28.5 98v144q0 84 67 141.5t187 57.5q46 0 89 -10l34 73q19 -4 55 -25zM218 204v-12l92 198q-15 5 -28 5q-28 0 -46 -18.5t-18 -58.5v-114z
M346 204v114v6l-90 -192q10 -5 26 -5q28 0 46 18.5t18 58.5z" />
    <glyph glyph-name="ugrave" unicode="&#xf9;" horiz-adv-x="562" 
d="M421 641q-24 -39 -61 -73l-207 155q34 52 92 106zM336 490q81 42 190 42v-532q-96 -9 -190 0q0 19 5 33l-5 5q-61 -52 -146 -52q-153 0 -153 137v367q81 42 190 42v-330q0 -37 10.5 -50t35.5 -14q26 0 63 22v330z" />
    <glyph glyph-name="uacute" unicode="&#xfa;" horiz-adv-x="562" 
d="M259 568q-37 34 -61 73l176 188q58 -54 92 -106zM336 490q81 42 190 42v-532q-96 -9 -190 0q0 19 5 33l-5 5q-61 -52 -146 -52q-153 0 -153 137v367q81 42 190 42v-330q0 -37 10.5 -50t35.5 -14q26 0 63 22v330z" />
    <glyph glyph-name="ucircumflex" unicode="&#xfb;" horiz-adv-x="562" 
d="M170 568q-39 37 -70 96l189 145l189 -145q-34 -61 -71 -96l-99 106q-13 13 -17 41h-4q-4 -27 -18 -41zM336 490q81 42 190 42v-532q-96 -9 -190 0q0 19 5 33l-5 5q-61 -52 -146 -52q-153 0 -153 137v367q81 42 190 42v-330q0 -37 10.5 -50t35.5 -14q26 0 63 22v330z" />
    <glyph glyph-name="udieresis" unicode="&#xfc;" horiz-adv-x="562" 
d="M157 566q-49 0 -71.5 23t-22.5 71q0 94 94 94q93 0 93 -94t-93 -94zM422 566q-49 0 -71.5 23t-22.5 71q0 94 94 94q93 0 93 -94t-93 -94zM336 490q81 42 190 42v-532q-96 -9 -190 0q0 19 5 33l-5 5q-61 -52 -146 -52q-153 0 -153 137v367q81 42 190 42v-330
q0 -37 10.5 -50t35.5 -14q26 0 63 22v330z" />
    <glyph glyph-name="yacute" unicode="&#xfd;" horiz-adv-x="573" 
d="M258 568q-37 34 -61 73l176 188q58 -54 92 -106zM381 522q97 7 193 0l-172 -501q-40 -116 -116.5 -174t-218.5 -57q-7 66 0 131q57 4 88.5 24.5t45.5 65.5l-197 511q103 7 206 0l72 -241q10 -33 13 -82h5q3 49 13 82z" />
    <glyph glyph-name="thorn" unicode="&#xfe;" horiz-adv-x="600" 
d="M350 532q96 0 143 -52t47 -136v-166q0 -84 -47 -136t-143 -52q-74 0 -123 49v-1l-5 -5q5 -19 5 -45v-88h-1v-58q-81 -42 -190 -42v100h1v798q81 42 190 42v-207q0 -26 -5 -45l5 -5q49 49 123 49zM350 204v114q0 40 -18 58.5t-46 18.5t-59 -28v-212q31 -28 59 -28t46 18.5
t18 58.5z" />
    <glyph glyph-name="ydieresis" unicode="&#xff;" horiz-adv-x="573" 
d="M156 566q-49 0 -71.5 23t-22.5 71q0 94 94 94q93 0 93 -94t-93 -94zM421 566q-49 0 -71.5 23t-22.5 71q0 94 94 94q93 0 93 -94t-93 -94zM381 522q97 7 193 0l-172 -501q-40 -116 -116.5 -174t-218.5 -57q-7 66 0 131q57 4 88.5 24.5t45.5 65.5l-197 511q103 7 206 0
l72 -241q10 -33 13 -82h5q3 49 13 82z" />
    <glyph glyph-name="Amacron" unicode="&#x100;" horiz-adv-x="700" 
d="M550 775h-386q-9 63 0 125h386q9 -62 0 -125zM457 700l233 -700q-107 -8 -213 0l-39 118h-192l-38 -118q-98 -7 -198 0l230 700q109 8 217 0zM290 254h103l-36 110q-10 29 -13 83h-5q-3 -54 -13 -83z" />
    <glyph glyph-name="amacron" unicode="&#x101;" horiz-adv-x="525" 
d="M459 597h-386q-9 63 0 125h386q9 -62 0 -125zM270 532q47 0 83.5 -8t68.5 -27t49.5 -55.5t17.5 -89.5v-352q-96 -7 -190 0q0 19 5 33l-5 5q-51 -48 -123 -48q-69 0 -113.5 39t-44.5 109v26q0 70 45 109t117 39q74 0 119 -43l5 5q-5 19 -5 45v18q0 13 -2 21t-8.5 17.5
t-22.5 14.5t-41 5q-66 0 -142 -38q-33 66 -33 119q95 56 220 56zM299 133v36q-29 27 -56 27q-20 0 -30.5 -12.5t-10.5 -24.5v-16q0 -12 11 -25t30 -13q26 0 56 28z" />
    <glyph glyph-name="Abreve" unicode="&#x102;" horiz-adv-x="700" 
d="M357 756q-67 0 -118 42.5t-65 131.5q45 13 94 10q31 -58 89 -58t89 58q49 3 94 -10q-14 -89 -65 -131.5t-118 -42.5zM457 700l233 -700q-107 -8 -213 0l-39 118h-192l-38 -118q-98 -7 -198 0l230 700q109 8 217 0zM290 254h103l-36 110q-10 29 -13 83h-5q-3 -54 -13 -83z
" />
    <glyph glyph-name="abreve" unicode="&#x103;" horiz-adv-x="525" 
d="M266 578q-67 0 -118 42.5t-65 131.5q45 13 94 10q31 -58 89 -58t89 58q49 3 94 -10q-14 -89 -65 -131.5t-118 -42.5zM270 532q47 0 83.5 -8t68.5 -27t49.5 -55.5t17.5 -89.5v-352q-96 -7 -190 0q0 19 5 33l-5 5q-51 -48 -123 -48q-69 0 -113.5 39t-44.5 109v26
q0 70 45 109t117 39q74 0 119 -43l5 5q-5 19 -5 45v18q0 13 -2 21t-8.5 17.5t-22.5 14.5t-41 5q-66 0 -142 -38q-33 66 -33 119q95 56 220 56zM299 133v36q-29 27 -56 27q-20 0 -30.5 -12.5t-10.5 -24.5v-16q0 -12 11 -25t30 -13q26 0 56 28z" />
    <glyph glyph-name="Aogonek" unicode="&#x104;" horiz-adv-x="700" 
d="M570 -4q-50 -43 -50 -71q0 -20 18.5 -28t35.5 -4q8 -52 0 -104q-99 -21 -153 9.5t-54 81.5q0 81 103 130h4l-36 108h-192l-38 -118q-98 -7 -198 0l230 700q109 8 217 0l233 -700q-52 -4 -120 -4zM290 254h103l-36 110q-10 29 -13 83h-5q-3 -54 -13 -83z" />
    <glyph glyph-name="aogonek" unicode="&#x105;" horiz-adv-x="525" 
d="M489 0q-39 -6 -61.5 -27t-22.5 -50q0 -36 54 -30q8 -52 0 -104q-102 -22 -154 6t-52 85q0 75 75 124q-11 17 -29 34q-51 -48 -123 -48q-69 0 -113.5 39t-44.5 109v26q0 70 45 109t117 39q74 0 119 -43l5 5q-5 19 -5 45v18q0 13 -2 21t-8.5 17.5t-22.5 14.5t-41 5
q-66 0 -142 -38q-33 66 -33 119q95 56 220 56q47 0 83.5 -8t68.5 -27t49.5 -55.5t17.5 -89.5v-352zM299 133v36q-29 27 -56 27q-20 0 -30.5 -12.5t-10.5 -24.5v-16q0 -12 11 -25t30 -13q26 0 56 28z" />
    <glyph glyph-name="Cacute" unicode="&#x106;" horiz-adv-x="538" 
d="M212 819l176 188q58 -54 92 -106l-207 -155q-37 34 -61 73zM337 148q62 0 147 49q40 -65 47 -146q-90 -61 -207 -61q-129 0 -212.5 62.5t-83.5 176.5v242q0 114 83.5 176.5t212.5 62.5q117 0 207 -61q-7 -81 -47 -146q-85 49 -147 49q-58 0 -83.5 -29.5t-25.5 -86.5v-172
q0 -57 25.5 -86.5t83.5 -29.5z" />
    <glyph glyph-name="cacute" unicode="&#x107;" horiz-adv-x="456" 
d="M168 641l176 188q58 -54 92 -106l-207 -155q-37 34 -61 73zM304 126q54 0 107 33q38 -56 38 -119q-60 -50 -167 -50q-119 0 -186.5 58t-67.5 141v144q0 83 67.5 141t186.5 58q107 0 167 -50q0 -62 -38 -120q-51 33 -107 33q-86 0 -86 -77v-114q0 -78 86 -78z" />
    <glyph glyph-name="Cdotaccent" unicode="&#x10a;" horiz-adv-x="538" 
d="M303 744q-49 0 -71.5 23t-22.5 71q0 94 94 94q93 0 93 -94t-93 -94zM337 148q62 0 147 49q40 -65 47 -146q-90 -61 -207 -61q-129 0 -212.5 62.5t-83.5 176.5v242q0 114 83.5 176.5t212.5 62.5q117 0 207 -61q-7 -81 -47 -146q-85 49 -147 49q-58 0 -83.5 -29.5
t-25.5 -86.5v-172q0 -57 25.5 -86.5t83.5 -29.5z" />
    <glyph glyph-name="cdotaccent" unicode="&#x10b;" horiz-adv-x="456" 
d="M259 566q-49 0 -71.5 23t-22.5 71q0 94 94 94q93 0 93 -94t-93 -94zM304 126q54 0 107 33q38 -56 38 -119q-60 -50 -167 -50q-119 0 -186.5 58t-67.5 141v144q0 83 67.5 141t186.5 58q107 0 167 -50q0 -62 -38 -120q-51 33 -107 33q-86 0 -86 -77v-114q0 -78 86 -78z" />
    <glyph glyph-name="Ccaron" unicode="&#x10c;" horiz-adv-x="538" 
d="M492 891l-189 -145l-189 145q31 59 70 96l99 -106q14 -14 18 -41h4q4 28 17 41l99 106q37 -35 71 -96zM337 148q62 0 147 49q40 -65 47 -146q-90 -61 -207 -61q-129 0 -212.5 62.5t-83.5 176.5v242q0 114 83.5 176.5t212.5 62.5q117 0 207 -61q-7 -81 -47 -146
q-85 49 -147 49q-58 0 -83.5 -29.5t-25.5 -86.5v-172q0 -57 25.5 -86.5t83.5 -29.5z" />
    <glyph glyph-name="ccaron" unicode="&#x10d;" horiz-adv-x="456" 
d="M448 713l-189 -145l-189 145q31 59 70 96l99 -106q14 -14 18 -41h4q4 28 17 41l99 106q37 -35 71 -96zM304 126q54 0 107 33q38 -56 38 -119q-60 -50 -167 -50q-119 0 -186.5 58t-67.5 141v144q0 83 67.5 141t186.5 58q107 0 167 -50q0 -62 -38 -120q-51 33 -107 33
q-86 0 -86 -77v-114q0 -78 86 -78z" />
    <glyph glyph-name="Dcaron" unicode="&#x10e;" horiz-adv-x="642" 
d="M502 891l-189 -145l-189 145q31 59 70 96l99 -106q14 -14 18 -41h4q4 28 17 41l99 106q37 -35 71 -96zM364 700q114 0 182.5 -58t68.5 -159v-266q0 -101 -68.5 -159t-182.5 -58h-317v700h317zM414 264v173q0 55 -19 80.5t-63 25.5h-85v-335q0 -26 -5 -45l5 -5h85
q44 0 63 25.5t19 80.5z" />
    <glyph glyph-name="dcaron" unicode="&#x10f;" horiz-adv-x="740" 
d="M341 698q81 42 190 42v-740q-95 -10 -190 0q0 19 5 33l-5 5v1q-49 -49 -123 -49q-96 0 -143 52t-47 136v166q0 84 47 136t143 52q74 0 123 -49l5 5q-5 19 -5 45v165zM578 700q81 7 163 0l-16 -212q-65 -9 -131 0zM341 155v212q-31 28 -59 28t-46 -18.5t-18 -58.5v-114
q0 -40 18 -58.5t46 -18.5t59 28z" />
    <glyph glyph-name="Dcroat" unicode="&#x110;" horiz-adv-x="642" 
d="M364 700q114 0 182.5 -58t68.5 -159v-266q0 -101 -68.5 -159t-182.5 -58h-317v286h-48q-8 68 0 136h48v278h317zM414 264v173q0 55 -19 80.5t-63 25.5h-85v-121h97q8 -68 0 -136h-97v-78q0 -26 -5 -45l5 -5h85q44 0 63 25.5t19 80.5z" />
    <glyph glyph-name="dcroat" unicode="&#x111;" horiz-adv-x="581" 
d="M579 652q4 -18 4 -52.5t-4 -51.5h-48v-548q-95 -10 -190 0q0 19 5 33l-5 5v1q-49 -49 -123 -49q-96 0 -143 52t-47 136v166q0 84 47 136t143 52q74 0 123 -49l5 5q-5 19 -5 45v15h-94q-4 17 -4 51.5t4 52.5h94v46q81 42 190 42v-88h48zM341 155v212q-31 28 -59 28
t-46 -18.5t-18 -58.5v-114q0 -40 18 -58.5t46 -18.5t59 28z" />
    <glyph glyph-name="Emacron" unicode="&#x112;" horiz-adv-x="536" 
d="M487 775h-386q-9 62 0 125h386q9 -62 0 -125zM525 158q7 -79 0 -158h-314h-164v700h200h268q7 -79 0 -158h-268v-53q0 -26 -5 -45l5 -5h228q7 -79 0 -158h-228v-73q0 -26 -5 -45l5 -5h278z" />
    <glyph glyph-name="emacron" unicode="&#x113;" horiz-adv-x="521" 
d="M454 597h-386q-9 63 0 125h386q9 -62 0 -125zM217 215l-5 -5v-6q0 -43 24 -60.5t75 -17.5q69 0 131 44q38 -56 38 -119q-73 -61 -199 -61q-118 0 -185.5 58t-67.5 141v145q0 84 64.5 141t181.5 57q109 0 167 -57.5t58 -141.5v-123h-174h-63q-26 0 -45 5zM273 406
q-61 0 -61 -71v-5h63q26 0 45 -5l5 5v4q0 38 -12.5 54.5t-39.5 17.5z" />
    <glyph glyph-name="Edotaccent" unicode="&#x116;" horiz-adv-x="536" 
d="M294 744q-49 0 -71.5 23t-22.5 71q0 94 94 94q93 0 93 -94t-93 -94zM525 158q7 -79 0 -158h-314h-164v700h200h268q7 -79 0 -158h-268v-53q0 -26 -5 -45l5 -5h228q7 -79 0 -158h-228v-73q0 -26 -5 -45l5 -5h278z" />
    <glyph glyph-name="edotaccent" unicode="&#x117;" horiz-adv-x="521" 
d="M261 566q-49 0 -71.5 23t-22.5 71q0 94 94 94q93 0 93 -94t-93 -94zM217 215l-5 -5v-6q0 -43 24 -60.5t75 -17.5q69 0 131 44q38 -56 38 -119q-73 -61 -199 -61q-118 0 -185.5 58t-67.5 141v145q0 84 64.5 141t181.5 57q109 0 167 -57.5t58 -141.5v-123h-174h-63
q-26 0 -45 5zM273 406q-61 0 -61 -71v-5h63q26 0 45 -5l5 5v4q0 38 -12.5 54.5t-39.5 17.5z" />
    <glyph glyph-name="Eogonek" unicode="&#x118;" horiz-adv-x="536" 
d="M471 -75q0 -20 18.5 -28t35.5 -4q8 -52 0 -104q-99 -21 -153 9.5t-54 81.5q0 73 84 120h-191h-164v700h200h268q7 -79 0 -158h-268v-53q0 -26 -5 -45l5 -5h228q7 -79 0 -158h-228v-73q0 -26 -5 -45l5 -5h278q7 -79 0 -158q-54 -47 -54 -75z" />
    <glyph glyph-name="eogonek" unicode="&#x119;" horiz-adv-x="521" 
d="M217 215l-5 -5v-6q0 -43 24 -60.5t75 -17.5q69 0 131 44q38 -56 38 -119q-26 -23 -69 -39q-57 -43 -57 -89q0 -36 55 -30q8 -52 0 -104q-102 -22 -154.5 6t-52.5 85q0 70 53 111q-107 6 -167 63t-60 135v145q0 84 64.5 141t181.5 57q109 0 167 -57.5t58 -141.5v-123h-174
h-63q-26 0 -45 5zM273 406q-61 0 -61 -71v-5h63q26 0 45 -5l5 5v4q0 38 -12.5 54.5t-39.5 17.5z" />
    <glyph glyph-name="Ecaron" unicode="&#x11a;" horiz-adv-x="536" 
d="M483 891l-189 -145l-189 145q31 59 70 96l99 -106q14 -14 18 -41h4q4 28 17 41l99 106q37 -35 71 -96zM525 158q7 -79 0 -158h-314h-164v700h200h268q7 -79 0 -158h-268v-53q0 -26 -5 -45l5 -5h228q7 -79 0 -158h-228v-73q0 -26 -5 -45l5 -5h278z" />
    <glyph glyph-name="ecaron" unicode="&#x11b;" horiz-adv-x="521" 
d="M450 713l-189 -145l-189 145q31 59 70 96l99 -106q14 -14 18 -41h4q4 28 17 41l99 106q37 -35 71 -96zM217 215l-5 -5v-6q0 -43 24 -60.5t75 -17.5q69 0 131 44q38 -56 38 -119q-73 -61 -199 -61q-118 0 -185.5 58t-67.5 141v145q0 84 64.5 141t181.5 57q109 0 167 -57.5
t58 -141.5v-123h-174h-63q-26 0 -45 5zM273 406q-61 0 -61 -71v-5h63q26 0 45 -5l5 5v4q0 38 -12.5 54.5t-39.5 17.5z" />
    <glyph glyph-name="Gbreve" unicode="&#x11e;" horiz-adv-x="594" 
d="M300 756q-67 0 -118 42.5t-65 131.5q45 13 94 10q31 -58 89 -58t89 58q49 3 94 -10q-14 -89 -65 -131.5t-118 -42.5zM388 341q89 8 179 0v-290q-41 -28 -107 -44.5t-131 -16.5q-129 0 -215 62.5t-86 176.5v242q0 114 83 176.5t214 62.5q132 0 221 -61q-7 -81 -47 -146
q-82 49 -160 49q-60 0 -85.5 -29t-25.5 -87v-172q0 -59 25.5 -87.5t87.5 -28.5q26 0 47 4v189z" />
    <glyph glyph-name="gbreve" unicode="&#x11f;" horiz-adv-x="568" 
d="M287 578q-67 0 -118 42.5t-65 131.5q45 13 94 10q31 -58 89 -58t89 58q49 3 94 -10q-14 -89 -65 -131.5t-118 -42.5zM341 522q95 10 190 0v-542q0 -53 -22.5 -91.5t-61 -59t-81 -30t-91.5 -9.5q-124 0 -213 55q0 55 32 119q76 -38 155 -38q47 0 69.5 18t22.5 40v4
q0 26 5 45l-5 5v1q-49 -49 -123 -49q-96 0 -143 52t-47 136v166q0 84 47 136t143 52q74 0 123 -49l5 5q-5 14 -5 34zM341 155v212q-31 28 -59 28t-46 -18.5t-18 -58.5v-114q0 -40 18 -58.5t46 -18.5t59 28z" />
    <glyph glyph-name="Gdotaccent" unicode="&#x120;" horiz-adv-x="594" 
d="M300 744q-49 0 -71.5 23t-22.5 71q0 94 94 94q93 0 93 -94t-93 -94zM388 341q89 8 179 0v-290q-41 -28 -107 -44.5t-131 -16.5q-129 0 -215 62.5t-86 176.5v242q0 114 83 176.5t214 62.5q132 0 221 -61q-7 -81 -47 -146q-82 49 -160 49q-60 0 -85.5 -29t-25.5 -87v-172
q0 -59 25.5 -87.5t87.5 -28.5q26 0 47 4v189z" />
    <glyph glyph-name="gdotaccent" unicode="&#x121;" horiz-adv-x="568" 
d="M287 566q-49 0 -71.5 23t-22.5 71q0 94 94 94q93 0 93 -94t-93 -94zM341 522q95 10 190 0v-542q0 -53 -22.5 -91.5t-61 -59t-81 -30t-91.5 -9.5q-124 0 -213 55q0 55 32 119q76 -38 155 -38q47 0 69.5 18t22.5 40v4q0 26 5 45l-5 5v1q-49 -49 -123 -49q-96 0 -143 52
t-47 136v166q0 84 47 136t143 52q74 0 123 -49l5 5q-5 14 -5 34zM341 155v212q-31 28 -59 28t-46 -18.5t-18 -58.5v-114q0 -40 18 -58.5t46 -18.5t59 28z" />
    <glyph glyph-name="Gcommaaccent" unicode="&#x122;" horiz-adv-x="594" 
d="M388 341q89 8 179 0v-290q-41 -28 -107 -44.5t-131 -16.5q-129 0 -215 62.5t-86 176.5v242q0 114 83 176.5t214 62.5q132 0 221 -61q-7 -81 -47 -146q-82 49 -160 49q-60 0 -85.5 -29t-25.5 -87v-172q0 -59 25.5 -87.5t87.5 -28.5q26 0 47 4v189zM202 -256l76 176
q22 -9 61.5 -30t51.5 -31l-106 -162q-51 18 -83 47z" />
    <glyph glyph-name="gcommaaccent" unicode="&#x123;" horiz-adv-x="568" 
d="M389 755l-76 -176q-22 9 -61.5 30t-51.5 31l106 162q51 -18 83 -47zM341 522q95 10 190 0v-542q0 -53 -22.5 -91.5t-61 -59t-81 -30t-91.5 -9.5q-124 0 -213 55q0 55 32 119q76 -38 155 -38q47 0 69.5 18t22.5 40v4q0 26 5 45l-5 5v1q-49 -49 -123 -49q-96 0 -143 52
t-47 136v166q0 84 47 136t143 52q74 0 123 -49l5 5q-5 14 -5 34zM341 155v212q-31 28 -59 28t-46 -18.5t-18 -58.5v-114q0 -40 18 -58.5t46 -18.5t59 28z" />
    <glyph glyph-name="Hbar" unicode="&#x126;" horiz-adv-x="692" 
d="M693 624q8 -68 0 -137h-48v-487q-101 -8 -201 0v230q0 26 5 45l-5 5h-197v-280q-100 -8 -200 0v487h-48q-8 69 0 137h48v76q100 8 200 0v-76h197v76q100 8 201 0v-76h48zM444 438v49h-197q0 -25 -5 -44l5 -5h197z" />
    <glyph glyph-name="hbar" unicode="&#x127;" horiz-adv-x="581" 
d="M391 532q153 0 153 -137v-395q-94 -9 -190 0v315q0 38 -10 51t-36 13q-30 0 -67 -22v-357q-96 -9 -190 0v548h-48q-4 17 -4 51.5t4 52.5h48v46q81 42 190 42v-88h93q4 -18 4 -52.5t-4 -51.5h-93v-19q0 -26 -5 -45l5 -5q64 53 150 53z" />
    <glyph glyph-name="Imacron" unicode="&#x12a;" horiz-adv-x="294" 
d="M-46 900h386q9 -62 0 -125h-386q-9 62 0 125zM247 700v-700q-100 -8 -200 0v700q100 8 200 0z" />
    <glyph glyph-name="imacron" unicode="&#x12b;" horiz-adv-x="264" 
d="M-56 722h386q9 -62 0 -125h-386q-9 63 0 125zM37 490q82 42 190 42v-532q-96 -9 -190 0v490z" />
    <glyph glyph-name="Iogonek" unicode="&#x12e;" horiz-adv-x="294" 
d="M160 -4q-50 -43 -50 -71q0 -20 18.5 -28t35.5 -4q8 -52 0 -104q-99 -21 -153 9.5t-54 81.5q0 76 90 123v697q100 8 200 0v-700q-29 -2 -87 -4z" />
    <glyph glyph-name="iogonek" unicode="&#x12f;" horiz-adv-x="264" 
d="M137 566q-49 0 -71.5 23t-22.5 71q0 94 94 94q93 0 93 -94t-93 -94zM37 2v488q82 42 190 42v-532q-22 -2 -75 -4q-50 -43 -50 -71q0 -20 18.5 -28t35.5 -4q8 -52 0 -104q-99 -21 -153 9.5t-54 81.5q0 76 88 122z" />
    <glyph glyph-name="Idotaccent" unicode="&#x130;" horiz-adv-x="294" 
d="M147 744q-49 0 -71.5 23t-22.5 71q0 94 94 94q93 0 93 -94t-93 -94zM247 700v-700q-100 -8 -200 0v700q100 8 200 0z" />
    <glyph glyph-name="dotlessi" unicode="&#x131;" horiz-adv-x="264" 
d="M37 490q82 42 190 42v-532q-96 -9 -190 0v490z" />
    <glyph glyph-name="Kcommaaccent" unicode="&#x136;" horiz-adv-x="682" 
d="M247 700v-700q-100 -8 -200 0v700q100 8 200 0zM469 372q23 -6 41 -47l162 -325q-108 -8 -216 0l-188 365l194 335q106 8 211 0l-157 -275q-25 -40 -47 -46v-7zM243 -256l76 176q22 -9 61.5 -30t51.5 -31l-106 -162q-51 18 -83 47z" />
    <glyph glyph-name="kcommaaccent" unicode="&#x137;" horiz-adv-x="575" 
d="M227 0q-96 -9 -190 0v698q81 42 190 42v-740zM470 240l105 -240q-98 -10 -204 0l-122 280l123 242q101 10 193 0l-89 -182q-19 -39 -48 -47v-6q25 -8 42 -47zM184 -256l76 176q22 -9 61.5 -30t51.5 -31l-106 -162q-51 18 -83 47z" />
    <glyph glyph-name="Lacute" unicode="&#x139;" horiz-adv-x="524" 
d="M140 746q-37 34 -61 73l176 188q58 -54 92 -106zM510 158q7 -79 0 -158h-299h-164v700q100 8 200 0v-492q0 -26 -5 -45l5 -5h263z" />
    <glyph glyph-name="lacute" unicode="&#x13a;" horiz-adv-x="264" 
d="M102 744q-37 34 -61 73l176 188q58 -54 92 -106zM37 698q81 42 190 42v-740q-96 -9 -190 0v698z" />
    <glyph glyph-name="Lcommaaccent" unicode="&#x13b;" horiz-adv-x="524" 
d="M510 158q7 -79 0 -158h-299h-164v700q100 8 200 0v-492q0 -26 -5 -45l5 -5h263zM161 -256l76 176q22 -9 61.5 -30t51.5 -31l-106 -162q-51 18 -83 47z" />
    <glyph glyph-name="lcommaaccent" unicode="&#x13c;" horiz-adv-x="264" 
d="M37 698q81 42 190 42v-740q-96 -9 -190 0v698zM34 -256l76 176q22 -9 61.5 -30t51.5 -31l-106 -162q-51 18 -83 47z" />
    <glyph glyph-name="Lcaron" unicode="&#x13d;" horiz-adv-x="524" 
d="M510 158q7 -79 0 -158h-299h-164v700q100 8 200 0v-492q0 -26 -5 -45l5 -5h263zM473 488q-65 -9 -131 0l-16 212q81 7 163 0z" />
    <glyph glyph-name="lcaron" unicode="&#x13e;" horiz-adv-x="436" 
d="M37 698q81 42 190 42v-740q-96 -9 -190 0v698zM274 700q81 7 163 0l-16 -212q-66 -9 -131 0z" />
    <glyph glyph-name="Lslash" unicode="&#x141;" horiz-adv-x="601" 
d="M588 158q7 -79 0 -158h-299h-164v217l-69 -40q-41 56 -67 115l136 79v329q100 8 200 0v-213l113 65q38 -53 66 -116l-179 -103v-125q0 -26 -5 -45l5 -5h263z" />
    <glyph glyph-name="lslash" unicode="&#x142;" horiz-adv-x="421" 
d="M449 422l-138 -79v-343q-96 -9 -190 0v235l-61 -35q-41 57 -67 116l128 73v309q81 42 190 42v-243l71 41q35 -49 67 -116z" />
    <glyph glyph-name="Nacute" unicode="&#x143;" horiz-adv-x="702" 
d="M311 746q-37 34 -61 73l176 188q58 -54 92 -106zM466 700q94 9 190 0v-700q-85 -8 -170 0l-249 342l-5 -4q5 -19 5 -46v-292q-96 -9 -190 0v700q84 8 169 0l250 -342l5 4q-5 19 -5 46v292z" />
    <glyph glyph-name="nacute" unicode="&#x144;" horiz-adv-x="567" 
d="M275 568q-37 34 -61 73l176 188q58 -54 92 -106zM377 532q153 0 153 -137v-395q-94 -9 -190 0v315q0 38 -10 51t-36 13q-30 0 -67 -22v-357q-96 -9 -190 0v490q82 42 190 42q0 -32 -5 -48l5 -5q64 53 150 53z" />
    <glyph glyph-name="Ncommaaccent" unicode="&#x145;" horiz-adv-x="702" 
d="M466 700q94 9 190 0v-700q-85 -8 -170 0l-249 342l-5 -4q5 -19 5 -46v-292q-96 -9 -190 0v700q84 8 169 0l250 -342l5 4q-5 19 -5 46v292zM243 -256l76 176q22 -9 61.5 -30t51.5 -31l-106 -162q-51 18 -83 47z" />
    <glyph glyph-name="ncommaaccent" unicode="&#x146;" horiz-adv-x="567" 
d="M377 532q153 0 153 -137v-395q-94 -9 -190 0v315q0 38 -10 51t-36 13q-30 0 -67 -22v-357q-96 -9 -190 0v490q82 42 190 42q0 -32 -5 -48l5 -5q64 53 150 53zM186 -256l76 176q22 -9 61.5 -30t51.5 -31l-106 -162q-51 18 -83 47z" />
    <glyph glyph-name="Ncaron" unicode="&#x147;" horiz-adv-x="702" 
d="M530 891l-189 -145l-189 145q31 59 70 96l99 -106q14 -14 18 -41h4q4 28 17 41l99 106q37 -35 71 -96zM466 700q94 9 190 0v-700q-85 -8 -170 0l-249 342l-5 -4q5 -19 5 -46v-292q-96 -9 -190 0v700q84 8 169 0l250 -342l5 4q-5 19 -5 46v292z" />
    <glyph glyph-name="ncaron" unicode="&#x148;" horiz-adv-x="567" 
d="M494 713l-189 -145l-189 145q31 59 70 96l99 -106q14 -14 18 -41h4q4 28 17 41l99 106q37 -35 71 -96zM377 532q153 0 153 -137v-395q-94 -9 -190 0v315q0 38 -10 51t-36 13q-30 0 -67 -22v-357q-96 -9 -190 0v490q82 42 190 42q0 -32 -5 -48l5 -5q64 53 150 53z" />
    <glyph glyph-name="Eng" unicode="&#x14a;" horiz-adv-x="702" 
d="M466 700q94 9 190 0v-700v-9q0 -104 -57 -152.5t-183 -48.5q-7 65 0 131q27 5 38 20t12 53v33l-229 315l-5 -4q5 -19 5 -46v-292q-96 -9 -190 0v700q84 8 169 0l250 -342l5 4q-5 19 -5 46v292z" />
    <glyph glyph-name="eng" unicode="&#x14b;" horiz-adv-x="567" 
d="M377 532q153 0 153 -137v-395v-9q0 -104 -57 -152.5t-183 -48.5q-7 65 0 131q27 5 38 20t12 53v74v247q0 38 -10 51t-36 13q-30 0 -67 -22v-357q-96 -9 -190 0v490q82 42 190 42q0 -32 -5 -48l5 -5q64 53 150 53z" />
    <glyph glyph-name="Omacron" unicode="&#x14c;" horiz-adv-x="644" 
d="M515 775h-386q-9 62 0 125h386q9 -62 0 -125zM322 710q132 0 213 -63.5t81 -175.5v-242q0 -112 -81 -175.5t-213 -63.5t-213 63.5t-81 175.5v242q0 112 81 175.5t213 63.5zM416 265v170q0 59 -21.5 87.5t-72.5 29.5q-51 -1 -72.5 -29.5t-21.5 -87.5v-170
q0 -59 21.5 -87.5t72.5 -29.5q51 1 72.5 29.5t21.5 87.5z" />
    <glyph glyph-name="omacron" unicode="&#x14d;" horiz-adv-x="563" 
d="M475 597h-386q-9 63 0 125h386q9 -62 0 -125zM282 532q120 0 187 -57.5t67 -141.5v-144q0 -84 -67 -141.5t-187 -57.5t-187 57.5t-67 141.5v144q0 84 67 141.5t187 57.5zM346 204v114q0 40 -18 58.5t-46 18.5t-46 -18.5t-18 -58.5v-114q0 -40 18 -58.5t46 -18.5t46 18.5
t18 58.5z" />
    <glyph glyph-name="Ohungarumlaut" unicode="&#x150;" horiz-adv-x="644" 
d="M191 746q-38 24 -61 63l146 198q55 -43 92 -95zM394 746q-36 22 -61 63l146 198q55 -43 92 -95zM322 710q132 0 213 -63.5t81 -175.5v-242q0 -112 -81 -175.5t-213 -63.5t-213 63.5t-81 175.5v242q0 112 81 175.5t213 63.5zM416 265v170q0 59 -21.5 87.5t-72.5 29.5
q-51 -1 -72.5 -29.5t-21.5 -87.5v-170q0 -59 21.5 -87.5t72.5 -29.5q51 1 72.5 29.5t21.5 87.5z" />
    <glyph glyph-name="ohungarumlaut" unicode="&#x151;" horiz-adv-x="563" 
d="M151 568q-38 24 -61 63l146 198q55 -43 92 -95zM354 568q-36 22 -61 63l146 198q55 -43 92 -95zM282 532q120 0 187 -57.5t67 -141.5v-144q0 -84 -67 -141.5t-187 -57.5t-187 57.5t-67 141.5v144q0 84 67 141.5t187 57.5zM346 204v114q0 40 -18 58.5t-46 18.5t-46 -18.5
t-18 -58.5v-114q0 -40 18 -58.5t46 -18.5t46 18.5t18 58.5z" />
    <glyph glyph-name="OE" unicode="&#x152;" horiz-adv-x="919" 
d="M908 158q7 -79 0 -158h-479h-107q-132 0 -213 63.5t-81 175.5v222q0 112 81 175.5t213 63.5h308h268q7 -79 0 -158h-268v-53q0 -26 -5 -45l5 -5h228q7 -79 0 -158h-228v-73q0 -26 -5 -45l5 -5h278zM322 158h107v384h-107q-51 -1 -72.5 -29.5t-21.5 -87.5v-150
q0 -59 21.5 -87.5t72.5 -29.5z" />
    <glyph glyph-name="oe" unicode="&#x153;" horiz-adv-x="845" 
d="M536 211v-22v-1q4 -34 28 -48t70 -14q69 0 131 44q38 -56 38 -119q-73 -61 -199 -61q-96 0 -160 40q-66 -40 -162 -40q-120 0 -187 57.5t-67 141.5v144q0 84 67 141.5t187 57.5q94 0 159 -39q65 39 156 39q109 0 167 -57.5t58 -141.5v-123h-174h-63q-26 0 -45 5zM596 406
q-56 0 -61 -59q1 -5 1 -14v-3h62q26 0 45 -5l5 5v4q0 38 -12.5 54.5t-39.5 17.5zM346 204v114q0 40 -18 58.5t-46 18.5t-46 -18.5t-18 -58.5v-114q0 -40 18 -58.5t46 -18.5t46 18.5t18 58.5z" />
    <glyph glyph-name="Racute" unicode="&#x154;" horiz-adv-x="632" 
d="M288 746q-37 34 -61 73l176 188q58 -54 92 -106zM456 281q52 -13 77 -56.5t92 -224.5q-105 -7 -211 0q-44 113 -69 161t-43 61t-52 13h-3v-235q-100 -8 -200 0v700h200h74q126 0 195 -53t69 -136v-86q0 -56 -34 -93.5t-95 -45.5v-5zM247 393h63q37 1 55.5 16.5t18.5 40.5
v36q0 24 -18.5 39.5t-55.5 16.5h-63v-99q0 -26 -5 -45z" />
    <glyph glyph-name="racute" unicode="&#x155;" horiz-adv-x="396" 
d="M163 568q-37 34 -61 73l176 188q58 -54 92 -106zM222 443q43 101 174 78q0 -97 -33 -174q-45 8 -76.5 0t-59.5 -36v-311q-96 -9 -190 0v490q82 42 190 42q0 -51 -10 -84z" />
    <glyph glyph-name="Rcommaaccent" unicode="&#x156;" horiz-adv-x="632" 
d="M456 281q52 -13 77 -56.5t92 -224.5q-105 -7 -211 0q-44 113 -69 161t-43 61t-52 13h-3v-235q-100 -8 -200 0v700h200h74q126 0 195 -53t69 -136v-86q0 -56 -34 -93.5t-95 -45.5v-5zM247 393h63q37 1 55.5 16.5t18.5 40.5v36q0 24 -18.5 39.5t-55.5 16.5h-63v-99
q0 -26 -5 -45zM220 -256l76 176q22 -9 61.5 -30t51.5 -31l-106 -162q-51 18 -83 47z" />
    <glyph glyph-name="rcommaaccent" unicode="&#x157;" horiz-adv-x="396" 
d="M222 443q43 101 174 78q0 -97 -33 -174q-45 8 -76.5 0t-59.5 -36v-311q-96 -9 -190 0v490q82 42 190 42q0 -51 -10 -84zM24 -256l76 176q22 -9 61.5 -30t51.5 -31l-106 -162q-51 18 -83 47z" />
    <glyph glyph-name="Rcaron" unicode="&#x158;" horiz-adv-x="632" 
d="M507 891l-189 -145l-189 145q31 59 70 96l99 -106q14 -14 18 -41h4q4 28 17 41l99 106q37 -35 71 -96zM456 281q52 -13 77 -56.5t92 -224.5q-105 -7 -211 0q-44 113 -69 161t-43 61t-52 13h-3v-235q-100 -8 -200 0v700h200h74q126 0 195 -53t69 -136v-86q0 -56 -34 -93.5
t-95 -45.5v-5zM247 393h63q37 1 55.5 16.5t18.5 40.5v36q0 24 -18.5 39.5t-55.5 16.5h-63v-99q0 -26 -5 -45z" />
    <glyph glyph-name="rcaron" unicode="&#x159;" horiz-adv-x="396" 
d="M382 713l-189 -145l-189 145q31 59 70 96l99 -106q14 -14 18 -41h4q4 28 17 41l99 106q37 -35 71 -96zM222 443q43 101 174 78q0 -97 -33 -174q-45 8 -76.5 0t-59.5 -36v-311q-96 -9 -190 0v490q82 42 190 42q0 -51 -10 -84z" />
    <glyph glyph-name="Sacute" unicode="&#x15a;" horiz-adv-x="586" 
d="M202 819l176 188q58 -54 92 -106l-207 -155q-37 34 -61 73zM236 512q0 -22 24 -38.5t59.5 -27.5t77 -29.5t77 -41t59.5 -66t24 -101.5q0 -102 -71.5 -160t-211.5 -58q-137 0 -246 66q10 91 47 152q99 -60 191 -60q43 0 67 12.5t24 32.5q0 22 -33 39t-80 33t-94.5 40
t-80.5 72.5t-33 117.5q0 98 67 156.5t205 58.5q133 0 220 -61q-7 -81 -47 -146q-90 54 -160 54q-85 0 -85 -45z" />
    <glyph glyph-name="sacute" unicode="&#x15b;" horiz-adv-x="466" 
d="M147 641l176 188q58 -54 92 -106l-207 -155q-37 34 -61 73zM214 -10q-131 0 -191 49q0 64 37 119q67 -37 135 -37q69 0 69 26q0 13 -24.5 23.5t-59 22t-69.5 28.5t-59.5 52.5t-24.5 84.5q0 78 59 126t170 48q109 0 184 -50q0 -62 -38 -120q-66 39 -130 39q-60 0 -60 -24
q0 -13 25 -24t60.5 -22.5t71 -29.5t60.5 -54.5t25 -87.5q0 -81 -61.5 -125t-178.5 -44z" />
    <glyph glyph-name="Scedilla" unicode="&#x15e;" horiz-adv-x="586" 
d="M557 208q0 -89 -54.5 -145t-161.5 -69l-19 -30q46 -5 75.5 -30.5t29.5 -66.5q0 -56 -51.5 -78t-155.5 0q-5 36 0 72q26 -4 45.5 3.5t19.5 29.5q0 17 -14 26.5t-47 16.5l25 54q-122 4 -221 65q10 91 47 152q99 -60 191 -60q43 0 67 12.5t24 32.5q0 22 -33 39t-80 33
t-94.5 40t-80.5 72.5t-33 117.5q0 98 67 156.5t205 58.5q133 0 220 -61q-7 -81 -47 -146q-90 54 -160 54q-85 0 -85 -45q0 -22 24 -38.5t59.5 -27.5t77 -29.5t77 -41t59.5 -66t24 -101.5z" />
    <glyph glyph-name="scedilla" unicode="&#x15f;" horiz-adv-x="466" 
d="M454 159q0 -67 -42.5 -109t-124.5 -55l-20 -31q46 -5 75.5 -30.5t29.5 -66.5q0 -56 -51.5 -78t-155.5 0q-5 36 0 72q26 -4 45.5 3.5t19.5 29.5q0 17 -14 26.5t-47 16.5l25 53q-118 6 -171 49q0 64 37 119q67 -37 135 -37q69 0 69 26q0 13 -24.5 23.5t-59 22t-69.5 28.5
t-59.5 52.5t-24.5 84.5q0 78 59 126t170 48q109 0 184 -50q0 -62 -38 -120q-66 39 -130 39q-60 0 -60 -24q0 -13 25 -24t60.5 -22.5t71 -29.5t60.5 -54.5t25 -87.5z" />
    <glyph glyph-name="Scaron" unicode="&#x160;" horiz-adv-x="586" 
d="M482 891l-189 -145l-189 145q31 59 70 96l99 -106q14 -14 18 -41h4q4 28 17 41l99 106q37 -35 71 -96zM236 512q0 -22 24 -38.5t59.5 -27.5t77 -29.5t77 -41t59.5 -66t24 -101.5q0 -102 -71.5 -160t-211.5 -58q-137 0 -246 66q10 91 47 152q99 -60 191 -60q43 0 67 12.5
t24 32.5q0 22 -33 39t-80 33t-94.5 40t-80.5 72.5t-33 117.5q0 98 67 156.5t205 58.5q133 0 220 -61q-7 -81 -47 -146q-90 54 -160 54q-85 0 -85 -45z" />
    <glyph glyph-name="scaron" unicode="&#x161;" horiz-adv-x="466" 
d="M427 713l-189 -145l-189 145q31 59 70 96l99 -106q14 -14 18 -41h4q4 28 17 41l99 106q37 -35 71 -96zM212 377q0 -13 25 -24t60.5 -22.5t71 -29.5t60.5 -54.5t25 -87.5q0 -81 -61.5 -125t-178.5 -44q-131 0 -191 49q0 64 37 119q67 -37 135 -37q69 0 69 26
q0 13 -24.5 23.5t-59 22t-69.5 28.5t-59.5 52.5t-24.5 84.5q0 78 59 126t170 48q109 0 184 -50q0 -62 -38 -120q-66 39 -130 39q-60 0 -60 -24z" />
    <glyph glyph-name="uni0162" unicode="&#x162;" horiz-adv-x="596" 
d="M398 0l-50 -3l-21 -33q46 -5 75.5 -30.5t29.5 -66.5q0 -56 -51.5 -78t-155.5 0q-5 36 0 72q26 -4 45.5 3.5t19.5 29.5q0 17 -14 26.5t-47 16.5l28 60q-9 0 -18.5 0.5t-21.5 1.5t-19 1v492q0 26 5 45l-5 5h-186q-7 79 0 158h276h110h185q7 -79 0 -158h-185v-542z" />
    <glyph glyph-name="uni0163" unicode="&#x163;" horiz-adv-x="435" 
d="M284 -36q46 -5 75.5 -30.5t29.5 -66.5q0 -56 -51.5 -78t-155.5 0q-5 36 0 72q26 -4 45.5 3.5t19.5 29.5q0 17 -14 26.5t-47 16.5l27 58q-67 14 -101.5 60.5t-34.5 114.5v154q0 26 5 45l-5 5h-65q-7 74 0 148h65v88q79 42 190 42v-80q0 -26 -5 -45l5 -5h132q7 -74 0 -148
h-132v-178q0 -59 43 -59q23 0 68 28q37 -55 37 -130q-48 -36 -113 -43z" />
    <glyph glyph-name="Tcaron" unicode="&#x164;" horiz-adv-x="596" 
d="M487 891l-189 -145l-189 145q31 59 70 96l99 -106q14 -14 18 -41h4q4 28 17 41l99 106q37 -35 71 -96zM583 700q7 -79 0 -158h-185v-542q-100 -8 -200 0v492q0 26 5 45l-5 5h-186q-7 79 0 158h276h110h185z" />
    <glyph glyph-name="tcaron" unicode="&#x165;" horiz-adv-x="459" 
d="M297 795q81 7 163 0l-16 -212q-66 -9 -131 0zM310 137q23 0 68 28q37 -55 37 -130q-61 -45 -147 -45q-93 0 -142 49t-49 131v154q0 26 5 45l-5 5h-65q-7 74 0 148h65v88q79 42 190 42v-80q0 -26 -5 -45l5 -5h132q7 -74 0 -148h-132v-178q0 -59 43 -59z" />
    <glyph glyph-name="Tbar" unicode="&#x166;" horiz-adv-x="596" 
d="M583 542h-185v-128h94q8 -68 0 -137h-94v-277q-100 -8 -200 0v277h-93q-8 69 0 137h93v78q0 26 5 45l-5 5h-186q-7 79 0 158h276h110h185q7 -79 0 -158z" />
    <glyph glyph-name="tbar" unicode="&#x167;" horiz-adv-x="435" 
d="M378 165q37 -55 37 -130q-61 -45 -147 -45q-93 0 -142 49t-49 131v44h-65q-8 68 0 137h67q0 9 3 18l-5 5h-65q-7 74 0 148h65v88q79 42 190 42v-80q0 -26 -5 -45l5 -5h132q7 -74 0 -148h-132v-23h131q8 -69 0 -137h-131v-18q0 -59 43 -59q23 0 68 28z" />
    <glyph glyph-name="Umacron" unicode="&#x16a;" horiz-adv-x="693" 
d="M540 775h-386q-9 63 0 125h386q9 -62 0 -125zM446 700q100 8 200 0v-461q0 -115 -73.5 -182t-225.5 -67t-226 67t-74 182v461q100 8 200 0v-435q0 -64 24 -90t76 -27q51 1 75 27t24 90v435z" />
    <glyph glyph-name="umacron" unicode="&#x16b;" horiz-adv-x="562" 
d="M482 597h-386q-9 63 0 125h386q9 -62 0 -125zM336 490q81 42 190 42v-532q-96 -9 -190 0q0 19 5 33l-5 5q-61 -52 -146 -52q-153 0 -153 137v367q81 42 190 42v-330q0 -37 10.5 -50t35.5 -14q26 0 63 22v330z" />
    <glyph glyph-name="Uring" unicode="&#x16e;" horiz-adv-x="693" 
d="M347 739q-119 0 -119 111q0 55 31 84t88 29q56 0 86.5 -29.5t30.5 -83.5q0 -55 -30.5 -83t-86.5 -28zM347 886q-35 0 -35 -35q0 -34 35 -34q32 0 32 34q0 35 -32 35zM446 700q100 8 200 0v-461q0 -115 -73.5 -182t-225.5 -67t-226 67t-74 182v461q100 8 200 0v-435
q0 -64 24 -90t76 -27q51 1 75 27t24 90v435z" />
    <glyph glyph-name="uring" unicode="&#x16f;" horiz-adv-x="562" 
d="M289 561q-119 0 -119 111q0 55 31 84t88 29q56 0 86.5 -29.5t30.5 -83.5q0 -55 -30.5 -83t-86.5 -28zM289 708q-35 0 -35 -35q0 -34 35 -34q32 0 32 34q0 35 -32 35zM336 490q81 42 190 42v-532q-96 -9 -190 0q0 19 5 33l-5 5q-61 -52 -146 -52q-153 0 -153 137v367
q81 42 190 42v-330q0 -37 10.5 -50t35.5 -14q26 0 63 22v330z" />
    <glyph glyph-name="Uhungarumlaut" unicode="&#x170;" horiz-adv-x="693" 
d="M216 746q-38 24 -61 63l146 198q55 -43 92 -95zM419 746q-36 22 -61 63l146 198q55 -43 92 -95zM446 700q100 8 200 0v-461q0 -115 -73.5 -182t-225.5 -67t-226 67t-74 182v461q100 8 200 0v-435q0 -64 24 -90t76 -27q51 1 75 27t24 90v435z" />
    <glyph glyph-name="uhungarumlaut" unicode="&#x171;" horiz-adv-x="562" 
d="M158 568q-38 24 -61 63l146 198q55 -43 92 -95zM361 568q-36 22 -61 63l146 198q55 -43 92 -95zM336 490q81 42 190 42v-532q-96 -9 -190 0q0 19 5 33l-5 5q-61 -52 -146 -52q-153 0 -153 137v367q81 42 190 42v-330q0 -37 10.5 -50t35.5 -14q26 0 63 22v330z" />
    <glyph glyph-name="Uogonek" unicode="&#x172;" horiz-adv-x="693" 
d="M446 700q100 8 200 0v-461q0 -93 -48 -155.5t-148 -83.5q-54 -47 -54 -75q0 -20 18.5 -28t35.5 -4q8 -52 0 -104q-99 -21 -153 9.5t-54 81.5q0 67 69 111q-134 8 -199.5 74t-65.5 174v461q100 8 200 0v-435q0 -64 24 -90t76 -27q51 1 75 27t24 90v435z" />
    <glyph glyph-name="uogonek" unicode="&#x173;" horiz-adv-x="562" 
d="M336 490q81 42 190 42v-532q-39 -6 -61.5 -27t-22.5 -50q0 -36 54 -30q8 -52 0 -104q-102 -22 -154 6t-52 85q0 75 75 124q-11 17 -29 34q-61 -52 -146 -52q-153 0 -153 137v367q81 42 190 42v-330q0 -37 10.5 -50t35.5 -14q26 0 63 22v330z" />
    <glyph glyph-name="Wcircumflex" unicode="&#x174;" horiz-adv-x="906" 
d="M334 746q-39 37 -70 96l189 145l189 -145q-34 -61 -71 -96l-99 106q-13 13 -17 41h-4q-4 -27 -18 -41zM702 700q102 7 205 0l-163 -700q-103 -7 -206 0l-68 266q-13 48 -15 86h-4q-2 -38 -15 -86l-68 -266q-103 -7 -206 0l-163 700q102 7 205 0l57 -322q14 -76 15 -103h5
q3 49 15 103l63 253q50 5 94 5t94 -5l63 -253q12 -54 15 -103h5q1 27 15 103z" />
    <glyph glyph-name="wcircumflex" unicode="&#x175;" horiz-adv-x="847" 
d="M305 568q-39 37 -70 96l189 145l189 -145q-34 -61 -71 -96l-99 106q-13 13 -17 41h-4q-4 -27 -18 -41zM648 522q101 7 200 0l-164 -522q-97 -7 -192 0l-49 221q-17 74 -17 81h-4q-1 -12 -4 -25.5t-7.5 -30t-6.5 -25.5l-48 -221q-96 -7 -193 0l-164 522q101 7 200 0
l53 -220q11 -44 13 -82h5q2 41 13 82l47 200q56 6 94 6q36 0 94 -6l46 -200q12 -45 14 -82h5q1 21 12 82z" />
    <glyph glyph-name="Ycircumflex" unicode="&#x176;" horiz-adv-x="647" 
d="M204 746q-39 37 -70 96l189 145l189 -145q-34 -61 -71 -96l-99 106q-13 13 -17 41h-4q-4 -27 -18 -41zM647 700l-212 -443v-257q-100 -10 -201 0v256l-235 444q111 8 222 0l102 -223q10 -20 13 -82h5q3 58 13 82l84 223q105 8 209 0z" />
    <glyph glyph-name="ycircumflex" unicode="&#x177;" horiz-adv-x="573" 
d="M169 568q-39 37 -70 96l189 145l189 -145q-34 -61 -71 -96l-99 106q-13 13 -17 41h-4q-4 -27 -18 -41zM381 522q97 7 193 0l-172 -501q-40 -116 -116.5 -174t-218.5 -57q-7 66 0 131q57 4 88.5 24.5t45.5 65.5l-197 511q103 7 206 0l72 -241q10 -33 13 -82h5q3 49 13 82z
" />
    <glyph glyph-name="Ydieresis" unicode="&#x178;" horiz-adv-x="647" 
d="M191 744q-49 0 -71.5 23t-22.5 71q0 94 94 94q93 0 93 -94t-93 -94zM456 744q-49 0 -71.5 23t-22.5 71q0 94 94 94q93 0 93 -94t-93 -94zM647 700l-212 -443v-257q-100 -10 -201 0v256l-235 444q111 8 222 0l102 -223q10 -20 13 -82h5q3 58 13 82l84 223q105 8 209 0z
" />
    <glyph glyph-name="Zacute" unicode="&#x179;" horiz-adv-x="593" 
d="M277 746q-37 34 -61 73l176 188q58 -54 92 -106zM581 158q8 -79 0 -158h-558q-7 52 0 105l240 387q11 22 45 45l-2 5h-263q-8 79 0 158h528q7 -52 0 -105l-239 -387q-11 -18 -19.5 -26t-26.5 -19l2 -5h293z" />
    <glyph glyph-name="zacute" unicode="&#x17a;" horiz-adv-x="488" 
d="M219 568q-37 34 -61 73l176 188q58 -54 92 -106zM262 147h208q8 -73 0 -147h-468q-8 52 0 105l182 239q15 20 28 25l-2 5h-188q-7 74 0 148h448q8 -53 0 -105l-183 -239q-16 -22 -27 -26z" />
    <glyph glyph-name="Zdotaccent" unicode="&#x17b;" horiz-adv-x="593" 
d="M307 744q-49 0 -71.5 23t-22.5 71q0 94 94 94q93 0 93 -94t-93 -94zM581 158q8 -79 0 -158h-558q-7 52 0 105l240 387q11 22 45 45l-2 5h-263q-8 79 0 158h528q7 -52 0 -105l-239 -387q-11 -18 -19.5 -26t-26.5 -19l2 -5h293z" />
    <glyph glyph-name="zdotaccent" unicode="&#x17c;" horiz-adv-x="488" 
d="M249 566q-49 0 -71.5 23t-22.5 71q0 94 94 94q93 0 93 -94t-93 -94zM262 147h208q8 -73 0 -147h-468q-8 52 0 105l182 239q15 20 28 25l-2 5h-188q-7 74 0 148h448q8 -53 0 -105l-183 -239q-16 -22 -27 -26z" />
    <glyph glyph-name="Zcaron" unicode="&#x17d;" horiz-adv-x="593" 
d="M496 891l-189 -145l-189 145q31 59 70 96l99 -106q14 -14 18 -41h4q4 28 17 41l99 106q37 -35 71 -96zM581 158q8 -79 0 -158h-558q-7 52 0 105l240 387q11 22 45 45l-2 5h-263q-8 79 0 158h528q7 -52 0 -105l-239 -387q-11 -18 -19.5 -26t-26.5 -19l2 -5h293z" />
    <glyph glyph-name="zcaron" unicode="&#x17e;" horiz-adv-x="488" 
d="M438 713l-189 -145l-189 145q31 59 70 96l99 -106q14 -14 18 -41h4q4 28 17 41l99 106q37 -35 71 -96zM262 147h208q8 -73 0 -147h-468q-8 52 0 105l182 239q15 20 28 25l-2 5h-188q-7 74 0 148h448q8 -53 0 -105l-183 -239q-16 -22 -27 -26z" />
    <glyph glyph-name="uni01CE" unicode="&#x1ce;" horiz-adv-x="525" 
d="M455 713l-189 -145l-189 145q31 59 70 96l99 -106q14 -14 18 -41h4q4 28 17 41l99 106q37 -35 71 -96zM270 532q47 0 83.5 -8t68.5 -27t49.5 -55.5t17.5 -89.5v-352q-96 -7 -190 0q0 19 5 33l-5 5q-51 -48 -123 -48q-69 0 -113.5 39t-44.5 109v26q0 70 45 109t117 39
q74 0 119 -43l5 5q-5 19 -5 45v18q0 13 -2 21t-8.5 17.5t-22.5 14.5t-41 5q-66 0 -142 -38q-33 66 -33 119q95 56 220 56zM299 133v36q-29 27 -56 27q-20 0 -30.5 -12.5t-10.5 -24.5v-16q0 -12 11 -25t30 -13q26 0 56 28z" />
    <glyph glyph-name="Scommaaccent" unicode="&#x218;" horiz-adv-x="586" 
d="M236 512q0 -22 24 -38.5t59.5 -27.5t77 -29.5t77 -41t59.5 -66t24 -101.5q0 -102 -71.5 -160t-211.5 -58q-137 0 -246 66q10 91 47 152q99 -60 191 -60q43 0 67 12.5t24 32.5q0 22 -33 39t-80 33t-94.5 40t-80.5 72.5t-33 117.5q0 98 67 156.5t205 58.5q133 0 220 -61
q-7 -81 -47 -146q-90 54 -160 54q-85 0 -85 -45zM195 -256l76 176q22 -9 61.5 -30t51.5 -31l-106 -162q-51 18 -83 47z" />
    <glyph glyph-name="scommaaccent" unicode="&#x219;" horiz-adv-x="466" 
d="M214 -10q-131 0 -191 49q0 64 37 119q67 -37 135 -37q69 0 69 26q0 13 -24.5 23.5t-59 22t-69.5 28.5t-59.5 52.5t-24.5 84.5q0 78 59 126t170 48q109 0 184 -50q0 -62 -38 -120q-66 39 -130 39q-60 0 -60 -24q0 -13 25 -24t60.5 -22.5t71 -29.5t60.5 -54.5t25 -87.5
q0 -81 -61.5 -125t-178.5 -44zM140 -256l76 176q22 -9 61.5 -30t51.5 -31l-106 -162q-51 18 -83 47z" />
    <glyph glyph-name="uni021A" unicode="&#x21a;" horiz-adv-x="596" 
d="M583 700q7 -79 0 -158h-185v-542q-100 -8 -200 0v492q0 26 5 45l-5 5h-186q-7 79 0 158h276h110h185zM200 -256l76 176q22 -9 61.5 -30t51.5 -31l-106 -162q-51 18 -83 47z" />
    <glyph glyph-name="uni021B" unicode="&#x21b;" horiz-adv-x="435" 
d="M415 35q-61 -45 -147 -45q-93 0 -142 49t-49 131v154q0 26 5 45l-5 5h-65q-7 74 0 148h65v88q79 42 190 42v-80q0 -26 -5 -45l5 -5h132q7 -74 0 -148h-132v-178q0 -59 43 -59q23 0 68 28q37 -55 37 -130zM157 -256l76 176q22 -9 61.5 -30t51.5 -31l-106 -162
q-51 18 -83 47z" />
    <glyph glyph-name="circumflex" unicode="&#x2c6;" horiz-adv-x="480" 
d="M240 809l189 -145q-34 -61 -71 -96l-99 106q-13 13 -17 41h-4q-4 -27 -18 -41l-99 -106q-39 37 -70 96z" />
    <glyph glyph-name="caron" unicode="&#x2c7;" horiz-adv-x="480" 
d="M358 809q37 -35 71 -96l-189 -145l-189 145q31 59 70 96l99 -106q14 -14 18 -41h4q4 28 17 41z" />
    <glyph glyph-name="breve" unicode="&#x2d8;" horiz-adv-x="446" 
d="M312 762q49 3 94 -10q-14 -89 -65 -131.5t-118 -42.5t-118 42.5t-65 131.5q45 13 94 10q31 -58 89 -58t89 58z" />
    <glyph glyph-name="dotaccent" unicode="&#x2d9;" horiz-adv-x="265" 
d="M133 566q-49 0 -71.5 23t-22.5 71q0 94 94 94q93 0 93 -94t-93 -94z" />
    <glyph glyph-name="ring" unicode="&#x2da;" horiz-adv-x="318" 
d="M160 561q-119 0 -119 111q0 55 31 84t88 29q56 0 86.5 -29.5t30.5 -83.5q0 -55 -30.5 -83t-86.5 -28zM160 639q32 0 32 34q0 35 -32 35q-35 0 -35 -35q0 -34 35 -34z" />
    <glyph glyph-name="ogonek" unicode="&#x2db;" horiz-adv-x="600" 
d="M301 10l104 -10q-54 -47 -54 -75q0 -20 18.5 -28t35.5 -4q8 -52 0 -104q-99 -21 -153 9.5t-54 81.5q0 81 103 130z" />
    <glyph glyph-name="tilde" unicode="&#x2dc;" horiz-adv-x="460" 
d="M293 739q101 0 145 -110q-39 -34 -81 -49q-27 37 -53 37q-16 0 -59.5 -18.5t-73.5 -18.5q-86 0 -149 110q36 31 81 48q26 -36 54 -36q18 0 59.5 18.5t76.5 18.5z" />
    <glyph glyph-name="hungarumlaut" unicode="&#x2dd;" horiz-adv-x="571" 
d="M66 631l146 198q55 -43 92 -95l-177 -166q-38 24 -61 63zM269 631l146 198q55 -43 92 -95l-177 -166q-36 22 -61 63z" />
    <glyph glyph-name="gravecomb" unicode="&#x300;" 
 />
    <glyph glyph-name="acutecomb" unicode="&#x301;" 
 />
    <glyph glyph-name="uni0302" unicode="&#x302;" 
 />
    <glyph glyph-name="tildecomb" unicode="&#x303;" 
 />
    <glyph glyph-name="uni0304" unicode="&#x304;" 
 />
    <glyph glyph-name="uni0306" unicode="&#x306;" 
 />
    <glyph glyph-name="uni0307" unicode="&#x307;" 
 />
    <glyph glyph-name="uni0308" unicode="&#x308;" 
 />
    <glyph glyph-name="uni030A" unicode="&#x30a;" 
 />
    <glyph glyph-name="uni030B" unicode="&#x30b;" 
 />
    <glyph glyph-name="uni030C" unicode="&#x30c;" 
 />
    <glyph glyph-name="uni0312" unicode="&#x312;" 
 />
    <glyph glyph-name="uni0326" unicode="&#x326;" 
d="M-250 -256l76 176q22 -9 61.5 -30t51.5 -31l-106 -162q-51 18 -83 47z" />
    <glyph glyph-name="uni0327" unicode="&#x327;" 
 />
    <glyph glyph-name="uni0328" unicode="&#x328;" 
 />
    <glyph glyph-name="uni0335" unicode="&#x335;" 
 />
    <glyph glyph-name="uni0336" unicode="&#x336;" 
 />
    <glyph glyph-name="uni0337" unicode="&#x337;" 
 />
    <glyph glyph-name="uni0338" unicode="&#x338;" 
 />
    <glyph glyph-name="Wgrave" unicode="&#x1e80;" horiz-adv-x="906" 
d="M585 819q-24 -39 -61 -73l-207 155q34 52 92 106zM702 700q102 7 205 0l-163 -700q-103 -7 -206 0l-68 266q-13 48 -15 86h-4q-2 -38 -15 -86l-68 -266q-103 -7 -206 0l-163 700q102 7 205 0l57 -322q14 -76 15 -103h5q3 49 15 103l63 253q50 5 94 5t94 -5l63 -253
q12 -54 15 -103h5q1 27 15 103z" />
    <glyph glyph-name="wgrave" unicode="&#x1e81;" horiz-adv-x="847" 
d="M556 641q-24 -39 -61 -73l-207 155q34 52 92 106zM648 522q101 7 200 0l-164 -522q-97 -7 -192 0l-49 221q-17 74 -17 81h-4q-1 -12 -4 -25.5t-7.5 -30t-6.5 -25.5l-48 -221q-96 -7 -193 0l-164 522q101 7 200 0l53 -220q11 -44 13 -82h5q2 41 13 82l47 200q56 6 94 6
q36 0 94 -6l46 -200q12 -45 14 -82h5q1 21 12 82z" />
    <glyph glyph-name="Wacute" unicode="&#x1e82;" horiz-adv-x="906" 
d="M423 746q-37 34 -61 73l176 188q58 -54 92 -106zM702 700q102 7 205 0l-163 -700q-103 -7 -206 0l-68 266q-13 48 -15 86h-4q-2 -38 -15 -86l-68 -266q-103 -7 -206 0l-163 700q102 7 205 0l57 -322q14 -76 15 -103h5q3 49 15 103l63 253q50 5 94 5t94 -5l63 -253
q12 -54 15 -103h5q1 27 15 103z" />
    <glyph glyph-name="wacute" unicode="&#x1e83;" horiz-adv-x="847" 
d="M394 568q-37 34 -61 73l176 188q58 -54 92 -106zM648 522q101 7 200 0l-164 -522q-97 -7 -192 0l-49 221q-17 74 -17 81h-4q-1 -12 -4 -25.5t-7.5 -30t-6.5 -25.5l-48 -221q-96 -7 -193 0l-164 522q101 7 200 0l53 -220q11 -44 13 -82h5q2 41 13 82l47 200q56 6 94 6
q36 0 94 -6l46 -200q12 -45 14 -82h5q1 21 12 82z" />
    <glyph glyph-name="Wdieresis" unicode="&#x1e84;" horiz-adv-x="906" 
d="M321 744q-49 0 -71.5 23t-22.5 71q0 94 94 94q93 0 93 -94t-93 -94zM586 744q-49 0 -71.5 23t-22.5 71q0 94 94 94q93 0 93 -94t-93 -94zM702 700q102 7 205 0l-163 -700q-103 -7 -206 0l-68 266q-13 48 -15 86h-4q-2 -38 -15 -86l-68 -266q-103 -7 -206 0l-163 700
q102 7 205 0l57 -322q14 -76 15 -103h5q3 49 15 103l63 253q50 5 94 5t94 -5l63 -253q12 -54 15 -103h5q1 27 15 103z" />
    <glyph glyph-name="wdieresis" unicode="&#x1e85;" horiz-adv-x="847" 
d="M292 566q-49 0 -71.5 23t-22.5 71q0 94 94 94q93 0 93 -94t-93 -94zM557 566q-49 0 -71.5 23t-22.5 71q0 94 94 94q93 0 93 -94t-93 -94zM648 522q101 7 200 0l-164 -522q-97 -7 -192 0l-49 221q-17 74 -17 81h-4q-1 -12 -4 -25.5t-7.5 -30t-6.5 -25.5l-48 -221
q-96 -7 -193 0l-164 522q101 7 200 0l53 -220q11 -44 13 -82h5q2 41 13 82l47 200q56 6 94 6q36 0 94 -6l46 -200q12 -45 14 -82h5q1 21 12 82z" />
    <glyph glyph-name="Ygrave" unicode="&#x1ef2;" horiz-adv-x="647" 
d="M455 819q-24 -39 -61 -73l-207 155q34 52 92 106zM647 700l-212 -443v-257q-100 -10 -201 0v256l-235 444q111 8 222 0l102 -223q10 -20 13 -82h5q3 58 13 82l84 223q105 8 209 0z" />
    <glyph glyph-name="ygrave" unicode="&#x1ef3;" horiz-adv-x="573" 
d="M420 641q-24 -39 -61 -73l-207 155q34 52 92 106zM381 522q97 7 193 0l-172 -501q-40 -116 -116.5 -174t-218.5 -57q-7 66 0 131q57 4 88.5 24.5t45.5 65.5l-197 511q103 7 206 0l72 -241q10 -33 13 -82h5q3 49 13 82z" />
    <glyph glyph-name="endash" unicode="&#x2013;" horiz-adv-x="577" 
d="M583 372q8 -68 0 -137h-590q-8 69 0 137h590z" />
    <glyph glyph-name="emdash" unicode="&#x2014;" horiz-adv-x="777" 
d="M783 372q8 -68 0 -137h-789q-8 69 0 137h789z" />
    <glyph glyph-name="quoteleft" unicode="&#x2018;" horiz-adv-x="267" 
d="M264 779l-102 -235q-79 34 -123 67l143 216q45 -17 82 -48z" />
    <glyph glyph-name="quoteright" unicode="&#x2019;" horiz-adv-x="267" 
d="M3 592l102 235q79 -34 123 -67l-143 -216q-45 17 -82 48z" />
    <glyph glyph-name="quotesinglbase" unicode="&#x201a;" horiz-adv-x="267" 
d="M3 -80l102 235q79 -34 123 -67l-143 -216q-45 17 -82 48z" />
    <glyph glyph-name="quotedblleft" unicode="&#x201c;" horiz-adv-x="460" 
d="M264 779l-102 -235q-79 34 -123 67l143 216q45 -17 82 -48zM457 779l-102 -235q-79 34 -123 67l143 216q45 -17 82 -48z" />
    <glyph glyph-name="quotedblright" unicode="&#x201d;" horiz-adv-x="460" 
d="M3 592l102 235q79 -34 123 -67l-143 -216q-45 17 -82 48zM196 592l102 235q79 -34 123 -67l-143 -216q-45 17 -82 48z" />
    <glyph glyph-name="quotedblbase" unicode="&#x201e;" horiz-adv-x="460" 
d="M3 -80l102 235q79 -34 123 -67l-143 -216q-45 17 -82 48zM196 -80l102 235q79 -34 123 -67l-143 -216q-45 17 -82 48z" />
    <glyph glyph-name="dagger" unicode="&#x2020;" horiz-adv-x="500" 
d="M488 600q8 -52 0 -104h-175v-696q-68 -8 -125 0v696h-176q-8 52 0 104h176v240q69 7 125 0v-240h175z" />
    <glyph glyph-name="daggerdbl" unicode="&#x2021;" horiz-adv-x="500" 
d="M313 143h175q8 -52 0 -104h-175v-239q-68 -8 -125 0v239h-176q-8 52 0 104h176v353h-176q-8 52 0 104h176v240q69 7 125 0v-240h175q8 -52 0 -104h-175v-353z" />
    <glyph glyph-name="bullet" unicode="&#x2022;" horiz-adv-x="348" 
d="M174 167q-69 0 -101.5 32.5t-32.5 101.5q0 134 134 134q132 0 132 -134t-132 -134z" />
    <glyph glyph-name="ellipsis" unicode="&#x2026;" horiz-adv-x="806" 
d="M117 -10q-49 0 -71.5 23t-22.5 71q0 94 94 94q93 0 93 -94t-93 -94zM425 -10q-49 0 -71.5 23t-22.5 71q0 94 94 94q93 0 93 -94t-93 -94zM674 -10q-49 0 -71.5 23t-22.5 71q0 94 94 94q93 0 93 -94t-93 -94z" />
    <glyph glyph-name="perthousand" unicode="&#x2030;" horiz-adv-x="1319" 
d="M741 647l-455 -649q-55 27 -104 72l455 649q57 -31 104 -72zM201 710q81 0 127.5 -41.5t46.5 -99.5v-88q0 -58 -46.5 -99.5t-127.5 -41.5t-127 41.5t-46 99.5v88q0 58 46 99.5t127 41.5zM234 501v48q0 21 -9.5 32t-23.5 11t-23 -11t-9 -32v-48q0 -21 9 -32t23 -11
t23.5 11t9.5 32zM720 361q81 0 127.5 -41.5t46.5 -99.5v-88q0 -58 -46.5 -99.5t-127.5 -41.5t-127.5 41.5t-46.5 99.5v88q0 58 46.5 99.5t127.5 41.5zM1118 361q81 0 127 -41.5t46 -99.5v-88q0 -58 -46 -99.5t-127 -41.5q-82 0 -128 41.5t-46 99.5v88q0 58 46 99.5t128 41.5
zM752 152v48q0 21 -9 32t-23 11t-23 -11t-9 -32v-48q0 -21 9 -32t23 -11t23 11t9 32zM1150 152v48q0 20 -9.5 31.5t-22.5 11.5q-14 0 -23.5 -11t-9.5 -32v-48q0 -21 9.5 -32t23.5 -11q13 0 22.5 11.5t9.5 31.5z" />
    <glyph glyph-name="guilsinglleft" unicode="&#x2039;" horiz-adv-x="390" 
d="M150 259q32 -6 50 -22l153 -144q-50 -54 -115 -98l-239 266l239 266q65 -44 115 -98l-153 -144q-18 -16 -50 -22v-4z" />
    <glyph glyph-name="guilsinglright" unicode="&#x203a;" horiz-adv-x="390" 
d="M152 527l239 -266l-239 -266q-65 44 -115 98l153 144q18 16 50 22v4q-32 6 -50 22l-153 144q50 54 115 98z" />
    <glyph glyph-name="fraction" unicode="&#x2044;" horiz-adv-x="616" 
d="M462 694l-338 -725q-61 20 -114 53l338 725q63 -21 114 -53z" />
    <glyph glyph-name="Euro" unicode="&#x20ac;" horiz-adv-x="581" 
d="M381 148q62 0 147 49q40 -65 47 -146q-90 -61 -207 -61q-129 0 -212.5 62.5t-83.5 176.5v31h-69q-7 25 0 50h69v60h-69q-7 25 0 50h69v51q0 114 83.5 176.5t212.5 62.5q117 0 207 -61q-7 -81 -47 -146q-85 49 -147 49q-58 0 -83.5 -29.5t-25.5 -86.5v-16h174q6 -25 0 -50
h-174v-60h174q6 -25 0 -50h-174q1 -56 26 -84t83 -28z" />
    <glyph glyph-name="trademark" unicode="&#x2122;" horiz-adv-x="1075" 
d="M886 700q71 7 142 0v-522q-75 -8 -150 0v206q0 19 4 34l-4 3l-84 -139q-10 -3 -37 -3t-38 3l-85 139l-3 -3q3 -11 3 -34v-206q-74 -8 -149 0v522q71 8 142 0l106 -180q21 -42 21 -53h5q0 14 22 53zM438 700q6 -58 0 -118h-138v-404q-74 -6 -149 0v367q0 23 3 34l-3 3
h-139q-6 60 0 118h206h220z" />
    <glyph glyph-name="emptyset" unicode="&#x2205;" horiz-adv-x="599" 
d="M523 448q79 -76 79 -188q0 -119 -86.5 -194.5t-215.5 -75.5q-105 0 -184 51l-76 -76q-19 15 -34 34l72 72q-81 75 -81 189q0 119 86.5 194.5t216.5 75.5q105 0 185 -52l76 76q19 -15 34 -34zM173 260q0 -43 18 -76l188 188q-32 27 -79 27q-58 0 -92.5 -39.5t-34.5 -99.5z
M300 121q58 0 92 39.5t34 99.5q0 42 -17 74l-187 -187q31 -26 78 -26z" />
    <glyph glyph-name="product" unicode="&#x220f;" horiz-adv-x="618" 
d="M572 700v-900q-69 -8 -125 0v785h-275v-785q-69 -8 -125 0v900h525z" />
    <glyph glyph-name="summation" unicode="&#x2211;" horiz-adv-x="498" 
d="M180 -64h307q7 -57 0 -114h-474q-8 52 0 104l203 285q19 27 46 48v4q-26 19 -46 48l-203 284q-7 53 0 105h474q7 -58 0 -115h-307l-2 -5q27 -19 46 -45l192 -274l-192 -275q-21 -28 -46 -45z" />
    <glyph glyph-name="minus" unicode="&#x2212;" horiz-adv-x="655" 
d="M622 402q8 -69 0 -137h-590q-8 69 0 137h590z" />
    <glyph glyph-name="infinity" unicode="&#x221e;" horiz-adv-x="736" 
d="M513 522q80 0 137.5 -60t57.5 -155t-57.5 -154.5t-137.5 -59.5q-87 0 -143 75h-5q-56 -75 -142 -75q-80 0 -137.5 59.5t-57.5 154.5t57.5 155t137.5 60q84 0 142 -75h5q57 75 143 75zM243 245q22 0 39 18t17 44t-17 44.5t-39 18.5t-38 -18t-16 -45q0 -26 16 -44t38 -18z
M492 245q21 0 38 18t17 44q0 27 -17 45t-38 18q-22 0 -39.5 -18.5t-17.5 -44.5t17.5 -44t39.5 -18z" />
    <glyph glyph-name="integral" unicode="&#x222b;" horiz-adv-x="464" 
d="M116 -210q-73 0 -133 29q0 63 37 120q39 -18 67 -18q49 0 50 51v609q0 80 54.5 124.5t156.5 44.5q75 0 133 -29q0 -65 -37 -120q-39 18 -67 18q-49 0 -50 -51v-609q0 -80 -54.5 -124.5t-156.5 -44.5z" />
    <glyph glyph-name="approxequal" unicode="&#x2248;" horiz-adv-x="673" 
d="M462 560q65 0 109 -30.5t74 -100.5q-36 -31 -81 -48q-28 36 -76 36q-46 0 -135 -29t-140 -29q-59 0 -99.5 29.5t-85.5 101.5q37 31 81 49q28 -36 78 -36q48 0 134.5 28.5t140.5 28.5zM462 328q65 0 109 -30.5t74 -100.5q-36 -31 -81 -48q-28 36 -76 36q-46 0 -135 -29
t-140 -29q-59 0 -99.5 29.5t-85.5 101.5q37 31 81 49q28 -36 78 -36q48 0 134.5 28.5t140.5 28.5z" />
    <glyph glyph-name="notequal" unicode="&#x2260;" horiz-adv-x="655" 
d="M334 282h288q8 -68 0 -137h-352l-73 -157q-30 9 -54 26l61 131h-172q-8 69 0 137h235l48 103h-283q-8 69 0 137h346l66 142q14 -3 56 -26l-54 -116h176q8 -68 0 -137h-240z" />
    <glyph glyph-name="lessequal" unicode="&#x2264;" horiz-adv-x="655" 
d="M215 442l407 -153q8 -74 0 -147l-590 231q-8 69 0 137l590 230q8 -73 0 -146zM32 137h590q8 -69 0 -137h-590q-8 68 0 137z" />
    <glyph glyph-name="greaterequal" unicode="&#x2265;" horiz-adv-x="655" 
d="M33 142q-8 74 0 147l407 153l-407 152q-8 73 0 146l590 -230q8 -69 0 -137zM33 137h590q8 -69 0 -137h-590q-8 68 0 137z" />
    <glyph glyph-name="lozenge" unicode="&#x25ca;" horiz-adv-x="612" 
d="M306 754l296 -396l-296 -396l-296 396zM330 235l89 123l-89 123q-18 25 -22 49h-4q-4 -24 -22 -49l-89 -123l89 -123q18 -25 22 -49h4q4 24 22 49z" />
    <glyph glyph-name="i.loclTRK" horiz-adv-x="264" 
d="M137 566q-49 0 -71.5 23t-22.5 71q0 94 94 94q93 0 93 -94t-93 -94zM37 490q82 42 190 42v-532q-96 -9 -190 0v490z" />
    <glyph glyph-name="com_o" horiz-adv-x="600" 
d="M-38 250v72q0 84 67 141.5t187 57.5v-137q-28 0 -46 -18.5t-18 -58.5v-57h-190z" />
    <glyph glyph-name="com_lacznik_b" horiz-adv-x="600" 
d="M270 395q-28 0 -59 -28v116q49 49 123 49z" />
    <glyph glyph-name="com_l" horiz-adv-x="240" 
d="M227 740v-740q-96 -9 -190 0v740q94 9 190 0z" />
    <glyph glyph-name="com_b_brzuch" horiz-adv-x="600" 
d="M-38 250v83q0 84 47 136t143 52l64 -137q-28 0 -46 -18.5t-18 -58.5v-57h-190z" />
    <glyph glyph-name="com_O" horiz-adv-x="600" 
d="M122 350v121q0 112 81 175.5t213 63.5v-158q-51 -1 -72.5 -29.5t-21.5 -87.5v-85h-200z" />
    <glyph glyph-name="com_i" horiz-adv-x="264" 
d="M37 490q82 42 190 42v-532q-96 -9 -190 0v490z" />
    <glyph glyph-name="com_n" horiz-adv-x="605" 
d="M366 532q153 0 153 -137v-395q-94 -9 -190 0v315q0 38 -10 51t-36 13q-30 0 -67 -22v122q64 53 150 53z" />
    <glyph glyph-name="com_gora_skos" horiz-adv-x="632" 
d="M38 640v58q81 42 190 42v-100h-190z" />
    </font>
</defs>
</svg>
