<?xml version="1.0" standalone="no"?>
<!DOCTYPE svg PUBLIC "-//W3C//DTD SVG 1.1//EN" "http://www.w3.org/Graphics/SVG/1.1/DTD/svg11.dtd" >
<svg xmlns="http://www.w3.org/2000/svg" xmlns:xlink="http://www.w3.org/1999/xlink" version="1.1">
<metadata>
Created by FontForge 20170731 at Wed Jul 27 18:01:14 2016
 By Aleksey,,,
copyright missing
</metadata>
<defs>
<font id="AnebaNeue-Bolditalic" horiz-adv-x="0" >
  <font-face 
    font-family="AnebaNeue-Bolditalic"
    font-weight="400"
    font-style="italic"
    font-stretch="normal"
    units-per-em="1000"
    panose-1="0 0 8 0 0 0 0 0 0 0"
    ascent="784"
    descent="-216"
    x-height="522"
    cap-height="700"
    bbox="-271 -303 1287.06 1007"
    underline-thickness="50"
    underline-position="-150"
    slope="-10"
    unicode-range="U+0020-25CA"
  />
<missing-glyph horiz-adv-x="470" 
d="M385 740v-940h-298v940h298zM313 677h-155v-31h61v-35h-62v-31h156v31h-62v35h62v31zM251 556h-94v-98h156v32h-62v66zM219 524v-34h-31v34h31zM313 433h-156v-31h62v-35h-62v-31h94v66h62v31zM313 376h-31v-62h-125v-32h156v94zM313 262h-94v-53h32v22h31v-45h-94v76
h-31v-107h156v107zM313 99h-156v-106h156v106zM282 68v-44h-94v44h94zM313 -29h-156v-31h66l-66 -44v-31h156v31h-96l66 44h30v31z" />
    <glyph glyph-name=".notdef" horiz-adv-x="470" 
d="M385 740v-940h-298v940h298zM313 677h-155v-31h61v-35h-62v-31h156v31h-62v35h62v31zM251 556h-94v-98h156v32h-62v66zM219 524v-34h-31v34h31zM313 433h-156v-31h62v-35h-62v-31h94v66h62v31zM313 376h-31v-62h-125v-32h156v94zM313 262h-94v-53h32v22h31v-45h-94v76
h-31v-107h156v107zM313 99h-156v-106h156v106zM282 68v-44h-94v44h94zM313 -29h-156v-31h66l-66 -44v-31h156v31h-96l66 44h30v31z" />
    <glyph glyph-name=".null" 
 />
    <glyph glyph-name="nonmarkingreturn" horiz-adv-x="333" 
 />
    <glyph glyph-name="space" unicode=" " horiz-adv-x="197" 
 />
    <glyph glyph-name="exclam" unicode="!" horiz-adv-x="292" 
d="M324 700l-99 -435q-80 -8 -158 0l56 435q102 8 201 0zM96 -10q-48 0 -66.5 23t-10.5 71q17 94 111 94q93 0 77 -94q-18 -94 -111 -94z" />
    <glyph glyph-name="quotedbl" unicode="&#x22;" horiz-adv-x="380" 
d="M72 488l23 212q81 7 163 0l-55 -212q-65 -9 -131 0zM255 488l23 212q81 7 163 0l-55 -212q-66 -9 -131 0z" />
    <glyph glyph-name="numbersign" unicode="#" horiz-adv-x="752" 
d="M770 421h-109l-38 -142h110q-12 -66 -37 -137h-109l-38 -142q-91 -7 -179 0l38 142h-141l-38 -142q-93 -7 -180 0l38 142h-109q9 67 37 137h108l37 142h-108q11 71 36 137h108l38 142q91 7 180 0l-38 -142h142l38 142q91 7 179 0l-38 -142h109q-10 -64 -36 -137zM444 279
l38 142h-142l-37 -142h141z" />
    <glyph glyph-name="dollar" unicode="$" horiz-adv-x="544" 
d="M339 451q9 -4 31.5 -13t35.5 -14.5t34.5 -16t34.5 -20.5t29 -25t25 -31.5t15 -39t6 -48.5q0 -115 -83 -184t-242 -69q-18 0 -48 2l-34 -96q-25 -2 -47 8l33 95q-74 15 -137 57q23 89 73 152q60 -40 119 -53l41 117q-69 29 -110.5 71t-41.5 116q0 110 76.5 180t229.5 71
l29 81q26 1 48 -9l-26 -74q102 -9 166 -59q-21 -80 -73 -146q-79 53 -147 54zM279 507q0 -17 18 -32l27 76q-45 -11 -45 -44zM245 148q46 0 73 14t27 35q0 18 -18 29.5t-57 27.5l-38 -106h13z" />
    <glyph glyph-name="percent" unicode="%" horiz-adv-x="923" 
d="M810 647l-569 -649q-53 30 -91 72l569 649q55 -33 91 -72zM281 710q81 0 120 -41.5t29 -99.5l-15 -88q-10 -57 -64 -99t-135 -42t-119.5 41.5t-29.5 99.5l15 88q10 58 64 99.5t135 41.5zM276 501l9 48q4 21 -3.5 32t-21.5 11t-24.5 -11t-14.5 -32l-9 -48q-7 -43 25 -43
q13 0 24.5 11.5t14.5 31.5zM739 361q81 0 120 -41.5t29 -99.5l-16 -88q-10 -58 -63.5 -99.5t-134.5 -41.5t-120.5 41.5t-29.5 99.5l16 88q10 58 64 99.5t135 41.5zM733 152l9 48q4 21 -3 32t-21 11t-25 -11t-15 -32l-8 -48q-4 -21 3.5 -32t21.5 -11q13 0 24 11.5t14 31.5z
" />
    <glyph glyph-name="ampersand" unicode="&#x26;" horiz-adv-x="611" 
d="M536 163l120 -163q-112 -9 -221 0l-31 40q-90 -50 -197 -50q-90 0 -152 38.5t-62 119.5q0 71 42.5 126t115.5 104q-49 77 -49 142q0 80 73.5 135t182.5 55q89 0 138.5 -38.5t49.5 -102.5q0 -67 -42 -112t-118 -87l53 -72q11 28 22 62q14 4 84.5 4t83.5 -4
q-29 -109 -93 -197zM282 532q0 -20 27 -57q56 42 56 74q0 15 -8.5 25t-24.5 10q-22 0 -36 -15.5t-14 -36.5zM257 148q30 0 59 10l-90 118q-41 -35 -41 -75q0 -25 19 -39t53 -14z" />
    <glyph glyph-name="quotesingle" unicode="'" horiz-adv-x="197" 
d="M72 488l23 212q81 7 163 0l-55 -212q-65 -9 -131 0z" />
    <glyph glyph-name="parenleft" unicode="(" horiz-adv-x="307" 
d="M174 325q-45 -248 50 -494q-40 -18 -93 -21q-141 241 -93 515q48 275 275 515q52 -3 84 -21q-178 -243 -223 -494z" />
    <glyph glyph-name="parenright" unicode=")" horiz-adv-x="308" 
d="M198 840q141 -241 93 -515q-48 -275 -275 -515q-50 3 -84 21q180 246 223 494q45 247 -49 494q40 18 92 21z" />
    <glyph glyph-name="asterisk" unicode="*" horiz-adv-x="434" 
d="M251 750q54 7 106 0l-49 -154h-64zM118 668l126 -72l-31 -61l-149 33q23 56 54 100zM460 668q17 -52 18 -100l-160 -33l-10 61zM81 423l132 112l46 -39l-103 -136q-42 26 -75 63zM409 423q-49 -40 -95 -63l-55 136l59 39z" />
    <glyph glyph-name="plus" unicode="+" horiz-adv-x="655" 
d="M647 402q-5 -70 -24 -137h-227l-40 -227q-70 -8 -137 0l40 227h-226q5 70 24 137h227l40 226q70 8 137 0l-40 -226h226z" />
    <glyph glyph-name="comma" unicode="," horiz-adv-x="264" 
d="M-59 -80l144 235q70 -33 110 -67l-181 -216q-43 18 -73 48z" />
    <glyph glyph-name="hyphen" unicode="-" horiz-adv-x="454" 
d="M446 402q-5 -70 -24 -137h-389q5 70 24 137h389z" />
    <glyph glyph-name="period" unicode="." horiz-adv-x="265" 
d="M84 -10q-48 0 -66.5 23t-10.5 71q17 94 111 94q93 0 77 -94q-18 -94 -111 -94z" />
    <glyph glyph-name="slash" unicode="/" horiz-adv-x="471" 
d="M538 694l-465 -725q-59 20 -105 53l465 725q60 -21 105 -53z" />
    <glyph glyph-name="zero" unicode="0" horiz-adv-x="644" 
d="M401 710q119 0 185.5 -64t47.5 -175l-43 -242q-20 -111 -109 -175t-208 -64t-185.5 64t-46.5 175l43 242q19 111 108 175t208 64zM398 265l29 170q20 116 -54 117q-74 -1 -94 -117l-31 -170q-20 -116 54 -117q74 1 96 117z" />
    <glyph glyph-name="one" unicode="1" horiz-adv-x="498" 
d="M333 700q73 8 147 0l-124 -700q-102 -8 -200 0l79 451q5 26 13 44l-4 5l-159 -54q7 86 32 181z" />
    <glyph glyph-name="two" unicode="2" horiz-adv-x="607" 
d="M537 158q-7 -84 -28 -158h-500q2 54 19 105q29 27 83.5 69t98 77t87.5 76t69 83.5t25 82.5q0 31 -19 47.5t-52 16.5q-63 0 -173 -64q-38 68 -33 135q137 82 278 82q103 0 155.5 -41.5t52.5 -119.5q0 -222 -294 -386l1 -5h230z" />
    <glyph glyph-name="three" unicode="3" horiz-adv-x="631" 
d="M458 361q47 -11 79.5 -51.5t32.5 -99.5q0 -102 -87 -162.5t-219 -60.5q-143 0 -248 82q19 67 82 135q89 -65 159 -65q48 0 81.5 19.5t33.5 54.5q0 30 -32.5 52.5t-105.5 24.5q1 50 20 116q155 16 155 99q0 24 -17.5 38t-49.5 14q-65 0 -174 -65q-39 70 -33 136
q137 82 267 82q104 0 159 -42t55 -113q0 -74 -47 -123t-110 -66z" />
    <glyph glyph-name="four" unicode="4" horiz-adv-x="662" 
d="M628 252q-7 -76 -24 -136h-99l-20 -116q-102 -8 -201 0l21 116h-318q3 54 19 105l455 479q75 8 147 0l-79 -448h99zM204 252h125l20 115q6 30 13 44l-4 5z" />
    <glyph glyph-name="five" unicode="5" horiz-adv-x="588" 
d="M235 -13q-138 0 -241 82q19 67 82 135q88 -65 156 -65q51 0 85.5 26.5t34.5 65.5q0 28 -20.5 46t-70.5 24t-133 -15l-68 31l118 383h405q-4 -73 -27 -158h-258l-32 -104q68 12 117.5 4t83 -24t53 -44t28 -56t8.5 -60q0 -113 -91.5 -192t-229.5 -79z" />
    <glyph glyph-name="six" unicode="6" horiz-adv-x="622" 
d="M405 418q95 0 141 -55t29 -153q-19 -104 -95.5 -162t-195.5 -58q-130 0 -194.5 70t-37.5 220q23 130 108.5 228t200.5 145.5t240 46.5q-4 -69 -26 -153q-224 -12 -294 -166q60 37 124 37zM308 127q30 0 49.5 20.5t25.5 52.5t-6.5 54t-41.5 22q-38 0 -88 -33q-6 -62 9 -89
t52 -27z" />
    <glyph glyph-name="seven" unicode="7" horiz-adv-x="574" 
d="M628 700q0 -48 -18 -105q-250 -310 -313 -595q-112 -7 -222 0q75 278 252 492q18 23 53 45l-1 5h-296q4 73 27 158h518z" />
    <glyph glyph-name="eight" unicode="8" horiz-adv-x="660" 
d="M516 358q42 -32 63.5 -64.5t21.5 -77.5q0 -59 -27 -104t-72.5 -72t-101 -40t-118.5 -13q-108 0 -178 42.5t-70 128.5q0 48 18 84.5t46 60.5t80 55l1 5q-67 56 -67 129q0 93 83 155.5t214 62.5q107 0 168 -47t61 -123q0 -106 -121 -177zM398 579q-41 6 -75.5 -19
t-36.5 -61q-3 -29 12 -52t47 -31q35 -5 71.5 20.5t40.5 60.5q6 28 -11.5 51.5t-47.5 30.5zM309 139q32 0 59.5 23.5t27.5 54.5q0 24 -17 43t-46 19q-38 0 -63 -25.5t-25 -54.5q0 -25 18.5 -42.5t45.5 -17.5z" />
    <glyph glyph-name="nine" unicode="9" horiz-adv-x="622" 
d="M369 700q129 0 193.5 -70t38.5 -220q-24 -130 -109.5 -228t-200.5 -145.5t-240 -46.5q5 72 27 153q223 12 293 166q-60 -37 -124 -37q-95 0 -141 55t-29 153q19 104 96 162t196 58zM269 490q-6 -32 6.5 -54t41.5 -22q38 0 88 33q6 62 -9 89t-52 27q-29 0 -49 -20.5
t-26 -52.5z" />
    <glyph glyph-name="colon" unicode=":" horiz-adv-x="267" 
d="M145 334q-48 0 -66.5 23t-10.5 71q17 94 111 94q93 0 77 -94q-18 -94 -111 -94zM86 -10q-48 0 -66.5 23t-10.5 71q17 94 111 94q93 0 77 -94q-18 -94 -111 -94z" />
    <glyph glyph-name="semicolon" unicode=";" horiz-adv-x="269" 
d="M149 334q-48 0 -66.5 23t-10.5 71q17 94 111 94q93 0 77 -94q-18 -94 -111 -94zM-59 -80l144 235q70 -33 110 -67l-181 -216q-43 18 -73 48z" />
    <glyph glyph-name="less" unicode="&#x3c;" horiz-adv-x="655" 
d="M688 632q-7 -83 -27 -146l-433 -152l381 -153q-7 -84 -27 -147l-549 231q5 70 24 137z" />
    <glyph glyph-name="equal" unicode="=" horiz-adv-x="655" 
d="M54 385q5 70 24 137h590q-5 -70 -24 -137h-590zM11 145q6 71 24 137h590q-3 -70 -24 -137h-590z" />
    <glyph glyph-name="greater" unicode="&#x3e;" horiz-adv-x="655" 
d="M98 632l549 -230q-5 -70 -24 -137l-631 -231q7 84 27 147l433 152l-381 153q7 83 27 146z" />
    <glyph glyph-name="question" unicode="?" horiz-adv-x="455" 
d="M291 502q5 30 -15 45.5t-57 15.5q-62 0 -147 -42q-8 65 7 146q86 43 215 43q111 0 164.5 -44t38.5 -129q-7 -42 -29 -77t-49.5 -58t-55 -43.5t-50 -44t-29.5 -49.5q-81 -8 -158 0q11 46 38 84t52.5 58.5t47.5 45.5t27 49zM165 -10q-48 0 -66.5 23t-10.5 71q17 94 111 94
q93 0 77 -94q-18 -94 -111 -94z" />
    <glyph glyph-name="at" unicode="@" horiz-adv-x="932" 
d="M345 -10q-61 0 -102 40t-28 108l5 26q13 70 63 109t118 39q70 0 108 -43l6 5q-1 22 3 45l3 18q2 14 2 27t-16 22t-49 9q-65 0 -150 -38q-20 64 -11 119q101 56 224 56q203 0 171 -180l-32 -183q-5 -26 2 -39t20 -13q28 0 37 48l55 313q9 51 -11.5 73.5t-68.5 22.5h-345
q-48 0 -76 -22.5t-37 -73.5l-85 -478q-86 -9 -168 0l85 489q21 114 105 174t191 60h367q108 0 170.5 -60t42.5 -174l-59 -334q-8 -47 -32.5 -81t-59.5 -51.5t-70 -25t-74 -7.5q-114 0 -149 66q-30 -30 -72.5 -48t-82.5 -18zM423 105q28 0 62 28l6 36q-23 27 -52 27
q-22 0 -35.5 -12.5t-15.5 -24.5l-3 -16q-3 -12 7 -25t31 -13z" />
    <glyph glyph-name="A" unicode="A" horiz-adv-x="689" 
d="M533 700l110 -700q-108 -8 -213 0l-17 118h-192l-59 -118q-100 -7 -198 0l352 700q110 8 217 0zM289 254h103l-17 110q-6 33 2 83h-5q-15 -58 -28 -83z" />
    <glyph glyph-name="B" unicode="B" horiz-adv-x="633" 
d="M493 356q53 -12 83 -49t22 -84l-10 -56q-14 -79 -87.5 -123t-195.5 -44h-303l123 700h269q123 0 180.5 -46t41.5 -133l-8 -45q-6 -39 -37 -71t-77 -44zM362 547h-63l-12 -68q-5 -25 -13 -45l4 -5h63q63 0 73 51l3 16q5 23 -9.5 37t-45.5 14zM395 204l2 15q2 24 -12 38
t-44 14h-92l-12 -68q-6 -30 -13 -45l5 -5h92q31 0 51.5 14t22.5 37z" />
    <glyph glyph-name="C" unicode="C" horiz-adv-x="538" 
d="M317 148q61 0 155 49q28 -64 22 -146q-102 -61 -218 -61q-130 0 -202.5 62.5t-51.5 176.5l43 242q20 114 114.5 176.5t223.5 62.5q118 0 196 -61q-23 -83 -73 -146q-74 49 -137 49q-59 0 -89.5 -29.5t-40.5 -86.5l-31 -172q-21 -116 89 -116z" />
    <glyph glyph-name="D" unicode="D" horiz-adv-x="643" 
d="M442 700q114 0 172.5 -58t40.5 -159l-47 -266q-18 -101 -96.5 -159t-192.5 -58h-317l123 700h317zM416 264l30 173q9 55 -5.5 80.5t-58.5 25.5h-84l-60 -335q-7 -33 -13 -45l4 -5h85q44 0 68 25.5t34 80.5z" />
    <glyph glyph-name="E" unicode="E" horiz-adv-x="537" 
d="M508 158q-6 -81 -28 -158h-478l123 700h468q-4 -71 -27 -158h-268l-9 -53q-5 -25 -13 -45l4 -5h228q-5 -73 -28 -158h-229l-13 -73q-7 -33 -13 -45l4 -5h279z" />
    <glyph glyph-name="F" unicode="F" horiz-adv-x="527" 
d="M298 542l-15 -84q-6 -30 -13 -45l4 -5h248q-6 -81 -28 -158h-248l-44 -250q-102 -8 -200 0l123 700h468q-4 -71 -27 -158h-268z" />
    <glyph glyph-name="G" unicode="G" horiz-adv-x="594" 
d="M402 341q90 8 179 0l-51 -290q-46 -28 -115 -44.5t-134 -16.5q-129 0 -204.5 63t-54.5 176l43 242q20 114 114 176.5t224 62.5q133 0 211 -61q-23 -82 -72 -146q-75 49 -152 49q-60 0 -90.5 -29t-40.5 -87l-31 -172q-10 -59 10.5 -87.5t82.5 -28.5q21 0 47 3z" />
    <glyph glyph-name="H" unicode="H" horiz-adv-x="693" 
d="M522 700q102 8 201 0l-123 -700q-102 -8 -201 0l40 230q3 15 13 45l-4 5h-197l-49 -280q-102 -8 -200 0l123 700q101 8 201 0l-37 -212q-5 -25 -13 -45l4 -5h197z" />
    <glyph glyph-name="I" unicode="I" horiz-adv-x="295" 
d="M325 700l-123 -700q-102 -8 -200 0l123 700q102 8 200 0z" />
    <glyph glyph-name="J" unicode="J" horiz-adv-x="387" 
d="M40 148q81 9 98 102l80 450q100 8 199 0l-84 -480q-40 -230 -320 -230q3 71 27 158z" />
    <glyph glyph-name="K" unicode="K" horiz-adv-x="683" 
d="M125 700q102 8 200 0l-123 -700q-102 -8 -200 0zM490 372q20 -5 32 -47l105 -325q-109 -8 -216 0l-124 365l253 335q107 8 212 0l-206 -275q-32 -40 -55 -46l-1 -4v-3z" />
    <glyph glyph-name="L" unicode="L" horiz-adv-x="525" 
d="M493 158q-6 -81 -28 -158h-463l123 700q102 8 200 0l-87 -492q-7 -33 -13 -45l4 -5h264z" />
    <glyph glyph-name="M" unicode="M" horiz-adv-x="823" 
d="M662 700q97 9 191 0l-123 -700q-102 -10 -201 0l49 276q6 32 13 46l-4 4l-146 -186q-13 -4 -52 -4q-38 0 -49 4l-80 186l-6 -4q2 -23 -3 -46l-49 -276q-102 -10 -200 0l123 700q95 9 191 0l98 -242q20 -51 17 -71h6q6 25 42 71z" />
    <glyph glyph-name="N" unicode="N" horiz-adv-x="703" 
d="M545 700q95 9 189 0l-123 -700q-87 -8 -170 0l-189 342l-5 -4q2 -23 -3 -46l-52 -292q-98 -9 -190 0l123 700q85 8 169 0l190 -342l6 4q-2 19 3 46z" />
    <glyph glyph-name="O" unicode="O" horiz-adv-x="644" 
d="M401 710q132 0 202 -63.5t51 -175.5l-43 -242q-21 -112 -113 -175.5t-224 -63.5q-133 0 -203 63.5t-49 175.5l43 242q19 112 111.5 175.5t224.5 63.5zM418 265l29 170q10 59 -6.5 88.5t-67.5 28.5t-77.5 -29.5t-36.5 -87.5l-31 -170q-10 -59 6.5 -88.5t67.5 -28.5
q52 1 78.5 29.5t37.5 87.5z" />
    <glyph glyph-name="P" unicode="P" horiz-adv-x="583" 
d="M399 700q127 0 186 -55t43 -144l-15 -86q-16 -89 -94 -144t-205 -55h-74l-38 -216q-102 -8 -200 0l123 700h274zM417 440l6 36q12 66 -63 66h-62l-21 -118q-6 -30 -13 -45l4 -5h63q74 0 86 66z" />
    <glyph glyph-name="Q" unicode="Q" horiz-adv-x="670" 
d="M401 710q132 0 202 -63.5t51 -175.5l-43 -242q-19 -104 -102 -168l67 -174q-109 -8 -200 0l-42 107q-27 -4 -60 -4q-133 0 -203 63.5t-49 175.5l43 242q19 112 111.5 175.5t224.5 63.5zM228 265q-10 -59 6.5 -88.5t67.5 -28.5q52 1 78.5 29.5t37.5 87.5l29 170
q10 59 -6.5 88.5t-67.5 28.5t-77.5 -29.5t-36.5 -87.5z" />
    <glyph glyph-name="R" unicode="R" horiz-adv-x="633" 
d="M461 281q49 -13 66 -56t53 -225q-102 -7 -200 0q-24 114 -41 161t-35 60.5t-58 13.5h-3l-41 -235q-102 -8 -200 0l123 700h274q126 0 185 -53t45 -136l-15 -86q-10 -56 -50.5 -93.5t-101.5 -45.5zM272 393h62q37 0 59 16t26 41l6 36q4 24 -12 40t-53 16h-62l-17 -99
q-5 -25 -13 -45z" />
    <glyph glyph-name="S" unicode="S" horiz-adv-x="586" 
d="M279 507q0 -22 28 -39t67.5 -32t79.5 -35.5t68 -61t28 -96.5q0 -115 -83 -184t-242 -69q-136 0 -233 66q23 89 73 152q88 -60 180 -60q46 0 73 14t27 35q0 17 -20 31t-50.5 24t-65.5 27t-65.5 37.5t-50.5 57.5t-20 85q0 111 78 181t235 70q134 0 210 -61
q-21 -80 -73 -146q-80 54 -151 54q-42 0 -67.5 -13t-25.5 -37z" />
    <glyph glyph-name="T" unicode="T" horiz-adv-x="599" 
d="M662 700q-6 -81 -28 -158h-185l-95 -542q-103 -8 -201 0l87 492q6 30 13 45l-4 5h-186q8 81 28 158h385h186z" />
    <glyph glyph-name="U" unicode="U" horiz-adv-x="693" 
d="M523 700q101 8 201 0l-81 -461q-21 -115 -107 -182t-238 -67t-214 67t-41 182l82 461q100 8 199 0l-76 -435q-12 -64 7.5 -91t70.5 -26q52 1 80.5 27t39.5 90z" />
    <glyph glyph-name="V" unicode="V" horiz-adv-x="680" 
d="M547 700q102 8 201 0l-333 -700q-109 -8 -213 0l-114 700q111 8 217 0l46 -380q5 -40 -2 -83h5q13 52 28 83z" />
    <glyph glyph-name="W" unicode="W" horiz-adv-x="927" 
d="M791 700q104 7 204 0l-285 -700q-104 -7 -206 0l-22 266q-4 55 0 86h-4q-10 -38 -30 -86l-116 -266q-103 -8 -204 0l-40 700q104 7 204 0l1 -322q0 -74 -3 -103h5q11 53 33 103l107 253q50 5 96 5q43 0 93 -5l17 -253q4 -49 -2 -103h5q6 27 33 103z" />
    <glyph glyph-name="X" unicode="X" horiz-adv-x="679" 
d="M490 357q20 -7 34 -47l100 -310q-115 -8 -226 0l-64 234l-153 -234q-109 -7 -217 0l210 310q28 40 49 47l1 6q-26 8 -39 47l-98 290q115 8 225 0l67 -229l156 229q107 7 212 0l-200 -290q-26 -39 -56 -47z" />
    <glyph glyph-name="Y" unicode="Y" horiz-adv-x="668" 
d="M736 700l-291 -444l-44 -256q-102 -10 -201 0l44 255l-156 445q113 8 221 0l64 -223q5 -15 -2 -82h5q11 53 28 82l123 223q106 8 209 0z" />
    <glyph glyph-name="Z" unicode="Z" horiz-adv-x="592" 
d="M562 158q-4 -73 -27 -158h-558q1 47 18 105l308 387q18 23 53 45l-1 5h-263q7 84 28 158h527q0 -51 -17 -105l-307 -387q-23 -28 -55 -45l1 -5h293z" />
    <glyph glyph-name="bracketleft" unicode="[" horiz-adv-x="295" 
d="M368 736h-112l-148 -832h113q-2 -53 -18 -104h-133h-104l184 1040h124h113q-3 -55 -19 -104z" />
    <glyph glyph-name="backslash" unicode="\" horiz-adv-x="454" 
d="M87 694q44 28 114 43l208 -725q-37 -26 -113 -43z" />
    <glyph glyph-name="bracketright" unicode="]" horiz-adv-x="295" 
d="M350 840l-184 -1040h-125h-112q2 53 18 104h112l148 832h-113q2 55 19 104h237z" />
    <glyph glyph-name="asciicircum" unicode="^" horiz-adv-x="543" 
d="M362 754l225 -239q-59 -68 -119 -115l-117 153q-13 18 -13 50h-4q-12 -33 -31 -50l-170 -153q-46 49 -79 115z" />
    <glyph glyph-name="underscore" unicode="_" horiz-adv-x="396" 
d="M346 0q-3 -60 -23 -136h-389q3 60 23 136h389z" />
    <glyph glyph-name="grave" unicode="`" horiz-adv-x="390" 
d="M335 641q-18 -41 -49 -73l-234 155q26 51 74 106z" />
    <glyph glyph-name="a" unicode="a" horiz-adv-x="526" 
d="M318 532q47 0 82.5 -8t64 -27t39 -55.5t1.5 -89.5l-61 -352q-97 -7 -190 0q4 19 11 33l-5 5q-59 -48 -131 -48q-68 0 -105.5 39t-26.5 109l4 26q11 70 63.5 109t124.5 39q74 0 112 -43l6 5q-3 21 2 45l3 18q2 14 2 27t-16 22t-49 9q-67 0 -148 -38q-21 62 -12 119
q104 56 229 56zM276 133l7 36q-23 27 -51 27q-19 0 -32.5 -12.5t-15.5 -24.5l-2 -16q-1 -13 6.5 -25.5t26.5 -12.5q29 0 61 28z" />
    <glyph glyph-name="b" unicode="b" horiz-adv-x="569" 
d="M398 532q97 0 135 -52t23 -136l-30 -166q-15 -85 -70.5 -136.5t-152.5 -51.5q-75 0 -114 48l-6 -5q3 -14 -1 -33q-98 -9 -190 0l122 698q90 42 199 42l-37 -207q-6 -30 -13 -45l4 -5q58 49 131 49zM341 204l20 114q15 77 -50 77q-28 0 -64 -28l-38 -213q26 -28 54 -28
q65 0 78 78z" />
    <glyph glyph-name="c" unicode="c" horiz-adv-x="457" 
d="M281 126q53 0 113 33q27 -56 17 -119q-70 -50 -176 -50q-119 0 -176 58t-43 141l24 144q16 84 93.5 141.5t196.5 57.5q106 0 159 -50q-13 -64 -60 -120q-45 33 -101 33q-85 0 -99 -77l-21 -114q-14 -78 73 -78z" />
    <glyph glyph-name="d" unicode="d" horiz-adv-x="568" 
d="M419 698q89 42 196 42l-130 -740q-98 -9 -190 0q3 19 11 33l-4 5q-57 -48 -133 -48q-96 0 -133 52t-22 136l29 166q14 85 69.5 136.5t152.5 51.5q75 0 115 -49l6 5q-2 18 3 45zM322 154l37 213q-25 28 -54 28q-64 0 -78 -77l-19 -114q-15 -78 50 -78q28 0 64 28z" />
    <glyph glyph-name="e" unicode="e" horiz-adv-x="521" 
d="M209 215l-5 -5l-2 -6q-7 -43 14 -60.5t72 -17.5q69 0 139 44q27 -57 16 -119q-82 -61 -209 -61q-118 0 -175 58t-43 141l25 145q15 84 89.5 141t191.5 57q110 0 157 -57t32 -142l-21 -123h-237q-24 0 -44 5zM299 406q-59 0 -74 -71l-1 -5h64q25 0 44 -5l5 5l1 4
q7 38 -2.5 55t-36.5 17z" />
    <glyph glyph-name="f" unicode="f" horiz-adv-x="417" 
d="M313 522h132q-6 -69 -26 -148h-132l-66 -374q-97 -10 -190 0l57 324q6 30 13 45l-4 5h-65q6 79 27 148h64l11 59q14 80 76 124.5t164 44.5q73 0 128 -29q-10 -63 -58 -120q-36 18 -64 18q-48 0 -58 -51l-2 -7q-3 -21 -11 -34z" />
    <glyph glyph-name="g" unicode="g" horiz-adv-x="568" 
d="M387 522q98 9 190 0l-96 -542q-12 -70 -60.5 -114.5t-105 -60t-123.5 -15.5q-123 0 -203 55q9 51 53 119q69 -38 148 -38q47 0 72.5 18t29.5 40l1 4q5 25 13 45l-4 5q-57 -48 -132 -48q-96 0 -133 51.5t-23 136.5l29 166q14 84 70 136t153 52q74 0 114 -49l6 5
q-2 13 1 34zM323 154l37 213q-26 28 -54 28q-64 0 -79 -77l-19 -114q-8 -41 7 -59.5t44 -18.5q27 0 64 28z" />
    <glyph glyph-name="h" unicode="h" horiz-adv-x="568" 
d="M425 532q153 0 129 -137l-69 -395q-96 -9 -190 0l56 315q7 37 -1 50.5t-34 13.5q-31 0 -71 -22l-63 -357q-98 -9 -190 0l122 698q90 42 199 42l-38 -211q-6 -30 -13 -45l4 -5q73 53 159 53z" />
    <glyph glyph-name="i" unicode="i" horiz-adv-x="270" 
d="M191 566q-80 0 -80 71q0 117 113 117q80 0 80 -73q0 -115 -113 -115zM76 490q92 42 198 42l-94 -532q-96 -9 -190 0z" />
    <glyph glyph-name="j" unicode="j" horiz-adv-x="271" 
d="M191 559q-86 0 -86 76q0 125 121 125q86 0 86 -78q0 -123 -121 -123zM79 490q89 42 196 42l-93 -532l-2 -9q-17 -103 -83 -152t-192 -49q3 63 23 131q28 5 41.5 20t20.5 53z" />
    <glyph glyph-name="k" unicode="k" horiz-adv-x="576" 
d="M114 698q90 42 198 42l-130 -740q-98 -9 -190 0zM467 240l63 -240q-100 -10 -204 0l-73 280l167 242q102 10 191 0l-120 -182q-28 -39 -56 -47l-1 -6q22 -7 33 -47z" />
    <glyph glyph-name="l" unicode="l" horiz-adv-x="265" 
d="M114 698q90 42 198 42l-130 -740q-98 -9 -190 0z" />
    <glyph glyph-name="m" unicode="m" horiz-adv-x="853" 
d="M275 532q-5 -30 -13 -48l4 -5l-84 -479q-98 -9 -190 0l86 490q90 42 197 42zM707 532q157 0 132 -137l-69 -395q-97 -10 -190 0l55 315q7 39 0.5 51.5t-31.5 12.5t-64 -21l-1 4l-63 -362q-97 -10 -190 0l55 315q7 39 0 51.5t-32 12.5q-24 0 -64 -22l21 122q73 53 147 53
q108 0 129 -64q81 64 165 64z" />
    <glyph glyph-name="n" unicode="n" horiz-adv-x="568" 
d="M425 532q153 0 129 -137l-69 -395q-96 -9 -190 0l56 315q7 37 -1 50.5t-34 13.5q-31 0 -71 -22l-63 -357q-98 -9 -190 0l86 490q90 42 197 42q-5 -30 -13 -48l4 -5q73 53 159 53z" />
    <glyph glyph-name="o" unicode="o" horiz-adv-x="564" 
d="M330 532q119 0 175.5 -57.5t42.5 -141.5l-24 -144q-14 -83 -91.5 -141t-197.5 -58t-176.5 57.5t-42.5 141.5l24 144q16 84 93.5 141.5t196.5 57.5zM336 204l21 114q7 40 -8 58.5t-43 18.5q-63 0 -77 -77l-21 -114q-13 -78 51 -78q28 0 49 18.5t28 59.5z" />
    <glyph glyph-name="p" unicode="p" horiz-adv-x="568" 
d="M398 532q97 0 134.5 -52t22.5 -136l-30 -166q-15 -85 -70.5 -136.5t-151.5 -51.5q-76 0 -115 48l-6 -5q2 -23 -3 -45l-26 -146q-89 -42 -197 -42l122 690q89 42 197 42q-5 -30 -13 -44l4 -5q58 49 132 49zM340 204l20 114q15 77 -50 77q-28 0 -64 -28l-38 -213
q26 -28 54 -28q29 0 50.5 18.5t27.5 59.5z" />
    <glyph glyph-name="q" unicode="q" horiz-adv-x="568" 
d="M387 522q95 10 190 0l-120 -680q-90 -42 -197 -42l33 188q3 24 13 45l-4 5q-57 -48 -133 -48q-96 0 -133 52t-22 136l29 166q14 85 69.5 136.5t152.5 51.5q75 0 115 -49l6 5q-2 13 1 34zM322 154l37 213q-25 28 -54 28q-64 0 -78 -77l-19 -114q-15 -78 50 -78q28 0 64 28
z" />
    <glyph glyph-name="r" unicode="r" horiz-adv-x="397" 
d="M255 443q61 101 188 78q-17 -97 -64 -174q-82 16 -142 -36l-55 -311q-98 -9 -190 0l86 490q90 42 197 42q-9 -53 -24 -84z" />
    <glyph glyph-name="s" unicode="s" horiz-adv-x="468" 
d="M166 -10q-130 0 -183 49q11 62 59 119q59 -37 128 -37q74 0 74 28q0 12 -21 21.5t-50.5 20t-59 26t-50.5 45.5t-21 71q0 87 68.5 143t193.5 56q108 0 175 -50q-11 -61 -59 -120q-60 39 -123 39q-65 0 -65 -26q0 -12 21.5 -22t52 -21t60.5 -26.5t51.5 -46.5t21.5 -74
q0 -91 -70.5 -143t-202.5 -52z" />
    <glyph glyph-name="t" unicode="t" horiz-adv-x="435" 
d="M361 165q28 -54 14 -130q-68 -45 -155 -45q-93 0 -133.5 49t-25.5 131l27 154q6 30 13 45l-4 5h-65q6 79 27 148h64l16 88q86 42 198 42l-15 -80q-5 -25 -13 -45l4 -5h132q-6 -69 -26 -148h-132l-31 -178q-12 -59 32 -59q22 0 73 28z" />
    <glyph glyph-name="u" unicode="u" horiz-adv-x="563" 
d="M377 490q90 42 197 42l-93 -532q-98 -9 -190 0q1 14 10 33l-4 5q-70 -52 -155 -52q-153 0 -129 137l65 367q90 42 198 42l-58 -330q-7 -38 1 -51t33 -13q26 0 67 22z" />
    <glyph glyph-name="v" unicode="v" horiz-adv-x="568" 
d="M422 522q99 7 193 0l-262 -522q-109 -8 -214 0l-94 522q104 7 206 0l32 -241q4 -33 -1 -82h5q5 23 27 82z" />
    <glyph glyph-name="w" unicode="w" horiz-adv-x="847" 
d="M694 522q102 7 201 0l-257 -522q-98 -7 -192 0l-10 221q-5 64 -3 81h-4q-4 -17 -16.5 -46.5t-14.5 -34.5l-87 -221q-99 -7 -194 0l-72 522q102 7 200 0l14 -220q3 -50 -2 -82h5q13 50 28 82l82 200q60 6 95 6q37 0 93 -6l12 -200q3 -49 -2 -82h5q12 45 28 82z" />
    <glyph glyph-name="x" unicode="x" horiz-adv-x="578" 
d="M426 263q21 -7 33 -47l64 -216q-101 -10 -207 0l-42 188l-114 -188q-104 -10 -197 0l139 216q27 40 50 47l1 3v3q-27 7 -39 47l-59 206q101 10 206 0l42 -186l117 186q103 10 195 0l-131 -206q-25 -40 -57 -47v-3z" />
    <glyph glyph-name="y" unicode="y" horiz-adv-x="573" 
d="M427 522q99 7 193 0l-260 -501q-60 -116 -147 -174t-229 -57q3 63 23 131q58 4 93.5 24.5t56.5 65.5l-107 511q105 7 205 0l30 -241q5 -38 -1 -82h5q10 44 27 82z" />
    <glyph glyph-name="z" unicode="z" horiz-adv-x="488" 
d="M273 178q-18 -20 -32 -26l1 -5h208q-8 -82 -27 -147h-467q2 52 18 105l225 239q18 20 32 25l-1 5h-188q4 70 26 148h448q-2 -56 -19 -105z" />
    <glyph glyph-name="braceleft" unicode="{" horiz-adv-x="297" 
d="M163 67q-22 -85 -0.5 -124t69.5 -39q-3 -54 -19 -104q-109 0 -163 70.5t-21 199.5q10 40 15 64.5t8.5 54t0 47.5t-14 32.5t-30.5 20.5q-4 26 10 62q52 14 71 66t28 153q13 129 92 199.5t188 70.5q-1 -50 -19 -104q-48 0 -83 -39t-42 -124q-17 -190 -124 -253
q84 -64 34 -253z" />
    <glyph glyph-name="bar" unicode="|" horiz-adv-x="332" 
d="M323 839l-169 -1040q-62 -7 -125 2l170 1039q64 6 124 -1z" />
    <glyph glyph-name="braceright" unicode="}" horiz-adv-x="297" 
d="M65 67q16 189 123 253q-85 65 -33 253q22 85 0.5 124t-69.5 39q2 53 19 104q108 0 162 -70.5t21 -199.5q-10 -41 -15 -64.5t-8.5 -54t0 -47.5t14.5 -32t31 -21q3 -29 -10 -62q-52 -14 -71 -66t-29 -153q-13 -129 -92 -199.5t-187 -70.5q2 53 18 104q48 0 83.5 39
t42.5 124z" />
    <glyph glyph-name="asciitilde" unicode="~" horiz-adv-x="673" 
d="M486 398q65 0 103.5 -30.5t56.5 -100.5q-41 -31 -89 -48q-22 36 -70 36q-47 0 -140.5 -29t-144.5 -29q-59 0 -94.5 29.5t-67.5 101.5q38 29 89 49q21 -36 72 -36q48 0 139.5 28.5t145.5 28.5z" />
    <glyph glyph-name="exclamdown" unicode="&#xa1;" horiz-adv-x="292" 
d="M196 532q48 0 66.5 -23t10.5 -71q-17 -94 -111 -94q-93 0 -77 94q18 94 111 94zM-32 -178l99 435q80 8 158 0l-56 -435q-102 -8 -201 0z" />
    <glyph glyph-name="cent" unicode="&#xa2;" horiz-adv-x="457" 
d="M429 362q-40 29 -85 32l-46 -267q45 4 96 32q27 -56 17 -119q-57 -41 -137 -48l-16 -92q-26 -6 -50 0l16 90q-114 3 -168 60t-40 139l24 144q16 82 90 139t189 60l19 111q26 6 50 0l-20 -113q79 -7 121 -48q-13 -64 -60 -120zM208 204q-11 -61 40 -74l46 261
q-54 -13 -65 -73z" />
    <glyph glyph-name="sterling" unicode="&#xa3;" horiz-adv-x="582" 
d="M434 552q-59 0 -89.5 -29.5t-40.5 -86.5l-3 -16h175q1 -24 -9 -50h-171q-1 -10 -2.5 -30t-2.5 -30h165q2 -25 -9 -50h-161q-11 -68 -32 -113h287q-7 -80 -27 -147h-508q70 101 85 260h-87q-5 23 9 50h81q2 20 4 60h-74q-6 25 9 50h70q4 34 7 51q20 114 114.5 176.5
t224.5 62.5q116 0 196 -61q-23 -84 -74 -146q-74 49 -137 49z" />
    <glyph glyph-name="currency" unicode="&#xa4;" horiz-adv-x="814" 
d="M713 299q0 -84 -58 -166l107 -109q-64 -65 -133 -113l-88 124q-84 -45 -182 -45q-99 0 -167 45l-131 -124q-50 43 -93 113l146 109q-15 40 -15 88q0 84 60 166l-107 109q64 68 133 113l86 -124q84 45 183 45q97 0 167 -45l131 124q50 -45 94 -113l-146 -109
q13 -35 13 -88zM387 148q55 0 89.5 38.5t34.5 94.5q0 40 -22 65.5t-63 25.5q-54 0 -89 -39t-35 -94q0 -40 22 -65.5t63 -25.5z" />
    <glyph glyph-name="yen" unicode="&#xa5;" horiz-adv-x="668" 
d="M462 282h102q2 -25 -9 -50h-114l-10 -60h114q1 -24 -9 -50h-114l-21 -122q-102 -10 -201 0l21 122h-128q-4 25 9 50h128l10 60h-128q-2 25 9 50h114l-147 418q113 8 221 0l64 -223q5 -15 -2 -82h5q11 53 28 82l123 223q106 8 209 0z" />
    <glyph glyph-name="brokenbar" unicode="&#xa6;" horiz-adv-x="332" 
d="M323 839l-46 -340q-61 -7 -124 2l47 339q65 6 123 -1zM200 139l-46 -340q-61 -7 -124 2l46 339q66 6 124 -1z" />
    <glyph glyph-name="section" unicode="&#xa7;" horiz-adv-x="555" 
d="M461 166q36 -45 36 -113q0 -115 -83 -184t-242 -69q-137 0 -234 66q25 89 73 152q88 -60 181 -60q45 0 72 14t27 35q0 17 -20 31t-50.5 24t-65.5 27t-65.5 37.5t-50.5 57.5t-20 85q0 115 99 186q-36 42 -36 113q0 111 78.5 181.5t234.5 70.5q134 0 210 -61
q-23 -83 -73 -146q-80 54 -150 54q-42 0 -67.5 -13t-25.5 -37q0 -22 28 -39t68 -32t80 -35.5t68 -61t28 -96.5q0 -113 -100 -187zM226 317q0 -32 60 -57q32 4 50 17t18 30t-18.5 29.5t-54.5 27.5q-55 -11 -55 -47z" />
    <glyph glyph-name="dieresis" unicode="&#xa8;" horiz-adv-x="540" 
d="M119 566q-80 0 -80 71q0 117 112 117q81 0 81 -73q0 -115 -113 -115zM389 566q-80 0 -80 71q0 117 112 117q81 0 81 -73q0 -115 -113 -115z" />
    <glyph glyph-name="copyright" unicode="&#xa9;" horiz-adv-x="779" 
d="M341 -10q-136 0 -219 87t-83 218q0 110 58 206t157.5 152.5t213.5 56.5q137 0 220 -87t83 -218q0 -168 -127.5 -291.5t-302.5 -123.5zM347 23q159 0 274.5 112t115.5 264q0 119 -75.5 198.5t-198.5 79.5q-159 0 -274.5 -112t-115.5 -264q0 -119 75.5 -198.5t198.5 -79.5z
M409 213q40 0 104 33q20 -44 15 -98q-68 -42 -147 -42q-88 0 -137 42.5t-35 119.5l29 164q14 77 77.5 119.5t151.5 42.5q80 0 132 -42q-15 -55 -49 -99q-50 34 -93 34q-73 0 -88 -79l-21 -116q-13 -79 61 -79z" />
    <glyph glyph-name="guillemotleft" unicode="&#xab;" horiz-adv-x="646" 
d="M150 259q31 -6 46 -22l128 -144q-62 -55 -133 -98l-192 266l286 266q54 -41 98 -98l-179 -144q-20 -16 -54 -22v-4zM405 259q32 -6 47 -22l128 -144q-63 -57 -134 -98l-192 266l287 266q56 -42 97 -98l-178 -144q-20 -16 -55 -22v-4z" />
    <glyph glyph-name="logicalnot" unicode="&#xac;" horiz-adv-x="651" 
d="M647 402l-48 -275q-81 -8 -158 0l24 138h-433q6 73 25 137h590z" />
    <glyph glyph-name="registered" unicode="&#xae;" horiz-adv-x="779" 
d="M341 -10q-136 0 -219 87t-83 218q0 110 58 206t157.5 152.5t213.5 56.5q137 0 220 -87t83 -218q0 -168 -127.5 -291.5t-302.5 -123.5zM347 23q159 0 274.5 112t115.5 264q0 119 -75.5 198.5t-198.5 79.5q-159 0 -274.5 -112t-115.5 -264q0 -119 75.5 -198.5t198.5 -79.5z
M494 303q33 -9 44.5 -37.5t36.5 -152.5q-69 -4 -136 0q-16 77 -27.5 109t-24 41t-39.5 9h-2l-27 -159q-70 -5 -136 0l84 474h185q85 0 125 -36t31 -92l-10 -58q-7 -38 -34.5 -63.5t-68.5 -30.5zM366 379h42q25 0 40 11t18 28l4 24q2 16 -8.5 27t-35.5 11h-42l-12 -67
q-3 -14 -9 -31z" />
    <glyph glyph-name="macron" unicode="&#xaf;" horiz-adv-x="482" 
d="M58 722h387q-2 -63 -22 -125h-387q4 70 22 125z" />
    <glyph glyph-name="degree" unicode="&#xb0;" horiz-adv-x="294" 
d="M200 561q-101 0 -101 89q0 63 37.5 99t103.5 36q48 0 73.5 -23.5t25.5 -67.5q0 -63 -36.5 -98t-102.5 -35zM213 637q42 0 42 44q0 28 -29 28q-42 0 -42 -44q0 -28 29 -28z" />
    <glyph glyph-name="plusminus" unicode="&#xb1;" horiz-adv-x="655" 
d="M446 541h226q-5 -70 -24 -137h-227l-40 -227q-70 -8 -137 0l40 227h-226q5 70 24 137h227l40 226q70 8 137 0zM-13 0q5 70 24 137h590q-5 -70 -24 -137h-590z" />
    <glyph glyph-name="acute" unicode="&#xb4;" horiz-adv-x="390" 
d="M55 641l209 188q48 -55 74 -106l-234 -155q-31 32 -49 73z" />
    <glyph glyph-name="paragraph" unicode="&#xb6;" horiz-adv-x="709" 
d="M740 700l-159 -900q-69 -8 -125 0l139 785h-126l-138 -785q-69 -8 -125 0l67 383q-94 0 -155.5 64t-61.5 158q0 118 94 206.5t215 88.5h375z" />
    <glyph glyph-name="periodcentered" unicode="&#xb7;" horiz-adv-x="264" 
d="M122 210q-92 0 -76 93q17 94 110 94q92 0 76 -94q-16 -93 -110 -93z" />
    <glyph glyph-name="cedilla" unicode="&#xb8;" horiz-adv-x="618" 
d="M264 -1l92 1l-29 -36q45 -5 70 -30.5t18 -66.5q-10 -56 -65.5 -78t-155.5 0q1 35 12 72q28 -4 50.5 4.5t22.5 33.5t-55 38z" />
    <glyph glyph-name="guillemotright" unicode="&#xbb;" horiz-adv-x="663" 
d="M200 527l192 -266l-286 -266q-58 43 -98 98l178 144q21 16 55 22v2l1 2q-32 6 -47 22l-128 144q65 58 133 98zM456 527l192 -266l-286 -266q-56 42 -99 98l179 144q21 16 54 22l2 4q-33 6 -47 22l-128 144q60 56 133 98z" />
    <glyph glyph-name="questiondown" unicode="&#xbf;" horiz-adv-x="452" 
d="M294 532q48 0 66.5 -23t10.5 -71q-17 -94 -111 -94q-93 0 -77 94q18 94 111 94zM168 20q-5 -30 15 -45.5t57 -15.5q62 0 147 42q8 -65 -7 -146q-86 -43 -215 -43q-111 0 -164.5 44t-38.5 129q7 42 29 77t49.5 58t55 43.5t50 44t29.5 49.5q81 8 158 0q-11 -46 -38 -84
t-52.5 -58.5t-47.5 -45.5t-27 -49z" />
    <glyph glyph-name="Agrave" unicode="&#xc0;" horiz-adv-x="689" 
d="M580 819q-18 -41 -49 -73l-234 155q26 51 74 106zM533 700l110 -700q-108 -8 -213 0l-17 118h-192l-59 -118q-100 -7 -198 0l352 700q110 8 217 0zM289 254h103l-17 110q-6 33 2 83h-5q-15 -58 -28 -83z" />
    <glyph glyph-name="Aacute" unicode="&#xc1;" horiz-adv-x="689" 
d="M363 819l209 188q48 -55 74 -106l-234 -155q-31 32 -49 73zM533 700l110 -700q-108 -8 -213 0l-17 118h-192l-59 -118q-100 -7 -198 0l352 700q110 8 217 0zM289 254h103l-17 110q-6 33 2 83h-5q-15 -58 -28 -83z" />
    <glyph glyph-name="Acircumflex" unicode="&#xc2;" horiz-adv-x="689" 
d="M415 852l-118 -106q-28 32 -54 96l214 145l164 -145q-43 -59 -87 -96l-81 106q-11 14 -9 41h-4q-11 -29 -25 -41zM533 700l110 -700q-108 -8 -213 0l-17 118h-192l-59 -118q-100 -7 -198 0l352 700q110 8 217 0zM289 254h103l-17 110q-6 33 2 83h-5q-15 -58 -28 -83z" />
    <glyph glyph-name="Atilde" unicode="&#xc3;" horiz-adv-x="689" 
d="M534 917q102 0 126 -110q-45 -34 -90 -49q-20 37 -46 37q-16 0 -63 -18.5t-77 -18.5q-85 0 -129 110q41 31 89 48q21 -36 48 -36q18 0 62.5 18.5t79.5 18.5zM533 700l110 -700q-108 -8 -213 0l-17 118h-192l-59 -118q-100 -7 -198 0l352 700q110 8 217 0zM289 254h103
l-17 110q-6 33 2 83h-5q-15 -58 -28 -83z" />
    <glyph glyph-name="Adieresis" unicode="&#xc4;" horiz-adv-x="689" 
d="M294 744q-80 0 -80 71q0 117 112 117q81 0 81 -73q0 -115 -113 -115zM564 744q-80 0 -80 71q0 117 112 117q81 0 81 -73q0 -115 -113 -115zM533 700l110 -700q-108 -8 -213 0l-17 118h-192l-59 -118q-100 -7 -198 0l352 700q110 8 217 0zM289 254h103l-17 110q-6 33 2 83
h-5q-15 -58 -28 -83z" />
    <glyph glyph-name="Aring" unicode="&#xc5;" horiz-adv-x="690" 
d="M533 698l110 -698q-108 -8 -213 0l-17 118h-192l-59 -118q-100 -7 -198 0l350 696q-4 13 -4 32q0 63 37.5 99t103.5 36q48 0 74 -23.5t26 -67.5t-18 -74zM437 786q-40 0 -40 -43q0 -26 28 -26q40 0 40 41q0 28 -28 28zM289 254h103l-17 110q-6 33 2 83h-5
q-15 -58 -28 -83z" />
    <glyph glyph-name="AE" unicode="&#xc6;" horiz-adv-x="926" 
d="M717 542l-9 -53q-11 -40 -13 -45l3 -5h199q-6 -81 -28 -158h-198l-13 -73q-6 -30 -13 -45l4 -5h248q-5 -69 -27 -158h-284h-165l21 118h-200l-81 -118q-101 -7 -197 0l477 700h268h274q-5 -69 -27 -158h-239zM335 254h131l48 276h-4q-22 -54 -42 -82z" />
    <glyph glyph-name="Ccedilla" unicode="&#xc7;" horiz-adv-x="538" 
d="M259 436l-31 -172q-21 -116 89 -116q61 0 155 49q28 -64 22 -146q-93 -56 -193 -60l-21 -27q45 -5 70 -30.5t18 -66.5q-10 -56 -65.5 -78t-155.5 0q1 35 12 72q28 -4 50.5 4.5t22.5 33.5t-55 38l37 57q-103 15 -156.5 75.5t-35.5 159.5l43 242q20 114 114.5 176.5
t223.5 62.5q118 0 196 -61q-23 -83 -73 -146q-74 49 -137 49q-59 0 -89.5 -29.5t-40.5 -86.5z" />
    <glyph glyph-name="Egrave" unicode="&#xc8;" horiz-adv-x="537" 
d="M519 819q-18 -41 -49 -73l-234 155q26 51 74 106zM508 158q-6 -81 -28 -158h-478l123 700h468q-4 -71 -27 -158h-268l-9 -53q-5 -25 -13 -45l4 -5h228q-5 -73 -28 -158h-229l-13 -73q-7 -33 -13 -45l4 -5h279z" />
    <glyph glyph-name="Eacute" unicode="&#xc9;" horiz-adv-x="537" 
d="M302 819l209 188q48 -55 74 -106l-234 -155q-31 32 -49 73zM508 158q-6 -81 -28 -158h-478l123 700h468q-4 -71 -27 -158h-268l-9 -53q-5 -25 -13 -45l4 -5h228q-5 -73 -28 -158h-229l-13 -73q-7 -33 -13 -45l4 -5h279z" />
    <glyph glyph-name="Ecircumflex" unicode="&#xca;" horiz-adv-x="537" 
d="M354 852l-118 -106q-28 32 -54 96l214 145l164 -145q-43 -59 -87 -96l-81 106q-11 14 -9 41h-4q-11 -29 -25 -41zM298 542l-9 -53q-5 -25 -13 -45l4 -5h228q-5 -73 -28 -158h-229l-13 -73q-7 -33 -13 -45l4 -5h279q-6 -81 -28 -158h-478l123 700h468q-4 -71 -27 -158
h-268z" />
    <glyph glyph-name="Edieresis" unicode="&#xcb;" horiz-adv-x="537" 
d="M233 744q-80 0 -80 71q0 117 112 117q81 0 81 -73q0 -115 -113 -115zM503 744q-80 0 -80 71q0 117 112 117q81 0 81 -73q0 -115 -113 -115zM508 158q-6 -81 -28 -158h-478l123 700h468q-4 -71 -27 -158h-268l-9 -53q-5 -25 -13 -45l4 -5h228q-5 -73 -28 -158h-229
l-13 -73q-7 -33 -13 -45l4 -5h279z" />
    <glyph glyph-name="Igrave" unicode="&#xcc;" horiz-adv-x="295" 
d="M372 819q-18 -41 -49 -73l-234 155q26 51 74 106zM325 700l-123 -700q-102 -8 -200 0l123 700q102 8 200 0z" />
    <glyph glyph-name="Iacute" unicode="&#xcd;" horiz-adv-x="295" 
d="M155 819l209 188q48 -55 74 -106l-234 -155q-31 32 -49 73zM325 700l-123 -700q-102 -8 -200 0l123 700q102 8 200 0z" />
    <glyph glyph-name="Icircumflex" unicode="&#xce;" horiz-adv-x="295" 
d="M249 987l164 -145q-43 -59 -87 -96l-81 106q-11 14 -9 41h-4q-11 -29 -25 -41l-118 -106q-28 32 -54 96zM125 700q102 8 200 0l-123 -700q-102 -8 -200 0z" />
    <glyph glyph-name="Idieresis" unicode="&#xcf;" horiz-adv-x="295" 
d="M86 744q-80 0 -80 71q0 117 112 117q81 0 81 -73q0 -115 -113 -115zM356 744q-80 0 -80 71q0 117 112 117q81 0 81 -73q0 -115 -113 -115zM325 700l-123 -700q-102 -8 -200 0l123 700q102 8 200 0z" />
    <glyph glyph-name="Eth" unicode="&#xd0;" horiz-adv-x="641" 
d="M440 700q114 0 172.5 -58t40.5 -159l-47 -266q-18 -101 -96.5 -159t-192.5 -58h-317l50 286h-65q4 66 23 136h66l49 278h317zM444 437q9 55 -5.5 80.5t-58.5 25.5h-84l-22 -121h80q-3 -60 -23 -136h-81l-14 -78q-7 -33 -13 -45l4 -5h85q44 0 68 25.5t34 80.5z" />
    <glyph glyph-name="Ntilde" unicode="&#xd1;" horiz-adv-x="703" 
d="M520 917q102 0 126 -110q-45 -34 -90 -49q-20 37 -46 37q-16 0 -63 -18.5t-77 -18.5q-85 0 -129 110q41 31 89 48q21 -36 48 -36q18 0 62.5 18.5t79.5 18.5zM545 700q95 9 189 0l-123 -700q-87 -8 -170 0l-189 342l-5 -4q2 -23 -3 -46l-52 -292q-98 -9 -190 0l123 700
q85 8 169 0l190 -342l6 4q-2 19 3 46z" />
    <glyph glyph-name="Ograve" unicode="&#xd2;" horiz-adv-x="644" 
d="M546 819q-18 -41 -49 -73l-234 155q26 51 74 106zM401 710q132 0 202 -63.5t51 -175.5l-43 -242q-21 -112 -113 -175.5t-224 -63.5q-133 0 -203 63.5t-49 175.5l43 242q19 112 111.5 175.5t224.5 63.5zM418 265l29 170q10 59 -6.5 88.5t-67.5 28.5t-77.5 -29.5
t-36.5 -87.5l-31 -170q-10 -59 6.5 -88.5t67.5 -28.5q52 1 78.5 29.5t37.5 87.5z" />
    <glyph glyph-name="Oacute" unicode="&#xd3;" horiz-adv-x="644" 
d="M329 819l209 188q48 -55 74 -106l-234 -155q-31 32 -49 73zM401 710q132 0 202 -63.5t51 -175.5l-43 -242q-21 -112 -113 -175.5t-224 -63.5q-133 0 -203 63.5t-49 175.5l43 242q19 112 111.5 175.5t224.5 63.5zM418 265l29 170q10 59 -6.5 88.5t-67.5 28.5t-77.5 -29.5
t-36.5 -87.5l-31 -170q-10 -59 6.5 -88.5t67.5 -28.5q52 1 78.5 29.5t37.5 87.5z" />
    <glyph glyph-name="Ocircumflex" unicode="&#xd4;" horiz-adv-x="644" 
d="M381 852l-118 -106q-28 32 -54 96l214 145l164 -145q-43 -59 -87 -96l-81 106q-11 14 -9 41h-4q-11 -29 -25 -41zM401 710q132 0 202 -63.5t51 -175.5l-43 -242q-21 -112 -113 -175.5t-224 -63.5q-133 0 -203 63.5t-49 175.5l43 242q19 112 111.5 175.5t224.5 63.5z
M447 435q10 59 -6.5 88.5t-67.5 28.5t-77.5 -29.5t-36.5 -87.5l-31 -170q-10 -59 6.5 -88.5t67.5 -28.5q52 1 78.5 29.5t37.5 87.5z" />
    <glyph glyph-name="Otilde" unicode="&#xd5;" horiz-adv-x="644" 
d="M500 917q102 0 126 -110q-45 -34 -90 -49q-20 37 -46 37q-16 0 -63 -18.5t-77 -18.5q-85 0 -129 110q41 31 89 48q21 -36 48 -36q18 0 62.5 18.5t79.5 18.5zM401 710q132 0 202 -63.5t51 -175.5l-43 -242q-21 -112 -113 -175.5t-224 -63.5q-133 0 -203 63.5t-49 175.5
l43 242q19 112 111.5 175.5t224.5 63.5zM418 265l29 170q10 59 -6.5 88.5t-67.5 28.5t-77.5 -29.5t-36.5 -87.5l-31 -170q-10 -59 6.5 -88.5t67.5 -28.5q52 1 78.5 29.5t37.5 87.5z" />
    <glyph glyph-name="Odieresis" unicode="&#xd6;" horiz-adv-x="644" 
d="M260 744q-80 0 -80 71q0 117 112 117q81 0 81 -73q0 -115 -113 -115zM530 744q-80 0 -80 71q0 117 112 117q81 0 81 -73q0 -115 -113 -115zM401 710q132 0 202 -63.5t51 -175.5l-43 -242q-21 -112 -113 -175.5t-224 -63.5q-133 0 -203 63.5t-49 175.5l43 242
q19 112 111.5 175.5t224.5 63.5zM418 265l29 170q10 59 -6.5 88.5t-67.5 28.5t-77.5 -29.5t-36.5 -87.5l-31 -170q-10 -59 6.5 -88.5t67.5 -28.5q52 1 78.5 29.5t37.5 87.5z" />
    <glyph glyph-name="multiply" unicode="&#xd7;" horiz-adv-x="629" 
d="M647 523l-223 -189l150 -182q-53 -53 -113 -96l-150 181l-223 -189q-44 41 -80 96l223 189l-150 182q54 54 114 96l150 -181l223 189q41 -38 79 -96z" />
    <glyph glyph-name="Oslash" unicode="&#xd8;" horiz-adv-x="644" 
d="M573 669q105 -63 81 -198l-43 -242q-21 -112 -113 -175.5t-224 -63.5q-69 0 -126 19l-52 -80q-29 10 -50 25l51 80q-99 64 -75 195l43 242q19 112 111.5 175.5t224.5 63.5q65 0 119 -17l49 77q23 -6 52 -26zM228 265q-2 -11 -4 -33l199 309q-18 11 -50 11
q-51 -1 -77.5 -29.5t-36.5 -87.5zM447 435q4 23 4 45l-204 -317q18 -15 55 -15q52 1 78.5 29.5t37.5 87.5z" />
    <glyph glyph-name="Ugrave" unicode="&#xd9;" horiz-adv-x="693" 
d="M570 819q-18 -41 -49 -73l-234 155q26 51 74 106zM523 700q101 8 201 0l-81 -461q-21 -115 -107 -182t-238 -67t-214 67t-41 182l82 461q100 8 199 0l-76 -435q-12 -64 7.5 -91t70.5 -26q52 1 80.5 27t39.5 90z" />
    <glyph glyph-name="Uacute" unicode="&#xda;" horiz-adv-x="693" 
d="M353 819l209 188q48 -55 74 -106l-234 -155q-31 32 -49 73zM523 700q101 8 201 0l-81 -461q-21 -115 -107 -182t-238 -67t-214 67t-41 182l82 461q100 8 199 0l-76 -435q-12 -64 7.5 -91t70.5 -26q52 1 80.5 27t39.5 90z" />
    <glyph glyph-name="Ucircumflex" unicode="&#xdb;" horiz-adv-x="693" 
d="M405 852l-118 -106q-28 32 -54 96l214 145l164 -145q-43 -59 -87 -96l-81 106q-11 14 -9 41h-4q-11 -29 -25 -41zM523 700q101 8 201 0l-81 -461q-21 -115 -107 -182t-238 -67t-214 67t-41 182l82 461q100 8 199 0l-76 -435q-12 -64 7.5 -91t70.5 -26q52 1 80.5 27
t39.5 90z" />
    <glyph glyph-name="Udieresis" unicode="&#xdc;" horiz-adv-x="693" 
d="M284 744q-80 0 -80 71q0 117 112 117q81 0 81 -73q0 -115 -113 -115zM554 744q-80 0 -80 71q0 117 112 117q81 0 81 -73q0 -115 -113 -115zM523 700q101 8 201 0l-81 -461q-21 -115 -107 -182t-238 -67t-214 67t-41 182l82 461q100 8 199 0l-76 -435q-12 -64 7.5 -91
t70.5 -26q52 1 80.5 27t39.5 90z" />
    <glyph glyph-name="Yacute" unicode="&#xdd;" horiz-adv-x="668" 
d="M342 819l209 188q48 -55 74 -106l-234 -155q-31 32 -49 73zM736 700l-291 -444l-44 -256q-102 -10 -201 0l44 255l-156 445q113 8 221 0l64 -223q5 -15 -2 -82h5q11 53 28 82l123 223q106 8 209 0z" />
    <glyph glyph-name="Thorn" unicode="&#xde;" horiz-adv-x="613" 
d="M410 591q127 0 186 -55t43 -144l-16 -86q-16 -90 -93.5 -144.5t-204.5 -54.5h-105l-19 -107q-102 -8 -200 0l124 700q102 8 200 0l-19 -109h104zM428 331l6 36q11 65 -63 66h-93l-21 -118q-6 -30 -13 -45l4 -5h93q76 1 87 66z" />
    <glyph glyph-name="germandbls" unicode="&#xdf;" horiz-adv-x="716" 
d="M543 389q0 -18 14.5 -34.5t35.5 -31.5t42.5 -32t36 -44.5t14.5 -61.5q0 -90 -63 -142.5t-187 -52.5q-113 0 -178 50q11 62 59 119q58 -38 121 -38q53 0 53 26q0 16 -21.5 33.5t-46.5 33t-46.5 47.5t-21.5 74q0 34 9 58t22 38.5l26 29t22 36.5t9 53q0 58 -57 58
q-58 0 -71 -71l-94 -537q-97 -10 -190 0l66 374h-65q6 79 27 148h63l8 39q17 91 95.5 140t186.5 49q95 0 155.5 -41.5t60.5 -122.5q0 -37 -13.5 -69.5t-29 -51t-29 -39.5t-13.5 -37z" />
    <glyph glyph-name="agrave" unicode="&#xe0;" horiz-adv-x="526" 
d="M459 641q-18 -41 -49 -73l-234 155q26 51 74 106zM318 532q47 0 82.5 -8t64 -27t39 -55.5t1.5 -89.5l-61 -352q-97 -7 -190 0q4 19 11 33l-5 5q-59 -48 -131 -48q-68 0 -105.5 39t-26.5 109l4 26q11 70 63.5 109t124.5 39q74 0 112 -43l6 5q-3 21 2 45l3 18q2 14 2 27
t-16 22t-49 9q-67 0 -148 -38q-21 62 -12 119q104 56 229 56zM276 133l7 36q-23 27 -51 27q-19 0 -32.5 -12.5t-15.5 -24.5l-2 -16q-1 -13 6.5 -25.5t26.5 -12.5q29 0 61 28z" />
    <glyph glyph-name="aacute" unicode="&#xe1;" horiz-adv-x="526" 
d="M242 641l209 188q48 -55 74 -106l-234 -155q-31 32 -49 73zM318 532q47 0 82.5 -8t64 -27t39 -55.5t1.5 -89.5l-61 -352q-97 -7 -190 0q4 19 11 33l-5 5q-59 -48 -131 -48q-68 0 -105.5 39t-26.5 109l4 26q11 70 63.5 109t124.5 39q74 0 112 -43l6 5q-3 21 2 45l3 18
q2 14 2 27t-16 22t-49 9q-67 0 -148 -38q-21 62 -12 119q104 56 229 56zM276 133l7 36q-23 27 -51 27q-19 0 -32.5 -12.5t-15.5 -24.5l-2 -16q-1 -13 6.5 -25.5t26.5 -12.5q29 0 61 28z" />
    <glyph glyph-name="acircumflex" unicode="&#xe2;" horiz-adv-x="526" 
d="M294 674l-118 -106q-28 32 -54 96l214 145l164 -145q-43 -59 -87 -96l-81 106q-11 14 -9 41h-4q-11 -29 -25 -41zM318 532q47 0 82.5 -8t64 -27t39 -55.5t1.5 -89.5l-61 -352q-97 -7 -190 0q4 19 11 33l-5 5q-59 -48 -131 -48q-68 0 -105.5 39t-26.5 109l4 26
q11 70 63.5 109t124.5 39q74 0 112 -43l6 5q-3 21 2 45l3 18q2 14 2 27t-16 22t-49 9q-67 0 -148 -38q-21 62 -12 119q104 56 229 56zM276 133l7 36q-23 27 -51 27q-19 0 -32.5 -12.5t-15.5 -24.5l-2 -16q-1 -13 6.5 -25.5t26.5 -12.5q29 0 61 28z" />
    <glyph glyph-name="atilde" unicode="&#xe3;" horiz-adv-x="526" 
d="M413 739q102 0 126 -110q-45 -34 -90 -49q-20 37 -46 37q-16 0 -63 -18.5t-77 -18.5q-85 0 -129 110q41 31 89 48q21 -36 48 -36q18 0 62.5 18.5t79.5 18.5zM318 532q47 0 82.5 -8t64 -27t39 -55.5t1.5 -89.5l-61 -352q-97 -7 -190 0q4 19 11 33l-5 5q-59 -48 -131 -48
q-68 0 -105.5 39t-26.5 109l4 26q11 70 63.5 109t124.5 39q74 0 112 -43l6 5q-3 21 2 45l3 18q2 14 2 27t-16 22t-49 9q-67 0 -148 -38q-21 62 -12 119q104 56 229 56zM276 133l7 36q-23 27 -51 27q-19 0 -32.5 -12.5t-15.5 -24.5l-2 -16q-1 -13 6.5 -25.5t26.5 -12.5
q29 0 61 28z" />
    <glyph glyph-name="adieresis" unicode="&#xe4;" horiz-adv-x="526" 
d="M173 566q-80 0 -80 71q0 117 112 117q81 0 81 -73q0 -115 -113 -115zM443 566q-80 0 -80 71q0 117 112 117q81 0 81 -73q0 -115 -113 -115zM318 532q47 0 82.5 -8t64 -27t39 -55.5t1.5 -89.5l-61 -352q-97 -7 -190 0q4 19 11 33l-5 5q-59 -48 -131 -48q-68 0 -105.5 39
t-26.5 109l4 26q11 70 63.5 109t124.5 39q74 0 112 -43l6 5q-3 21 2 45l3 18q2 14 2 27t-16 22t-49 9q-67 0 -148 -38q-21 62 -12 119q104 56 229 56zM276 133l7 36q-23 27 -51 27q-19 0 -32.5 -12.5t-15.5 -24.5l-2 -16q-1 -13 6.5 -25.5t26.5 -12.5q29 0 61 28z" />
    <glyph glyph-name="aring" unicode="&#xe5;" horiz-adv-x="526" 
d="M319 561q-102 0 -102 89q0 63 37.5 99t103.5 36q48 0 74 -23.5t26 -67.5q0 -63 -36.5 -98t-102.5 -35zM332 639q40 0 40 41q0 28 -28 28q-40 0 -40 -43q0 -26 28 -26zM318 532q47 0 82.5 -8t64 -27t39 -55.5t1.5 -89.5l-61 -352q-97 -7 -190 0q4 19 11 33l-5 5
q-59 -48 -131 -48q-68 0 -105.5 39t-26.5 109l4 26q11 70 63.5 109t124.5 39q74 0 112 -43l6 5q-3 21 2 45l3 18q2 14 2 27t-16 22t-49 9q-67 0 -148 -38q-21 62 -12 119q104 56 229 56zM276 133l7 36q-23 27 -51 27q-19 0 -32.5 -12.5t-15.5 -24.5l-2 -16q-1 -13 6.5 -25.5
t26.5 -12.5q29 0 61 28z" />
    <glyph glyph-name="ae" unicode="&#xe6;" horiz-adv-x="798" 
d="M599 532q109 0 156.5 -57.5t32.5 -141.5l-22 -123h-174h-62q-26 0 -44 5l-6 -5l-1 -6q-8 -43 13.5 -60.5t71.5 -17.5q69 0 138 44q30 -57 17 -119q-82 -61 -209 -61q-134 0 -181 79q-85 -79 -200 -79q-68 0 -105.5 39t-26.5 109l4 26q11 70 63.5 109t124.5 39
q74 0 112 -43l6 5q-3 21 2 45l3 18q2 14 2 27t-16 22t-49 9q-67 0 -148 -38q-21 62 -12 119q104 56 229 56q88 0 131 -38q63 38 150 38zM608 325l5 4l1 5q7 39 -2 55.5t-36 16.5q-62 0 -74 -71l-1 -5h63q25 0 44 -5zM215 105q29 0 61 28l7 36q-23 27 -51 27
q-19 0 -32.5 -12.5t-15.5 -24.5l-2 -16q-1 -13 6.5 -25.5t26.5 -12.5z" />
    <glyph glyph-name="ccedilla" unicode="&#xe7;" horiz-adv-x="457" 
d="M229 318l-21 -114q-14 -78 73 -78q53 0 113 33q27 -56 17 -119q-64 -45 -153 -49l-21 -27q45 -5 70 -30.5t18 -66.5q-10 -56 -65.5 -78t-155.5 0q1 35 12 72q28 -4 50.5 4.5t22.5 33.5t-55 38l38 58q-88 15 -128.5 69.5t-27.5 124.5l24 144q16 84 93.5 141.5t196.5 57.5
q106 0 159 -50q-13 -64 -60 -120q-45 33 -101 33q-85 0 -99 -77z" />
    <glyph glyph-name="egrave" unicode="&#xe8;" horiz-adv-x="521" 
d="M454 641q-18 -41 -49 -73l-234 155q26 51 74 106zM209 215l-5 -5l-2 -6q-7 -43 14 -60.5t72 -17.5q69 0 139 44q27 -57 16 -119q-82 -61 -209 -61q-118 0 -175 58t-43 141l25 145q15 84 89.5 141t191.5 57q110 0 157 -57t32 -142l-21 -123h-237q-24 0 -44 5zM299 406
q-59 0 -74 -71l-1 -5h64q25 0 44 -5l5 5l1 4q7 38 -2.5 55t-36.5 17z" />
    <glyph glyph-name="eacute" unicode="&#xe9;" horiz-adv-x="521" 
d="M237 641l209 188q48 -55 74 -106l-234 -155q-31 32 -49 73zM209 215l-5 -5l-2 -6q-7 -43 14 -60.5t72 -17.5q69 0 139 44q27 -57 16 -119q-82 -61 -209 -61q-118 0 -175 58t-43 141l25 145q15 84 89.5 141t191.5 57q110 0 157 -57t32 -142l-21 -123h-237q-24 0 -44 5z
M299 406q-59 0 -74 -71l-1 -5h64q25 0 44 -5l5 5l1 4q7 38 -2.5 55t-36.5 17z" />
    <glyph glyph-name="ecircumflex" unicode="&#xea;" horiz-adv-x="521" 
d="M289 674l-118 -106q-28 32 -54 96l214 145l164 -145q-43 -59 -87 -96l-81 106q-11 14 -9 41h-4q-11 -29 -25 -41zM322 532q110 0 157 -57t32 -142l-21 -123h-237q-24 0 -44 5l-5 -5l-2 -6q-7 -43 14 -60.5t72 -17.5q69 0 139 44q27 -57 16 -119q-82 -61 -209 -61
q-118 0 -175 58t-43 141l25 145q15 84 89.5 141t191.5 57zM338 334q7 38 -2.5 55t-36.5 17q-59 0 -74 -71l-1 -5h64q25 0 44 -5l5 5z" />
    <glyph glyph-name="edieresis" unicode="&#xeb;" horiz-adv-x="521" 
d="M168 566q-80 0 -80 71q0 117 112 117q81 0 81 -73q0 -115 -113 -115zM438 566q-80 0 -80 71q0 117 112 117q81 0 81 -73q0 -115 -113 -115zM209 215l-5 -5l-2 -6q-7 -43 14 -60.5t72 -17.5q69 0 139 44q27 -57 16 -119q-82 -61 -209 -61q-118 0 -175 58t-43 141l25 145
q15 84 89.5 141t191.5 57q110 0 157 -57t32 -142l-21 -123h-237q-24 0 -44 5zM299 406q-59 0 -74 -71l-1 -5h64q25 0 44 -5l5 5l1 4q7 38 -2.5 55t-36.5 17z" />
    <glyph glyph-name="igrave" unicode="&#xec;" horiz-adv-x="265" 
d="M330 641q-18 -41 -49 -73l-234 155q26 51 74 106zM78 490q89 42 197 42l-93 -532q-98 -9 -190 0z" />
    <glyph glyph-name="iacute" unicode="&#xed;" horiz-adv-x="265" 
d="M113 641l209 188q48 -55 74 -106l-234 -155q-31 32 -49 73zM78 490q89 42 197 42l-93 -532q-98 -9 -190 0z" />
    <glyph glyph-name="icircumflex" unicode="&#xee;" horiz-adv-x="265" 
d="M207 809l164 -145q-43 -59 -87 -96l-81 106q-11 14 -9 41h-4q-11 -29 -25 -41l-118 -106q-28 32 -54 96zM-8 0l86 490q89 42 197 42l-93 -532q-98 -9 -190 0z" />
    <glyph glyph-name="idieresis" unicode="&#xef;" horiz-adv-x="265" 
d="M44 566q-80 0 -80 71q0 117 112 117q81 0 81 -73q0 -115 -113 -115zM314 566q-80 0 -80 71q0 117 112 117q81 0 81 -73q0 -115 -113 -115zM78 490q89 42 197 42l-93 -532q-98 -9 -190 0z" />
    <glyph glyph-name="eth" unicode="&#xf0;" horiz-adv-x="560" 
d="M551 372h1l-33 -183q-14 -84 -89.5 -141.5t-194.5 -57.5q-120 0 -177 58t-42 141l8 42h-1l9 53q14 84 70.5 136t153.5 52q74 0 114 -49l-13 -73h1l12 73l6 5q18 106 -45 164l-63 -85q-38 15 -75 47l62 83q-39 16 -84 26q22 51 55 81q54 -8 95 -19l54 72q43 -16 74 -47
l-39 -53q96 -41 130.5 -118t10.5 -207zM259 126q60 0 72 78l18 104q-27 27 -53 27q-64 0 -79 -77l-4 -27l-5 -27q-13 -78 51 -78z" />
    <glyph glyph-name="ntilde" unicode="&#xf1;" horiz-adv-x="568" 
d="M453 739q102 0 126 -110q-45 -34 -90 -49q-20 37 -46 37q-16 0 -63 -18.5t-77 -18.5q-85 0 -129 110q41 31 89 48q21 -36 48 -36q18 0 62.5 18.5t79.5 18.5zM425 532q153 0 129 -137l-69 -395q-96 -9 -190 0l56 315q7 37 -1 50.5t-34 13.5q-31 0 -71 -22l-63 -357
q-98 -9 -190 0l86 490q90 42 197 42q-5 -30 -13 -48l4 -5q73 53 159 53z" />
    <glyph glyph-name="ograve" unicode="&#xf2;" horiz-adv-x="564" 
d="M475 641q-18 -41 -49 -73l-234 155q26 51 74 106zM330 532q119 0 175.5 -57.5t42.5 -141.5l-24 -144q-14 -83 -91.5 -141t-197.5 -58t-176.5 57.5t-42.5 141.5l24 144q16 84 93.5 141.5t196.5 57.5zM336 204l21 114q7 40 -8 58.5t-43 18.5q-63 0 -77 -77l-21 -114
q-13 -78 51 -78q28 0 49 18.5t28 59.5z" />
    <glyph glyph-name="oacute" unicode="&#xf3;" horiz-adv-x="564" 
d="M258 641l209 188q48 -55 74 -106l-234 -155q-31 32 -49 73zM330 532q119 0 175.5 -57.5t42.5 -141.5l-24 -144q-14 -83 -91.5 -141t-197.5 -58t-176.5 57.5t-42.5 141.5l24 144q16 84 93.5 141.5t196.5 57.5zM336 204l21 114q7 40 -8 58.5t-43 18.5q-63 0 -77 -77
l-21 -114q-13 -78 51 -78q28 0 49 18.5t28 59.5z" />
    <glyph glyph-name="ocircumflex" unicode="&#xf4;" horiz-adv-x="564" 
d="M310 674l-118 -106q-28 32 -54 96l214 145l164 -145q-43 -59 -87 -96l-81 106q-11 14 -9 41h-4q-11 -29 -25 -41zM330 532q119 0 175.5 -57.5t42.5 -141.5l-24 -144q-14 -83 -91.5 -141t-197.5 -58t-176.5 57.5t-42.5 141.5l24 144q16 84 93.5 141.5t196.5 57.5zM357 318
q7 40 -8 58.5t-43 18.5q-63 0 -77 -77l-21 -114q-13 -78 51 -78q28 0 49 18.5t28 59.5z" />
    <glyph glyph-name="otilde" unicode="&#xf5;" horiz-adv-x="564" 
d="M429 739q102 0 126 -110q-45 -34 -90 -49q-20 37 -46 37q-16 0 -63 -18.5t-77 -18.5q-85 0 -129 110q41 31 89 48q21 -36 48 -36q18 0 62.5 18.5t79.5 18.5zM330 532q119 0 175.5 -57.5t42.5 -141.5l-24 -144q-14 -83 -91.5 -141t-197.5 -58t-176.5 57.5t-42.5 141.5
l24 144q16 84 93.5 141.5t196.5 57.5zM336 204l21 114q7 40 -8 58.5t-43 18.5q-63 0 -77 -77l-21 -114q-13 -78 51 -78q28 0 49 18.5t28 59.5z" />
    <glyph glyph-name="odieresis" unicode="&#xf6;" horiz-adv-x="564" 
d="M189 566q-80 0 -80 71q0 117 112 117q81 0 81 -73q0 -115 -113 -115zM459 566q-80 0 -80 71q0 117 112 117q81 0 81 -73q0 -115 -113 -115zM330 532q119 0 175.5 -57.5t42.5 -141.5l-24 -144q-14 -83 -91.5 -141t-197.5 -58t-176.5 57.5t-42.5 141.5l24 144
q16 84 93.5 141.5t196.5 57.5zM336 204l21 114q7 40 -8 58.5t-43 18.5q-63 0 -77 -77l-21 -114q-13 -78 51 -78q28 0 49 18.5t28 59.5z" />
    <glyph glyph-name="divide" unicode="&#xf7;" horiz-adv-x="655" 
d="M351 445q-95 0 -77 94q16 93 110 93t78 -93q-18 -94 -111 -94zM646 402q-3 -68 -23 -137h-590q5 68 23 137h590zM292 36q-95 0 -77 94q16 94 110 94t77 -94q-16 -94 -110 -94z" />
    <glyph glyph-name="oslash" unicode="&#xf8;" horiz-adv-x="564" 
d="M435 516q66 -23 95 -72.5t18 -110.5l-24 -144q-14 -83 -91.5 -141t-197.5 -58q-17 0 -43 2l-34 -72q-33 10 -54 25l28 60q-67 23 -97 72.5t-19 111.5l24 144q16 84 93.5 141.5t196.5 57.5q17 0 45 -2l30 65q19 -4 55 -25zM208 204q-4 -21 -1 -37l105 228h-6
q-63 0 -77 -77zM357 318q3 22 1 33l-104 -225h5q28 0 49 18.5t28 59.5z" />
    <glyph glyph-name="ugrave" unicode="&#xf9;" horiz-adv-x="563" 
d="M483 641q-18 -41 -49 -73l-234 155q26 51 74 106zM377 490q90 42 197 42l-93 -532q-98 -9 -190 0q1 14 10 33l-4 5q-70 -52 -155 -52q-153 0 -129 137l65 367q90 42 198 42l-58 -330q-7 -38 1 -51t33 -13q26 0 67 22z" />
    <glyph glyph-name="uacute" unicode="&#xfa;" horiz-adv-x="563" 
d="M266 641l209 188q48 -55 74 -106l-234 -155q-31 32 -49 73zM377 490q90 42 197 42l-93 -532q-98 -9 -190 0q1 14 10 33l-4 5q-70 -52 -155 -52q-153 0 -129 137l65 367q90 42 198 42l-58 -330q-7 -38 1 -51t33 -13q26 0 67 22z" />
    <glyph glyph-name="ucircumflex" unicode="&#xfb;" horiz-adv-x="563" 
d="M318 674l-118 -106q-28 32 -54 96l214 145l164 -145q-43 -59 -87 -96l-81 106q-11 14 -9 41h-4q-11 -29 -25 -41zM377 490q90 42 197 42l-93 -532q-98 -9 -190 0q1 14 10 33l-4 5q-70 -52 -155 -52q-153 0 -129 137l65 367q90 42 198 42l-58 -330q-7 -38 1 -51t33 -13
q26 0 67 22z" />
    <glyph glyph-name="udieresis" unicode="&#xfc;" horiz-adv-x="563" 
d="M197 566q-80 0 -80 71q0 117 112 117q81 0 81 -73q0 -115 -113 -115zM467 566q-80 0 -80 71q0 117 112 117q81 0 81 -73q0 -115 -113 -115zM377 490q90 42 197 42l-93 -532q-98 -9 -190 0q1 14 10 33l-4 5q-70 -52 -155 -52q-153 0 -129 137l65 367q90 42 198 42
l-58 -330q-7 -38 1 -51t33 -13q26 0 67 22z" />
    <glyph glyph-name="yacute" unicode="&#xfd;" horiz-adv-x="573" 
d="M264 641l209 188q48 -55 74 -106l-234 -155q-31 32 -49 73zM427 522q99 7 193 0l-260 -501q-60 -116 -147 -174t-229 -57q3 63 23 131q58 4 93.5 24.5t56.5 65.5l-107 511q105 7 205 0l30 -241q5 -38 -1 -82h5q10 44 27 82z" />
    <glyph glyph-name="thorn" unicode="&#xfe;" horiz-adv-x="568" 
d="M398 532q97 0 134.5 -52t22.5 -136l-30 -166q-15 -85 -70.5 -136.5t-151.5 -51.5q-76 0 -115 48l-6 -5q2 -23 -3 -45l-26 -146q-89 -42 -197 -42l148 840l10 58q89 42 198 42l-37 -207q-6 -30 -13 -45l4 -5q58 49 132 49zM340 204l20 114q15 77 -50 77q-28 0 -64 -28
l-38 -213q26 -28 54 -28q29 0 50.5 18.5t27.5 59.5z" />
    <glyph glyph-name="ydieresis" unicode="&#xff;" horiz-adv-x="573" 
d="M195 566q-80 0 -80 71q0 117 112 117q81 0 81 -73q0 -115 -113 -115zM465 566q-80 0 -80 71q0 117 112 117q81 0 81 -73q0 -115 -113 -115zM427 522q99 7 193 0l-260 -501q-60 -116 -147 -174t-229 -57q3 63 23 131q58 4 93.5 24.5t56.5 65.5l-107 511q105 7 205 0
l30 -241q5 -38 -1 -82h5q10 44 27 82z" />
    <glyph glyph-name="Amacron" unicode="&#x100;" horiz-adv-x="689" 
d="M274 900h387q-2 -63 -22 -125h-387q4 70 22 125zM533 700l110 -700q-108 -8 -213 0l-17 118h-192l-59 -118q-100 -7 -198 0l352 700q110 8 217 0zM289 254h103l-17 110q-6 33 2 83h-5q-15 -58 -28 -83z" />
    <glyph glyph-name="amacron" unicode="&#x101;" horiz-adv-x="526" 
d="M153 722h387q-2 -63 -22 -125h-387q4 70 22 125zM318 532q47 0 82.5 -8t64 -27t39 -55.5t1.5 -89.5l-61 -352q-97 -7 -190 0q4 19 11 33l-5 5q-59 -48 -131 -48q-68 0 -105.5 39t-26.5 109l4 26q11 70 63.5 109t124.5 39q74 0 112 -43l6 5q-3 21 2 45l3 18q2 14 2 27
t-16 22t-49 9q-67 0 -148 -38q-21 62 -12 119q104 56 229 56zM276 133l7 36q-23 27 -51 27q-19 0 -32.5 -12.5t-15.5 -24.5l-2 -16q-1 -13 6.5 -25.5t26.5 -12.5q29 0 61 28z" />
    <glyph glyph-name="Abreve" unicode="&#x102;" horiz-adv-x="689" 
d="M444 756q-68 0 -111 42.5t-42 131.5q47 13 96 10q22 -58 79 -58q58 0 100 58q47 3 92 -10q-30 -89 -88.5 -131.5t-125.5 -42.5zM316 700q110 8 217 0l110 -700q-108 -8 -213 0l-17 118h-192l-59 -118q-100 -7 -198 0zM289 254h103l-17 110q-6 33 2 83h-5q-15 -58 -28 -83
z" />
    <glyph glyph-name="abreve" unicode="&#x103;" horiz-adv-x="526" 
d="M323 578q-68 0 -111 42.5t-42 131.5q47 13 96 10q22 -58 79 -58q58 0 100 58q47 3 92 -10q-30 -89 -88.5 -131.5t-125.5 -42.5zM318 532q47 0 82.5 -8t64 -27t39 -55.5t1.5 -89.5l-61 -352q-97 -7 -190 0q4 19 11 33l-5 5q-59 -48 -131 -48q-68 0 -105.5 39t-26.5 109
l4 26q11 70 63.5 109t124.5 39q74 0 112 -43l6 5q-3 21 2 45l3 18q2 14 2 27t-16 22t-49 9q-67 0 -148 -38q-21 62 -12 119q104 56 229 56zM276 133l7 36q-23 27 -51 27q-19 0 -32.5 -12.5t-15.5 -24.5l-2 -16q-1 -13 6.5 -25.5t26.5 -12.5q29 0 61 28z" />
    <glyph glyph-name="Aogonek" unicode="&#x104;" horiz-adv-x="689" 
d="M522 -4q-34 -26 -49 -42.5t-15 -33.5q0 -18 16.5 -24.5t33.5 -2.5q-3 -54 -18 -104q-104 -21 -152.5 9.5t-39.5 81.5q15 81 126 130h5l-16 108h-192l-59 -118q-100 -7 -198 0l352 700q110 8 217 0l110 -700q-52 -4 -121 -4zM289 254h103l-17 110q-6 33 2 83h-5
q-15 -58 -28 -83z" />
    <glyph glyph-name="aogonek" unicode="&#x105;" horiz-adv-x="526" 
d="M318 532q47 0 82.5 -8t64 -27t39 -55.5t1.5 -89.5l-61 -352q-45 -6 -72 -30t-27 -52q0 -31 50 -25q-1 -48 -18 -104q-106 -22 -153.5 6t-36.5 85q14 77 96 124q-8 17 -23 34l41 231l6 5q-3 21 2 45l3 18q2 14 2 27t-16 22t-49 9q-67 0 -148 -38q-21 62 -12 119
q104 56 229 56zM215 105q29 0 61 28l-16 -95q-59 -48 -131 -48q-68 0 -105.5 39t-26.5 109l4 26q11 70 63.5 109t124.5 39q74 0 112 -43l-18 -100q-23 27 -51 27q-19 0 -32.5 -12.5t-15.5 -24.5l-2 -16q-1 -13 6.5 -25.5t26.5 -12.5z" />
    <glyph glyph-name="Cacute" unicode="&#x106;" horiz-adv-x="538" 
d="M310 819l209 188q48 -55 74 -106l-234 -155q-31 32 -49 73zM317 148q61 0 155 49q28 -64 22 -146q-102 -61 -218 -61q-130 0 -202.5 62.5t-51.5 176.5l43 242q20 114 114.5 176.5t223.5 62.5q118 0 196 -61q-23 -83 -73 -146q-74 49 -137 49q-59 0 -89.5 -29.5
t-40.5 -86.5l-31 -172q-21 -116 89 -116z" />
    <glyph glyph-name="cacute" unicode="&#x107;" horiz-adv-x="457" 
d="M235 641l209 188q48 -55 74 -106l-234 -155q-31 32 -49 73zM281 126q53 0 113 33q27 -56 17 -119q-70 -50 -176 -50q-119 0 -176 58t-43 141l24 144q16 84 93.5 141.5t196.5 57.5q106 0 159 -50q-13 -64 -60 -120q-45 33 -101 33q-85 0 -99 -77l-21 -114q-14 -78 73 -78z
" />
    <glyph glyph-name="Cdotaccent" unicode="&#x10a;" horiz-adv-x="538" 
d="M388 744q-80 0 -80 71q0 117 112 117q81 0 81 -73q0 -115 -113 -115zM317 148q61 0 155 49q28 -64 22 -146q-102 -61 -218 -61q-130 0 -202.5 62.5t-51.5 176.5l43 242q20 114 114.5 176.5t223.5 62.5q118 0 196 -61q-23 -83 -73 -146q-74 49 -137 49q-59 0 -89.5 -29.5
t-40.5 -86.5l-31 -172q-21 -116 89 -116z" />
    <glyph glyph-name="cdotaccent" unicode="&#x10b;" horiz-adv-x="457" 
d="M313 566q-80 0 -80 71q0 117 112 117q81 0 81 -73q0 -115 -113 -115zM281 126q53 0 113 33q27 -56 17 -119q-70 -50 -176 -50q-119 0 -176 58t-43 141l24 144q16 84 93.5 141.5t196.5 57.5q106 0 159 -50q-13 -64 -60 -120q-45 33 -101 33q-85 0 -99 -77l-21 -114
q-14 -78 73 -78z" />
    <glyph glyph-name="Ccaron" unicode="&#x10c;" horiz-adv-x="538" 
d="M603 891l-214 -145l-164 145q43 59 87 96l81 -106q11 -14 9 -41h4q11 29 25 41l118 106q28 -32 54 -96zM65 471q20 114 114.5 176.5t223.5 62.5q118 0 196 -61q-23 -83 -73 -146q-74 49 -137 49q-59 0 -89.5 -29.5t-40.5 -86.5l-31 -172q-21 -116 89 -116q61 0 155 49
q28 -64 22 -146q-102 -61 -218 -61q-130 0 -202.5 62.5t-51.5 176.5z" />
    <glyph glyph-name="ccaron" unicode="&#x10d;" horiz-adv-x="457" 
d="M528 713l-214 -145l-164 145q43 59 87 96l81 -106q11 -14 9 -41h4q11 29 25 41l118 106q28 -32 54 -96zM40 333q16 84 93.5 141.5t196.5 57.5q106 0 159 -50q-13 -64 -60 -120q-45 33 -101 33q-85 0 -99 -77l-21 -114q-14 -78 73 -78q53 0 113 33q27 -56 17 -119
q-70 -50 -176 -50q-119 0 -176 58t-43 141z" />
    <glyph glyph-name="Dcaron" unicode="&#x10e;" horiz-adv-x="643" 
d="M614 891l-214 -145l-164 145q43 59 87 96l81 -106q11 -14 9 -41h4q11 29 25 41l118 106q28 -32 54 -96zM442 700q114 0 172.5 -58t40.5 -159l-47 -266q-18 -101 -96.5 -159t-192.5 -58h-317l123 700h317zM446 437q9 55 -5.5 80.5t-58.5 25.5h-84l-60 -335q-7 -33 -13 -45
l4 -5h85q44 0 68 25.5t34 80.5z" />
    <glyph glyph-name="dcaron" unicode="&#x10f;" horiz-adv-x="751" 
d="M419 698q89 42 196 42l-130 -740q-98 -9 -190 0q3 19 11 33l-4 5q-57 -48 -133 -48q-96 0 -133 52t-22 136l29 166q14 85 69.5 136.5t152.5 51.5q75 0 115 -49l6 5q-2 18 3 45zM633 488l23 212q81 7 163 0l-55 -212q-66 -9 -131 0zM322 154l37 213q-25 28 -54 28
q-64 0 -78 -77l-19 -114q-15 -78 50 -78q28 0 64 28z" />
    <glyph glyph-name="Dcroat" unicode="&#x110;" horiz-adv-x="641" 
d="M440 700q114 0 172.5 -58t40.5 -159l-47 -266q-18 -101 -96.5 -159t-192.5 -58h-317l50 286h-65q4 66 23 136h66l49 278h317zM444 437q9 55 -5.5 80.5t-58.5 25.5h-84l-22 -121h80q-3 -60 -23 -136h-81l-14 -78q-7 -33 -13 -45l4 -5h85q44 0 68 25.5t34 80.5z" />
    <glyph glyph-name="dcroat" unicode="&#x111;" horiz-adv-x="583" 
d="M650 652q1 -18 -5.5 -52t-13.5 -52h-50l-96 -548q-98 -9 -190 0q3 19 11 33l-4 5q-57 -48 -133 -48q-96 0 -133 52t-22 136l29 166q14 85 69.5 136.5t152.5 51.5q75 0 115 -49l6 5q-2 18 3 45l3 15h-93q-1 17 5.5 51t13.5 53h93l8 46q89 42 196 42l-15 -88h50zM322 154
l37 213q-25 28 -54 28q-64 0 -78 -77l-19 -114q-15 -78 50 -78q28 0 64 28z" />
    <glyph glyph-name="Emacron" unicode="&#x112;" horiz-adv-x="537" 
d="M213 900h387q-2 -63 -22 -125h-387q4 70 22 125zM508 158q-6 -81 -28 -158h-478l123 700h468q-4 -71 -27 -158h-268l-9 -53q-5 -25 -13 -45l4 -5h228q-5 -73 -28 -158h-229l-13 -73q-7 -33 -13 -45l4 -5h279z" />
    <glyph glyph-name="emacron" unicode="&#x113;" horiz-adv-x="521" 
d="M148 722h387q-2 -63 -22 -125h-387q4 70 22 125zM209 215l-5 -5l-2 -6q-7 -43 14 -60.5t72 -17.5q69 0 139 44q27 -57 16 -119q-82 -61 -209 -61q-118 0 -175 58t-43 141l25 145q15 84 89.5 141t191.5 57q110 0 157 -57t32 -142l-21 -123h-237q-24 0 -44 5zM299 406
q-59 0 -74 -71l-1 -5h64q25 0 44 -5l5 5l1 4q7 38 -2.5 55t-36.5 17z" />
    <glyph glyph-name="Edotaccent" unicode="&#x116;" horiz-adv-x="537" 
d="M380 744q-80 0 -80 71q0 117 112 117q81 0 81 -73q0 -115 -113 -115zM508 158q-6 -81 -28 -158h-478l123 700h468q-4 -71 -27 -158h-268l-9 -53q-5 -25 -13 -45l4 -5h228q-5 -73 -28 -158h-229l-13 -73q-7 -33 -13 -45l4 -5h279z" />
    <glyph glyph-name="edotaccent" unicode="&#x117;" horiz-adv-x="521" 
d="M315 566q-80 0 -80 71q0 117 112 117q81 0 81 -73q0 -115 -113 -115zM209 215l-5 -5l-2 -6q-7 -43 14 -60.5t72 -17.5q69 0 139 44q27 -57 16 -119q-82 -61 -209 -61q-118 0 -175 58t-43 141l25 145q15 84 89.5 141t191.5 57q110 0 157 -57t32 -142l-21 -123h-237
q-24 0 -44 5zM299 406q-59 0 -74 -71l-1 -5h64q25 0 44 -5l5 5l1 4q7 38 -2.5 55t-36.5 17z" />
    <glyph glyph-name="Eogonek" unicode="&#x118;" horiz-adv-x="537" 
d="M298 542l-9 -53q-5 -25 -13 -45l4 -5h228q-5 -73 -28 -158h-229l-13 -73q-7 -33 -13 -45l4 -5h279q-6 -81 -28 -158q-37 -28 -53 -45t-16 -35t16.5 -24.5t33.5 -2.5q-3 -53 -18 -104q-104 -21 -152.5 9.5t-39.5 81.5q14 73 105 120h-354l123 700h468q-4 -71 -27 -158
h-268z" />
    <glyph glyph-name="eogonek" unicode="&#x119;" horiz-adv-x="521" 
d="M322 532q110 0 157 -57t32 -142l-21 -123h-237q-24 0 -44 5l-5 -5l-2 -6q-7 -43 14 -60.5t72 -17.5q69 0 139 44q27 -57 16 -119q-38 -27 -91 -44q-54 -38 -64 -84q-4 -19 9.5 -26t38.5 -4q-2 -55 -19 -104q-105 -22 -152.5 6t-37.5 85q13 70 73 111q-102 9 -149.5 65
t-34.5 133l25 145q15 84 89.5 141t191.5 57zM338 334q7 38 -2.5 55t-36.5 17q-59 0 -74 -71l-1 -5h64q25 0 44 -5l5 5z" />
    <glyph glyph-name="Ecaron" unicode="&#x11a;" horiz-adv-x="537" 
d="M595 891l-214 -145l-164 145q43 59 87 96l81 -106q11 -14 9 -41h4q11 29 25 41l118 106q28 -32 54 -96zM125 700h468q-4 -71 -27 -158h-268l-9 -53q-5 -25 -13 -45l4 -5h228q-5 -73 -28 -158h-229l-13 -73q-7 -33 -13 -45l4 -5h279q-6 -81 -28 -158h-478z" />
    <glyph glyph-name="ecaron" unicode="&#x11b;" horiz-adv-x="521" 
d="M530 713l-214 -145l-164 145q43 59 87 96l81 -106q11 -14 9 -41h4q11 29 25 41l118 106q28 -32 54 -96zM322 532q110 0 157 -57t32 -142l-21 -123h-237q-24 0 -44 5l-5 -5l-2 -6q-7 -43 14 -60.5t72 -17.5q69 0 139 44q27 -57 16 -119q-82 -61 -209 -61q-118 0 -175 58
t-43 141l25 145q15 84 89.5 141t191.5 57zM338 334q7 38 -2.5 55t-36.5 17q-59 0 -74 -71l-1 -5h64q25 0 44 -5l5 5z" />
    <glyph glyph-name="Gbreve" unicode="&#x11e;" horiz-adv-x="594" 
d="M388 756q-68 0 -111 42.5t-42 131.5q47 13 96 10q22 -58 79 -58q58 0 100 58q47 3 92 -10q-30 -89 -88.5 -131.5t-125.5 -42.5zM402 341q90 8 179 0l-51 -290q-46 -28 -115 -44.5t-134 -16.5q-129 0 -204.5 63t-54.5 176l43 242q20 114 114 176.5t224 62.5q133 0 211 -61
q-23 -82 -72 -146q-75 49 -152 49q-60 0 -90.5 -29t-40.5 -87l-31 -172q-10 -59 10.5 -87.5t82.5 -28.5q21 0 47 3z" />
    <glyph glyph-name="gbreve" unicode="&#x11f;" horiz-adv-x="568" 
d="M344 578q-68 0 -111 42.5t-42 131.5q47 13 96 10q22 -58 79 -58q58 0 100 58q47 3 92 -10q-30 -89 -88.5 -131.5t-125.5 -42.5zM387 522q98 9 190 0l-96 -542q-12 -70 -60.5 -114.5t-105 -60t-123.5 -15.5q-123 0 -203 55q9 51 53 119q69 -38 148 -38q47 0 72.5 18
t29.5 40l1 4q5 25 13 45l-4 5q-57 -48 -132 -48q-96 0 -133 51.5t-23 136.5l29 166q14 84 70 136t153 52q74 0 114 -49l6 5q-2 13 1 34zM323 154l37 213q-26 28 -54 28q-64 0 -79 -77l-19 -114q-8 -41 7 -59.5t44 -18.5q27 0 64 28z" />
    <glyph glyph-name="Gdotaccent" unicode="&#x120;" horiz-adv-x="594" 
d="M385 744q-80 0 -80 71q0 117 112 117q81 0 81 -73q0 -115 -113 -115zM402 341q90 8 179 0l-51 -290q-46 -28 -115 -44.5t-134 -16.5q-129 0 -204.5 63t-54.5 176l43 242q20 114 114 176.5t224 62.5q133 0 211 -61q-23 -82 -72 -146q-75 49 -152 49q-60 0 -90.5 -29
t-40.5 -87l-31 -172q-10 -59 10.5 -87.5t82.5 -28.5q21 0 47 3z" />
    <glyph glyph-name="gdotaccent" unicode="&#x121;" horiz-adv-x="568" 
d="M341 566q-80 0 -80 71q0 117 112 117q81 0 81 -73q0 -115 -113 -115zM387 522q98 9 190 0l-96 -542q-12 -70 -60.5 -114.5t-105 -60t-123.5 -15.5q-123 0 -203 55q9 51 53 119q69 -38 148 -38q47 0 72.5 18t29.5 40l1 4q5 25 13 45l-4 5q-57 -48 -132 -48
q-96 0 -133 51.5t-23 136.5l29 166q14 84 70 136t153 52q74 0 114 -49l6 5q-2 13 1 34zM323 154l37 213q-26 28 -54 28q-64 0 -79 -77l-19 -114q-8 -41 7 -59.5t44 -18.5q27 0 64 28z" />
    <glyph glyph-name="Gcommaaccent" unicode="&#x122;" horiz-adv-x="594" 
d="M402 341q90 8 179 0l-51 -290q-46 -28 -115 -44.5t-134 -16.5q-129 0 -204.5 63t-54.5 176l43 242q20 114 114 176.5t224 62.5q133 0 211 -61q-23 -82 -72 -146q-75 49 -152 49q-60 0 -90.5 -29t-40.5 -87l-31 -172q-10 -59 10.5 -87.5t82.5 -28.5q21 0 47 3zM110 -256
l108 176q20 -9 55.5 -30t46.5 -31l-136 -162q-48 20 -74 47z" />
    <glyph glyph-name="gcommaaccent" unicode="&#x123;" horiz-adv-x="568" 
d="M449 755l-108 -176q-20 9 -55.5 30t-46.5 31l136 162q48 -20 74 -47zM387 522q98 9 190 0l-96 -542q-12 -70 -60.5 -114.5t-105 -60t-123.5 -15.5q-123 0 -203 55q9 51 53 119q69 -38 148 -38q47 0 72.5 18t29.5 40l1 4q5 25 13 45l-4 5q-57 -48 -132 -48
q-96 0 -133 51.5t-23 136.5l29 166q14 84 70 136t153 52q74 0 114 -49l6 5q-2 13 1 34zM323 154l37 213q-26 28 -54 28q-64 0 -79 -77l-19 -114q-8 -41 7 -59.5t44 -18.5q27 0 64 28z" />
    <glyph glyph-name="Hbar" unicode="&#x126;" horiz-adv-x="692" 
d="M756 624q-3 -68 -23 -137h-47l-86 -487q-102 -8 -201 0l40 230q3 15 13 45l-4 5h-197l-49 -280q-102 -8 -200 0l86 487h-49q3 61 23 137h50l13 76q101 8 201 0l-13 -76h196l13 76q102 8 201 0l-13 -76h46zM477 438l8 49h-196q-5 -23 -13 -44l4 -5h197z" />
    <glyph glyph-name="hbar" unicode="&#x127;" horiz-adv-x="581" 
d="M438 532q153 0 129 -137l-69 -395q-96 -9 -190 0l56 315q7 37 -1 50.5t-34 13.5q-31 0 -71 -22l-63 -357q-98 -9 -190 0l96 548h-48q-1 17 5.5 51t13.5 53h47l8 46q90 42 199 42l-16 -88h94q0 -18 -6 -52.5t-13 -51.5h-94l-3 -19q-6 -30 -13 -45l4 -5q73 53 159 53z" />
    <glyph glyph-name="Imacron" unicode="&#x12a;" horiz-adv-x="295" 
d="M66 900h387q-2 -63 -22 -125h-387q4 70 22 125zM325 700l-123 -700q-102 -8 -200 0l123 700q102 8 200 0z" />
    <glyph glyph-name="imacron" unicode="&#x12b;" horiz-adv-x="265" 
d="M24 722h387q-2 -63 -22 -125h-387q4 70 22 125zM78 490q89 42 197 42l-93 -532q-98 -9 -190 0z" />
    <glyph glyph-name="Iogonek" unicode="&#x12e;" horiz-adv-x="295" 
d="M114 -4q-34 -26 -49 -42.5t-15 -33.5q0 -18 16.5 -24.5t33.5 -2.5q-3 -53 -18 -104q-104 -21 -152.5 9.5t-39.5 81.5q14 77 113 124l122 696q102 8 200 0l-123 -700q-28 -2 -88 -4z" />
    <glyph glyph-name="iogonek" unicode="&#x12f;" horiz-adv-x="270" 
d="M224 754q80 0 80 -73q0 -115 -113 -115q-80 0 -80 71q0 117 113 117zM-10 2l86 488q92 42 198 42l-94 -532q-21 -2 -75 -4q-34 -26 -49 -42.5t-15 -33.5q0 -18 16.5 -24.5t33.5 -2.5q-3 -53 -18 -104q-104 -21 -152.5 9.5t-39.5 81.5q14 74 109 122z" />
    <glyph glyph-name="Idotaccent" unicode="&#x130;" horiz-adv-x="295" 
d="M233 744q-80 0 -80 71q0 117 112 117q81 0 81 -73q0 -115 -113 -115zM325 700l-123 -700q-102 -8 -200 0l123 700q102 8 200 0z" />
    <glyph glyph-name="dotlessi" unicode="&#x131;" horiz-adv-x="265" 
d="M78 490q89 42 197 42l-93 -532q-98 -9 -190 0z" />
    <glyph glyph-name="Kcommaaccent" unicode="&#x136;" horiz-adv-x="683" 
d="M325 700l-123 -700q-102 -8 -200 0l123 700q102 8 200 0zM490 372q20 -5 32 -47l105 -325q-109 -8 -216 0l-124 365l253 335q107 8 212 0l-206 -275q-32 -40 -55 -46l-1 -4v-3zM152 -256l108 176q20 -9 55.5 -30t46.5 -31l-136 -162q-48 20 -74 47z" />
    <glyph glyph-name="kcommaaccent" unicode="&#x137;" horiz-adv-x="576" 
d="M114 698q90 42 198 42l-130 -740q-98 -9 -190 0zM467 240l63 -240q-100 -10 -204 0l-73 280l167 242q102 10 191 0l-120 -182q-28 -39 -56 -47l-1 -6q22 -7 33 -47zM93 -256l108 176q20 -9 55.5 -30t46.5 -31l-136 -162q-48 20 -74 47z" />
    <glyph glyph-name="Lacute" unicode="&#x139;" horiz-adv-x="525" 
d="M178 819l209 188q48 -55 74 -106l-234 -155q-31 32 -49 73zM493 158q-6 -81 -28 -158h-463l123 700q102 8 200 0l-87 -492q-7 -33 -13 -45l4 -5h264z" />
    <glyph glyph-name="lacute" unicode="&#x13a;" horiz-adv-x="265" 
d="M140 817l209 188q48 -55 74 -106l-234 -155q-31 32 -49 73zM114 698q90 42 198 42l-130 -740q-98 -9 -190 0z" />
    <glyph glyph-name="Lcommaaccent" unicode="&#x13b;" horiz-adv-x="525" 
d="M493 158q-6 -81 -28 -158h-463l123 700q102 8 200 0l-87 -492q-7 -33 -13 -45l4 -5h264zM70 -256l108 176q20 -9 55.5 -30t46.5 -31l-136 -162q-48 20 -74 47z" />
    <glyph glyph-name="lcommaaccent" unicode="&#x13c;" horiz-adv-x="265" 
d="M114 698q90 42 198 42l-130 -740q-98 -9 -190 0zM-57 -256l108 176q20 -9 55.5 -30t46.5 -31l-136 -162q-48 20 -74 47z" />
    <glyph glyph-name="Lcaron" unicode="&#x13d;" horiz-adv-x="525" 
d="M493 158q-6 -81 -28 -158h-463l123 700q102 8 200 0l-87 -492q-7 -33 -13 -45l4 -5h264zM381 488l23 212q81 7 163 0l-55 -212q-66 -9 -131 0z" />
    <glyph glyph-name="lcaron" unicode="&#x13e;" horiz-adv-x="447" 
d="M114 698q90 42 198 42l-130 -740q-98 -9 -190 0zM329 488l23 212q81 7 163 0l-55 -212q-65 -9 -131 0z" />
    <glyph glyph-name="Lslash" unicode="&#x141;" horiz-adv-x="602" 
d="M307 158h264q-6 -81 -28 -158h-463l38 215l-72 -38q-32 58 -46 115l145 76l58 332q102 8 200 0l-38 -216l129 68q31 -58 46 -116l-202 -106l-22 -122q-7 -33 -13 -45z" />
    <glyph glyph-name="lslash" unicode="&#x142;" horiz-adv-x="420" 
d="M476 422l-151 -78l-60 -344q-98 -9 -190 0l41 235l-67 -35q-33 59 -46 116l140 73l54 309q90 42 198 42l-43 -242l78 40q28 -51 46 -116z" />
    <glyph glyph-name="Nacute" unicode="&#x143;" horiz-adv-x="703" 
d="M349 819l209 188q48 -55 74 -106l-234 -155q-31 32 -49 73zM545 700q95 9 189 0l-123 -700q-87 -8 -170 0l-189 342l-5 -4q2 -23 -3 -46l-52 -292q-98 -9 -190 0l123 700q85 8 169 0l190 -342l6 4q-2 19 3 46z" />
    <glyph glyph-name="nacute" unicode="&#x144;" horiz-adv-x="568" 
d="M282 641l209 188q48 -55 74 -106l-234 -155q-31 32 -49 73zM425 532q153 0 129 -137l-69 -395q-96 -9 -190 0l56 315q7 37 -1 50.5t-34 13.5q-31 0 -71 -22l-63 -357q-98 -9 -190 0l86 490q90 42 197 42q-5 -30 -13 -48l4 -5q73 53 159 53z" />
    <glyph glyph-name="Ncommaaccent" unicode="&#x145;" horiz-adv-x="703" 
d="M545 700q95 9 189 0l-123 -700q-87 -8 -170 0l-189 342l-5 -4q2 -23 -3 -46l-52 -292q-98 -9 -190 0l123 700q85 8 169 0l190 -342l6 4q-2 19 3 46zM152 -256l108 176q20 -9 55.5 -30t46.5 -31l-136 -162q-48 20 -74 47z" />
    <glyph glyph-name="ncommaaccent" unicode="&#x146;" horiz-adv-x="568" 
d="M425 532q153 0 129 -137l-69 -395q-96 -9 -190 0l56 315q7 37 -1 50.5t-34 13.5q-31 0 -71 -22l-63 -357q-98 -9 -190 0l86 490q90 42 197 42q-5 -30 -13 -48l4 -5q73 53 159 53zM95 -256l108 176q20 -9 55.5 -30t46.5 -31l-136 -162q-48 20 -74 47z" />
    <glyph glyph-name="Ncaron" unicode="&#x147;" horiz-adv-x="703" 
d="M642 891l-214 -145l-164 145q43 59 87 96l81 -106q11 -14 9 -41h4q11 29 25 41l118 106q28 -32 54 -96zM545 700q95 9 189 0l-123 -700q-87 -8 -170 0l-189 342l-5 -4q2 -23 -3 -46l-52 -292q-98 -9 -190 0l123 700q85 8 169 0l190 -342l6 4q-2 19 3 46z" />
    <glyph glyph-name="ncaron" unicode="&#x148;" horiz-adv-x="568" 
d="M575 713l-214 -145l-164 145q43 59 87 96l81 -106q11 -14 9 -41h4q11 29 25 41l118 106q28 -32 54 -96zM425 532q153 0 129 -137l-69 -395q-96 -9 -190 0l56 315q7 37 -1 50.5t-34 13.5q-31 0 -71 -22l-63 -357q-98 -9 -190 0l86 490q90 42 197 42q-5 -30 -13 -48l4 -5
q73 53 159 53z" />
    <glyph glyph-name="Eng" unicode="&#x14a;" horiz-adv-x="703" 
d="M734 700l-125 -709q-17 -104 -82.5 -152.5t-191.5 -48.5q3 69 23 131q28 5 41.5 20t20.5 53l6 34l-174 314l-5 -4q2 -23 -3 -46l-52 -292q-98 -9 -190 0l123 700q85 8 169 0l190 -342l6 4q-2 19 3 46l52 292q95 9 189 0z" />
    <glyph glyph-name="eng" unicode="&#x14b;" horiz-adv-x="568" 
d="M425 532q153 0 129 -137l-70 -404q-17 -103 -83 -152t-192 -49q5 69 23 131q28 5 41.5 20t21.5 53l56 321q7 37 -1 50.5t-34 13.5q-31 0 -71 -22l-63 -357q-98 -9 -190 0l86 490q90 42 197 42q-5 -30 -13 -48l4 -5q73 53 159 53z" />
    <glyph glyph-name="Omacron" unicode="&#x14c;" horiz-adv-x="644" 
d="M240 900h387q-2 -63 -22 -125h-387q4 70 22 125zM401 710q132 0 202 -63.5t51 -175.5l-43 -242q-21 -112 -113 -175.5t-224 -63.5q-133 0 -203 63.5t-49 175.5l43 242q19 112 111.5 175.5t224.5 63.5zM418 265l29 170q10 59 -6.5 88.5t-67.5 28.5t-77.5 -29.5
t-36.5 -87.5l-31 -170q-10 -59 6.5 -88.5t67.5 -28.5q52 1 78.5 29.5t37.5 87.5z" />
    <glyph glyph-name="omacron" unicode="&#x14d;" horiz-adv-x="564" 
d="M169 722h387q-2 -63 -22 -125h-387q4 70 22 125zM330 532q119 0 175.5 -57.5t42.5 -141.5l-24 -144q-14 -83 -91.5 -141t-197.5 -58t-176.5 57.5t-42.5 141.5l24 144q16 84 93.5 141.5t196.5 57.5zM336 204l21 114q7 40 -8 58.5t-43 18.5q-63 0 -77 -77l-21 -114
q-13 -78 51 -78q28 0 49 18.5t28 59.5z" />
    <glyph glyph-name="Ohungarumlaut" unicode="&#x150;" horiz-adv-x="644" 
d="M225 809l180 198q47 -40 76 -95l-206 -166q-33 23 -50 63zM428 809l180 198q47 -40 76 -95l-206 -166q-31 21 -50 63zM401 710q132 0 202 -63.5t51 -175.5l-43 -242q-21 -112 -113 -175.5t-224 -63.5q-133 0 -203 63.5t-49 175.5l43 242q19 112 111.5 175.5t224.5 63.5z
M418 265l29 170q10 59 -6.5 88.5t-67.5 28.5t-77.5 -29.5t-36.5 -87.5l-31 -170q-10 -59 6.5 -88.5t67.5 -28.5q52 1 78.5 29.5t37.5 87.5z" />
    <glyph glyph-name="ohungarumlaut" unicode="&#x151;" horiz-adv-x="564" 
d="M154 631l180 198q47 -40 76 -95l-206 -166q-33 23 -50 63zM357 631l180 198q47 -40 76 -95l-206 -166q-31 21 -50 63zM330 532q119 0 175.5 -57.5t42.5 -141.5l-24 -144q-14 -83 -91.5 -141t-197.5 -58t-176.5 57.5t-42.5 141.5l24 144q16 84 93.5 141.5t196.5 57.5z
M336 204l21 114q7 40 -8 58.5t-43 18.5q-63 0 -77 -77l-21 -114q-13 -78 51 -78q28 0 49 18.5t28 59.5z" />
    <glyph glyph-name="OE" unicode="&#x152;" horiz-adv-x="919" 
d="M679 542l-9 -53q-6 -30 -13 -45l4 -5h228q-5 -69 -27 -158h-228l-13 -73q-5 -25 -13 -45l4 -5h278q-5 -73 -28 -158h-479h-107q-132 0 -201.5 63.5t-50.5 175.5l19 111l20 111q19 112 111.5 175.5t225.5 63.5h307h269q-8 -83 -29 -158h-268zM304 158h107l68 384h-108
q-51 -1 -77 -29.5t-37 -87.5l-26 -150q-11 -59 5.5 -87.5t67.5 -29.5z" />
    <glyph glyph-name="oe" unicode="&#x153;" horiz-adv-x="845" 
d="M645 532q110 0 157 -57t32 -142l-21 -123h-237q-24 0 -44 5l-4 -4l-4 -22q0 -1 -0.5 -2.5t-0.5 -2.5q0 -58 88 -58q69 0 139 44q27 -57 16 -119q-82 -61 -209 -61q-95 0 -153 40q-72 -40 -169 -40q-120 0 -176.5 57.5t-42.5 141.5l24 144q16 84 93.5 141.5t196.5 57.5
q94 0 152 -39q72 39 163 39zM661 334q7 38 -2.5 55t-36.5 17q-57 0 -73 -67q0 -1 -0.5 -3t-0.5 -3v-3h63q25 0 44 -5l5 5zM259 126q28 0 49 18.5t28 59.5l21 114q7 40 -8 58.5t-43 18.5q-63 0 -77 -77l-21 -114q-13 -78 51 -78z" />
    <glyph glyph-name="Racute" unicode="&#x154;" horiz-adv-x="633" 
d="M326 819l209 188q48 -55 74 -106l-234 -155q-31 32 -49 73zM461 281q49 -13 66 -56t53 -225q-102 -7 -200 0q-24 114 -41 161t-35 60.5t-58 13.5h-3l-41 -235q-102 -8 -200 0l123 700h274q126 0 185 -53t45 -136l-15 -86q-10 -56 -50.5 -93.5t-101.5 -45.5zM272 393h62
q37 0 59 16t26 41l6 36q4 24 -12 40t-53 16h-62l-17 -99q-5 -25 -13 -45z" />
    <glyph glyph-name="racute" unicode="&#x155;" horiz-adv-x="397" 
d="M170 641l209 188q48 -55 74 -106l-234 -155q-31 32 -49 73zM255 443q61 101 188 78q-17 -97 -64 -174q-82 16 -142 -36l-55 -311q-98 -9 -190 0l86 490q90 42 197 42q-9 -53 -24 -84z" />
    <glyph glyph-name="Rcommaaccent" unicode="&#x156;" horiz-adv-x="633" 
d="M461 281q49 -13 66 -56t53 -225q-102 -7 -200 0q-24 114 -41 161t-35 60.5t-58 13.5h-3l-41 -235q-102 -8 -200 0l123 700h274q126 0 185 -53t45 -136l-15 -86q-10 -56 -50.5 -93.5t-101.5 -45.5zM272 393h62q37 0 59 16t26 41l6 36q4 24 -12 40t-53 16h-62l-17 -99
q-5 -25 -13 -45zM129 -256l108 176q20 -9 55.5 -30t46.5 -31l-136 -162q-48 20 -74 47z" />
    <glyph glyph-name="rcommaaccent" unicode="&#x157;" horiz-adv-x="397" 
d="M255 443q61 101 188 78q-17 -97 -64 -174q-82 16 -142 -36l-55 -311q-98 -9 -190 0l86 490q90 42 197 42q-9 -53 -24 -84zM-67 -256l108 176q20 -9 55.5 -30t46.5 -31l-136 -162q-48 20 -74 47z" />
    <glyph glyph-name="Rcaron" unicode="&#x158;" horiz-adv-x="633" 
d="M619 891l-214 -145l-164 145q43 59 87 96l81 -106q11 -14 9 -41h4q11 29 25 41l118 106q28 -32 54 -96zM399 700q126 0 185 -53t45 -136l-15 -86q-10 -56 -50.5 -93.5t-101.5 -45.5l-1 -5q49 -13 66 -56t53 -225q-102 -7 -200 0q-24 114 -41 161t-35 60.5t-58 13.5h-3
l-41 -235q-102 -8 -200 0l123 700h274zM425 486q4 24 -12 40t-53 16h-62l-17 -99q-5 -25 -13 -45l4 -5h62q37 0 59 16t26 41z" />
    <glyph glyph-name="rcaron" unicode="&#x159;" horiz-adv-x="397" 
d="M463 713l-214 -145l-164 145q43 59 87 96l81 -106q11 -14 9 -41h4q11 29 25 41l118 106q28 -32 54 -96zM255 443q61 101 188 78q-17 -97 -64 -174q-82 16 -142 -36l-55 -311q-98 -9 -190 0l86 490q90 42 197 42q-9 -53 -24 -84z" />
    <glyph glyph-name="Sacute" unicode="&#x15a;" horiz-adv-x="586" 
d="M300 819l209 188q48 -55 74 -106l-234 -155q-31 32 -49 73zM279 507q0 -22 28 -39t67.5 -32t79.5 -35.5t68 -61t28 -96.5q0 -115 -83 -184t-242 -69q-136 0 -233 66q23 89 73 152q88 -60 180 -60q46 0 73 14t27 35q0 17 -20 31t-50.5 24t-65.5 27t-65.5 37.5t-50.5 57.5
t-20 85q0 111 78 181t235 70q134 0 210 -61q-21 -80 -73 -146q-80 54 -151 54q-42 0 -67.5 -13t-25.5 -37z" />
    <glyph glyph-name="sacute" unicode="&#x15b;" horiz-adv-x="468" 
d="M214 641l209 188q48 -55 74 -106l-234 -155q-31 32 -49 73zM166 -10q-130 0 -183 49q11 62 59 119q59 -37 128 -37q74 0 74 28q0 12 -21 21.5t-50.5 20t-59 26t-50.5 45.5t-21 71q0 87 68.5 143t193.5 56q108 0 175 -50q-11 -61 -59 -120q-60 39 -123 39q-65 0 -65 -26
q0 -12 21.5 -22t52 -21t60.5 -26.5t51.5 -46.5t21.5 -74q0 -91 -70.5 -143t-202.5 -52z" />
    <glyph glyph-name="Scedilla" unicode="&#x15e;" horiz-adv-x="586" 
d="M279 507q0 -22 28 -39t67.5 -32t79.5 -35.5t68 -61t28 -96.5q0 -101 -65.5 -167.5t-191.5 -81.5l-24 -30q45 -5 70 -30.5t18 -66.5q-10 -56 -65.5 -78t-155.5 0q1 35 12 72q28 -4 50.5 4.5t22.5 33.5t-55 38l35 54q-120 4 -209 65q23 89 73 152q88 -60 180 -60
q46 0 73 14t27 35q0 17 -20 31t-50.5 24t-65.5 27t-65.5 37.5t-50.5 57.5t-20 85q0 111 78 181t235 70q134 0 210 -61q-21 -80 -73 -146q-80 54 -151 54q-42 0 -67.5 -13t-25.5 -37z" />
    <glyph glyph-name="scedilla" unicode="&#x15f;" horiz-adv-x="468" 
d="M232 375q0 -12 21.5 -22t52 -21t60.5 -26.5t51.5 -46.5t21.5 -74q0 -77 -51 -127t-148 -63l-25 -31q45 -5 70 -30.5t18 -66.5q-10 -56 -65.5 -78t-155.5 0q1 35 12 72q28 -4 50.5 4.5t22.5 33.5t-55 38l34 53q-117 6 -163 49q11 62 59 119q59 -37 128 -37q74 0 74 28
q0 12 -21 21.5t-50.5 20t-59 26t-50.5 45.5t-21 71q0 87 68.5 143t193.5 56q108 0 175 -50q-11 -61 -59 -120q-60 39 -123 39q-65 0 -65 -26z" />
    <glyph glyph-name="Scaron" unicode="&#x160;" horiz-adv-x="586" 
d="M593 891l-214 -145l-164 145q43 59 87 96l81 -106q11 -14 9 -41h4q11 29 25 41l118 106q28 -32 54 -96zM279 507q0 -22 28 -39t67.5 -32t79.5 -35.5t68 -61t28 -96.5q0 -115 -83 -184t-242 -69q-136 0 -233 66q23 89 73 152q88 -60 180 -60q46 0 73 14t27 35q0 17 -20 31
t-50.5 24t-65.5 27t-65.5 37.5t-50.5 57.5t-20 85q0 111 78 181t235 70q134 0 210 -61q-21 -80 -73 -146q-80 54 -151 54q-42 0 -67.5 -13t-25.5 -37z" />
    <glyph glyph-name="scaron" unicode="&#x161;" horiz-adv-x="468" 
d="M507 713l-214 -145l-164 145q43 59 87 96l81 -106q11 -14 9 -41h4q11 29 25 41l118 106q28 -32 54 -96zM297 401q-65 0 -65 -26q0 -12 21.5 -22t52 -21t60.5 -26.5t51.5 -46.5t21.5 -74q0 -91 -70.5 -143t-202.5 -52q-130 0 -183 49q11 62 59 119q59 -37 128 -37
q74 0 74 28q0 12 -21 21.5t-50.5 20t-59 26t-50.5 45.5t-21 71q0 87 68.5 143t193.5 56q108 0 175 -50q-11 -61 -59 -120q-60 39 -123 39z" />
    <glyph glyph-name="uni0162" unicode="&#x162;" horiz-adv-x="599" 
d="M662 700q-6 -81 -28 -158h-185l-95 -542l-51 -3l-27 -33q45 -5 70 -30.5t18 -66.5q-10 -56 -65.5 -78t-155.5 0q1 35 12 72q28 -4 50.5 4.5t22.5 33.5t-55 38l39 60q-2 0 -59 3l87 492q6 30 13 45l-4 5h-186q8 81 28 158h571z" />
    <glyph glyph-name="uni0163" unicode="&#x163;" horiz-adv-x="435" 
d="M287 374l-31 -178q-12 -59 32 -59q22 0 73 28q28 -54 14 -130q-54 -35 -122 -43l-22 -28q45 -5 70 -30.5t18 -66.5q-10 -56 -65.5 -78t-155.5 0q1 35 12 72q28 -4 50.5 4.5t22.5 33.5t-55 38l38 58q-65 14 -91 60.5t-14 114.5l27 154q6 30 13 45l-4 5h-65q6 79 27 148h64
l16 88q86 42 198 42l-15 -80q-5 -25 -13 -45l4 -5h132q-6 -69 -26 -148h-132z" />
    <glyph glyph-name="Tcaron" unicode="&#x164;" horiz-adv-x="599" 
d="M599 891l-214 -145l-164 145q43 59 87 96l81 -106q11 -14 9 -41h4q11 29 25 41l118 106q28 -32 54 -96zM662 700q-6 -81 -28 -158h-185l-95 -542q-103 -8 -201 0l87 492q6 30 13 45l-4 5h-186q8 81 28 158h571z" />
    <glyph glyph-name="tcaron" unicode="&#x165;" horiz-adv-x="454" 
d="M352 583l23 212q81 7 163 0l-55 -212q-65 -9 -131 0zM361 165q28 -54 14 -130q-68 -45 -155 -45q-93 0 -133.5 49t-25.5 131l27 154q6 30 13 45l-4 5h-65q6 79 27 148h64l16 88q86 42 198 42l-15 -80q-5 -25 -13 -45l4 -5h132q-6 -69 -26 -148h-132l-31 -178
q-12 -59 32 -59q22 0 73 28z" />
    <glyph glyph-name="Tbar" unicode="&#x166;" horiz-adv-x="599" 
d="M634 542h-185l-22 -128h96q-3 -61 -23 -137h-97l-49 -277q-103 -8 -201 0l49 277h-90q5 68 23 137h91l14 78q6 30 13 45l-4 5h-186q8 81 28 158h385h186q-6 -81 -28 -158z" />
    <glyph glyph-name="tbar" unicode="&#x167;" horiz-adv-x="435" 
d="M419 374h-132l-4 -23h132q-3 -61 -23 -137h-133l-3 -18q-12 -59 32 -59q22 0 73 28q28 -54 14 -130q-68 -45 -155 -45q-93 0 -133.5 49t-25.5 131l8 44h-63q5 70 24 137h64q4 12 7 18l-4 5h-65q6 79 27 148h64l16 88q86 42 198 42l-15 -80q-5 -25 -13 -45l4 -5h132
q-6 -69 -26 -148z" />
    <glyph glyph-name="Umacron" unicode="&#x16a;" horiz-adv-x="693" 
d="M264 900h387q-2 -63 -22 -125h-387q4 70 22 125zM523 700q101 8 201 0l-81 -461q-21 -115 -107 -182t-238 -67t-214 67t-41 182l82 461q100 8 199 0l-76 -435q-12 -64 7.5 -91t70.5 -26q52 1 80.5 27t39.5 90z" />
    <glyph glyph-name="umacron" unicode="&#x16b;" horiz-adv-x="563" 
d="M177 722h387q-2 -63 -22 -125h-387q4 70 22 125zM377 490q90 42 197 42l-93 -532q-98 -9 -190 0q1 14 10 33l-4 5q-70 -52 -155 -52q-153 0 -129 137l65 367q90 42 198 42l-58 -330q-7 -38 1 -51t33 -13q26 0 67 22z" />
    <glyph glyph-name="Uring" unicode="&#x16e;" horiz-adv-x="693" 
d="M430 739q-102 0 -102 89q0 63 37.5 99t103.5 36q48 0 74 -23.5t26 -67.5q0 -63 -36.5 -98t-102.5 -35zM443 817q40 0 40 41q0 28 -28 28q-40 0 -40 -43q0 -26 28 -26zM523 700q101 8 201 0l-81 -461q-21 -115 -107 -182t-238 -67t-214 67t-41 182l82 461q100 8 199 0
l-76 -435q-12 -64 7.5 -91t70.5 -26q52 1 80.5 27t39.5 90z" />
    <glyph glyph-name="uring" unicode="&#x16f;" horiz-adv-x="563" 
d="M343 561q-102 0 -102 89q0 63 37.5 99t103.5 36q48 0 74 -23.5t26 -67.5q0 -63 -36.5 -98t-102.5 -35zM356 639q40 0 40 41q0 28 -28 28q-40 0 -40 -43q0 -26 28 -26zM377 490q90 42 197 42l-93 -532q-98 -9 -190 0q1 14 10 33l-4 5q-70 -52 -155 -52q-153 0 -129 137
l65 367q90 42 198 42l-58 -330q-7 -38 1 -51t33 -13q26 0 67 22z" />
    <glyph glyph-name="Uhungarumlaut" unicode="&#x170;" horiz-adv-x="693" 
d="M249 809l180 198q47 -40 76 -95l-206 -166q-33 23 -50 63zM452 809l180 198q47 -40 76 -95l-206 -166q-31 21 -50 63zM523 700q101 8 201 0l-81 -461q-21 -115 -107 -182t-238 -67t-214 67t-41 182l82 461q100 8 199 0l-76 -435q-12 -64 7.5 -91t70.5 -26q52 1 80.5 27
t39.5 90z" />
    <glyph glyph-name="uhungarumlaut" unicode="&#x171;" horiz-adv-x="563" 
d="M162 631l180 198q47 -40 76 -95l-206 -166q-33 23 -50 63zM365 631l180 198q47 -40 76 -95l-206 -166q-31 21 -50 63zM377 490q90 42 197 42l-93 -532q-98 -9 -190 0q1 14 10 33l-4 5q-70 -52 -155 -52q-153 0 -129 137l65 367q90 42 198 42l-58 -330q-7 -38 1 -51
t33 -13q26 0 67 22z" />
    <glyph glyph-name="Uogonek" unicode="&#x172;" horiz-adv-x="693" 
d="M523 700q101 8 201 0l-81 -461q-17 -93 -77 -155.5t-163 -83.5q-37 -28 -53 -45t-16 -35t16.5 -24.5t33.5 -2.5q-3 -53 -18 -104q-104 -21 -152.5 9.5t-39.5 81.5q13 67 88 111q-132 8 -185 74t-34 174l82 461q100 8 199 0l-76 -435q-12 -64 7.5 -91t70.5 -26
q52 1 80.5 27t39.5 90z" />
    <glyph glyph-name="uogonek" unicode="&#x173;" horiz-adv-x="563" 
d="M414 -211q-96 -20 -144 3t-48 73q0 83 99 139q-12 22 -24 34q-70 -52 -155 -52q-153 0 -129 137l65 367q90 42 198 42l-58 -330q-7 -38 1 -51t33 -13q26 0 67 22l58 330q90 42 197 42l-93 -532q-45 -6 -72 -30t-27 -52q0 -31 51 -25q-1 -50 -19 -104z" />
    <glyph glyph-name="Wcircumflex" unicode="&#x174;" horiz-adv-x="927" 
d="M524 852l-118 -106q-28 32 -54 96l214 145l164 -145q-43 -59 -87 -96l-81 106q-11 14 -9 41h-4q-11 -29 -25 -41zM791 700q104 7 204 0l-285 -700q-104 -7 -206 0l-22 266q-4 55 0 86h-4q-10 -38 -30 -86l-116 -266q-103 -8 -204 0l-40 700q104 7 204 0l1 -322
q0 -74 -3 -103h5q11 53 33 103l107 253q50 5 96 5q43 0 93 -5l17 -253q4 -49 -2 -103h5q6 27 33 103z" />
    <glyph glyph-name="wcircumflex" unicode="&#x175;" horiz-adv-x="847" 
d="M452 674l-118 -106q-28 32 -54 96l214 145l164 -145q-43 -59 -87 -96l-81 106q-11 14 -9 41h-4q-11 -29 -25 -41zM694 522q102 7 201 0l-257 -522q-98 -7 -192 0l-10 221q-5 64 -3 81h-4q-4 -17 -16.5 -46.5t-14.5 -34.5l-87 -221q-99 -7 -194 0l-72 522q102 7 200 0
l14 -220q3 -50 -2 -82h5q13 50 28 82l82 200q60 6 95 6q37 0 93 -6l12 -200q3 -49 -2 -82h5q12 45 28 82z" />
    <glyph glyph-name="Ycircumflex" unicode="&#x176;" horiz-adv-x="668" 
d="M394 852l-118 -106q-28 32 -54 96l214 145l164 -145q-43 -59 -87 -96l-81 106q-11 14 -9 41h-4q-11 -29 -25 -41zM527 700q106 8 209 0l-291 -444l-44 -256q-102 -10 -201 0l44 255l-156 445q113 8 221 0l64 -223q5 -15 -2 -82h5q11 53 28 82z" />
    <glyph glyph-name="ycircumflex" unicode="&#x177;" horiz-adv-x="573" 
d="M316 674l-118 -106q-28 32 -54 96l214 145l164 -145q-43 -59 -87 -96l-81 106q-11 14 -9 41h-4q-11 -29 -25 -41zM427 522q99 7 193 0l-260 -501q-60 -116 -147 -174t-229 -57q3 63 23 131q58 4 93.5 24.5t56.5 65.5l-107 511q105 7 205 0l30 -241q5 -38 -1 -82h5
q10 44 27 82z" />
    <glyph glyph-name="Ydieresis" unicode="&#x178;" horiz-adv-x="668" 
d="M273 744q-80 0 -80 71q0 117 112 117q81 0 81 -73q0 -115 -113 -115zM543 744q-80 0 -80 71q0 117 112 117q81 0 81 -73q0 -115 -113 -115zM736 700l-291 -444l-44 -256q-102 -10 -201 0l44 255l-156 445q113 8 221 0l64 -223q5 -15 -2 -82h5q11 53 28 82l123 223
q106 8 209 0z" />
    <glyph glyph-name="Zacute" unicode="&#x179;" horiz-adv-x="592" 
d="M314 819l209 188q48 -55 74 -106l-234 -155q-31 32 -49 73zM562 158q-4 -73 -27 -158h-558q1 47 18 105l308 387q18 23 53 45l-1 5h-263q7 84 28 158h527q0 -51 -17 -105l-307 -387q-23 -28 -55 -45l1 -5h293z" />
    <glyph glyph-name="zacute" unicode="&#x17a;" horiz-adv-x="488" 
d="M508 723l-234 -155q-31 32 -49 73l209 188q48 -55 74 -106zM273 178q-18 -20 -32 -26l1 -5h208q-8 -82 -27 -147h-467q2 52 18 105l225 239q18 20 32 25l-1 5h-188q4 70 26 148h448q-2 -56 -19 -105z" />
    <glyph glyph-name="Zdotaccent" unicode="&#x17b;" horiz-adv-x="592" 
d="M392 744q-80 0 -80 71q0 117 112 117q81 0 81 -73q0 -115 -113 -115zM562 158q-4 -73 -27 -158h-558q1 47 18 105l308 387q18 23 53 45l-1 5h-263q7 84 28 158h527q0 -51 -17 -105l-307 -387q-23 -28 -55 -45l1 -5h293z" />
    <glyph glyph-name="zdotaccent" unicode="&#x17c;" horiz-adv-x="488" 
d="M303 566q-80 0 -80 71q0 117 112 117q81 0 81 -73q0 -115 -113 -115zM273 178q-18 -20 -32 -26l1 -5h208q-8 -82 -27 -147h-467q2 52 18 105l225 239q18 20 32 25l-1 5h-188q4 70 26 148h448q-2 -56 -19 -105z" />
    <glyph glyph-name="Zcaron" unicode="&#x17d;" horiz-adv-x="592" 
d="M607 891l-214 -145l-164 145q43 59 87 96l81 -106q11 -14 9 -41h4q11 29 25 41l118 106q28 -32 54 -96zM323 208q-23 -28 -55 -45l1 -5h293q-4 -73 -27 -158h-558q1 47 18 105l308 387q18 23 53 45l-1 5h-263q7 84 28 158h527q0 -51 -17 -105z" />
    <glyph glyph-name="zcaron" unicode="&#x17e;" horiz-adv-x="488" 
d="M518 713l-214 -145l-164 145q43 59 87 96l81 -106q11 -14 9 -41h4q11 29 25 41l118 106q28 -32 54 -96zM42 374q4 70 26 148h448q-2 -56 -19 -105l-224 -239q-18 -20 -32 -26l1 -5h208q-8 -82 -27 -147h-467q2 52 18 105l225 239q18 20 32 25l-1 5h-188z" />
    <glyph glyph-name="uni01CE" unicode="&#x1ce;" horiz-adv-x="526" 
d="M535 713l-214 -145l-164 145q43 59 87 96l81 -106q11 -14 9 -41h4q11 29 25 41l118 106q28 -32 54 -96zM318 532q47 0 82.5 -8t64 -27t39 -55.5t1.5 -89.5l-61 -352q-97 -7 -190 0q4 19 11 33l-5 5q-59 -48 -131 -48q-68 0 -105.5 39t-26.5 109l4 26q11 70 63.5 109
t124.5 39q74 0 112 -43l6 5q-3 21 2 45l3 18q2 14 2 27t-16 22t-49 9q-67 0 -148 -38q-21 62 -12 119q104 56 229 56zM276 133l7 36q-23 27 -51 27q-19 0 -32.5 -12.5t-15.5 -24.5l-2 -16q-1 -13 6.5 -25.5t26.5 -12.5q29 0 61 28z" />
    <glyph glyph-name="Scommaaccent" unicode="&#x218;" horiz-adv-x="586" 
d="M279 507q0 -22 28 -39t67.5 -32t79.5 -35.5t68 -61t28 -96.5q0 -115 -83 -184t-242 -69q-136 0 -233 66q23 89 73 152q88 -60 180 -60q46 0 73 14t27 35q0 17 -20 31t-50.5 24t-65.5 27t-65.5 37.5t-50.5 57.5t-20 85q0 111 78 181t235 70q134 0 210 -61
q-21 -80 -73 -146q-80 54 -151 54q-42 0 -67.5 -13t-25.5 -37zM102 -256l108 176q20 -9 55.5 -30t46.5 -31l-136 -162q-48 20 -74 47z" />
    <glyph glyph-name="scommaaccent" unicode="&#x219;" horiz-adv-x="468" 
d="M166 -10q-130 0 -183 49q11 62 59 119q59 -37 128 -37q74 0 74 28q0 12 -21 21.5t-50.5 20t-59 26t-50.5 45.5t-21 71q0 87 68.5 143t193.5 56q108 0 175 -50q-11 -61 -59 -120q-60 39 -123 39q-65 0 -65 -26q0 -12 21.5 -22t52 -21t60.5 -26.5t51.5 -46.5t21.5 -74
q0 -91 -70.5 -143t-202.5 -52zM48 -256l108 176q20 -9 55.5 -30t46.5 -31l-136 -162q-48 20 -74 47z" />
    <glyph glyph-name="uni021A" unicode="&#x21a;" horiz-adv-x="599" 
d="M662 700q-6 -81 -28 -158h-185l-95 -542q-103 -8 -201 0l87 492q6 30 13 45l-4 5h-186q8 81 28 158h385h186zM109 -256l108 176q20 -9 55.5 -30t46.5 -31l-136 -162q-48 20 -74 47z" />
    <glyph glyph-name="uni021B" unicode="&#x21b;" horiz-adv-x="435" 
d="M361 165q28 -54 14 -130q-68 -45 -155 -45q-93 0 -133.5 49t-25.5 131l27 154q6 30 13 45l-4 5h-65q6 79 27 148h64l16 88q86 42 198 42l-15 -80q-5 -25 -13 -45l4 -5h132q-6 -69 -26 -148h-132l-31 -178q-12 -59 32 -59q22 0 73 28zM64 -256l108 176q20 -9 55.5 -30
t46.5 -31l-136 -162q-48 20 -74 47z" />
    <glyph glyph-name="circumflex" unicode="&#x2c6;" horiz-adv-x="480" 
d="M113 809l164 -145q-43 -59 -87 -96l-81 106q-11 14 -9 41h-4q-11 -29 -25 -41l-118 -106q-28 32 -54 96z" />
    <glyph glyph-name="caron" unicode="&#x2c7;" horiz-adv-x="480" 
d="M375 809q28 -32 54 -96l-214 -145l-164 145q43 59 87 96l81 -106q11 -14 9 -41h4q11 29 25 41z" />
    <glyph glyph-name="breve" unicode="&#x2d8;" horiz-adv-x="449" 
d="M317 762q47 3 92 -10q-30 -89 -88.5 -131.5t-125.5 -42.5q-68 0 -111 42.5t-42 131.5q47 13 96 10q22 -58 79 -58q58 0 100 58z" />
    <glyph glyph-name="dotaccent" unicode="&#x2d9;" horiz-adv-x="270" 
d="M119 566q-80 0 -80 71q0 117 112 117q81 0 81 -73q0 -115 -113 -115z" />
    <glyph glyph-name="ring" unicode="&#x2da;" horiz-adv-x="323" 
d="M143 561q-102 0 -102 89q0 63 37.5 99t103.5 36q48 0 74 -23.5t26 -67.5q0 -63 -36.5 -98t-102.5 -35zM156 639q40 0 40 41q0 28 -28 28q-40 0 -40 -43q0 -26 28 -26z" />
    <glyph glyph-name="ogonek" unicode="&#x2db;" horiz-adv-x="627" 
d="M334 10l103 -10q-37 -28 -53 -45t-16 -35t16.5 -24.5t33.5 -2.5q-3 -53 -18 -104q-104 -21 -152.5 9.5t-39.5 81.5q15 81 126 130z" />
    <glyph glyph-name="tilde" unicode="&#x2dc;" horiz-adv-x="449" 
d="M301 739q102 0 126 -110q-45 -34 -90 -49q-20 37 -46 37q-16 0 -63 -18.5t-77 -18.5q-85 0 -129 110q41 31 89 48q21 -36 48 -36q18 0 62.5 18.5t79.5 18.5z" />
    <glyph glyph-name="hungarumlaut" unicode="&#x2dd;" horiz-adv-x="588" 
d="M66 631l180 198q47 -40 76 -95l-206 -166q-33 23 -50 63zM269 631l180 198q47 -40 76 -95l-206 -166q-31 21 -50 63z" />
    <glyph glyph-name="gravecomb" unicode="&#x300;" 
 />
    <glyph glyph-name="acutecomb" unicode="&#x301;" 
 />
    <glyph glyph-name="uni0302" unicode="&#x302;" 
 />
    <glyph glyph-name="tildecomb" unicode="&#x303;" 
 />
    <glyph glyph-name="uni0304" unicode="&#x304;" 
 />
    <glyph glyph-name="uni0306" unicode="&#x306;" 
 />
    <glyph glyph-name="uni0307" unicode="&#x307;" 
 />
    <glyph glyph-name="uni0308" unicode="&#x308;" 
 />
    <glyph glyph-name="uni030A" unicode="&#x30a;" 
 />
    <glyph glyph-name="uni030B" unicode="&#x30b;" 
 />
    <glyph glyph-name="uni030C" unicode="&#x30c;" 
 />
    <glyph glyph-name="uni0312" unicode="&#x312;" 
 />
    <glyph glyph-name="uni0326" unicode="&#x326;" 
d="M-271 -256l108 176q20 -9 55.5 -30t46.5 -31l-136 -162q-48 20 -74 47z" />
    <glyph glyph-name="uni0327" unicode="&#x327;" 
 />
    <glyph glyph-name="uni0328" unicode="&#x328;" 
 />
    <glyph glyph-name="uni0335" unicode="&#x335;" 
 />
    <glyph glyph-name="uni0336" unicode="&#x336;" 
 />
    <glyph glyph-name="uni0337" unicode="&#x337;" 
 />
    <glyph glyph-name="uni0338" unicode="&#x338;" 
 />
    <glyph glyph-name="Wgrave" unicode="&#x1e80;" horiz-adv-x="927" 
d="M689 819q-18 -41 -49 -73l-234 155q26 51 74 106zM791 700q104 7 204 0l-285 -700q-104 -7 -206 0l-22 266q-4 55 0 86h-4q-10 -38 -30 -86l-116 -266q-103 -8 -204 0l-40 700q104 7 204 0l1 -322q0 -74 -3 -103h5q11 53 33 103l107 253q50 5 96 5q43 0 93 -5l17 -253
q4 -49 -2 -103h5q6 27 33 103z" />
    <glyph glyph-name="wgrave" unicode="&#x1e81;" horiz-adv-x="847" 
d="M617 641q-18 -41 -49 -73l-234 155q26 51 74 106zM694 522q102 7 201 0l-257 -522q-98 -7 -192 0l-10 221q-5 64 -3 81h-4q-4 -17 -16.5 -46.5t-14.5 -34.5l-87 -221q-99 -7 -194 0l-72 522q102 7 200 0l14 -220q3 -50 -2 -82h5q13 50 28 82l82 200q60 6 95 6q37 0 93 -6
l12 -200q3 -49 -2 -82h5q12 45 28 82z" />
    <glyph glyph-name="Wacute" unicode="&#x1e82;" horiz-adv-x="927" 
d="M472 819l209 188q48 -55 74 -106l-234 -155q-31 32 -49 73zM791 700q104 7 204 0l-285 -700q-104 -7 -206 0l-22 266q-4 55 0 86h-4q-10 -38 -30 -86l-116 -266q-103 -8 -204 0l-40 700q104 7 204 0l1 -322q0 -74 -3 -103h5q11 53 33 103l107 253q50 5 96 5q43 0 93 -5
l17 -253q4 -49 -2 -103h5q6 27 33 103z" />
    <glyph glyph-name="wacute" unicode="&#x1e83;" horiz-adv-x="847" 
d="M400 641l209 188q48 -55 74 -106l-234 -155q-31 32 -49 73zM694 522q102 7 201 0l-257 -522q-98 -7 -192 0l-10 221q-5 64 -3 81h-4q-4 -17 -16.5 -46.5t-14.5 -34.5l-87 -221q-99 -7 -194 0l-72 522q102 7 200 0l14 -220q3 -50 -2 -82h5q13 50 28 82l82 200q60 6 95 6
q37 0 93 -6l12 -200q3 -49 -2 -82h5q12 45 28 82z" />
    <glyph glyph-name="Wdieresis" unicode="&#x1e84;" horiz-adv-x="927" 
d="M403 744q-80 0 -80 71q0 117 112 117q81 0 81 -73q0 -115 -113 -115zM673 744q-80 0 -80 71q0 117 112 117q81 0 81 -73q0 -115 -113 -115zM791 700q104 7 204 0l-285 -700q-104 -7 -206 0l-22 266q-4 55 0 86h-4q-10 -38 -30 -86l-116 -266q-103 -8 -204 0l-40 700
q104 7 204 0l1 -322q0 -74 -3 -103h5q11 53 33 103l107 253q50 5 96 5q43 0 93 -5l17 -253q4 -49 -2 -103h5q6 27 33 103z" />
    <glyph glyph-name="wdieresis" unicode="&#x1e85;" horiz-adv-x="847" 
d="M331 566q-80 0 -80 71q0 117 112 117q81 0 81 -73q0 -115 -113 -115zM601 566q-80 0 -80 71q0 117 112 117q81 0 81 -73q0 -115 -113 -115zM694 522q102 7 201 0l-257 -522q-98 -7 -192 0l-10 221q-5 64 -3 81h-4q-4 -17 -16.5 -46.5t-14.5 -34.5l-87 -221q-99 -7 -194 0
l-72 522q102 7 200 0l14 -220q3 -50 -2 -82h5q13 50 28 82l82 200q60 6 95 6q37 0 93 -6l12 -200q3 -49 -2 -82h5q12 45 28 82z" />
    <glyph glyph-name="Ygrave" unicode="&#x1ef2;" horiz-adv-x="668" 
d="M559 819q-18 -41 -49 -73l-234 155q26 51 74 106zM736 700l-291 -444l-44 -256q-102 -10 -201 0l44 255l-156 445q113 8 221 0l64 -223q5 -15 -2 -82h5q11 53 28 82l123 223q106 8 209 0z" />
    <glyph glyph-name="ygrave" unicode="&#x1ef3;" horiz-adv-x="573" 
d="M481 641q-18 -41 -49 -73l-234 155q26 51 74 106zM427 522q99 7 193 0l-260 -501q-60 -116 -147 -174t-229 -57q3 63 23 131q58 4 93.5 24.5t56.5 65.5l-107 511q105 7 205 0l30 -241q5 -38 -1 -82h5q10 44 27 82z" />
    <glyph glyph-name="endash" unicode="&#x2013;" horiz-adv-x="578" 
d="M603 372q-3 -61 -23 -137h-590q3 61 23 137h590z" />
    <glyph glyph-name="emdash" unicode="&#x2014;" horiz-adv-x="777" 
d="M802 372q-3 -61 -23 -137h-789q3 61 23 137h789z" />
    <glyph glyph-name="quoteleft" unicode="&#x2018;" horiz-adv-x="263" 
d="M354 779l-144 -235q-70 33 -110 67l181 216q43 -18 73 -48z" />
    <glyph glyph-name="quoteright" unicode="&#x2019;" horiz-adv-x="263" 
d="M60 592l144 235q70 -33 110 -67l-181 -216q-43 18 -73 48z" />
    <glyph glyph-name="quotesinglbase" unicode="&#x201a;" horiz-adv-x="264" 
d="M-59 -80l144 235q70 -33 110 -67l-181 -216q-43 18 -73 48z" />
    <glyph glyph-name="quotedblleft" unicode="&#x201c;" horiz-adv-x="457" 
d="M354 779l-144 -235q-70 33 -110 67l181 216q43 -18 73 -48zM548 779l-144 -235q-70 33 -110 67l181 216q43 -18 73 -48z" />
    <glyph glyph-name="quotedblright" unicode="&#x201d;" horiz-adv-x="457" 
d="M60 592l144 235q70 -33 110 -67l-181 -216q-43 18 -73 48zM253 592l144 235q70 -33 110 -67l-181 -216q-43 18 -73 48z" />
    <glyph glyph-name="quotedblbase" unicode="&#x201e;" horiz-adv-x="458" 
d="M-59 -80l144 235q70 -33 110 -67l-181 -216q-43 18 -73 48zM134 -80l144 235q70 -33 110 -67l-181 -216q-43 18 -73 48z" />
    <glyph glyph-name="dagger" unicode="&#x2020;" horiz-adv-x="503" 
d="M548 596q-2 -60 -16 -104l-175 4l-116 -697q-62 -7 -125 2l116 695l-174 4q2 60 16 104l177 -4l35 240q65 6 124 -1l-35 -239z" />
    <glyph glyph-name="daggerdbl" unicode="&#x2021;" horiz-adv-x="503" 
d="M294 143l173 -4q0 -50 -16 -104l-176 4l-34 -240q-62 -7 -125 2l36 238l-175 4q2 61 17 104l175 -4l63 353l-174 4q2 60 16 104l177 -4l35 240q65 6 124 -1l-35 -239l173 -4q-2 -60 -16 -104l-175 4z" />
    <glyph glyph-name="bullet" unicode="&#x2022;" horiz-adv-x="348" 
d="M156 167q-134 0 -110 134q25 134 158 134q132 0 110 -134q-25 -134 -158 -134z" />
    <glyph glyph-name="ellipsis" unicode="&#x2026;" horiz-adv-x="806" 
d="M68 -10q-48 0 -66.5 23t-10.5 71q17 94 111 94q93 0 77 -94q-18 -94 -111 -94zM376 -10q-48 0 -66.5 23t-10.5 71q17 94 111 94q93 0 77 -94q-18 -94 -111 -94zM625 -10q-48 0 -66.5 23t-10.5 71q17 94 111 94q93 0 77 -94q-18 -94 -111 -94z" />
    <glyph glyph-name="perthousand" unicode="&#x2030;" horiz-adv-x="1320" 
d="M810 647l-569 -649q-53 30 -91 72l569 649q55 -33 91 -72zM281 710q81 0 120 -41.5t29 -99.5l-15 -88q-10 -57 -64 -99t-135 -42t-119.5 41.5t-29.5 99.5l15 88q10 58 64 99.5t135 41.5zM276 501l9 48q4 21 -3.5 32t-21.5 11t-24.5 -11t-14.5 -32l-9 -48q-7 -43 25 -43
q13 0 24.5 11.5t14.5 31.5zM739 361q81 0 120 -41.5t29 -99.5l-16 -88q-10 -58 -63.5 -99.5t-134.5 -41.5t-120.5 41.5t-29.5 99.5l16 88q10 58 64 99.5t135 41.5zM1137 361q81 0 119.5 -41.5t28.5 -99.5l-16 -88q-9 -57 -62.5 -99t-134.5 -42q-82 0 -121 41.5t-29 99.5
l16 88q10 58 63.5 99.5t135.5 41.5zM733 152l9 48q4 21 -3 32t-21 11t-25 -11t-15 -32l-8 -48q-4 -21 3.5 -32t21.5 -11q13 0 24 11.5t14 31.5zM1132 152l8 48q4 21 -3.5 32t-20.5 11q-14 0 -25.5 -11t-15.5 -32l-8 -48q-3 -21 4.5 -32t20.5 -11q14 0 25 11t15 32z" />
    <glyph glyph-name="guilsinglleft" unicode="&#x2039;" horiz-adv-x="390" 
d="M150 259q31 -6 46 -22l128 -144q-62 -55 -133 -98l-192 266l286 266q54 -41 98 -98l-179 -144q-20 -16 -54 -22v-4z" />
    <glyph glyph-name="guilsinglright" unicode="&#x203a;" horiz-adv-x="391" 
d="M200 527l192 -266l-286 -266q-58 43 -98 98l178 144q21 16 55 22v2l1 2q-32 6 -47 22l-128 144q65 58 133 98z" />
    <glyph glyph-name="fraction" unicode="&#x2044;" horiz-adv-x="734" 
d="M581 694l-466 -725q-59 20 -105 53l466 725q60 -21 105 -53z" />
    <glyph glyph-name="Euro" unicode="&#x20ac;" horiz-adv-x="596" 
d="M448 552q-59 0 -89.5 -29.5t-40.5 -86.5l-3 -16h160q2 -25 -9 -50h-160l-11 -60h161q1 -24 -9 -50h-161q-9 -56 12 -84t78 -28q61 0 155 49q28 -64 22 -146q-102 -61 -218 -61q-130 0 -202.5 62.5t-51.5 176.5l6 31h-83q-4 25 9 50h82l11 60h-83q-2 25 9 50h83l9 51
q20 114 114.5 176.5t223.5 62.5q118 0 196 -61q-23 -83 -73 -146q-74 49 -137 49z" />
    <glyph glyph-name="trademark" unicode="&#x2122;" horiz-adv-x="1074" 
d="M963 700q72 7 143 0l-92 -522q-77 -8 -150 0l36 206q8 30 10 34l-3 3l-109 -139q-10 -3 -39 -3q-27 0 -36 3l-60 139l-4 -3q0 -23 -3 -34l-36 -206q-76 -8 -150 0l92 522q72 8 143 0l73 -180q15 -41 13 -53h4q4 15 31 53zM516 700q-4 -58 -21 -118h-138l-71 -404
q-76 -6 -150 0l65 367q4 20 10 34l-3 3h-139q7 67 21 118h287h139z" />
    <glyph glyph-name="emptyset" unicode="&#x2205;" horiz-adv-x="621" 
d="M651 520l-85 -72q66 -74 47 -188q-22 -119 -121.5 -194.5t-229.5 -75.5q-106 0 -174 51l-90 -76q-16 15 -28 34l85 72q-66 74 -47 189q21 119 121 194.5t229 75.5q105 0 176 -52l89 76q16 -15 28 -34zM183 260q-7 -42 5 -76l221 189q-28 26 -74 26q-58 0 -99 -39.5
t-53 -99.5zM437 260q8 43 -4 75l-221 -188q29 -26 74 -26q59 0 100 39.5t51 99.5z" />
    <glyph glyph-name="product" unicode="&#x220f;" horiz-adv-x="618" 
d="M649 700l-159 -900q-69 -8 -124 0l138 785h-275l-139 -785q-69 -8 -124 0l159 900h524z" />
    <glyph glyph-name="summation" unicode="&#x2211;" horiz-adv-x="498" 
d="M-65 -178q3 55 19 104l253 285q24 27 55 48v4q-22 19 -37 48l-153 284q1 49 19 105h474q-3 -56 -21 -115h-307l-3 -5q25 -19 38 -45l144 -274l-240 -275q-29 -29 -53 -45l1 -5h306q-3 -57 -21 -114h-474z" />
    <glyph glyph-name="minus" unicode="&#x2212;" horiz-adv-x="655" 
d="M647 402q-5 -70 -24 -137h-590q5 70 24 137h590z" />
    <glyph glyph-name="infinity" unicode="&#x221e;" horiz-adv-x="736" 
d="M559 522q80 0 127.5 -60t30.5 -155t-85 -154.5t-148 -59.5q-87 0 -130 75h-5q-70 -75 -155 -75q-80 0 -127.5 59.5t-30.5 154.5t85 155t148 60q84 0 130 -75h5q71 75 155 75zM241 245q22 0 42 18t25 44t-9 44.5t-36 18.5t-41.5 -18t-24.5 -45q-4 -27 9 -44.5t35 -17.5z
M489 245q22 0 42 18t24 44q5 27 -8.5 45t-34.5 18q-22 0 -43 -18.5t-25 -44.5q-5 -25 9 -43.5t36 -18.5z" />
    <glyph glyph-name="integral" unicode="&#x222b;" horiz-adv-x="467" 
d="M34 -210q-73 0 -128 29q12 66 59 120q35 -18 63 -18q49 0 59 51l108 609q14 80 76.5 124.5t164.5 44.5q73 0 128 -29q-12 -66 -59 -120q-35 18 -63 18q-49 0 -59 -51l-108 -609q-14 -80 -76.5 -124.5t-164.5 -44.5z" />
    <glyph glyph-name="approxequal" unicode="&#x2248;" horiz-adv-x="673" 
d="M230 359q-59 0 -94 29.5t-68 101.5q44 31 91 49q20 -36 70 -36q49 0 140.5 28.5t145.5 28.5q65 0 103 -30.5t56 -100.5q-42 -32 -89 -48q-21 36 -70 36q-46 0 -140 -29t-145 -29zM190 127q-59 0 -95 30t-67 102q48 33 89 48q21 -36 72 -36q49 0 140 29t146 29
q64 0 102.5 -31t56.5 -101q-48 -33 -90 -48q-22 37 -69 37q-46 0 -140 -29.5t-145 -29.5z" />
    <glyph glyph-name="notequal" unicode="&#x2260;" horiz-adv-x="655" 
d="M644 385h-240l-66 -103h289q-6 -73 -25 -137h-352l-100 -157q-27 9 -51 26l84 131h-171q5 72 25 137h234l65 103h-282q7 79 25 137h345l91 142q17 -3 51 -26l-74 -116h177q-7 -79 -25 -137z" />
    <glyph glyph-name="lessequal" unicode="&#x2264;" horiz-adv-x="654" 
d="M706 740q-3 -63 -25 -146l-434 -153l380 -152q-7 -82 -26 -147l-549 231q3 64 24 137zM-14 0q5 69 24 136h590q-5 -69 -24 -136h-590z" />
    <glyph glyph-name="greaterequal" unicode="&#x2265;" horiz-adv-x="654" 
d="M116 740l550 -230q-4 -63 -24 -137l-631 -231q5 81 26 147l434 153l-380 152q3 63 25 146zM-14 0q5 69 24 136h590q-5 -69 -24 -136h-590z" />
    <glyph glyph-name="lozenge" unicode="&#x25ca;" horiz-adv-x="602" 
d="M393 754l226 -396l-366 -396l-226 396zM326 235l110 123l-67 123q-14 24 -14 49h-4q-8 -23 -31 -49l-110 -123l67 -123q13 -24 14 -49h4q9 26 31 49z" />
    <glyph glyph-name="i.loclTRK" horiz-adv-x="265" 
d="M191 566q-80 0 -80 71q0 117 112 117q81 0 81 -73q0 -115 -113 -115zM78 490q89 42 197 42l-93 -532q-98 -9 -190 0z" />
    <glyph glyph-name="com_o" horiz-adv-x="600" 
d="M-38 250v72q0 84 67 141.5t187 57.5v-137q-28 0 -46 -18.5t-18 -58.5v-57h-190z" />
    <glyph glyph-name="com_lacznik_b" horiz-adv-x="600" 
d="M270 395q-28 0 -59 -28v116q49 49 123 49z" />
    <glyph glyph-name="com_l" horiz-adv-x="240" 
d="M227 740v-740q-96 -9 -190 0v740q94 9 190 0z" />
    <glyph glyph-name="com_b_brzuch" horiz-adv-x="600" 
d="M-38 250v83q0 84 47 136t143 52l64 -137q-28 0 -46 -18.5t-18 -58.5v-57h-190z" />
    <glyph glyph-name="com_O" horiz-adv-x="600" 
d="M122 350v121q0 112 81 175.5t213 63.5v-158q-51 -1 -72.5 -29.5t-21.5 -87.5v-85h-200z" />
    <glyph glyph-name="com_i" horiz-adv-x="265" 
d="M78 490q89 42 197 42l-93 -532q-98 -9 -190 0z" />
    <glyph glyph-name="com_n" horiz-adv-x="605" 
d="M366 532q153 0 153 -137v-395q-94 -9 -190 0v315q0 38 -10 51t-36 13q-30 0 -67 -22v122q64 53 150 53z" />
    <glyph glyph-name="com_gora_skos" horiz-adv-x="632" 
d="M38 640v58q81 42 190 42v-100h-190z" />
    </font>
</defs>
</svg>
